<svg xmlns="http://www.w3.org/2000/svg" viewBox="0 0 53.94 90.45"><defs><style>.cls-1,.cls-3{fill:none;stroke:#1f1e21;stroke-linejoin:round;}.cls-1{stroke-linecap:round;}.cls-2{fill:#80593b;}</style></defs><title>Ресурс 1</title><g id="Слой_2" data-name="Слой 2"><g id="Layer_1" data-name="Layer 1"><line class="cls-1" x1="43.44" y1="89.55" x2="43.44" y2="36.3"/><polyline class="cls-2" points="43.47 89.83 46.38 88.09 46.38 83.79 50.39 81.98 50.39 85.78 53.72 83.5 53.72 29.77 49.8 30.59 49.8 26.49 45.38 28.63 45.38 33.38 43.19 36.7"/><path class="cls-3" d="M2.69,2.9"/><polyline class="cls-3" points="2.69 2.9 2.69 7.65 0.5 10.97"/><polygon class="cls-3" points="6.61 0.5 2.69 2.9 45.44 28.81 49.52 26.49 6.61 0.5"/><polyline class="cls-3" points="2.3 7.35 2.79 7.65 45.05 33.27"/><polyline class="cls-3" points="45.11 28.63 45.11 33.38 42.92 36.7"/><polyline class="cls-1" points="42.92 36.7 0.5 10.97 0.5 64.21 42.9 89.94"/><line class="cls-1" x1="43.17" y1="89.55" x2="43.17" y2="36.3"/><polyline class="cls-3" points="43.19 89.83 46.1 88.09 46.1 83.79 50.12 81.98 50.12 85.78 53.44 83.5 53.44 29.77 49.52 30.59 49.52 26.49"/><path class="cls-1" d="M43.67,88.59"/><path class="cls-3" d="M11,3"/><line class="cls-3" x1="53.44" y1="29.77" x2="49.87" y2="28.18"/></g></g></svg>