<svg xmlns="http://www.w3.org/2000/svg" viewBox="0 0 47.19 82.22"><defs><style>.cls-1,.cls-5{fill:#80593b;}.cls-1,.cls-2,.cls-4{stroke:#1f1e21;}.cls-1,.cls-4{stroke-miterlimit:10;}.cls-2,.cls-4{fill:none;}.cls-2{stroke-linecap:round;stroke-linejoin:round;}.cls-3{fill:#1f1e21;}</style></defs><title>Ресурс 1</title><g id="Слой_2" data-name="Слой 2"><g id="Layer_1" data-name="Layer 1"><path class="cls-1" d="M25,34.5c-4.38-4.38-7.19-8.67-6.28-9.58L6.32,37.36c-.91.91,1.9,5.2,6.28,9.58s8.67,7.19,9.58,6.28L34.62,40.78C33.71,41.7,29.42,38.88,25,34.5Z"/><polygon class="cls-2" points="42.9 81.67 0.5 55.93 0.5 2.69 43.27 28.67 42.9 81.67"/><polyline class="cls-2" points="0.56 2.59 3.93 0.5 46.69 26.48 46.33 79.48 43.03 81.72"/><line class="cls-2" x1="46.69" y1="26.48" x2="43.27" y2="28.67"/><ellipse class="cls-3" cx="20.99" cy="39.28" rx="1.4" ry="1.33" transform="translate(-21.63 26.36) rotate(-45.01)"/><path class="cls-4" d="M20.77,39.32s-13.85-5-12.1-8.87c.41-.89,2.62-2.09,5.72-1.15"/><path class="cls-5" d="M37.47,46.68A2.26,2.26,0,0,1,35.18,49a2.39,2.39,0,0,1-2.39-2.39c0-1.32,1.69-2.75,2.39-4.79a22.8,22.8,0,0,0,1,2.09C36.78,44.91,37.46,45.61,37.47,46.68Z"/><path class="cls-5" d="M34.62,40.78c.65-.65-.58-3-2.91-5.86H25.46C29.69,39.06,33.74,41.67,34.62,40.78Z"/><ellipse class="cls-4" cx="26.69" cy="32.85" rx="2.34" ry="11.22" transform="translate(-15.41 28.49) rotate(-45)"/></g></g></svg>