<svg xmlns="http://www.w3.org/2000/svg" viewBox="0 0 125.16 98.4"><defs><style>.cls-1,.cls-6{fill:none;}.cls-1{stroke:#1f1e21;stroke-linecap:round;stroke-linejoin:round;}.cls-2{fill:#736856;}.cls-3{fill:#eec982;}.cls-4{fill:#b08159;}.cls-5{fill:#80593b;}.cls-6{stroke:#eec982;stroke-miterlimit:10;}</style></defs><title>Ресурс 1</title><g id="Слой_2" data-name="Слой 2"><g id="Layer_1" data-name="Layer 1"><polygon class="cls-1" points="64.37 97.9 0.5 59.6 0.5 56.1 64.37 94.4 64.37 97.9"/><polyline class="cls-1" points="60.79 22.28 124.66 60.58 124.66 64.08"/><polygon class="cls-1" points="64.44 97.9 124.66 64.24 124.66 60.74 64.44 94.4 64.44 97.9"/><polyline class="cls-1" points="60.72 22.28 0.5 55.94 0.5 59.44"/><path class="cls-1" d="M63.58,83.15"/><polyline class="cls-2" points="119.03 46.5 60.98 11.58 6.46 42.05"/><polyline class="cls-3" points="119.03 46.5 119.27 46.65 119.27 57.6 64.39 88.23 5.89 52.93 5.89 42.37 6.46 42.05"/><polygon class="cls-4" points="60.98 0.35 5.89 31.15 5.89 41.7 6.46 42.05 64.39 77 119.03 46.5 119.27 46.37 119.27 35.42 60.98 0.35"/><polygon class="cls-5" points="64.39 72.12 124.61 38.51 124.61 38.46 124.61 38.3 124.49 38.39 60.67 0 0.55 33.6 64.39 72.12"/><line class="cls-6" x1="72.81" y1="7.09" x2="12.6" y2="40.75"/><line class="cls-6" x1="85.38" y1="14.65" x2="25.16" y2="48.31"/><line class="cls-6" x1="99.48" y1="23.09" x2="39.26" y2="56.75"/><line class="cls-6" x1="111.88" y1="30.82" x2="51.66" y2="64.48"/></g></g></svg>