<svg xmlns="http://www.w3.org/2000/svg" viewBox="0 0 69.99 98.94"><defs><style>.cls-1,.cls-3{fill:none;stroke:#1f1e21;stroke-linejoin:round;}.cls-2{fill:#80593b;}.cls-3{stroke-linecap:round;}</style></defs><title>Ресурс 1</title><g id="Слой_2" data-name="Слой 2"><g id="Layer_1" data-name="Layer 1"><path class="cls-1" d="M2.69,11.4"/><polyline class="cls-1" points="2.69 11.39 2.69 16.15 0.5 19.47"/><polyline class="cls-2" points="43.44 98.33 47.45 96.26 47.45 91.97 51.77 90.03 51.77 93.83 62.2 87.73 62.2 83.73 66.26 81.98 66.26 85.51 69.74 83.66 69.74 30.15 65.79 30 65.79 26.28 61.73 28.03 61.73 32.33 49.77 39.09 49.77 34.98 45.36 37.13 45.36 41.88 43.17 45.2"/><polygon class="cls-1" points="6.61 9 2.69 11.39 45.44 37.31 49.52 34.98 6.61 9"/><polygon class="cls-1" points="23.21 0.5 19.38 2.69 61.63 28.36 65.62 26.24 23.21 0.5"/><polyline class="cls-1" points="2.3 15.85 2.79 16.15 45.05 41.76"/><line class="cls-1" x1="18.91" y1="6.49" x2="61.17" y2="32.11"/><polyline class="cls-1" points="45.11 37.13 45.11 41.88 42.91 45.2"/><polyline class="cls-1" points="61.48 28.03 61.48 32.33 49.52 39.09 49.52 34.98"/><polyline class="cls-3" points="43.27 45.44 0.5 19.47 0.5 72.71 42.9 98.44"/><line class="cls-3" x1="43.17" y1="98.04" x2="43.17" y2="44.8"/><polyline class="cls-1" points="43.19 98.33 47.2 96.26 47.2 91.97 51.52 90.03 51.52 93.83 61.95 87.73 61.95 83.73 66.01 81.98 66.01 85.51 69.49 83.66 69.49 30.15 65.54 30 65.54 26.28"/><polyline class="cls-1" points="19.4 2.83 19.4 6.79 11.35 11.56"/></g></g></svg>