<svg xmlns="http://www.w3.org/2000/svg" xmlns:xlink="http://www.w3.org/1999/xlink" viewBox="0 0 82.55 106.52"><defs><style>.cls-1,.cls-3,.cls-8,.cls-9{fill:none;}.cls-2{clip-path:url(#clip-path);}.cls-3{stroke:#1f1e21;}.cls-3,.cls-9{stroke-linecap:round;stroke-linejoin:round;}.cls-4{fill:#736856;}.cls-5{fill:#eec982;}.cls-6{fill:#b08159;}.cls-7{fill:#80593b;}.cls-8,.cls-9{stroke:#eec982;}.cls-8{stroke-miterlimit:10;}.cls-9{stroke-width:0;}</style><clipPath id="clip-path"><polygon class="cls-1" points="81.14 52.61 42.02 74.52 7.14 55.09 0.71 58.02 0.5 80.86 42.45 106.02 82.05 83.8 81.14 52.61"/></clipPath></defs><title>Ресурс 1</title><g id="Слой_2" data-name="Слой 2"><g id="Layer_1" data-name="Layer 1"><g class="cls-2"><polygon class="cls-3" points="42.45 106.02 0.5 80.86 0.5 78.56 42.45 103.72 42.45 106.02"/><polyline class="cls-3" points="40.1 56.34 82.05 81.5 82.05 83.8"/><polygon class="cls-3" points="42.5 106.02 82.05 83.91 82.05 81.61 42.5 103.72 42.5 106.02"/><polyline class="cls-3" points="40.05 56.34 0.5 78.45 0.5 80.75"/><path class="cls-3" d="M41.93,96.33"/><polyline class="cls-4" points="78.36 72.25 40.22 49.32 4.42 69.33"/><polyline class="cls-5" points="78.36 72.25 78.51 72.35 78.51 79.54 42.47 99.66 4.04 76.47 4.04 69.54 4.42 69.33"/><polygon class="cls-6" points="40.22 41.94 4.04 62.17 4.04 69.1 4.42 69.33 42.47 92.29 78.36 72.25 78.51 72.17 78.51 64.98 40.22 41.94"/><polygon class="cls-7" points="42.47 89.08 82.02 67.01 82.02 66.97 82.02 66.86 81.94 66.93 40.02 41.71 0.53 63.78 42.47 89.08"/><line class="cls-8" x1="48" y1="46.37" x2="8.44" y2="68.47"/><line class="cls-8" x1="56.25" y1="51.33" x2="16.7" y2="73.44"/><line class="cls-8" x1="65.51" y1="56.88" x2="25.96" y2="78.98"/><line class="cls-8" x1="73.66" y1="61.95" x2="34.1" y2="84.06"/></g><polygon class="cls-3" points="42.13 74.14 3.22 50.81 22.84 16.11 61.75 39.44 42.13 74.14"/><polyline class="cls-3" points="42.17 74.14 78.85 53.64 61.75 39.44"/><polygon class="cls-5" points="0.71 37.14 3.15 43.1 42.06 66.42 61.68 31.73 59.24 25.77 0.71 37.14"/><path class="cls-3" d="M41.49,60.28"/><polyline class="cls-9" points="5.05 39.74 22.78 8.4 57.34 29.13"/><polygon class="cls-6" points="20.33 2.44 0.71 37.14 5.05 39.74 39.61 60.47 57.34 29.13 59.24 25.77 20.33 2.44"/><polygon class="cls-7" points="39.16 58.02 0.25 34.7 19.88 0 58.78 23.33 39.16 58.02"/><line class="cls-8" x1="27.42" y1="4.36" x2="7.14" y2="38.91"/><line class="cls-8" x1="35.07" y1="8.96" x2="14.79" y2="43.52"/><line class="cls-8" x1="43.66" y1="14.1" x2="23.38" y2="48.66"/><line class="cls-8" x1="51.21" y1="18.81" x2="30.93" y2="53.36"/></g></g></svg>