<svg xmlns="http://www.w3.org/2000/svg" viewBox="0 0 124.07 117.07"><defs><style>.cls-1,.cls-3,.cls-6{fill:none;}.cls-1{stroke:#1f1e21;}.cls-1,.cls-3{stroke-linecap:round;stroke-linejoin:round;}.cls-2{fill:#eec982;}.cls-3,.cls-6{stroke:#eec982;}.cls-3{stroke-width:0;}.cls-4{fill:#b08159;}.cls-5{fill:#80593b;}.cls-6{stroke-miterlimit:10;}</style></defs><title>Ресурс 1</title><g id="Слой_2" data-name="Слой 2"><g id="Layer_1" data-name="Layer 1"><polygon class="cls-1" points="65.84 116.57 4.67 79.89 35.52 25.33 96.69 62.01 65.84 116.57"/><polyline class="cls-1" points="65.91 116.57 123.57 84.33 96.69 62.01"/><polygon class="cls-2" points="0.72 58.4 4.56 67.76 65.73 104.44 96.58 49.88 92.74 40.52 0.72 58.4"/><path class="cls-1" d="M64.83,94.78"/><polyline class="cls-3" points="7.54 62.49 35.41 13.21 89.76 45.79"/><polygon class="cls-4" points="31.57 3.84 0.72 58.4 7.54 62.49 61.89 95.08 89.76 45.79 92.74 40.52 31.57 3.84"/><polygon class="cls-5" points="61.17 91.23 0 54.56 30.85 0 92.02 36.68 61.17 91.23"/><line class="cls-6" x1="42.71" y1="6.85" x2="10.82" y2="61.18"/><line class="cls-6" x1="54.75" y1="14.09" x2="22.86" y2="68.42"/><line class="cls-6" x1="68.25" y1="22.17" x2="36.36" y2="76.5"/><line class="cls-6" x1="80.13" y1="29.58" x2="48.24" y2="83.91"/></g></g></svg>