<svg xmlns="http://www.w3.org/2000/svg" viewBox="0 0 118.5 80.74"><defs><style>.cls-1,.cls-4{fill:none;}.cls-1,.cls-2,.cls-3,.cls-4{stroke:#1f1e21;}.cls-1{stroke-linecap:round;stroke-linejoin:round;}.cls-2{fill:#eec982;}.cls-2,.cls-3,.cls-4{stroke-miterlimit:10;}.cls-3{fill:#80593b;}</style></defs><title>Ресурс 1</title><g id="Слой_2" data-name="Слой 2"><g id="Layer_1" data-name="Layer 1"><polygon class="cls-1" points="64.71 80.24 0.84 41.94 0.84 30.44 64.71 68.74 64.71 80.24"/><polygon class="cls-1" points="118 50.44 54.13 12.14 54.13 0.65 118 38.94 118 50.44"/><polygon class="cls-1" points="92 64.94 28.13 26.64 28.13 15.14 92 53.44 92 64.94"/><polygon class="cls-2" points="58.57 64.99 111.94 35.49 98.82 27.38 45.32 56.96 58.57 64.99"/><path class="cls-3" d="M102.86,30.12l.39.08L54.24.58,1,30.44,49.76,59.77l.18-.23s3.92-7.27,11.81-9.89,10.91-1.11,16.66-4.75,6.09-8.72,12.1-12.47c8.39-5.24,13.84-1.54,13.84-1.54Z"/><path class="cls-4" d="M17.53,40.33l.17-.23s3.92-7.27,11.81-9.89,10.91-1.11,16.66-4.75S52.27,16.75,58.27,13c8.39-5.24,13.84-1.54,13.84-1.54l-1.48-.79.39.08"/><path class="cls-4" d="M33.69,50.13l.17-.23S37.79,42.63,45.68,40s10.91-1.11,16.66-4.75,6.09-8.72,12.1-12.47c8.39-5.24,13.84-1.54,13.84-1.54l-1.48-.79.39.08"/></g></g></svg>