<svg xmlns="http://www.w3.org/2000/svg" xmlns:xlink="http://www.w3.org/1999/xlink" viewBox="0 0 87.9 88.65"><defs><style>.cls-1,.cls-4,.cls-5{fill:none;}.cls-2{clip-path:url(#clip-path);}.cls-3{fill:#eec982;}.cls-4{stroke:#80593b;stroke-miterlimit:10;}.cls-5{stroke:#1f1e21;stroke-linecap:round;stroke-linejoin:round;}</style><clipPath id="clip-path"><polygon class="cls-1" points="12.87 45.26 0.5 53.14 0.5 61.35 45.2 88.15 75.18 72.16 87.4 64.48 87.4 56.43 76.05 47.23 44.76 64.36 13.95 46.02 12.87 45.26"/></clipPath></defs><title>Ресурс 1</title><g id="Слой_2" data-name="Слой 2"><g id="Layer_1" data-name="Layer 1"><g class="cls-2"><polygon class="cls-3" points="45.18 80.1 87.33 56.58 87.33 56.54 87.33 56.43 87.24 56.49 42.58 29.62 0.5 53.14 45.18 80.1"/><line class="cls-4" x1="51.08" y1="34.58" x2="8.93" y2="58.14"/><line class="cls-4" x1="59.87" y1="39.88" x2="17.73" y2="63.44"/><line class="cls-4" x1="69.74" y1="45.78" x2="27.59" y2="69.34"/><line class="cls-4" x1="78.42" y1="51.19" x2="36.27" y2="74.75"/><polygon class="cls-5" points="45.2 88.15 0.5 61.35 0.5 53.3 45.2 80.1 45.2 88.15"/><polyline class="cls-5" points="42.69 29.62 87.4 56.43 87.4 64.48"/><polygon class="cls-5" points="45.25 88.15 87.4 64.59 87.4 56.54 45.25 80.1 45.25 88.15"/><polyline class="cls-5" points="42.64 29.62 0.5 53.18 0.5 61.23"/><path class="cls-5" d="M44.47,72.23"/></g><polygon class="cls-3" points="44.71 64.36 1.9 38.68 23.49 0.5 66.3 26.17 44.71 64.36"/><line class="cls-4" x1="31.8" y1="5.29" x2="9.48" y2="43.32"/><line class="cls-4" x1="40.22" y1="10.36" x2="17.9" y2="48.39"/><line class="cls-4" x1="49.67" y1="16.02" x2="27.35" y2="54.04"/><line class="cls-4" x1="57.98" y1="21.2" x2="35.66" y2="59.22"/><polygon class="cls-5" points="44.71 64.36 1.9 38.68 23.49 0.5 66.3 26.17 44.71 64.36"/><polyline class="cls-5" points="77.44 46.19 44.76 64.36 85.12 41.79 66.3 26.17"/><path class="cls-5" d="M44,49.11"/></g></g></svg>