<svg xmlns="http://www.w3.org/2000/svg" xmlns:xlink="http://www.w3.org/1999/xlink" viewBox="0 0 69.3 82.22"><defs><style>.cls-1,.cls-5,.cls-7{fill:none;}.cls-2{clip-path:url(#clip-path);}.cls-3,.cls-6{fill:#80593b;}.cls-3,.cls-5,.cls-7{stroke:#1f1e21;}.cls-3,.cls-5{stroke-miterlimit:10;}.cls-4{fill:#1f1e21;}.cls-7{stroke-linecap:round;stroke-linejoin:round;}</style><clipPath id="clip-path"><rect class="cls-1" x="46.27" y="20.26" width="25.53" height="43.13"/></clipPath></defs><title>Ресурс 1</title><g id="Слой_2" data-name="Слой 2"><g id="Layer_1" data-name="Layer 1"><g class="cls-2"><path class="cls-3" d="M56.86,34.5c-4.38-4.38-7.19-8.67-6.28-9.58L38.14,37.36c-.91.91,1.9,5.2,6.28,9.58s8.67,7.19,9.58,6.28L66.44,40.78C65.53,41.7,61.24,38.88,56.86,34.5Z"/><ellipse class="cls-4" cx="52.82" cy="39.28" rx="1.4" ry="1.33" transform="translate(-12.3 48.87) rotate(-45.02)"/><path class="cls-5" d="M52.6,39.32s-13.85-5-12.1-8.87c.41-.89,2.62-2.09,5.72-1.15"/><path class="cls-6" d="M69.3,46.68A2.26,2.26,0,0,1,67,49a2.39,2.39,0,0,1-2.39-2.39c0-1.32,1.69-2.75,2.39-4.79a22.83,22.83,0,0,0,1,2.09C68.6,44.91,69.29,45.61,69.3,46.68Z"/><path class="cls-6" d="M66.44,40.78c.65-.65-.58-3-2.91-5.86H57.28C61.51,39.06,65.56,41.67,66.44,40.78Z"/><ellipse class="cls-5" cx="58.51" cy="32.85" rx="2.34" ry="11.22" transform="translate(-6.09 51) rotate(-45)"/></g><path class="cls-3" d="M25,34.5c-4.38-4.38-7.19-8.67-6.28-9.58L6.32,37.36c-.91.91,1.9,5.2,6.28,9.58s8.67,7.19,9.58,6.28L34.62,40.78C33.71,41.7,29.42,38.88,25,34.5Z"/><polygon class="cls-7" points="42.9 81.67 0.5 55.93 0.5 2.69 43.27 28.67 42.9 81.67"/><polyline class="cls-7" points="0.56 2.59 3.93 0.5 46.69 26.48 46.33 79.48 43.03 81.72"/><line class="cls-7" x1="46.69" y1="26.48" x2="43.27" y2="28.67"/><ellipse class="cls-4" cx="20.99" cy="39.28" rx="1.4" ry="1.33" transform="translate(-21.63 26.36) rotate(-45.02)"/><path class="cls-5" d="M20.77,39.32s-13.85-5-12.1-8.87c.41-.89,2.62-2.09,5.72-1.15"/><path class="cls-6" d="M37.47,46.68A2.26,2.26,0,0,1,35.18,49a2.39,2.39,0,0,1-2.39-2.39c0-1.32,1.69-2.75,2.39-4.79a22.8,22.8,0,0,0,1,2.09C36.78,44.91,37.46,45.61,37.47,46.68Z"/><path class="cls-6" d="M34.62,40.78c.65-.65-.58-3-2.91-5.86H25.46C29.69,39.06,33.74,41.67,34.62,40.78Z"/><ellipse class="cls-5" cx="26.69" cy="32.85" rx="2.34" ry="11.22" transform="translate(-15.41 28.49) rotate(-45)"/></g></g></svg>