<svg xmlns="http://www.w3.org/2000/svg" width="300.219" height="177.125" viewBox="0 0 300.219 177.125">
  <metadata><?xpacket begin="﻿" id="W5M0MpCehiHzreSzNTczkc9d"?>
<x:xmpmeta xmlns:x="adobe:ns:meta/" x:xmptk="Adobe XMP Core 5.6-c138 79.159824, 2016/09/14-01:09:01        ">
   <rdf:RDF xmlns:rdf="http://www.w3.org/1999/02/22-rdf-syntax-ns#">
      <rdf:Description rdf:about=""/>
   </rdf:RDF>
</x:xmpmeta>
                                                                                                    
                                                                                                    
                                                                                                    
                                                                                                    
                                                                                                    
                                                                                                    
                                                                                                    
                                                                                                    
                                                                                                    
                                                                                                    
                                                                                                    
                                                                                                    
                                                                                                    
                                                                                                    
                                                                                                    
                                                                                                    
                                                                                                    
                                                                                                    
                                                                                                    
                                                                                                    
                           
<?xpacket end="w"?></metadata>
<defs>
    <style>
      .cls-1 {
        fill: #9a084e;
        fill-rule: evenodd;
      }
    </style>
  </defs>
  <path id="Фигура_1" data-name="Фигура 1" class="cls-1" d="M323,195c-7.5,10.25-18.5,23.25-21,10-13.5,10.75-28,13.5-22-9-7.25,9.5-20,21-19,2-5.75,7-16,20.5-18,1-18.5,27.25-32.5,5.5-24-4-3-1.25,0,.5-3-1-9.25,13.75-25.75,24.75-28,7-22.25,25-29.75.25-23-10-3.25-1.25-14,4-14,4s-0.5,0-3,8c-1.25,11.5-9.25,9.75-5,1-21.75,17.75-20-9-20-9l-1,2-2,2-1,2-2,3-2,2-4,3-2,1-3,1-1-1-1-1-2-2v-3l1-2,1-5,2-4,2-3,2-3,3-4,3-3,3-3,3-2,2-1h5l3,1,3,2v2l-2,2-1,3a16.866,16.866,0,0,0-1,3,16.866,16.866,0,0,1-1,3v14l2,2,3,1,2-1,4-3,3-4,1-2,1-2,1-3,1-4,1-3,1-3,1-3,1-1,1-1h2l1,1-1,2-2,7-1,5,14-4,1-3,2-4,2-3,2-1,3,2a92.137,92.137,0,0,1-5,12c-10.313,31.187,14,9,14,9l3-4,3-4h3l1,1,1,2-2,5v6l1,2h4l2-2,3-2,7-8a7.777,7.777,0,0,1,0-2c-8,.625-11.875-4-12-9,0-9.688,14.937-13.688,17-12a1.686,1.686,0,0,0,1,1l3,4,1,4-1,4v2l-2,3v1h2l1-2,1-2,2-1,3,2v1.973c-0.106.183-.65,1.243-3,6.027-8,17.687,10.5,13.437,21-4,1.819-3.544,2.037-4.026,2.03-4.042L252,182a4.38,4.38,0,0,1,3,0,14.865,14.865,0,0,1,1,2c-10.5,13.937-7,18-7,18l2,2,3-1,3-3,3-4,2-4,2-2,1-3,4-5h2l2,1s-2.625,3.5-6,12c-4.563,16.437,7.687,6.812,11-1,9-13.25,12-18,12-18l4,3s-4.937,9.687-8,15c-8.063,28.125,11,12.937,20,0,15.312-32.188,31.5-16.188,29-16-3,.625-6.5,10.687-5,20-0.75,22.25,16.75-3.75,19-5,1.25,1.75,0,0,1,1C344.25,205.75,323.25,223,323,195Zm-212-3c-12,25.6,6.4,10,10,3,3.8-8.2,5.6-10.8,7-16C124.2,178.6,120.8,178.4,111,192Zm105-13c-1.571-1.714-7.857-2-10,1s2,10.857,7,11C215.286,191.143,218.714,180.857,216,179Zm94,15c-9.429,23,7.714,6.571,10,2s7.571-12.714,8-17C325.429,176.286,313.857,185.429,310,194Zm-83-3v-0.027C227.052,190.883,227,191,227,191Zm20.03-2.042L247,189A0.174,0.174,0,0,1,247.03,188.958ZM104,122.112c-10.343-16.068-16.357-12.561-14.577-7.318-5.909-6.567,1.427-9.826,5.758-7.409C98.963,109.332,106.079,119.841,104,122.112Zm-2.009-20.478C90.648,84.012,84.052,87.858,86,93.608c-6.481-7.2,1.565-10.777,6.315-8.126C96.466,87.617,104.271,99.143,101.991,101.634ZM85.436,58.919c5.308,2.733,15.3,17.485,12.379,20.673C83.3,57.038,74.855,61.961,77.354,69.32,69.059,60.1,79.357,55.527,85.436,58.919ZM199,117c8.8,6.4,7,13.4-22,19-4.8,22.8-57.6,13-62,3-10.2,14.4-18.2,71.4-29,71,1.8-2.6,18.6-61.6,25-72-50,.6-63-39.2-45-39-4.2-3-31-32-5-33-3.2-2.8-10-23.4,5-30,23.2-1.6,50.8,34.6,55,45,4,9,5,28,5,28s-1,5.6-2,0c3.4-12.6-9-39.4-27-54C72.6,30.4,48,36.4,67,70c-1,2.8.8,0-1,3-24.6-12.4-9.2,18.4,10,29-1.6,1.6,0,.4-2,2-31-9.8-2.4,36.4,39,29,2.8-12,25.4-45,55-51C218.8,70.2,252.6,112.2,199,117ZM186,84c-29.4,1.2-30.4,7-35,9-6.2,2.4-13,10-13,10l-7,7-6,8-4,6-3,8-2,3,1,2,6,4,5,2,6,2,7,1,8,1h5l5-1,7-2,5-3,2-2v-2l-1-2-2-2-2-2,2-2c-2.6,6,52.8.6,18-13,0.8-2.6,0,0,1-3C223.6,119.6,244.6,88.2,186,84Zm-3,22c5.8-5.2.8-13.6-23-1-1-4.2,15-12.2,21-12C188,93,194.8,102,183,106Zm-17.537,13.479c4.532-4.063.625-10.626-17.97-.782-0.781-3.281,11.72-9.532,16.408-9.376C169.37,109.321,174.683,116.353,165.463,119.479ZM154.53,131.926c4.132-3.7.57-9.689-16.386-.712-0.712-2.992,10.686-8.692,14.961-8.549C158.092,122.665,162.936,129.076,154.53,131.926Z" transform="translate(-49.781 -35.938)"/>
</svg>
