<svg id="лого" xmlns="http://www.w3.org/2000/svg" width="266" height="160" viewBox="0 0 266 160">
  <metadata><?xpacket begin="﻿" id="W5M0MpCehiHzreSzNTczkc9d"?>
<x:xmpmeta xmlns:x="adobe:ns:meta/" x:xmptk="Adobe XMP Core 5.6-c138 79.159824, 2016/09/14-01:09:01        ">
   <rdf:RDF xmlns:rdf="http://www.w3.org/1999/02/22-rdf-syntax-ns#">
      <rdf:Description rdf:about=""/>
   </rdf:RDF>
</x:xmpmeta>
                                                                                                    
                                                                                                    
                                                                                                    
                                                                                                    
                                                                                                    
                                                                                                    
                                                                                                    
                                                                                                    
                                                                                                    
                                                                                                    
                                                                                                    
                                                                                                    
                                                                                                    
                                                                                                    
                                                                                                    
                                                                                                    
                                                                                                    
                                                                                                    
                                                                                                    
                                                                                                    
                           
<?xpacket end="w"?></metadata>
<defs>
    <style>
      .cls-1 {
        fill: #fff;
      }

      .cls-1, .cls-2, .cls-3, .cls-4 {
        fill-rule: evenodd;
      }

      .cls-2 {
        fill: #fff;
      }

      .cls-3 {
        fill: #fff;
      }

      .cls-4 {
        fill: #fff;
      }
    </style>
  </defs>
  <path id="Фигура_1" data-name="Фигура 1" class="cls-1" d="M61,156c-1.625-74.609,74-93.5,94-90,5.25-24,.75-3.5,6-28C55.5,31.75,40.5,129,61,156Z"/>
  <path id="Фигура_1_копия" data-name="Фигура 1 копия" class="cls-2" d="M55.462,157.957C27.387,89.52,87.84,41.877,106.389,38.628c-5.93-25.415-.91-4.768-6.284-27.144C4.633,44.981,26.122,140.975,55.462,157.957Z"/>
  <path id="Фигура_1_копия_2" data-name="Фигура 1 копия 2" class="cls-3" d="M43.984,153.492C-1.042,97.1,42.626,36.293,60.852,24.389,49.335,2.166,58.306,19.613,47.73.372-35.586,63.914,10.905,146.072,43.984,153.492Z"/>
  <path id="_2017" data-name="2017" class="cls-1" d="M141.99,129.113H123.21v-0.341q8.252-7.434,10.782-10.095a33.886,33.886,0,0,0,4.058-5.065,18.254,18.254,0,0,0,2.989-10.317,12.534,12.534,0,0,0-2.089-7.078,13.489,13.489,0,0,0-5.875-4.86,20.755,20.755,0,0,0-8.609-1.705,27.984,27.984,0,0,0-6.91.784,22.99,22.99,0,0,0-5.688,2.268,39.731,39.731,0,0,0-6.453,4.928l7.369,8.663a33.968,33.968,0,0,1,5.417-3.973,9.607,9.607,0,0,1,4.737-1.348,5.109,5.109,0,0,1,3.532,1.126,3.913,3.913,0,0,1,1.257,3.069,7.391,7.391,0,0,1-.629,3,16.36,16.36,0,0,1-2.224,3.428q-1.6,2-6.792,7.452l-12.123,12.312v8.868H141.99V129.113Zm36.421-33q-4.533-6.463-13.4-6.463-9.1,0-13.516,6.207t-4.415,19.509q0,12.689,4.517,19.117t13.414,6.429q9.1,0,13.516-6.156t4.415-19.39Q182.945,102.579,178.411,96.115Zm-16.929,7.521q1.053-3.206,3.532-3.206t3.532,3.325q1.052,3.326,1.053,11.613,0,8.255-1.036,11.529t-3.549,3.274q-2.48,0-3.532-3.172t-1.053-11.631Q160.429,106.842,161.482,103.636Zm55.9-13.268H205.29l-17.048,13.95,6.962,8.595,5.637-4.673a29.148,29.148,0,0,0,3.124-3.206q-0.2,3.99-.2,8.8v26.4h13.617V90.368Zm29.749,49.864,17.489-41.849V90.436H228.79v11.153h21.5l-17.048,38.643h13.89Z"/>
  <path id="выбор_" data-name="выбор " class="cls-4" d="M104.97,157.365h3.8a4.356,4.356,0,0,0,2.72-.768,2.5,2.5,0,0,0,1-2.1,2.436,2.436,0,0,0-.407-1.461,2.268,2.268,0,0,0-1.314-.805v-0.067a1.868,1.868,0,0,0,1.107-.75,2.346,2.346,0,0,0,.421-1.408,2.014,2.014,0,0,0-.965-1.846,5.768,5.768,0,0,0-2.952-.593h-3.4v9.8Zm2.635-7.794h0.741q1.24,0,1.241.824a0.818,0.818,0,0,1-.31.7,1.426,1.426,0,0,1-.878.235h-0.794v-1.756Zm0.875,3.692a1.515,1.515,0,0,1,.957.262,0.9,0.9,0,0,1,.33.75,1.016,1.016,0,0,1-1.234,1.046h-0.928v-2.058h0.875Zm11.593-1.437a5.274,5.274,0,0,0-3.113-.774h-0.133v-3.485h-2.649v9.8h2.883a4.766,4.766,0,0,0,3.019-.841,2.892,2.892,0,0,0,1.064-2.409A2.643,2.643,0,0,0,120.073,151.826Zm-3.246,1.23h0.093q1.561,0,1.562,1.112,0,1.154-1.548,1.153h-0.107v-2.265Zm7.86-5.489h-2.655v9.8h2.655v-9.8Zm8.248,4.366a5.42,5.42,0,0,0-3.116-.747h-0.381v-1.494h3.77v-2.125h-6.419v9.8h3.13a4.841,4.841,0,0,0,3.032-.821A2.818,2.818,0,0,0,134,154.182,2.564,2.564,0,0,0,132.935,151.933Zm-3.5,1.257h0.341a2.168,2.168,0,0,1,1.177.254,0.883,0.883,0,0,1,.384.791,0.956,0.956,0,0,1-.36.811,2,2,0,0,1-1.188.275h-0.354V153.19Zm14.12-4.5a5.5,5.5,0,0,0-7.07.01,6.37,6.37,0,0,0,.007,7.5,5.468,5.468,0,0,0,7.056.007A6.469,6.469,0,0,0,143.558,148.693Zm-3.53.891a1.67,1.67,0,0,1,1.464.7,5.027,5.027,0,0,1,.007,4.319,1.69,1.69,0,0,1-1.485.69q-1.968,0-1.968-2.841,0-2.87,1.982-2.869h0Zm12.644-1.206a4.111,4.111,0,0,0-2.776-.811H146.52v9.8h2.636v-3.25h0.74a3.883,3.883,0,0,0,2.74-.9,3.293,3.293,0,0,0,.964-2.537A2.9,2.9,0,0,0,152.672,148.378Zm-3.516,1.327h0.68a0.925,0.925,0,0,1,1.095.992,1.219,1.219,0,0,1-.351.925,1.309,1.309,0,0,1-.944.335h-0.48v-2.252Z"/>
  <path id="_подмосковья" data-name=" подмосковья" class="cls-1" d="M166.333,147.567h-7.5v9.8h1.595v-8.424h4.3v8.424h1.6v-9.8Zm10.043,1.166a4.291,4.291,0,0,0-3.363-1.32,4.377,4.377,0,0,0-3.4,1.3,5.325,5.325,0,0,0-1.191,3.726,5.41,5.41,0,0,0,1.184,3.743,4.99,4.99,0,0,0,6.766-.01A6.412,6.412,0,0,0,176.376,148.733Zm-5.529.985a2.584,2.584,0,0,1,2.166-.931,2.53,2.53,0,0,1,2.138.931,5.587,5.587,0,0,1-.007,5.489,2.95,2.95,0,0,1-4.3-.01A5.515,5.515,0,0,1,170.847,149.718Zm7.33,10.348h1.535v-2.7h6.446v2.7h1.534v-4.075h-1.261v-8.424h-5.038a22.123,22.123,0,0,1-.84,4.437,20.425,20.425,0,0,1-1.622,3.987h-0.754v4.075Zm6.659-11.112v7.037h-4.223a20.991,20.991,0,0,0,1.368-3.508,18.9,18.9,0,0,0,.747-3.529h2.108Zm10.056,8.411,2.929-8.169h0.054q-0.027.247-.064,1.42t-0.036,1.9v4.845h1.534v-9.8h-2.255l-2.789,7.794h-0.04l-2.709-7.794h-2.249v9.8h1.448V152.6q0-1.594-.113-3.418h0.053l2.829,8.183h1.408Zm14.46-8.632a4.291,4.291,0,0,0-3.363-1.32,4.377,4.377,0,0,0-3.4,1.3,5.325,5.325,0,0,0-1.191,3.726,5.41,5.41,0,0,0,1.184,3.743,4.99,4.99,0,0,0,6.766-.01A6.412,6.412,0,0,0,209.352,148.733Zm-5.529.985a2.586,2.586,0,0,1,2.166-.931,2.53,2.53,0,0,1,2.138.931,5.584,5.584,0,0,1-.006,5.489,2.951,2.951,0,0,1-4.3-.01A5.515,5.515,0,0,1,203.823,149.718Zm14.12-.74a8.525,8.525,0,0,1,1.044.412l0.574-1.334a6.121,6.121,0,0,0-2.763-.63,4.863,4.863,0,0,0-2.475.61,3.994,3.994,0,0,0-1.612,1.756,6.054,6.054,0,0,0-.557,2.674A5.469,5.469,0,0,0,213.3,156.2a4.151,4.151,0,0,0,3.29,1.3,7.281,7.281,0,0,0,2.6-.436v-1.374q-0.627.195-1.208,0.319a5.777,5.777,0,0,1-1.2.124,2.672,2.672,0,0,1-2.192-.925,5.156,5.156,0,0,1,.03-5.428,2.623,2.623,0,0,1,2.162-.979A3.731,3.731,0,0,1,217.943,148.978Zm6.709,3.32,3.937-4.731h-1.748l-3.951,4.745v-4.745H221.3v9.8h1.594V152.4l4.017,4.966h1.875Zm12.618-3.565a4.291,4.291,0,0,0-3.363-1.32,4.379,4.379,0,0,0-3.4,1.3,5.325,5.325,0,0,0-1.191,3.726,5.406,5.406,0,0,0,1.185,3.743,4.99,4.99,0,0,0,6.766-.01A6.41,6.41,0,0,0,237.27,148.733Zm-5.528.985a2.582,2.582,0,0,1,2.165-.931,2.533,2.533,0,0,1,2.139.931,5.587,5.587,0,0,1-.007,5.489,2.951,2.951,0,0,1-4.3-.01A5.512,5.512,0,0,1,231.742,149.718Zm8.811,7.647h3.523a3.933,3.933,0,0,0,2.552-.747,2.522,2.522,0,0,0,.918-2.068,2.325,2.325,0,0,0-.484-1.551,2.517,2.517,0,0,0-1.511-.768v-0.067a1.963,1.963,0,0,0,1.267-.717,2.259,2.259,0,0,0,.441-1.427,2.066,2.066,0,0,0-.9-1.863,5.476,5.476,0,0,0-2.912-.59h-2.9v9.8Zm1.595-8.458h1.381a3.085,3.085,0,0,1,1.578.309,1.085,1.085,0,0,1,.5,1,1.223,1.223,0,0,1-.46,1.083,2.622,2.622,0,0,1-1.462.318h-1.534v-2.708Zm1.614,4.008a2.747,2.747,0,0,1,1.582.369,1.292,1.292,0,0,1,.52,1.132,1.424,1.424,0,0,1-.51,1.216,2.484,2.484,0,0,1-1.511.386h-1.695v-3.1h1.614Zm11.627-.627a4.663,4.663,0,0,0-2.839-.74h-1.381v-3.981h-1.595v9.8h3.043a4.452,4.452,0,0,0,2.792-.754,2.619,2.619,0,0,0,.965-2.195A2.5,2.5,0,0,0,255.389,152.288Zm-4.22.6h1.161a3.481,3.481,0,0,1,1.855.369,1.293,1.293,0,0,1,.554,1.159,1.355,1.355,0,0,1-.577,1.223,3.007,3.007,0,0,1-1.652.379h-1.341v-3.13Zm11.864,0.55v3.927h1.6v-9.8h-2.929a4.439,4.439,0,0,0-2.729.71,2.437,2.437,0,0,0-.927,2.058,2.624,2.624,0,0,0,1.868,2.734l-2.749,4.3h1.821l2.416-3.927h1.628Zm0-1.327h-1.214a2.457,2.457,0,0,1-1.615-.443,1.529,1.529,0,0,1-.521-1.233,1.3,1.3,0,0,1,.537-1.169,2.779,2.779,0,0,1,1.545-.359h1.268v3.2Z"/>
</svg>
