<svg xmlns="http://www.w3.org/2000/svg" viewBox="0 0 109.66 109.66"><defs><style>.cls-1,.cls-2{fill:#393939;}.cls-2{fill-rule:evenodd;}</style></defs><title>Ресурс 1</title><g id="Слой_2" data-name="Слой 2"><g id="objects"><path class="cls-1" d="M54.83,8A46.83,46.83,0,1,1,8,54.83,46.89,46.89,0,0,1,54.83,8m0-8a54.83,54.83,0,1,0,54.83,54.83A54.83,54.83,0,0,0,54.83,0Z"/><path class="cls-2" d="M87.61,41.69a9.8,9.8,0,0,0-9.8-9.8h-46a9.8,9.8,0,0,0-9.8,9.8V68a9.8,9.8,0,0,0,9.8,9.8h46a9.8,9.8,0,0,0,9.8-9.8ZM48.28,65.92V41.24L67,53.58Zm0,0"/></g></g></svg>