<svg xmlns="http://www.w3.org/2000/svg" xmlns:xlink="http://www.w3.org/1999/xlink" viewBox="0 0 43.64 43.64"><defs><style>.cls-1,.cls-3{fill:none;}.cls-2{clip-path:url(#clip-path);}.cls-3{stroke:#010101;stroke-miterlimit:10;stroke-width:3.64px;}.cls-4{clip-path:url(#clip-path-2);}.cls-5{fill:#010101;}</style><clipPath id="clip-path"><path class="cls-1" d="M1.82,21.82a20,20,0,1,0,20-20,20,20,0,0,0-20,20"/></clipPath><clipPath id="clip-path-2"><path class="cls-1" d="M27.29,19.19v2.52h-2.5v2h2.5v2.52h2V23.74h2.5v-2h-2.5V19.19Zm-13.17,10c0-1.85,2.21-3.39,4.68-3.37a5.35,5.35,0,0,1,1.6.26c1.34.94,2.3,1.47,2.57,2.54a2.92,2.92,0,0,1,.08.67c0,1.89-1.21,3.37-4.68,3.37-2.47,0-4.25-1.57-4.25-3.46M19,21.52c-1.66-.05-3.23-1.87-3.52-4.06s.82-3.87,2.48-3.82,3.23,1.81,3.52,4-.79,3.88-2.41,3.88H19m-.23-8.79c-2.88,0-5.59,2.2-5.59,4.75a4.66,4.66,0,0,0,4.9,4.7l.59,0a2.68,2.68,0,0,0-.33,1.21,2.52,2.52,0,0,0,.88,1.79H18.12c-3.57,0-6.32,2.29-6.32,4.67s3,3.8,6.58,3.8c4.07,0,6.32-2.33,6.32-4.67a4.52,4.52,0,0,0-2.25-4.21c-.58-.41-1.69-1.42-1.69-2s.2-1,1.23-1.85a4.36,4.36,0,0,0,1.82-3.38,3.86,3.86,0,0,0-2.07-3.74h2l1.44-1Z"/></clipPath></defs><title>Ресурс 3</title><g id="Слой_2" data-name="Слой 2"><g id="Слой_1-2" data-name="Слой 1"><g class="cls-2"><circle class="cls-3" cx="21.82" cy="21.82" r="20"/></g><g class="cls-4"><rect class="cls-5" x="7.26" y="8.18" width="29.09" height="30"/></g></g></g></svg>