<svg xmlns="http://www.w3.org/2000/svg" xmlns:xlink="http://www.w3.org/1999/xlink" viewBox="0 0 43.64 43.64"><defs><style>.cls-1,.cls-3{fill:none;}.cls-2{clip-path:url(#clip-path);}.cls-3{stroke:#010101;stroke-miterlimit:10;stroke-width:3.64px;}.cls-4{clip-path:url(#clip-path-2);}.cls-5{fill:#010101;}</style><clipPath id="clip-path"><path class="cls-1" d="M1.82,21.82a20,20,0,1,0,20-20,20,20,0,0,0-20,20"/></clipPath><clipPath id="clip-path-2"><path class="cls-1" d="M26.79,21.82A5,5,0,0,0,26.42,20h2.72v7.44a1.75,1.75,0,0,1-1.74,1.74H16.24a1.75,1.75,0,0,1-1.74-1.74V20h2.72a5,5,0,1,0,9.58,1.87m-8.17,0a3.2,3.2,0,1,1,3.2,3.2,3.18,3.18,0,0,1-3.2-3.2m7.1-7H28.8V17.9H25.73Zm-9.48-2.1a3.52,3.52,0,0,0-3.51,3.51V27.39a3.52,3.52,0,0,0,3.51,3.51H27.39a3.52,3.52,0,0,0,3.51-3.51V16.24a3.52,3.52,0,0,0-3.51-3.51Z"/></clipPath></defs><title>Ресурс 5</title><g id="Слой_2" data-name="Слой 2"><g id="Слой_1-2" data-name="Слой 1"><g class="cls-2"><circle class="cls-3" cx="21.82" cy="21.82" r="20"/></g><g class="cls-4"><rect class="cls-5" x="8.18" y="8.18" width="27.27" height="27.27"/></g></g></g></svg>