<svg xmlns="http://www.w3.org/2000/svg" xmlns:xlink="http://www.w3.org/1999/xlink" viewBox="0 0 43.64 43.64"><defs><style>.cls-1,.cls-3{fill:none;}.cls-2{clip-path:url(#clip-path);}.cls-3{stroke:#010101;stroke-miterlimit:10;stroke-width:3.64px;}.cls-4{clip-path:url(#clip-path-2);}.cls-5{fill:#010101;}</style><clipPath id="clip-path"><path class="cls-1" d="M1.82,21.82a20,20,0,1,0,20-20,20,20,0,0,0-20,20"/></clipPath><clipPath id="clip-path-2"><path class="cls-1" d="M22,18.68a4.41,4.41,0,0,0,.1.94,10.94,10.94,0,0,1-8.07-4.32,4.3,4.3,0,0,0-.53,2.08,4.19,4.19,0,0,0,1.74,3.44,3.78,3.78,0,0,1-1.78-.52v.05a4.08,4.08,0,0,0,3.14,4.05,3.75,3.75,0,0,1-1.77.07,4,4,0,0,0,3.66,2.87,7.61,7.61,0,0,1-4.86,1.77,7.39,7.39,0,0,1-.93-.06,10.68,10.68,0,0,0,6,1.86c7.2,0,11.14-6.3,11.14-11.75,0-.18,0-.36,0-.53a8.17,8.17,0,0,0,2-2.14,7.47,7.47,0,0,1-2.25.65,4.09,4.09,0,0,0,1.72-2.28,7.57,7.57,0,0,1-2.49,1,3.82,3.82,0,0,0-2.86-1.31A4,4,0,0,0,22,18.68"/></clipPath></defs><title>Ресурс 2</title><g id="Слой_2" data-name="Слой 2"><g id="Слой_1-2" data-name="Слой 1"><g class="cls-2"><circle class="cls-3" cx="21.82" cy="21.82" r="20"/></g><g class="cls-4"><rect class="cls-5" x="8.18" y="10" width="28.18" height="25.45"/></g></g></g></svg>