<svg xmlns="http://www.w3.org/2000/svg" xmlns:xlink="http://www.w3.org/1999/xlink" viewBox="0 0 43.64 43.64"><defs><style>.cls-1,.cls-3{fill:none;}.cls-2{clip-path:url(#clip-path);}.cls-3{stroke:#010101;stroke-miterlimit:10;stroke-width:3.64px;}.cls-4{clip-path:url(#clip-path-2);}.cls-5{fill:#010101;}</style><clipPath id="clip-path"><path class="cls-1" d="M1.82,21.82a20,20,0,1,0,20-20,20,20,0,0,0-20,20"/></clipPath><clipPath id="clip-path-2"><path class="cls-1" d="M18.09,16.64c-.39.19-.69.6-.51.63a1.55,1.55,0,0,1,1,.5,3.19,3.19,0,0,1,.34,1.52s.2,2.89-.47,3.25C18,22.78,17.37,22.28,16,20A21.29,21.29,0,0,1,14.8,17.5a1,1,0,0,0-.28-.37,1.4,1.4,0,0,0-.52-.21l-3.25,0s-.49,0-.67.22,0,.57,0,.57,2.54,5.84,5.42,8.78A7.88,7.88,0,0,0,21.12,29h1.36a1.17,1.17,0,0,0,.62-.27,1,1,0,0,0,.18-.59s0-1.79.82-2.05,1.9,1.73,3,2.49a2.18,2.18,0,0,0,1.51.45l3,0s1.59-.1.83-1.32a10,10,0,0,0-2.26-2.56c-1.9-1.73-1.65-1.45.64-4.45,1.4-1.83,2-2.94,1.78-3.42s-1.19-.33-1.19-.33l-3.42,0a.79.79,0,0,0-.44.08,1,1,0,0,0-.3.36A19.22,19.22,0,0,1,26.08,20c-1.52,2.53-2.13,2.67-2.38,2.51-.58-.37-.43-1.48-.43-2.26,0-2.46.38-3.48-.74-3.75a6,6,0,0,0-1.59-.16h-.48a6.16,6.16,0,0,0-2.36.29"/></clipPath></defs><title>Ресурс 4</title><g id="Слой_2" data-name="Слой 2"><g id="Слой_1-2" data-name="Слой 1"><g class="cls-2"><circle class="cls-3" cx="21.82" cy="21.82" r="20"/></g><g class="cls-4"><rect class="cls-5" x="5.45" y="11.81" width="31.82" height="21.82"/></g></g></g></svg>