<svg xmlns="http://www.w3.org/2000/svg" xmlns:xlink="http://www.w3.org/1999/xlink" viewBox="0 0 21.06 21.06"><defs><style>.cls-1{fill:none;}.cls-2{clip-path:url(#clip-path);}.cls-3{fill:#b3b2b2;}</style><clipPath id="clip-path"><rect class="cls-1" width="21.06" height="21.06"/></clipPath></defs><title>Ресурс 9</title><g id="Слой_2" data-name="Слой 2"><g id="Слой_1-2" data-name="Слой 1"><g class="cls-2"><path class="cls-3" d="M15.75,13.63a.84.84,0,0,0-.26-.61L13,10.53,15.49,8a.84.84,0,0,0,.26-.62.86.86,0,0,0-.26-.63L14.26,5.57a.85.85,0,0,0-.63-.26.84.84,0,0,0-.62.26L10.53,8,8,5.57a.84.84,0,0,0-.62-.26.86.86,0,0,0-.63.26L5.57,6.8a.85.85,0,0,0-.26.63A.83.83,0,0,0,5.57,8L8,10.53,5.57,13a.83.83,0,0,0-.26.61.85.85,0,0,0,.26.63L6.8,15.49a.86.86,0,0,0,.63.26A.84.84,0,0,0,8,15.49L10.53,13,13,15.49a.84.84,0,0,0,.62.26.85.85,0,0,0,.63-.26l1.24-1.23a.87.87,0,0,0,.26-.63m3.89-8.38a10.3,10.3,0,0,1,1.41,5.28,10.3,10.3,0,0,1-1.41,5.29,10.47,10.47,0,0,1-3.83,3.83,10.3,10.3,0,0,1-5.29,1.41,10.3,10.3,0,0,1-5.29-1.41,10.46,10.46,0,0,1-3.83-3.83A10.3,10.3,0,0,1,0,10.53,10.3,10.3,0,0,1,1.41,5.24,10.49,10.49,0,0,1,5.24,1.41,10.33,10.33,0,0,1,10.53,0a10.32,10.32,0,0,1,5.29,1.41,10.5,10.5,0,0,1,3.83,3.83"/></g></g></g></svg>