<svg xmlns="http://www.w3.org/2000/svg" xmlns:xlink="http://www.w3.org/1999/xlink" viewBox="0 0 18.96 16"><defs><style>.cls-1{fill:none;}.cls-2{clip-path:url(#clip-path);}.cls-3{fill:#cdcccc;}</style><clipPath id="clip-path" transform="translate(0 0)"><rect class="cls-1" width="18.96" height="16"/></clipPath></defs><title>Ресурс 3</title><g id="Слой_2" data-name="Слой 2"><g id="Слой_1-2" data-name="Слой 1"><g class="cls-2"><path class="cls-3" d="M15.73,14.11a1.46,1.46,0,0,0,0-2,1.35,1.35,0,0,0-2,0,1.47,1.47,0,0,0,0,2,1.34,1.34,0,0,0,2,0m-9.83,0a1.46,1.46,0,0,0,0-2,1.35,1.35,0,0,0-2,0,1.47,1.47,0,0,0,0,2,1.34,1.34,0,0,0,2,0M2.11,7.27H6.32V4.36H4.59a.33.33,0,0,0-.24.1L2.21,6.68a.34.34,0,0,0-.1.25ZM19,.73V12.36a.92.92,0,0,1,0,.3.42.42,0,0,1-.15.21l-.18.13a.63.63,0,0,1-.26.07l-.25,0h-.53a2.85,2.85,0,0,1-.82,2.06,2.74,2.74,0,0,1-4,0,2.85,2.85,0,0,1-.82-2.06H7.72a2.85,2.85,0,0,1-.82,2.06,2.65,2.65,0,0,1-2,.85,2.65,2.65,0,0,1-2-.85,2.85,2.85,0,0,1-.82-2.06H.88l-.25,0A.63.63,0,0,1,.37,13l-.18-.13A.42.42,0,0,1,0,12.66a.92.92,0,0,1,0-.3.7.7,0,0,1,.21-.51.66.66,0,0,1,.49-.22V8c0-.06,0-.19,0-.4s0-.35,0-.43,0-.21,0-.39A2.05,2.05,0,0,1,.8,6.36,2.12,2.12,0,0,1,.95,6a1.46,1.46,0,0,1,.25-.34L3.37,3.42a1.7,1.7,0,0,1,.55-.36,1.63,1.63,0,0,1,.64-.15H6.32V.73A.71.71,0,0,1,6.53.22.66.66,0,0,1,7,0H18.26a.66.66,0,0,1,.49.22A.71.71,0,0,1,19,.73" transform="translate(0 0)"/></g></g></g></svg>