<svg xmlns="http://www.w3.org/2000/svg" xmlns:xlink="http://www.w3.org/1999/xlink" viewBox="0 0 20.57 17.14"><defs><style>.cls-1{fill:none;}.cls-2{clip-path:url(#clip-path);}.cls-3{fill:#fff;}</style><clipPath id="clip-path" transform="translate(0)"><rect class="cls-1" width="20.57" height="17.14"/></clipPath></defs><title>Ресурс 1</title><g id="Слой_2" data-name="Слой 2"><g id="Слой_1-2" data-name="Слой 1"><g class="cls-2"><path class="cls-3" d="M20.57,14.57v1.71a.87.87,0,0,1-.86.86H.86a.82.82,0,0,1-.6-.25.82.82,0,0,1-.25-.6V14.57A.82.82,0,0,1,.26,14a.82.82,0,0,1,.6-.26H19.71a.87.87,0,0,1,.86.86m0-6.86V9.43a.87.87,0,0,1-.86.86H.86A.82.82,0,0,1,.26,10,.82.82,0,0,1,0,9.43V7.71a.82.82,0,0,1,.25-.6.82.82,0,0,1,.6-.26H19.71a.87.87,0,0,1,.86.86m0-6.86V2.57a.83.83,0,0,1-.25.6.82.82,0,0,1-.6.26H.86a.82.82,0,0,1-.6-.26A.82.82,0,0,1,0,2.57V.86A.82.82,0,0,1,.26.25.83.83,0,0,1,.86,0H19.71a.83.83,0,0,1,.6.25.83.83,0,0,1,.25.6" transform="translate(0)"/></g></g></g></svg>