<svg xmlns="http://www.w3.org/2000/svg" xmlns:xlink="http://www.w3.org/1999/xlink" viewBox="0 0 72.78 20"><defs><style>.cls-1{fill:none;}.cls-2{fill:#c21b19;}.cls-3{fill:#fff;}.cls-4{clip-path:url(#clip-path);}</style><clipPath id="clip-path"><rect class="cls-1" width="72.78" height="20"/></clipPath></defs><title>Ресурс 4</title><g id="Слой_2" data-name="Слой 2"><g id="Слой_1-2" data-name="Слой 1"><rect class="cls-2" width="72.78" height="20"/><polygon class="cls-3" points="20.45 14.64 20.45 10.8 18.41 10.8 18.41 14.64 17.44 14.64 17.44 6.43 18.41 6.43 18.41 9.85 20.45 9.85 20.45 6.43 21.42 6.43 21.42 14.64 20.45 14.64"/><g class="cls-4"><path class="cls-3" d="M25.1,7.25c-1.19,0-1.23,2.5-1.23,3.36s.05,3.18,1.23,3.18,1.18-2.44,1.18-3.27,0-3.27-1.18-3.27m0,7.51c-2,0-2.27-2.65-2.27-4.24s.28-4.23,2.27-4.23,2.16,2.7,2.16,4.28-.17,4.19-2.16,4.19"/><path class="cls-3" d="M30.17,13.69a1.64,1.64,0,0,0,1.07-.29,1.4,1.4,0,0,0,.33-1,1.6,1.6,0,0,0-.36-1.16,1.41,1.41,0,0,0-1-.35H29.7v2.83Zm-.07-3.8a1.35,1.35,0,0,0,1-.29,1.45,1.45,0,0,0,.26-1,1.49,1.49,0,0,0-.26-1,1.36,1.36,0,0,0-.85-.26H29.7v2.5Zm.17-3.45A2,2,0,0,1,31.86,7a2.18,2.18,0,0,1,.5,1.56,1.78,1.78,0,0,1-.5,1.4,2.09,2.09,0,0,1-.57.4,1.71,1.71,0,0,1,.83.46,2,2,0,0,1,.48,1.54,2.28,2.28,0,0,1-.52,1.71,2.07,2.07,0,0,1-1.57.59H28.73V6.43Z"/><path class="cls-3" d="M37.1,14.64V9.53c0-.15,0-.35,0-1.18a7.21,7.21,0,0,1-.36,1.23L35,14.64H34V6.43h1V11.5c0,.42,0,.68,0,1.27a10.27,10.27,0,0,1,.36-1.21L37.1,6.43h1v8.21Z"/></g><polygon class="cls-3" points="42.81 14.64 42.81 10.8 40.77 10.8 40.77 14.64 39.8 14.64 39.8 6.43 40.77 6.43 40.77 9.85 42.81 9.85 42.81 6.43 43.78 6.43 43.78 14.64 42.81 14.64"/><polygon class="cls-3" points="46.48 10.01 48.53 6.43 49.66 6.43 47.33 10.38 49.9 14.64 48.71 14.64 46.48 10.87 46.48 14.64 45.51 14.64 45.51 6.43 46.48 6.43 46.48 10.01"/><g class="cls-4"><path class="cls-3" d="M52.75,7.13c-1.12,0-1.14,2.09-1.14,2.92s0,1.32.05,2,.17,1.89,1.07,1.89a.74.74,0,0,0,.62-.27c.48-.52.48-2.44.48-3.16,0-1.64-.09-3.36-1.09-3.36m1,7.51V14a1.51,1.51,0,0,1-1.32.79c-1.76,0-1.81-2.63-1.81-4.08,0-1.67.05-4.39,1.9-4.39A1.4,1.4,0,0,1,53.74,7V6.43h1v8.21Z"/></g></g></g></svg>