<svg xmlns="http://www.w3.org/2000/svg" xmlns:xlink="http://www.w3.org/1999/xlink" viewBox="0 0 77.32 20"><defs><style>.cls-1{fill:none;}.cls-2{fill:#41ab34;}.cls-3{clip-path:url(#clip-path);}.cls-4{fill:#fff;}</style><clipPath id="clip-path" transform="translate(0 0)"><rect class="cls-1" width="77.32" height="20"/></clipPath></defs><title>Ресурс 5</title><g id="Слой_2" data-name="Слой 2"><g id="Слой_1-2" data-name="Слой 1"><polygon class="cls-2" points="0 0 0 20 67.37 20 77.32 10 67.37 0 0 0"/><g class="cls-3"><path class="cls-4" d="M10.47,14.35a2,2,0,0,1-1.18.42c-1.93,0-2.37-2.63-2.37-4.1S7.25,6.3,9.35,6.3a2.24,2.24,0,0,1,1.12.31V7.82a1.47,1.47,0,0,0-1-.57C8.13,7.25,8,9.66,8,10.58s.17,3.22,1.42,3.22a1.4,1.4,0,0,0,1-.74Z" transform="translate(0 0)"/></g><polygon class="cls-4" points="14.88 14.64 14.88 7.38 12.78 7.38 12.78 14.64 11.75 14.64 11.75 6.43 15.91 6.43 15.91 14.64 14.88 14.64"/><g class="cls-3"><path class="cls-4" d="M20.94,9.86c0-.74-.13-2.61-1.17-2.61S18.53,9.11,18.5,9.86Zm1,2c-.06,1.32-.46,2.92-2.08,2.92-2.11,0-2.39-2.63-2.39-4.21s.31-4.26,2.31-4.26S22,8.78,22,10.23c0,.17,0,.35,0,.52H18.48v.18c0,.83.13,2.87,1.31,2.87.92,0,1-1.25,1.07-1.95Z" transform="translate(0 0)"/></g><polygon class="cls-4" points="27.66 13.69 28.58 13.69 28.58 16.55 27.55 16.55 27.55 14.64 23.49 14.64 23.49 6.43 24.52 6.43 24.52 13.69 26.64 13.69 26.64 6.43 27.66 6.43 27.66 13.69"/><g class="cls-3"><path class="cls-4" d="M30.38,14.77a.85.85,0,0,1-.83-.83.83.83,0,1,1,.83.83" transform="translate(0 0)"/></g><polygon class="cls-4" points="41.39 13.69 42.31 13.69 42.31 16.55 41.28 16.55 41.28 14.64 37.22 14.64 37.22 6.43 38.25 6.43 38.25 13.69 40.36 13.69 40.36 6.43 41.39 6.43 41.39 13.69"/><g class="cls-3"><path class="cls-4" d="M46.61,9.86c0-.74-.13-2.61-1.18-2.61S44.2,9.11,44.16,9.86Zm1,2c-.06,1.32-.46,2.92-2.08,2.92-2.11,0-2.39-2.63-2.39-4.21s.31-4.26,2.31-4.26,2.22,2.48,2.22,3.93c0,.17,0,.35,0,.52H44.14v.18c0,.83.13,2.87,1.31,2.87.92,0,1-1.25,1.07-1.95Z" transform="translate(0 0)"/></g><polygon class="cls-4" points="52.36 14.64 52.36 10.8 50.19 10.8 50.19 14.64 49.16 14.64 49.16 6.43 50.19 6.43 50.19 9.85 52.36 9.85 52.36 6.43 53.39 6.43 53.39 14.64 52.36 14.64"/><g class="cls-3"><path class="cls-4" d="M57.3,7.13c-1.19,0-1.21,2.09-1.21,2.92s0,1.32.06,2,.18,1.89,1.14,1.89a.81.81,0,0,0,.66-.27c.51-.52.51-2.44.51-3.16,0-1.64-.09-3.36-1.16-3.36m1,7.51V14a1.62,1.62,0,0,1-1.4.79c-1.87,0-1.93-2.63-1.93-4.08C55,9,55.08,6.3,57,6.3A1.51,1.51,0,0,1,58.35,7V6.43h1v8.21Z" transform="translate(0 0)"/></g></g></g></svg>