<svg width="135" height="25" xmlns="http://www.w3.org/2000/svg">
 <!-- Created with Method Draw - http://github.com/duopixel/Method-Draw/ -->

 <g>
  <title>background</title>
  <rect fill="#fff" id="canvas_background" height="27" width="137" y="-1" x="-1"/>
  <g display="none" overflow="visible" y="0" x="0" height="100%" width="100%" id="canvasGrid">
   <rect fill="url(#gridpattern)" stroke-width="0" y="0" x="0" height="100%" width="100%"/>
  </g>
 </g>
 <g>
  <title>Layer 1</title>
  <g stroke="null" id="svg_8">
   <path stroke="null" fill-rule="evenodd" fill="rgb(0, 0, 0)" d="m135.021342,24.874602l-6.681525,0l-3.167754,-6.483111l-1.04399,1.63821l0,4.844901l-6.263918,0l0,-24.888757l6.263918,0l0,12.548945l0.069606,0l3.480946,-6.518953l6.681525,0l-5.219939,7.773751l5.881131,11.085014zm-19.452968,-13.629464c-1.113586,0 -1.977613,0.243987 -2.593069,0.73196c-0.614459,0.487984 -0.921688,1.35937 -0.921688,2.614157l0,10.283347l-6.264926,0l0,-18.858776l6.056128,0l0,2.998568l0.069596,0c0.348,-1.139281 0.904788,-2.004684 1.670384,-2.597229c0.765586,-0.592545 1.612713,-0.889312 2.540363,-0.889312l1.009192,0l0,5.856711c-0.278394,-0.046808 -0.544863,-0.081662 -0.800394,-0.104572c-0.255531,-0.022899 -0.510065,-0.034854 -0.765586,-0.034854zm-17.921786,12.618652c-0.045736,-0.348548 -0.092469,-0.720006 -0.139202,-1.115372l-0.069596,0c-0.348,0.836532 -0.898825,1.463931 -1.653473,1.882197c-0.753661,0.418266 -1.617688,0.627399 -2.593069,0.627399c-0.950524,0 -1.75688,-0.121499 -2.418072,-0.365486c-0.661192,-0.243987 -1.20109,-0.610471 -1.618686,-1.098445c-0.417596,-0.487973 -0.718852,-1.068564 -0.904788,-1.742771c-0.185925,-0.674207 -0.278394,-1.417123 -0.278394,-2.230745c0,-0.88334 0.086496,-1.650154 0.260496,-2.300463c0.174,-0.651297 0.458367,-1.21496 0.853089,-1.690979c0.394723,-0.47603 0.927661,-0.88334 1.600778,-1.219944c0.673127,-0.337592 1.508319,-0.621416 2.505576,-0.854458l2.471765,-0.592535c0.67213,-0.162325 1.148384,-0.40034 1.426777,-0.714044c0.278404,-0.313694 0.417596,-0.761841 0.417596,-1.342432c0,-1.16218 -0.533925,-1.742771 -1.600778,-1.742771c-0.603521,0 -1.04399,0.168307 -1.322384,0.504911c-0.278394,0.337592 -0.429531,1.005827 -0.452394,2.004684l-5.429734,0c0,-1.371313 0.243596,-2.468759 0.730788,-3.294336c0.487202,-0.824577 1.090723,-1.463931 1.809586,-1.91705c0.71985,-0.45312 1.496384,-0.75487 2.332562,-0.906239c0.835192,-0.151369 1.611716,-0.22606 2.331576,-0.227059c1.090713,0 2.093942,0.087634 3.010655,0.261913c0.915726,0.174279 1.705182,0.487973 2.366374,0.941093c0.661192,0.45313 1.171257,1.068575 1.531182,1.847343c0.359925,0.778768 0.539898,1.783597 0.539898,3.015485l0,9.202828c0,0.88334 0.034798,1.661109 0.104394,2.335316c0.069596,0.674207 0.231671,1.254798 0.487192,1.742771l-6.056118,0c-0.116329,-0.32465 -0.196863,-0.662253 -0.243596,-1.010811zm-0.139202,-8.087445l-0.069596,0c-0.185925,0.255931 -0.470291,0.413282 -0.853089,0.471046c-0.382798,0.057753 -0.806356,0.191207 -1.269688,0.40034c-0.487192,0.233031 -0.824254,0.540753 -1.009181,0.924166c-0.185935,0.383412 -0.278404,0.889312 -0.278404,1.516711c0,0.627399 0.139202,1.127316 0.417596,1.498784c0.278404,0.371458 0.649267,0.557681 1.113586,0.557681c0.69599,0 1.19413,-0.255941 1.496384,-0.766814c0.301267,-0.511882 0.452394,-1.289652 0.452394,-2.335316l0,-2.266597zm-39.53233,9.202828c-0.951521,0 -1.762842,-0.039837 -2.435969,-0.121499c-0.673117,-0.081662 -1.223952,-0.284823 -1.653473,-0.610471c-0.428534,-0.32465 -0.741726,-0.80765 -0.939586,-1.445994c-0.196873,-0.639353 -0.295305,-1.481857 -0.295305,-2.527522l0,-10.039349l-2.088967,0l0,-4.218501l2.088967,0l0,-5.542018l6.263929,0l0,5.542018l2.471765,0l0,4.218501l-2.471765,0l0,8.993685c0,0.533793 0.122291,0.912222 0.365887,1.13231c0.243596,0.221077 0.620432,0.33162 1.131483,0.33162l0.974394,0l0,4.182649c-0.580658,0 -1.160319,0.017926 -1.740977,0.05278c-0.579661,0.034864 -1.136448,0.051792 -1.670373,0.051792l-0.00001,0zm-14.615827,-12.235251c0.673127,0.209133 1.397952,0.43022 2.175473,0.662253c0.777521,0.232043 1.502346,0.563663 2.175473,0.993873c0.673127,0.429221 1.235888,1.010811 1.688281,1.742771c0.452394,0.731971 0.678092,1.701946 0.678092,2.910934c0,0.929139 -0.174,1.777625 -0.522,2.544439c-0.34799,0.766824 -0.841154,1.429077 -1.479473,1.986758c-0.637332,0.557691 -1.426788,0.975957 -2.366374,1.254798c-0.939586,0.27884 -2.000476,0.418266 -3.184655,0.418266c-2.621905,0 -4.507049,-0.522838 -5.655433,-1.568492c-1.148384,-1.045665 -1.722082,-2.602213 -1.722082,-4.670633l5.498333,0c0,0.371458 0.034798,0.720016 0.104404,1.045665c0.069596,0.325649 0.185925,0.592545 0.34799,0.801678c0.302264,0.441165 0.742723,0.662253 1.322384,0.662253c0.487202,0 0.910761,-0.139425 1.270685,-0.418266c0.359925,-0.27884 0.539887,-0.674207 0.539887,-1.18508c0,-0.557691 -0.226696,-0.987912 -0.679089,-1.289652c-0.452394,-0.302749 -1.015154,-0.569635 -1.688271,-0.801678c-0.67213,-0.233031 -1.397952,-0.477018 -2.174476,-0.73196c-0.777521,-0.255941 -1.502357,-0.6045 -2.175473,-1.046664c-0.673127,-0.441165 -1.235888,-1.027739 -1.688281,-1.759699c-0.452394,-0.73196 -0.678092,-1.69099 -0.678092,-2.87607c0,-0.836532 0.15014,-1.609328 0.452394,-2.318378c0.301267,-0.709061 0.759623,-1.330488 1.374092,-1.865269c0.615456,-0.533783 1.39198,-0.952049 2.332562,-1.254798c0.939586,-0.30174 2.047209,-0.45312 3.32286,-0.45312c4.710871,0 7.06531,1.975813 7.06531,5.926419l-5.428737,0c0,-0.813622 -0.145165,-1.365331 -0.435483,-1.656126c-0.290329,-0.289796 -0.701963,-0.435193 -1.235888,-0.435193c-0.463332,0 -0.84613,0.127471 -1.148384,0.383402c-0.301267,0.254942 -0.452394,0.615455 -0.452394,1.080519c0,0.534782 0.226696,0.935121 0.679089,1.203017c0.452394,0.266886 1.015154,0.504901 1.687284,0.714034l-0.00001,0zm-34.520192,2.649011l-2.261969,0l0,9.481669l-6.473724,0l0,-24.888757l9.710088,0c1.229915,0 2.296767,0.197179 3.201555,0.592545c0.905785,0.395356 1.653484,0.935121 2.245069,1.620273c0.591596,0.686161 1.02709,1.493811 1.305483,2.42295c0.278404,0.930138 0.417596,1.940949 0.417596,3.033422c0,2.579293 -0.690027,4.514269 -2.071069,5.803921c-1.380055,1.289652 -3.404391,1.933978 -6.073029,1.933978zm-1.04399,-10.736466l-1.217979,0l0,6.065844l1.217979,0c0.812329,0 1.43275,-0.243987 1.862281,-0.731971c0.428534,-0.487973 0.643294,-1.254787 0.643294,-2.300452c0,-2.02261 -0.835192,-3.033422 -2.505576,-3.033422z" id="svg_6"/>
   <path stroke="null" fill-rule="evenodd" fill="rgb(255, 166, 135)" d="m80.396753,25.006027l0,-18.545071l-0.069596,0l-3.445161,18.545071l-4.664138,0l-3.445161,-18.545071l-0.069596,0l0,18.545071l-6.056118,0l0,-24.888757l9.257683,0l2.60997,14.744836l0.069596,0l2.610967,-14.744836l9.257683,0l0,24.888757l-6.056128,0zm-47.640633,-2.631084c-0.556788,0.917195 -1.363144,1.649155 -2.419069,2.195891c-1.054917,0.545737 -2.464805,0.818606 -4.228645,0.818606c-1.832449,0 -3.283086,-0.24897 -4.349949,-0.748898c-1.066853,-0.499928 -1.868233,-1.197034 -2.401172,-2.091319c-0.533925,-0.895294 -0.875952,-1.940949 -1.027079,-3.137983c-0.151137,-1.197034 -0.225698,-2.480714 -0.225698,-3.852027c0,-1.2309 0.086496,-2.439878 0.260496,-3.624968c0.174,-1.18508 0.539887,-2.242688 1.096685,-3.171838c0.556788,-0.930138 1.363144,-1.679036 2.419069,-2.248671c1.054917,-0.569635 2.464805,-0.854458 4.227647,-0.854458c1.833446,0 3.283097,0.261913 4.350946,0.78474c1.066853,0.522838 1.867247,1.23787 2.401172,2.14411c0.533925,0.906239 0.875952,1.957876 1.027079,3.153922c0.15014,1.197034 0.225709,2.481702 0.225709,3.852017c0,1.231888 -0.086507,2.440876 -0.260507,3.625956c-0.174,1.18509 -0.539887,2.236727 -1.096685,3.154921zm-4.976343,-9.708728c-0.046723,-0.766824 -0.134227,-1.371313 -0.261493,-1.812479c-0.127267,-0.441176 -0.307229,-0.743914 -0.53889,-0.906239c-0.232658,-0.162335 -0.522,-0.243997 -0.870987,-0.243997c-0.34799,0 -0.631359,0.080674 -0.852092,0.243997c-0.220723,0.162325 -0.400696,0.464075 -0.539887,0.906239c-0.139202,0.441165 -0.231671,1.045654 -0.278394,1.812479c-0.045746,0.766814 -0.069606,1.742771 -0.069606,2.927851c0,1.18509 0.02387,2.156064 0.069606,2.910934c0.046723,0.755858 0.139192,1.353377 0.278394,1.795551c0.139192,0.441165 0.319165,0.743914 0.539887,0.906239c0.220733,0.162325 0.504103,0.243987 0.852092,0.243987c0.348,0 0.638329,-0.081662 0.870987,-0.243987c0.231661,-0.162325 0.411623,-0.465074 0.53889,-0.906239c0.127267,-0.442175 0.214771,-1.039693 0.261493,-1.795551c0.045746,-0.75487 0.069606,-1.725844 0.069606,-2.910934c0,-1.18508 -0.02386,-2.161037 -0.069606,-2.927851z" id="svg_5"/>
  </g>
 </g>
</svg>