<svg xmlns="http://www.w3.org/2000/svg" viewBox="0 0 16.39 17.01"><defs><style>.cls-1{fill:#fff;}</style></defs><title>g</title><g id="Слой_2" data-name="Слой 2"><g id="Capa_1" data-name="Capa 1"><path class="cls-1" d="M5.38,16.17c-2,0-3.48-1.28-3.48-2.82s1.81-2.76,3.83-2.74A4.42,4.42,0,0,1,7,10.82c1.1.76,1.88,1.19,2.11,2.06a2.34,2.34,0,0,1,.06.54c0,1.54-1,2.74-3.83,2.74m.53-9C4.56,7.11,3.27,5.63,3,3.85S3.71.71,5.07.75,7.71,2.22,7.95,4s-.68,3.19-2,3.15M8.73,9.79c-.48-.34-1.39-1.16-1.39-1.64s.16-.84,1-1.51A3.54,3.54,0,0,0,9.84,3.89a3.14,3.14,0,0,0-1.7-3H9.81L11,0H5.72C3.36,0,1.14,1.79,1.14,3.86a3.81,3.81,0,0,0,4,3.83h.49a2.15,2.15,0,0,0-.27,1,2,2,0,0,0,.72,1.46H5.18C2.25,10.12,0,12,0,13.92S2.47,17,5.39,17c3.33,0,5.18-1.89,5.18-3.79A3.67,3.67,0,0,0,8.73,9.79m7.66-2.48H14.34V5.26H12.69V7.31H10.64V9h2.05V11h1.65V9h2.05Z"/></g></g></svg>