<svg xmlns="http://www.w3.org/2000/svg" viewBox="0 0 17.01 17.01"><defs><style>.cls-1{fill:#fff;}</style></defs><title>p</title><g id="Слой_2" data-name="Слой 2"><g id="Capa_1" data-name="Capa 1"><path class="cls-1" d="M8.5,0A8.5,8.5,0,0,0,5.09,16.29a7.47,7.47,0,0,1,.15-2L6.33,9.71a3.27,3.27,0,0,1-.27-1.35c0-1.26.73-2.2,1.64-2.2A1.14,1.14,0,0,1,8.85,7.44a18.31,18.31,0,0,1-.75,3,1.32,1.32,0,0,0,1.34,1.64c1.61,0,2.7-2.07,2.7-4.52,0-1.86-1.26-3.26-3.54-3.26A4,4,0,0,0,4.41,8.38,2.46,2.46,0,0,0,5,10.05a.41.41,0,0,1,.12.47l-.17.68a.29.29,0,0,1-.43.21A3.27,3.27,0,0,1,2.75,8.17c0-2.42,2-5.31,6.08-5.31a5.08,5.08,0,0,1,5.38,4.87c0,3.34-1.85,5.83-4.59,5.83A2.44,2.44,0,0,1,7.55,12.5s-.49,2-.6,2.34a7.1,7.1,0,0,1-.86,1.82A8.5,8.5,0,1,0,8.5,0"/></g></g></svg>