<svg xmlns="http://www.w3.org/2000/svg" viewBox="0 0 10.48 17.01"><defs><style>.cls-1{fill:#fff;}</style></defs><title>t</title><g id="Слой_2" data-name="Слой 2"><g id="Capa_1" data-name="Capa 1"><path class="cls-1" d="M5.88,0V4.3h4V7h-4v4.36A6.93,6.93,0,0,0,6,13.23a1.28,1.28,0,0,0,.58.67,2.45,2.45,0,0,0,1.29.34,4.65,4.65,0,0,0,2.57-.84v2.68a10.24,10.24,0,0,1-2,.72A8.31,8.31,0,0,1,6.59,17a6.63,6.63,0,0,1-2.06-.29A4.45,4.45,0,0,1,3,15.87a3,3,0,0,1-.88-1.16,5,5,0,0,1-.24-1.78V7H0V4.56a5,5,0,0,0,1.72-.93A4.65,4.65,0,0,0,2.86,2.17,6.6,6.6,0,0,0,3.46,0Z"/></g></g></svg>