<svg width="23px" hegith="21px" xmlns="http://www.w3.org/2000/svg" viewBox="0 0 21.26 19"><defs><style>.cls-1{fill:none;stroke-linecap:round;stroke-linejoin:round;}.cls-1,.cls-2{stroke:#765fa1;}.cls-2{fill:#765fa1;stroke-miterlimit:10;}</style></defs><title>Ресурс 1</title><g id="Слой_2" data-name="Слой 2"><g id="Layer_1" data-name="Layer 1"><line class="cls-1" x1="0.5" y1="9.91" x2="20.76" y2="9.91"/><path class="cls-1" d="M.5,12.94c2,0,2,.81,4,.81s2-.81,4-.81,2,.81,4.05.81,2-.81,4.06-.81,2,.81,4.06.81"/><circle class="cls-2" cx="1.45" cy="16.01" r="0.77"/><circle class="cls-2" cx="5.12" cy="17.73" r="0.77"/><circle class="cls-2" cx="8.02" cy="15.83" r="0.77"/><circle class="cls-2" cx="12.23" cy="17.26" r="0.77"/><circle class="cls-2" cx="16.5" cy="15.72" r="0.77"/><circle class="cls-2" cx="19.46" cy="17.32" r="0.77"/><path class="cls-1" d="M7,.5c0,1-2,1-2,2s2,1,2,2-2,1-2,2"/><path class="cls-1" d="M11.4.5c0,1-2,1-2,2s2,1,2,2-2,1-2,2"/><path class="cls-1" d="M15.84.5c0,1-2,1-2,2s2,1,2,2-2,1-2,2"/></g></g></svg>