<svg width="20px" height="29px" xmlns="http://www.w3.org/2000/svg" viewBox="0 0 1479.57 2190.98"><defs><style>.cls-1{fill:#7e5dc1;}.cls-2{fill:none;stroke:#7e5dc1;stroke-miterlimit:10;stroke-width:51px;}</style></defs><title>Ресурс 1</title><g id="Слой_2" data-name="Слой 2"><g id="Layer_1" data-name="Layer 1"><path class="cls-1" d="M1156.15,879.12s-33,179.84-218.84,226.33v101.88l-128.84,77.91s9-131.86-13.47-157.37c0,0,33-18,18-41.93l48.76,7.19-45.14-67.71c15.82-15.54,59.21-77.32-2.9-250.41,0,0,6.73-41.25,33.73-48.71,0,0-26.21-45-101.16-41.17,0,0-61.47-149.17-110.13-60,0,0-69.7-128.09-127.41,42,0,0-158.09,5.23-47.92,98.16,0,0-78.7,21.71-10.5,82.39,0,0-80.18,3-75.69,57,0,0,54-12.76,95.15,63.69,32.3,59.89,75.66,165.16,208.83,128.46l13,62.6,26.95-49.45s19.51,26.95,40.49,25.43,33,113.9,1.51,160.33c-13.25,19.56-53.27,64-96.86,115.87l-2.06-46.91s58.45-161.82-104.91-218.8-259.22-9-259.22-9,215.74,69,199.26,221.82c0,0,69-51,113.9-12l31.62,90.75c-53.68,65.38-107,137.5-118.54,185-22.5,92.91-33,310.2-22.5,325.21s56.94,16.44,58.45-13.47-38.91-208.34,15-317.75,278.69-323.68,364.13-373.13c0,0,97.42,49.45,193.29-64.4S1156.15,879.12,1156.15,879.12Z"/><path class="cls-2" d="M725.5,172.68h28.57a700,700,0,0,1,700,700v1292.8a0,0,0,0,1,0,0H25.5a0,0,0,0,1,0,0V872.68A700,700,0,0,1,725.5,172.68Z"/><circle class="cls-1" cx="739.79" cy="75" r="75"/></g></g></svg>