<svg xmlns="http://www.w3.org/2000/svg" viewBox="0 0 20.11 18.33"><defs><style>.cls-1,.cls-2{fill:none;}.cls-1{stroke:#f44336;stroke-miterlimit:10;}</style></defs><title>add-to-cart</title><g id="Слой_2" data-name="Слой 2" fill="#f44336"><g id="Layer_1" data-name="Layer 1"><path class="cls-1" d="M19.61,4.92v5a2,2,0,0,1-2,2h-10a2,2,0,0,1-2-2v-6L.27.42"/><path class="cls-2" d="M9,17.33a1,1,0,0,0,.85-.5H8.18A1,1,0,0,0,9,17.33Z"/><path class="cls-2" d="M9,15.33a1,1,0,0,0-.85.5H9.87A1,1,0,0,0,9,15.33Z"/><path class="cls-2" d="M15.82,17.33a1,1,0,0,0,.85-.5H15A1,1,0,0,0,15.82,17.33Z"/><path class="cls-2" d="M15.82,15.33a1,1,0,0,0-.85.5h1.69A1,1,0,0,0,15.82,15.33Z"/><path d="M7.12,15.77A1.5,1.5,0,0,1,6,14.33v-4H5v4a2.5,2.5,0,0,0,2.06,2.46,1.82,1.82,0,0,1,0-1Z"/><path d="M13.89,15.83H11a1.79,1.79,0,0,1,0,1h2.93a1.79,1.79,0,0,1,0-1Z"/><path d="M8.18,15.83a1,1,0,0,1,1.69,0H11a2,2,0,0,0-3.84-.06,1.48,1.48,0,0,0,.41.06Z"/><path d="M9,17.33a1,1,0,0,1-.85-.5H7.52a2.49,2.49,0,0,1-.44,0,2,2,0,0,0,3.87,0H9.87A1,1,0,0,1,9,17.33Z"/><path d="M8.18,16.83a.89.89,0,0,1,0-1H7.52a1.48,1.48,0,0,1-.41-.06,1.82,1.82,0,0,0,0,1,2.49,2.49,0,0,0,.44,0Z"/><path d="M11,15.83H9.87a.89.89,0,0,1,0,1H11a1.79,1.79,0,0,0,0-1Z"/><path d="M15.82,14.33a2,2,0,0,0-1.93,1.5H15a1,1,0,0,1,1.69,0h.86v1h-.86a1,1,0,0,1-1.69,0H13.89a2,2,0,1,0,1.93-2.5Z"/><path d="M16.66,16.83h.86v-1h-.86a.89.89,0,0,1,0,1Z"/><path d="M14.82,16.33a1,1,0,0,1,.15-.5H13.89a1.79,1.79,0,0,0,0,1H15A1,1,0,0,1,14.82,16.33Z"/><polygon points="9.03 6.4 11.61 6.4 11.61 8.65 12.42 8.65 12.42 6.4 14.97 6.4 14.97 5.56 12.42 5.56 12.42 3.06 11.61 3.06 11.61 5.56 9.03 5.56 9.03 6.4"/></g></g></svg>