<svg xmlns="http://www.w3.org/2000/svg" xmlns:xlink="http://www.w3.org/1999/xlink" viewBox="0 0 360.72 360.8"><defs><style>.cls-1{fill:none;}.cls-2{clip-path:url(#clip-path);}</style><clipPath id="clip-path" transform="translate(0 -0.16)"><rect class="cls-1" width="360.96" height="361.92"/></clipPath></defs><title>loup</title><g id="Слой_2" data-name="Слой 2"><g id="Слой_1-2" data-name="Слой 1"><g class="cls-2"><path d="M357.6,342.56l-87.68-87.68A153.22,153.22,0,0,0,307.68,154c0-84.88-69-153.84-153.84-153.84S0,69.2,0,154,69,307.84,153.84,307.84a153.22,153.22,0,0,0,100.88-37.76l87.68,87.68A10.89,10.89,0,0,0,350,361a10.55,10.55,0,0,0,7.6-3.2,10.82,10.82,0,0,0,0-15.2ZM21.52,154c0-73,59.36-132.24,132.24-132.24S286,81.12,286,154,226.72,286.32,153.76,286.32,21.52,227,21.52,154Zm0,0" transform="translate(0 -0.16)"/></g></g></g></svg>