<svg xmlns="http://www.w3.org/2000/svg" viewBox="0 0 512 478.37" width="20px"><defs><style>.cls-1{fill:#fff;}</style></defs><title>mail__white</title><g id="Слой_2" data-name="Слой 2"><g id="Layer_1" data-name="Layer 1"><path class="cls-1" d="M511.61,180.79a7.57,7.57,0,0,0-.47-2.6A13.06,13.06,0,0,0,506,170.9L432.69,120V65.34a13.11,13.11,0,0,0-13.11-13.11H335.26L263.52,2.35a13.1,13.1,0,0,0-14.93,0l-72.21,49.9H92.43A13.11,13.11,0,0,0,79.31,65.34v54L5.67,170.21A13.09,13.09,0,0,0,0,180.81c0,.08,0,.15,0,.23L.39,465.28A13.11,13.11,0,0,0,13.5,478.37h0l485.39-.67A13.11,13.11,0,0,0,512,464.57ZM184.93,315.71,26.58,438.53l-.32-232.48Zm71.27-22.1L459.79,451.53l-407.91.56Zm70.94,21.85,158.28-110,.32,233.06ZM474.59,181l-41.9,29.13V151.89ZM256,29.07l33.31,23.16H222.51ZM406.47,78.45V228.37l-101,70.24-41.19-32-.18-.13a13.1,13.1,0,0,0-15.89.13l-41.49,32.18L105.54,229V78.45ZM79.31,210.83,36.17,181l43.15-29.82Z"/><path class="cls-1" d="M167.23,157.12H344.77a13.11,13.11,0,1,0,0-26.22H167.23a13.11,13.11,0,0,0,0,26.22Z"/><path class="cls-1" d="M167.23,225.3H344.77a13.11,13.11,0,1,0,0-26.22H167.23a13.11,13.11,0,0,0,0,26.22Z"/></g></g></svg>