<svg xmlns="http://www.w3.org/2000/svg" viewBox="0 0 72 87.85" width="72px"><defs><style>.cls-1{fill:#f44336;}.cls-2{fill:#b7e3e4;}.cls-3{fill:#9dc1c1;}.cls-4{fill:#f03f35;}.cls-5{fill:#db2e2e;}</style></defs><title>map-icon</title><g id="Слой_2" data-name="Слой 2"><g id="Слой_1-2" data-name="Слой 1"><g id="Слой_2-2" data-name="Слой 2"><g id="Слой_3" data-name="Слой 3"><path class="cls-1" d="M0,36.39C0,62,36,87.85,36,87.85S70.45,62,72,34.87C72,11.58,48.71,0,36.87,0S0,10,0,36.39Z"/></g><g id="Layer_1" data-name="Layer 1"><path class="cls-2" d="M58.46,36.39A23.06,23.06,0,1,1,35.4,13.34,23.06,23.06,0,0,1,58.46,36.39Z"/><path class="cls-3" d="M46.79,25.38,24,47.41l12,12A23.05,23.05,0,0,0,58.45,37Z"/><path class="cls-4" d="M50.64,32l-3.84-6.65-7.55,4.36V21H31.56v8.71L24,25.38,20.17,32l7.55,4.36-7.55,4.36L24,47.41l7.55-4.36v8.72h7.69V43l7.55,4.36,3.84-6.65-7.55-4.36Z"/><path class="cls-5" d="M50.64,32l-3.84-6.65-7.55,4.36V21H35.2V51.76h4.05V43l7.55,4.36,3.84-6.65-7.55-4.36Z"/></g></g></g></g></svg>