<svg xmlns="http://www.w3.org/2000/svg" viewBox="0 0 384.05 512" width="18px"><defs><style>.cls-1{fill:#fff;}</style></defs><title>map__white</title><g id="Слой_2" data-name="Слой 2"><g id="Layer_1" data-name="Layer 1"><path class="cls-1" d="M382.84,494l-67.5-142.78a12.64,12.64,0,0,0-6.48-6.22L275.28,330l58.18-97.52q.21-.35.4-.71a159.36,159.36,0,0,0-30-185.92A159.29,159.29,0,0,0,50.19,231.78q.19.36.39.71L108.77,330,75,345a12.63,12.63,0,0,0-6.29,6.14L1.21,494a12.63,12.63,0,0,0,16.56,16.94l84.56-37.65,84.56,37.65a12.64,12.64,0,0,0,10.28,0l84.56-37.65,84.56,37.65A12.63,12.63,0,0,0,382.84,494ZM58,158.45C58.46,86,117.71,26.28,190.12,25.28A134.05,134.05,0,0,1,311.55,219.91L202.88,402.05a12.63,12.63,0,0,1-21.7,0L72.5,219.91A132.51,132.51,0,0,1,58,158.45ZM286.86,447.89a12.64,12.64,0,0,0-10.28,0L192,485.54l-84.56-37.65a12.64,12.64,0,0,0-10.28,0L38.61,474,89.55,366.22l32.26-14.36L159.48,415a37.9,37.9,0,0,0,65.09,0l37.67-63.13,32.26,14.36L345.43,474Z"/><path class="cls-1" d="M249.69,159.27A57.66,57.66,0,1,0,192,216.92,57.72,57.72,0,0,0,249.69,159.27Zm-90.05,0A32.39,32.39,0,1,1,192,191.66,32.43,32.43,0,0,1,159.64,159.27Z"/></g></g></svg>