<svg xmlns="http://www.w3.org/2000/svg" viewBox="0 0 472.62 191.99"><defs><style>.cls-1{fill:#2a2a27;}</style></defs><title>Ресурс 1</title><g id="Слой_2" data-name="Слой 2"><g id="Layer_1" data-name="Layer 1"><path class="cls-1" d="M472.62,65.46H447.27a95.93,95.93,0,0,0-182.76,2.63,53.09,53.09,0,0,0-56.42,0A95.93,95.93,0,0,0,25.33,65.46H0V85.15H20.93A96,96,0,1,0,212.26,96c0-.55-.07-1.09-.08-1.63h.07c0-7,9.88-14.7,24.05-14.7s24.05,7.75,24.05,14.7h.07c0,.55-.08,1.08-.08,1.63A96,96,0,1,0,451.68,85.15h20.94ZM116.26,172.3A76.3,76.3,0,1,1,192.57,96,76.39,76.39,0,0,1,116.26,172.3Zm240.07,0A76.3,76.3,0,1,1,432.64,96,76.39,76.39,0,0,1,356.34,172.3Z"/></g></g></svg>