<svg xmlns="http://www.w3.org/2000/svg" viewBox="0 0 237.6 237.6"   width="69px"
  height="69px"><defs><style>.cls-1{fill:#b7e3e4;}.cls-2{fill:#9dc1c1;}.cls-3{fill:#f03f35;}.cls-4{fill:#db2e2e;}</style></defs><g id="Слой_2" data-name="Слой 2"><g id="Layer_1" data-name="Layer 1"><path class="cls-1" d="M237.6,118.8A118.8,118.8,0,1,1,118.8,0,118.8,118.8,0,0,1,237.6,118.8Zm0,0"/><path class="cls-2" d="M177.49,62.06,60.11,175.55l62,62A118.79,118.79,0,0,0,237.55,122.11Zm0,0"/><path class="cls-3" d="M197.29,96.35l-19.8-34.29L138.6,84.5V39.6H99V84.5L60.11,62.06,40.31,96.35,79.2,118.8,40.31,141.25l19.8,34.29L99,153.09V198h39.6V153.09l38.89,22.45,19.8-34.29L158.4,118.8Zm0,0"/><path class="cls-4" d="M197.29,96.35l-19.8-34.29L138.6,84.5V39.6H117.73V198H138.6V153.09l38.89,22.45,19.8-34.29L158.4,118.8Zm0,0"/></g></g></svg>