<svg xmlns="http://www.w3.org/2000/svg" width="18.06" height="10.531" viewBox="0 0 18.06 10.531">
<defs>
    <style>
      .cls-1 {
        fill-rule: evenodd;
        fill:#000;
      }
    </style>
  </defs>
  <path id="vk" class="cls-1" d="M1185.3,31.675h1.08a0.929,0.929,0,0,0,.5-0.218,0.8,0.8,0,0,0,.14-0.48s-0.02-1.467.65-1.683,1.52,1.417,2.42,2.044a1.692,1.692,0,0,0,1.2.371l2.41-.034s1.26-.079.66-1.084a8.237,8.237,0,0,0-1.79-2.1c-1.51-1.421-1.31-1.191.51-3.649,1.11-1.5,1.55-2.412,1.41-2.8a1.026,1.026,0,0,0-.94-0.275l-2.72.017a0.61,0.61,0,0,0-.35.063,0.836,0.836,0,0,0-.24.295,16.277,16.277,0,0,1-1,2.145c-1.21,2.079-1.69,2.189-1.89,2.06-0.46-.3-0.34-1.209-0.34-1.854,0-2.015.3-2.855-.59-3.073a4.619,4.619,0,0,0-1.27-.127,5.764,5.764,0,0,0-2.25.233c-0.31.153-.55,0.494-0.4,0.514a1.22,1.22,0,0,1,.8.408,2.667,2.667,0,0,1,.27,1.244s0.16,2.372-.37,2.666c-0.37.2-.87-0.21-1.95-2.1a18.19,18.19,0,0,1-.97-2.034,0.829,0.829,0,0,0-.22-0.307,1.17,1.17,0,0,0-.42-0.171l-2.58.017a0.873,0.873,0,0,0-.53.182,0.606,0.606,0,0,0-.01.466s2.02,4.786,4.31,7.2a6.132,6.132,0,0,0,4.47,2.067h0Z" transform="translate(-1176.47 -21.281)"/>
</svg>
