<svg xmlns="http://www.w3.org/2000/svg" width="16" height="16" viewBox="0 0 16 16">
<defs>
    <style>
      .cls-1 {
        fill-rule: evenodd;
        fill:#000;
      }
    </style>
  </defs>
  <path id="insta" class="cls-1" d="M1303.16,24.763h-1.39a4.99,4.99,0,0,1,.16,1.232,4.925,4.925,0,0,1-9.85,0,4.99,4.99,0,0,1,.16-1.232h-1.39v6.77a0.618,0.618,0,0,0,.62.615h11.07a0.618,0.618,0,0,0,.62-0.615v-6.77h0Zm0-4.307a0.619,0.619,0,0,0-.62-0.615h-1.84a0.619,0.619,0,0,0-.62.615V22.3a0.619,0.619,0,0,0,.62.614h1.84a0.613,0.613,0,0,0,.62-0.614V20.456Zm-6.15,2.461a3.078,3.078,0,1,0,3.07,3.078,3.08,3.08,0,0,0-3.07-3.078M1303.16,34h-12.31a1.841,1.841,0,0,1-1.84-1.848V19.841a1.841,1.841,0,0,1,1.84-1.847h12.31a1.849,1.849,0,0,1,1.85,1.847V32.148A1.85,1.85,0,0,1,1303.16,34" transform="translate(-1289 -18)"/>
</svg>
