<svg xmlns="http://www.w3.org/2000/svg" width="11.62" height="17.031" viewBox="0 0 11.62 17.031">
<defs>
    <style>
      .cls-1 {
        fill-rule: evenodd;
        fill:#000;
      }
    </style>
  </defs>
  <path id="ok" class="cls-1" d="M1257.64,25.5a5.571,5.571,0,0,1-6.29,0,1.565,1.565,0,0,0-2.17-.067,1.466,1.466,0,0,0-.07,2.113,6.4,6.4,0,0,0,3.21,1.648l-2.31,2.262a1.467,1.467,0,0,0,.01,2.115,1.563,1.563,0,0,0,2.17-.009l2.33-2.278,2.35,2.283a1.564,1.564,0,0,0,2.17,0,1.467,1.467,0,0,0,0-2.115l-2.33-2.266a6.379,6.379,0,0,0,3.17-1.64,1.458,1.458,0,0,0-.07-2.113A1.566,1.566,0,0,0,1257.64,25.5Zm-3.14.021a4.266,4.266,0,1,0-4.39-4.264A4.323,4.323,0,0,0,1254.5,25.519Zm0-6.361a2.1,2.1,0,1,1-2.16,2.1A2.122,2.122,0,0,1,1254.5,19.159Z" transform="translate(-1248.69 -17)"/>
</svg>
