<svg xmlns="http://www.w3.org/2000/svg" viewBox="0 0 166.4 294.4" width="14px"><defs><style>.cls-1{fill:#fcfcfc;}</style></defs><title>tel__white</title><g id="Слой_2" data-name="Слой 2"><g id="Слой_1-2" data-name="Слой 1"><path class="cls-1" d="M134.4,0H32A32.09,32.09,0,0,0,0,32V262.4a32.09,32.09,0,0,0,32,32H134.4a32.09,32.09,0,0,0,32-32V32a32.09,32.09,0,0,0-32-32Zm19.2,262.4a19.26,19.26,0,0,1-19.2,19.2H32a19.26,19.26,0,0,1-19.2-19.2v-32H153.6Zm0-44.8H12.8V51.2H153.6Zm0-179.2H12.8V32A19.26,19.26,0,0,1,32,12.8H134.4A19.26,19.26,0,0,1,153.6,32Zm0,0"/><path class="cls-1" d="M83.2,275.2A19.2,19.2,0,1,0,64,256a19.25,19.25,0,0,0,19.2,19.2Zm0-25.6a6.4,6.4,0,1,1-6.4,6.4,6.42,6.42,0,0,1,6.4-6.4Zm0,0"/><path class="cls-1" d="M86.4,19.2H80A6.4,6.4,0,0,0,80,32h6.4a6.4,6.4,0,1,0,0-12.8Zm0,0"/></g></g></svg>