<svg version="1.1" id="question" xmlns="http://www.w3.org/2000/svg" xmlns:xlink="http://www.w3.org/1999/xlink" x="0px" y="0px"   width="20px"
  height="20px"
	 viewBox="0 0 19.667 19.667" style="enable-background:new 0 0 19.667 19.667;" xml:space="preserve">
<g>
	<g>
		<path style="fill:#5F5F5D;" d="M9.834,1L9.834,1c0.497,0,1.002,0.042,1.503,0.124c3.69,0.605,6.66,3.614,7.223,7.316
			c0.383,2.517-0.272,4.978-1.843,6.929l-0.254,0.315l0.037,0.403c0.075,0.821,0.139,1.462,0.192,1.959
			c-0.53-0.157-1.176-0.342-1.9-0.538l-0.387-0.105l-0.352,0.192c-1.286,0.701-2.745,1.071-4.219,1.071
			c-0.502,0-1.012-0.042-1.516-0.126c-3.637-0.602-6.595-3.563-7.193-7.202C0.696,8.732,1.415,6.101,3.096,4.12
			C4.78,2.138,7.236,1,9.834,1 M9.833,0C3.856,0.001-0.876,5.334,0.137,11.501c0.668,4.07,3.948,7.353,8.016,8.026
			c0.568,0.094,1.129,0.139,1.68,0.139c1.701,0,3.302-0.432,4.698-1.193c1.948,0.526,3.344,0.984,3.344,0.984
			s-0.125-0.688-0.379-3.462c1.653-2.052,2.498-4.782,2.053-7.707c-0.627-4.127-3.931-7.477-8.05-8.153
			C10.935,0.044,10.38,0,9.833,0L9.833,0z"/>
	</g>
	<g>
		<path style="fill:#5F5F5D;" d="M8.896,10.709c0-1.735,1.928-1.929,1.928-3.299c0-0.639-0.547-1.13-1.301-1.13
			c-0.468,0-0.936,0.194-1.29,0.479L7.618,5.972c0.434-0.388,1.164-0.73,1.986-0.73c1.289,0,2.385,0.822,2.385,2.089
			c0,1.883-2.02,2.065-2.02,3.447v0.468H8.896V10.709z M8.862,12.329h1.141v1.13H8.862V12.329z"/>
	</g>
</g>
</svg>
