<svg xmlns="http://www.w3.org/2000/svg" viewBox="0 0 20.11 18.33"   width="21px"
  height="19px"><defs><style>.cls-1{fill:none;stroke:#5f5f5e;stroke-miterlimit:10;}.cls-2{fill:#5f5f5e;}</style></defs><title>Ресурс 1</title><g id="Слой_2" data-name="Слой 2"><g id="Layer_1" data-name="Layer 1"><path class="cls-1" d="M19.61,4.92v5a2,2,0,0,1-2,2h-10a2,2,0,0,1-2-2v-6L.27.42"/><path class="cls-2" d="M9.13,17.33a1,1,0,0,0,.85-.5H8.28A1,1,0,0,0,9.13,17.33Z"/><path class="cls-2" d="M9.13,15.33a1,1,0,0,0-.85.5H10A1,1,0,0,0,9.13,15.33Z"/><path class="cls-2" d="M15.92,17.33a1,1,0,0,0,.85-.5H15.07A1,1,0,0,0,15.92,17.33Z"/><path class="cls-2" d="M15.92,15.33a1,1,0,0,0-.85.5h1.69A1,1,0,0,0,15.92,15.33Z"/><path class="cls-2" d="M7.22,15.77a1.5,1.5,0,0,1-1.09-1.44v-4h-1v4a2.5,2.5,0,0,0,2.06,2.46,1.82,1.82,0,0,1,0-1Z"/><path class="cls-2" d="M14,15.83H11.06a1.79,1.79,0,0,1,0,1H14a1.79,1.79,0,0,1,0-1Z"/><path class="cls-2" d="M8.28,15.83a1,1,0,0,1,1.69,0h1.08a2,2,0,0,0-3.84-.06,1.48,1.48,0,0,0,.41.06Z"/><path class="cls-2" d="M9.13,17.33a1,1,0,0,1-.85-.5H7.63a2.49,2.49,0,0,1-.44,0,2,2,0,0,0,3.87,0H10A1,1,0,0,1,9.13,17.33Z"/><path class="cls-2" d="M8.28,16.83a.89.89,0,0,1,0-1H7.63a1.48,1.48,0,0,1-.41-.06,1.82,1.82,0,0,0,0,1,2.49,2.49,0,0,0,.44,0Z"/><path class="cls-2" d="M11.06,15.83H10a.89.89,0,0,1,0,1h1.08a1.79,1.79,0,0,0,0-1Z"/><path class="cls-2" d="M15.92,14.33A2,2,0,0,0,14,15.83h1.08a1,1,0,0,1,1.69,0h.86v1h-.86a1,1,0,0,1-1.69,0H14a2,2,0,1,0,1.93-2.5Z"/><path class="cls-2" d="M16.77,16.83h.86v-1h-.86a.89.89,0,0,1,0,1Z"/><path class="cls-2" d="M14.92,16.33a1,1,0,0,1,.15-.5H14a1.79,1.79,0,0,0,0,1h1.08A1,1,0,0,1,14.92,16.33Z"/></g></g></svg>