<svg xmlns="http://www.w3.org/2000/svg" viewBox="0 0 129.18 129.18" width="39px"><defs><style>.cls-1{fill:none;stroke:#354254;stroke-linecap:round;stroke-miterlimit:10;stroke-width:3px;}.cls-2{fill:#ec6463;}</style></defs><title>allergologiiimunologii</title><g id="Слой_2" data-name="Слой 2"><g id="Layer_1" data-name="Layer 1"><circle class="cls-1" cx="55.61" cy="55.61" r="54.11"/><path class="cls-1" d="M105.83,95.71l19.75,19.75a7.16,7.16,0,0,1,0,10.12h0a7.16,7.16,0,0,1-10.12,0L95.71,105.83"/><path class="cls-1" d="M78.06,115.35a62.13,62.13,0,0,0,37.29-37.29"/><path class="cls-1" d="M58.36,42.43a33.2,33.2,0,0,0,22.15-1.5c7.27-3.14,8.23-9.35,8.23-9.35h0c1-3.76-1.6-7.2-5-6.69a53.92,53.92,0,0,1-20.92-.73,53.93,53.93,0,0,1-18.71-9.37c-2.73-2.07-6.62-.27-7.58,3.48h0s-2.13,5.91,2.75,12.15A33.2,33.2,0,0,0,58,42.34Z"/><path class="cls-1" d="M45,64.09a29.89,29.89,0,0,0-8.34-18.17c-5-5.12-10.5-3.94-10.5-3.94h0c-3.47.39-5.55,3.65-4,6.34a48.56,48.56,0,0,1,6.07,17.85A48.56,48.56,0,0,1,26.26,84.9c-.87,3,1.88,5.66,5.36,5.27h0S37.27,90.08,41,84A29.9,29.9,0,0,0,45,64.4Z"/><path class="cls-1" d="M81.51,75a26.37,26.37,0,0,0,15.37-8.66,10.6,10.6,0,0,0,2.7-9.52h0c-.6-3-3.61-4.61-5.87-3.09a42.84,42.84,0,0,1-15.25,6.64,42.84,42.84,0,0,1-16.63-.31c-2.66-.55-4.84,2.07-4.24,5.09h0a10.6,10.6,0,0,0,6.13,7.77,26.37,26.37,0,0,0,17.51,2.14Z"/><path class="cls-1" d="M71.82,67.79a22.66,22.66,0,0,0,16.61-3.36"/><path class="cls-2" d="M60.19,29.64A59.87,59.87,0,0,1,42.1,20.75a8.06,8.06,0,0,0,1.91,6A27.29,27.29,0,0,0,59.4,36.51l.54.14a28.94,28.94,0,0,0,3.82.77A16.93,16.93,0,0,1,60.19,29.64Z"/><path class="cls-2" d="M34.18,66a15.86,15.86,0,0,1,4.67-2.52,23.9,23.9,0,0,0-6.52-13.41A7,7,0,0,0,28.71,48a53.19,53.19,0,0,1,5.42,17.51C34.15,65.66,34.16,65.83,34.18,66Z"/></g></g></svg>