<svg xmlns="http://www.w3.org/2000/svg" viewBox="0 0 127.47 128.23" width="40px"><defs><style>.cls-1{fill:none;stroke:#354254;stroke-linecap:round;stroke-miterlimit:10;stroke-width:3px;}.cls-2{fill:#a4d9ea;}.cls-3{fill:#ec6463;}</style></defs><title>dermotologiya</title><g id="Слой_2" data-name="Слой 2"><g id="Layer_1" data-name="Layer 1"><path class="cls-1" d="M63.85,83.68A579.32,579.32,0,0,0,59,1.5"/><path class="cls-2" d="M126,109.44c-10.37,0-10.37,4.1-20.75,4.1s-10.37-4.1-20.75-4.1-10.37,4.1-20.74,4.1-10.37-4.1-20.74-4.1-10.37,4.1-20.74,4.1-10.37-4.1-20.74-4.1v11.14H126Z"/><path class="cls-1" d="M94.37,13c2.13,19.7,4,38.44,4.27,51.07H126V97.16"/><path class="cls-1" d="M37.38,64.05H52.9L51.08,89.72a12.69,12.69,0,0,0,12.66,13.59h0A12.69,12.69,0,0,0,76.39,89.72L74.57,64.05H90"/><polyline class="cls-1" points="29.25 64.05 1.5 64.05 1.5 97.16"/><path class="cls-3" d="M57.41,87.28l-.2,2.87a6.54,6.54,0,1,0,13.05,0l-.2-2.87a11.15,11.15,0,0,1-12.64,0Z"/><path class="cls-1" d="M29.25,64.05C29,51.41,27.11,32.68,25,13"/><line class="cls-1" x1="125.97" y1="126.73" x2="1.5" y2="126.73"/><path class="cls-1" d="M104.43,70.41a5.51,5.51,0,0,1-11,0"/><path class="cls-1" d="M23,70.41a5.51,5.51,0,1,0,11,0"/></g></g></svg>