<svg xmlns="http://www.w3.org/2000/svg" viewBox="0 0 130.6 123.13" width="48px"><defs><style>.cls-1{fill:#ec6463;}.cls-2,.cls-3{fill:none;stroke:#354254;stroke-width:3px;}.cls-2{stroke-miterlimit:10;}.cls-3{stroke-linejoin:round;}</style></defs><title>fizikoterapevticheskoe</title><g id="Слой_2" data-name="Слой 2"><g id="Layer_1" data-name="Layer 1"><path class="cls-1" d="M105.61,59.61a24.58,24.58,0,0,0-19.26,8.75c-8.05,9.84-33.08,9.46-40.83,0a24.58,24.58,0,0,0-19.26-8.75Z"/><path class="cls-1" d="M105.61,121.61a24.58,24.58,0,0,1-19.26-8.75c-8.05-9.84-33.08-9.46-40.83,0a24.58,24.58,0,0,1-19.26,8.75Z"/><line class="cls-2" x1="130.6" y1="121.63" y2="121.63"/><line class="cls-2" y1="59.62" x2="129.32" y2="59.62"/><line class="cls-2" x1="1.28" y1="59.62" x2="130.6" y2="59.62"/><path class="cls-2" d="M94.48,94.39c-2.46-1.79-3.65-4.59-2.67-6.26s3.79-1.58,6.25.21,3.65,4.59,2.67,6.26S96.94,96.18,94.48,94.39Z"/><path class="cls-2" d="M114.81,110.49c-2.32,2-5.09,2.37-6.21.79s-.14-4.48,2.18-6.49,5.09-2.37,6.21-.79S117.13,108.48,114.81,110.49Z"/><path class="cls-2" d="M10.65,111.86c-2.67-1.5-3.94-4-2.84-5.58s4.17-1.64,6.84-.14,3.94,4,2.84,5.58S13.32,113.36,10.65,111.86Z"/><path class="cls-2" d="M35.7,98c-2.44-1.82-3.6-4.64-2.59-6.3s3.8-1.53,6.24.3,3.6,4.64,2.59,6.3S38.14,99.81,35.7,98Z"/><path class="cls-2" d="M115.45,77.77c-2.6,2.64-5.9,3.35-7.36,1.59s-.54-5.34,2.06-8,5.9-3.35,7.36-1.59S118,75.12,115.45,77.77Z"/><ellipse class="cls-2" cx="66.5" cy="90.1" rx="6.39" ry="4.34"/><path class="cls-2" d="M23.83,79.29c-3,2.06-6.36,2.08-7.5,0s.36-5.36,3.36-7.43,6.36-2.08,7.5,0S26.83,77.23,23.83,79.29Z"/><polygon class="cls-3" points="81.7 22.86 68.22 22.77 70.5 1.5 48.9 30.8 62.39 30.89 60.1 52.16 81.7 22.86"/></g></g></svg>