<svg xmlns="http://www.w3.org/2000/svg" viewBox="0 0 115.6 128.49" width="44px"><defs><style>.cls-1,.cls-2{fill:none;stroke:#354254;stroke-miterlimit:10;stroke-width:3px;}.cls-2{stroke-linecap:round;}.cls-3{fill:#ec6463;}</style></defs><title>hirurgiya</title><g id="Слой_2" data-name="Слой 2"><g id="Layer_1" data-name="Layer 1"><path class="cls-1" d="M99.14,7.17l-7.4-5A4,4,0,0,0,86.2,3.26L39.64,72.35a4,4,0,0,0,1.08,5.54l7.4,5a4,4,0,0,0,5.54-1.08l46.56-69.09A4,4,0,0,0,99.14,7.17Z"/><path class="cls-1" d="M2.84,127C26.1,126.68,44.06,96,44.06,96a4.65,4.65,0,0,0-1.26-6.45l-6.31-4.25A4.65,4.65,0,0,0,30,86.6Z"/><line class="cls-2" x1="48.61" y1="83.2" x2="43.83" y2="90.29"/><line class="cls-2" x1="35.52" y1="84.69" x2="40.3" y2="77.6"/><line class="cls-2" x1="58.32" y1="59.75" x2="81.53" y2="25.31"/><line class="cls-2" x1="27.88" y1="126.95" x2="38.98" y2="126.95"/><line class="cls-2" x1="52.92" y1="126.95" x2="64.02" y2="126.95"/><line class="cls-2" x1="77.97" y1="126.95" x2="89.06" y2="126.95"/><line class="cls-2" x1="103.01" y1="126.95" x2="114.1" y2="126.95"/><path class="cls-3" d="M40.76,110.81A90.76,90.76,0,0,1,34,118.06H114.1v-7.25Z"/></g></g></svg>