<svg xmlns="http://www.w3.org/2000/svg" viewBox="0 0 109.81 102.88" width="41px"><defs><style>.cls-1{fill:#ec6463;}.cls-2{fill:none;stroke:#354254;stroke-linecap:round;stroke-miterlimit:10;stroke-width:3px;}</style></defs><title>kardiologiya</title><g id="Слой_2" data-name="Слой 2"><g id="Layer_1" data-name="Layer 1"><path class="cls-1" d="M24,35.67C21.52,20.8,40.27,9,54.16,21.74c0,0-7.34-16.13-24.09-15.08A25.76,25.76,0,0,0,9,19.78C6.37,24.66,4.83,31.33,7.66,39.66a31.78,31.78,0,0,0,4.43,8.45A34.32,34.32,0,0,0,14.43,51,170.56,170.56,0,0,0,32.16,67.29S49.63,80.91,53.79,89.92c0-11.5-5.16-23.22-13-31.84C34.85,51.55,25.54,45.16,24,35.67Z"/><path class="cls-2" d="M43,43.48H53.58l4.61,11.69,3.25-11.69,3.25-11.69,4.61,11.69h6.91L80.8,55.17,84,43.48l3.25-11.69,4.61,11.69H92c10.3,0,18.18-9.52,15.86-19.55A28.67,28.67,0,0,0,82.2,1.84C63.51.41,55.13,19.24,55.13,19.24S46.93.33,28.22,1.56A28.66,28.66,0,0,0,4.71,16.94C1.75,22.66,0,30.48,3.19,40.26a37.92,37.92,0,0,0,4.94,9.91,39.75,39.75,0,0,0,2.62,3.4,194.4,194.4,0,0,0,19.8,19.08s19.51,16,24.16,26.54c4.76-10.52,24.43-26.29,24.43-26.29A208,208,0,0,0,95,58.45"/></g></g></svg>