<svg xmlns="http://www.w3.org/2000/svg" viewBox="0 0 99.85 108.03" width="39px"><defs><style>.cls-1{fill:#354254;}.cls-2{fill:#a4d9ea;}.cls-3{fill:#ec6463;}</style></defs><title>laborotoria</title><g id="Слой_2" data-name="Слой 2"><g id="Layer_1" data-name="Layer 1"><path class="cls-1" d="M88.45,108h-54a1.5,1.5,0,0,1,0-3h54a8.39,8.39,0,0,0,7.59-12L71.37,40.72a23.4,23.4,0,0,1-2.22-9.91V8.95h1.5a2,2,0,0,0,2-2V5a2,2,0,0,0-2-2H48a2,2,0,0,0-2,2V6.95a2,2,0,0,0,2,2h1.5V30.81a23.4,23.4,0,0,1-2.22,9.91L35.75,65.23A1.5,1.5,0,1,1,33,64L44.59,39.44a20.39,20.39,0,0,0,1.93-8.63V11.72A5,5,0,0,1,43,6.95V5a5,5,0,0,1,5-5H70.65a5,5,0,0,1,5,5V6.95a5,5,0,0,1-3.5,4.77V30.81a20.39,20.39,0,0,0,1.93,8.63L98.75,91.79A11.38,11.38,0,0,1,88.45,108Z"/><path class="cls-1" d="M70.65,11.95h-8.2a1.5,1.5,0,0,1,0-3h8.2a1.5,1.5,0,0,1,0,3Z"/><path class="cls-1" d="M70.65,18.06H65a1.5,1.5,0,0,1,0-3h5.61a1.5,1.5,0,1,1,0,3Z"/><path class="cls-1" d="M70.65,24.17h-8.2a1.5,1.5,0,0,1,0-3h8.2a1.5,1.5,0,0,1,0,3Z"/><path class="cls-1" d="M70.65,36.38h-8.2a1.5,1.5,0,0,1,0-3h8.2a1.5,1.5,0,0,1,0,3Z"/><path class="cls-1" d="M70.65,30.27H65a1.5,1.5,0,0,1,0-3h5.61a1.5,1.5,0,0,1,0,3Z"/><path class="cls-1" d="M13.22,54.7H5a1.5,1.5,0,1,1,0-3h8.2a1.5,1.5,0,1,1,0,3Z"/><path class="cls-1" d="M10.64,48.59H5a1.5,1.5,0,1,1,0-3h5.61a1.5,1.5,0,1,1,0,3Z"/><path class="cls-1" d="M13.22,42.49H5a1.5,1.5,0,1,1,0-3h8.2a1.5,1.5,0,1,1,0,3Z"/><path class="cls-1" d="M13.22,30.27H5a1.5,1.5,0,1,1,0-3h8.2a1.5,1.5,0,1,1,0,3Z"/><path class="cls-1" d="M10.64,36.38H5a1.5,1.5,0,1,1,0-3h5.61a1.5,1.5,0,1,1,0,3Z"/><path class="cls-1" d="M17.72,108H14.91A11.51,11.51,0,0,1,3.42,96.53V30A4.93,4.93,0,0,1,0,25.36V23.3a4.92,4.92,0,0,1,4.92-4.92h22.8a4.92,4.92,0,0,1,4.92,4.92v2.06A4.93,4.93,0,0,1,29.21,30V96.53A11.51,11.51,0,0,1,17.72,108ZM4.92,21.38A1.92,1.92,0,0,0,3,23.3v2.06a1.92,1.92,0,0,0,1.92,1.92h1.5V96.53A8.5,8.5,0,0,0,14.91,105h2.81a8.5,8.5,0,0,0,8.49-8.49V27.27h1.5a1.92,1.92,0,0,0,1.92-1.92V23.3a1.92,1.92,0,0,0-1.92-1.92Z"/><path class="cls-2" d="M92.83,94.58,80.53,68.46c-7.15,8.15-24.7,16.72-46.14,18.93v14.1H88.45a4.84,4.84,0,0,0,4.38-6.91Z"/><path class="cls-3" d="M9.72,79.54h0V94.75a5.53,5.53,0,0,0,5.53,5.53H16.8a5.53,5.53,0,0,0,5.53-5.53V79.54h0"/></g></g></svg>