<svg xmlns="http://www.w3.org/2000/svg" viewBox="0 0 101.4 101.41" width="40px"><defs><style>.cls-1{fill:#a4d9ea;}.cls-2{fill:none;stroke:#354254;stroke-linecap:round;stroke-linejoin:round;stroke-width:3px;}.cls-3{fill:#354254;}</style></defs><title>logopedicheskoe</title><g id="Слой_2" data-name="Слой 2"><g id="Layer_1" data-name="Layer 1"><path class="cls-1" d="M88.86,32.74A42.33,42.33,0,0,1,27.29,86.21C67,84.06,79,70.13,88.86,32.74Z"/><path class="cls-2" d="M85.46,15.92A49.19,49.19,0,0,0,12.79,82.08C11.21,85.27,8.67,89,4.9,90.82a4.62,4.62,0,0,0,1.33,8.7,25.33,25.33,0,0,0,3.89.29,29.38,29.38,0,0,0,17.31-5.74,49.19,49.19,0,0,0,58-78.15Zm-4,65.6"/><path class="cls-3" d="M54.13,50.71a3.45,3.45,0,1,1-3.45-3.45,3.45,3.45,0,0,1,3.45,3.45Zm0,0"/><path class="cls-3" d="M71.94,50.71a3.45,3.45,0,1,1-3.45-3.45,3.45,3.45,0,0,1,3.45,3.45Zm0,0"/><path class="cls-3" d="M36.32,50.71a3.45,3.45,0,1,1-3.45-3.45,3.45,3.45,0,0,1,3.45,3.45Zm0,0"/></g></g></svg>