<svg xmlns="http://www.w3.org/2000/svg" viewBox="0 0 85.66 115.35" width="29px"><defs><style>.cls-1{fill:none;stroke:#354254;stroke-linecap:round;stroke-linejoin:round;stroke-width:3px;}.cls-2{fill:#a4d9ea;}</style></defs><title>lor</title><g id="Слой_2" data-name="Слой 2"><g id="Layer_1" data-name="Layer 1"><path class="cls-1" d="M73,13.33C65.44,5.7,54.73,1.5,42.83,1.5A41.38,41.38,0,0,0,1.5,42.83v42c0,17.88,8.64,29,22.56,29,19.65,0,26.3-14.07,29.87-21.63L54,92c3.6-7.62,8.18-10.82,13-14.21C75.34,72,83.92,66,84.16,42.89c.12-11.83-3.74-22-11.17-29.56ZM63.64,73"/><path class="cls-1" d="M66.44,31.7a25.66,25.66,0,0,0-4.67-6.49c-5.19-5.25-12.54-8.14-20.7-8.14-7.55,0-15,3.68-20.39,10.08S13,41.24,14.24,48.46c.65,3.79,3.92,5.29,6.81,6.61s5.45,2.49,6.78,5.54c1.51,3.49,1.36,6.54-3.65,13.54m37-39.78"/><path class="cls-1" d="M66.5,41,61.35,63.27c7.14-5,8.12-12.2,8.12-19.25m-3-3"/><path class="cls-2" d="M40.19,97.08c-5,8.8-34.33,19.46-30.33-21.87C15.85,86.54,25.19,95.88,40.19,97.08Z"/></g></g></svg>