<svg xmlns="http://www.w3.org/2000/svg" viewBox="0 0 117.5 130.58" width="39px"><defs><style>.cls-1{fill:none;stroke:#354254;stroke-linecap:round;stroke-linejoin:round;stroke-width:3px;}.cls-2{fill:#a4d9ea;}</style></defs><title>mamologia</title><g id="Слой_2" data-name="Слой 2"><g id="Layer_1" data-name="Layer 1"><path class="cls-1" d="M66.89,1.5c-.2,1.09-3.07,13.36-32.73,29.66A76.27,76.27,0,0,0,12,48.65l-.78-.6a6,6,0,1,0-7.34,9.61l1.48,1.13a35.36,35.36,0,0,0,14,45.48,31.52,31.52,0,0,0,16.42,4.3A55.46,55.46,0,0,0,50.9,93.25"/><path class="cls-1" d="M35.74,108.58a43.4,43.4,0,0,0,0,20.5"/><path class="cls-2" d="M22.35,99.1a25.4,25.4,0,0,0,11.56,3.44A51.08,51.08,0,0,0,44.44,92.08a29.58,29.58,0,0,1-34.79-28A29.38,29.38,0,0,0,22.35,99.1Z"/><line class="cls-1" x1="12" y1="48.65" x2="15.47" y2="51.64"/><path class="cls-1" d="M113.26,129.08c0-52.5,2.74-89.25,2.74-89.25"/><path class="cls-1" d="M98.77,129.08v-18.6a33.9,33.9,0,0,1,8.76-22.88"/></g></g></svg>