<svg xmlns="http://www.w3.org/2000/svg" viewBox="0 0 91.94 127.38" width="35px"><defs><style>.cls-1,.cls-2{fill:none;stroke:#354254;stroke-miterlimit:10;stroke-width:3px;}.cls-2{stroke-linecap:round;}.cls-3{fill:#a4d9ea;}</style></defs><title>mrt</title><g id="Слой_2" data-name="Слой 2"><g id="Layer_1" data-name="Layer 1"><path class="cls-1" d="M21.65,83.21a44.47,44.47,0,1,1,48.65,0"/><path class="cls-1" d="M79.48,110.88v3.89a5.11,5.11,0,0,1-5.11,5.11H61.63l-6,6H36.32l-6-6H17.56a5.11,5.11,0,0,1-5.11-5.11v-3.89L28.77,62.63H63.17Z"/><path class="cls-1" d="M28.77,62.63a23.95,23.95,0,1,1,34.39,0"/><path class="cls-2" d="M12.46,110.88a427.17,427.17,0,0,1,67,0"/><path class="cls-2" d="M36.56,2.5a9.46,9.46,0,0,0,18.82,0"/><path class="cls-3" d="M58.86,68.64H33.08l-3.26,9.65c7.65.58,24.47,3.24,37.44,15.15Z"/></g></g></svg>