<svg xmlns="http://www.w3.org/2000/svg" viewBox="0 0 131.84 102.29" width="47px"><defs><style>.cls-1{fill:none;stroke:#354254;stroke-linecap:round;stroke-miterlimit:10;stroke-width:3px;}.cls-2{fill:#ec6463;}</style></defs><title>nefrologicheskoe</title><g id="Слой_2" data-name="Слой 2"><g id="Layer_1" data-name="Layer 1"><path class="cls-1" d="M96.37,64.53c-7.57-.86-12.08,3.94-14.56,8.21a18.82,18.82,0,0,0-2.21,13.85,17.52,17.52,0,0,0,9,11.3,24.42,24.42,0,0,0,16,2.51c11.8-2.09,18.27-11.78,21.75-20.52a56.84,56.84,0,0,0,3-31.42c-2.15-11.54-7.3-18.3-11.76-22.13a21.82,21.82,0,0,0-16.68-5.16,16.74,16.74,0,0,0-8.47,3.33s-3.9,3-4.11,7.43c-.12,2.72,1.13,6.85,7.42,6.85"/><path class="cls-1" d="M72.46,1.5,73,25.14A13.88,13.88,0,0,0,74.86,32a11,11,0,0,0,6.93,5.11"/><path class="cls-1" d="M35.46,64.53C43,63.68,47.54,68.47,50,72.74a18.82,18.82,0,0,1,2.21,13.85,17.52,17.52,0,0,1-9,11.3,24.42,24.42,0,0,1-16,2.51C15.39,98.31,8.92,88.61,5.44,79.87a56.84,56.84,0,0,1-3-31.42c2.15-11.54,7.3-18.3,11.76-22.13a21.82,21.82,0,0,1,16.68-5.16,16.74,16.74,0,0,1,8.47,3.33s3.9,3,4.11,7.43c.12,2.72-1.12,6.85-7.42,6.85"/><path class="cls-1" d="M59.38,1.5l-.52,23.64A13.88,13.88,0,0,1,57,32,11,11,0,0,1,50,37.11"/><path class="cls-1" d="M35.46,64.53c11.9,0,19.24-3.41,23.73-7.18a10.49,10.49,0,0,1,13.46,0c4.49,3.77,11.83,7.18,23.73,7.18"/><path class="cls-2" d="M96.37,79.94A28.66,28.66,0,0,1,86,78a12.29,12.29,0,0,0-.52,7.19,11.4,11.4,0,0,0,6.07,7.46,18.45,18.45,0,0,0,12.1,1.85c7.5-1.33,13.3-7,17.22-16.83a50.06,50.06,0,0,0,3.5-19.71A28.76,28.76,0,0,1,96.37,79.94Z"/><path class="cls-2" d="M35.46,79.94a28.66,28.66,0,0,0,10.42-2,12.29,12.29,0,0,1,.52,7.19,11.4,11.4,0,0,1-6.07,7.46,18.45,18.45,0,0,1-12.1,1.85c-7.5-1.33-13.3-7-17.22-16.83a50.06,50.06,0,0,1-3.5-19.71A28.76,28.76,0,0,0,35.46,79.94Z"/><line class="cls-1" x1="65.92" y1="47.47" x2="65.92" y2="37.11"/></g></g></svg>