<svg xmlns="http://www.w3.org/2000/svg" viewBox="0 0 129.02 107.69" width="48px"><defs><style>.cls-1{fill:#a4d9ea;}.cls-2{fill:none;stroke:#354254;stroke-linecap:round;stroke-linejoin:round;stroke-width:3px;}.cls-3{fill:#ec6463;}</style></defs><title>oftalmologiya</title><g id="Слой_2" data-name="Слой 2"><g id="Layer_1" data-name="Layer 1"><path class="cls-1" d="M16,75V32.67A32.75,32.75,0,0,0,16,75Z"/><path class="cls-2" d="M127.52,99.12l-17.95-9A11.11,11.11,0,0,0,97,92a52.33,52.33,0,0,1-75.7-4.36h0a38.86,38.86,0,0,1,0-67.69"/><path class="cls-2" d="M21.26,20a52.34,52.34,0,0,1,91.5,42.84,10.93,10.93,0,0,0,5.9,11.61l8.85,4.45"/><path class="cls-3" d="M92.63,19.61A48.93,48.93,0,0,1,27.41,84.83,46.17,46.17,0,1,0,92.63,19.61Z"/><path class="cls-2" d="M37,32.67s7.84,7.82,7.84,21.77S36.2,79.71,25.57,79.71h0V40a27,27,0,0,1,12.18-22.8,43.09,43.09,0,0,1,25-7,43.71,43.71,0,0,1,15.46,3.7"/><line class="cls-2" x1="113.47" y1="82.02" x2="127.52" y2="88.77"/></g></g></svg>