<svg xmlns="http://www.w3.org/2000/svg" viewBox="0 0 97.08 131.25" width="36px"><defs><style>.cls-1{fill:none;stroke:#354254;stroke-linecap:round;stroke-miterlimit:10;stroke-width:3px;}.cls-2{fill:#a4d9ea;}</style></defs><title>onkologicheskoe</title><g id="Слой_2" data-name="Слой 2"><g id="Layer_1" data-name="Layer 1"><path class="cls-1" d="M28,70.74A111,111,0,0,1,15.89,52.47a24.65,24.65,0,0,1-.36-21.87L26.2,7.9"/><polyline class="cls-1" points="69.18 79.97 94.99 112.3 74.77 129.12 51.92 100.57"/><path class="cls-1" d="M70.88,7.9,81.56,30.6a24.65,24.65,0,0,1-.36,21.87A126,126,0,0,1,66.69,73.68L22.3,129.12,2.09,112.3,48,54.73c17.9-22,22.57-35.44,23.42-42.73a8.13,8.13,0,0,0-6.19-8.85A63.69,63.69,0,0,0,50.45,1.5H46.63A63.69,63.69,0,0,0,31.8,3.14,8.13,8.13,0,0,0,25.61,12c.79,6.83,4,17.87,19.24,37.45"/><path class="cls-2" d="M26.65,91.14l-16.21,20.3,11,9.15,22.5-28.11A58.26,58.26,0,0,1,26.65,91.14Z"/><path class="cls-1" d="M66.68,26.77a132.52,132.52,0,0,0-18.14-1.58A132.51,132.51,0,0,0,30.4,26.77"/></g></g></svg>