<svg xmlns="http://www.w3.org/2000/svg" viewBox="0 0 121.73 130.85" width="41px"><defs><style>.cls-1,.cls-2{fill:none;stroke:#354254;stroke-linejoin:round;stroke-width:3px;}.cls-2{stroke-linecap:round;}.cls-3{fill:#ec6463;}</style></defs><title>ortopedia</title><g id="Слой_2" data-name="Слой 2"><g id="Layer_1" data-name="Layer 1"><path class="cls-1" d="M34.89,119.71v-4.53a2.55,2.55,0,0,0-2.55-2.55H26.67v.57a3.46,3.46,0,0,1-3.46,3.46h0a3.46,3.46,0,0,1-3.46-3.46v-3.57H4.91a3.31,3.31,0,0,0-3.06,4.56l1.65,4a3.32,3.32,0,0,1,0,2.51l-1.65,4a3.31,3.31,0,0,0,3.06,4.56H19.75v-3.57a3.46,3.46,0,0,1,3.46-3.46h0a3.46,3.46,0,0,1,3.46,3.46v.57H38.22A3.32,3.32,0,0,0,41.54,123h0a3.32,3.32,0,0,0-3.32-3.32Z"/><path class="cls-1" d="M35.39,95.52,36,91a2.55,2.55,0,0,0-2.17-2.88l-5.62-.79-.08.57a3.46,3.46,0,0,1-3.91,2.94h0A3.46,3.46,0,0,1,21.3,87l.5-3.53L7.1,81.37a3.31,3.31,0,0,0-3.67,4.09L4.5,89.7a3.32,3.32,0,0,1-.35,2.48L2,96a3.31,3.31,0,0,0,2.4,4.95L19.05,103l.5-3.53a3.46,3.46,0,0,1,3.91-2.94h0a3.46,3.46,0,0,1,2.94,3.91l-.08.57,11.44,1.61a3.32,3.32,0,0,0,3.75-2.83h0A3.32,3.32,0,0,0,38.68,96Z"/><path class="cls-1" d="M39.92,70.93l1.25-4.35a2.55,2.55,0,0,0-1.75-3.16L34,61.85l-.16.55a3.46,3.46,0,0,1-4.28,2.37h0a3.46,3.46,0,0,1-2.37-4.28l1-3.43L13.87,53a3.31,3.31,0,0,0-4.2,3.54l.47,4.34a3.31,3.31,0,0,1-.69,2.41L6.75,66.7a3.31,3.31,0,0,0,1.69,5.23L22.7,76l1-3.43A3.46,3.46,0,0,1,28,70.22h0a3.46,3.46,0,0,1,2.37,4.28l-.16.55,11.1,3.18A3.32,3.32,0,0,0,45.39,76h0a3.32,3.32,0,0,0-2.28-4.11Z"/><path class="cls-1" d="M47.53,47.72l1.84-4.14a2.55,2.55,0,0,0-1.29-3.37L42.9,37.91l-.23.52a3.46,3.46,0,0,1-4.57,1.75h0a3.46,3.46,0,0,1-1.75-4.57l1.45-3.26-13.56-6a3.31,3.31,0,0,0-4.65,2.92l-.13,4.37a3.32,3.32,0,0,1-1,2.29l-3.15,3a3.31,3.31,0,0,0,.94,5.41l13.56,6,1.45-3.26a3.46,3.46,0,0,1,4.57-1.75h0a3.46,3.46,0,0,1,1.75,4.57l-.23.52,10.55,4.7a3.32,3.32,0,0,0,4.39-1.68h0a3.32,3.32,0,0,0-1.68-4.39Z"/><path class="cls-1" d="M58.2,26.44l2.4-3.84a2.55,2.55,0,0,0-.81-3.52l-4.81-3-.3.49a3.46,3.46,0,0,1-4.76,1.1h0a3.46,3.46,0,0,1-1.1-4.77l1.89-3L38.11,2a3.31,3.31,0,0,0-5,2.25l-.74,4.31A3.31,3.31,0,0,1,31,10.68l-3.54,2.55a3.31,3.31,0,0,0,.18,5.49l12.59,7.87,1.89-3a3.46,3.46,0,0,1,4.77-1.1h0A3.46,3.46,0,0,1,48,27.23l-.3.49,9.79,6.12a3.32,3.32,0,0,0,4.58-1.06h0A3.32,3.32,0,0,0,61,28.2Z"/><path class="cls-1" d="M91.2,129.35A54.77,54.77,0,0,0,97,129a25.35,25.35,0,0,0,20.27-14.32,36.76,36.76,0,0,0,1.57-3.82,30.9,30.9,0,0,0-4.58-27.53,5.8,5.8,0,0,1-.69-5.7c2.41-5.66,5.93-16.12-4-22.51a16.86,16.86,0,0,0-4.58-2,52.78,52.78,0,0,0-13.76-2,52.77,52.77,0,0,0-13.76,2,16.84,16.84,0,0,0-4.58,2c-10,6.39-6.44,16.85-4,22.51a5.79,5.79,0,0,1-.69,5.7,30.9,30.9,0,0,0-4.58,27.53,36.87,36.87,0,0,0,1.57,3.82A25.35,25.35,0,0,0,85.42,129,54.77,54.77,0,0,0,91.2,129.35Z"/><path class="cls-1" d="M105,84.71c-2.47-6.94,2.44-12,2.14-16,0-.06,0-.12,0-.18a8.36,8.36,0,0,0-6.06-7.11,35.23,35.23,0,0,0-9.88-1.19,35.24,35.24,0,0,0-9.89,1.19,8.35,8.35,0,0,0-6.05,7.11l0,.18c-.3,4,4.61,9.09,2.14,16"/><path class="cls-2" d="M109.67,91.29S107.77,81,91.2,81,72.73,91.29,72.73,91.29"/><polygon class="cls-3" points="87.16 110.55 84.42 105.18 83.39 105.18 83.39 110.55 81.35 110.55 81.35 98.19 83.39 98.19 83.39 103.43 84.25 103.43 86.97 98.19 89.52 98.19 85.97 103.81 89.81 110.55 87.16 110.55"/><path class="cls-3" d="M97,110.73a4,4,0,0,1-4.36-4.42v-3.88a4.43,4.43,0,0,1,1.15-3.27A4.16,4.16,0,0,1,96.88,98a4.3,4.3,0,0,1,3,.93,3.29,3.29,0,0,1,1,2.49H98.93a2.08,2.08,0,0,0-.49-1.39,2,2,0,0,0-1.49-.52,2,2,0,0,0-1.66.75,3.39,3.39,0,0,0-.59,2.15v3.9a3.4,3.4,0,0,0,.59,2.18,2.11,2.11,0,0,0,1.72.75,3.19,3.19,0,0,0,1.22-.19,1.72,1.72,0,0,0,.72-.52l0-.06v-2.88h-2v-1.27h4V109a4.35,4.35,0,0,1-1.46,1.2A5.44,5.44,0,0,1,97,110.73Z"/></g></g></svg>