<svg xmlns="http://www.w3.org/2000/svg" viewBox="0 0 108 88.25" width="48px"><defs><style>.cls-1{fill:none;stroke:#354254;stroke-linecap:round;stroke-linejoin:round;stroke-width:3px;}.cls-2{fill:#ec6463;}</style></defs><title>pediatria</title><g id="Слой_2" data-name="Слой 2"><g id="Layer_1" data-name="Layer 1"><circle class="cls-1" cx="54" cy="44.25" r="42.5"/><path class="cls-1" d="M95.5,34.75a11,11,0,0,1,0,22"/><path class="cls-1" d="M12.5,34.75a11,11,0,0,0,0,22"/><path class="cls-1" d="M30,45.25a6.5,6.5,0,0,1,13,0"/><path class="cls-1" d="M43.57,59.25c0,2.76,4.79,5,10.69,5s10.69-2.24,10.69-5"/><path class="cls-1" d="M65,45.25a6.5,6.5,0,0,1,13,0"/><line class="cls-1" x1="51.5" y1="50.25" x2="58" y2="50.25"/><path class="cls-1" d="M37,7s7.25,14.25,22.5,21"/><path class="cls-1" d="M55.28,1.5S56.78,10.25,68,15.75"/><circle class="cls-2" cx="31" cy="57.92" r="6.67"/><circle class="cls-2" cx="77" cy="57.92" r="6.67"/></g></g></svg>