<svg xmlns="http://www.w3.org/2000/svg" viewBox="0 0 109.04 127.28" width="40px"><defs><style>.cls-1{fill:none;stroke:#354254;stroke-linecap:round;stroke-linejoin:round;stroke-width:3px;}.cls-2{fill:#a4d9ea;}</style></defs><title>plasticheskaya-hirurgia</title><g id="Слой_2" data-name="Слой 2"><g id="Layer_1" data-name="Layer 1"><path class="cls-1" d="M99.23,61.58S85.58,74.87,54.52,74.87,9.81,61.58,9.81,61.58"/><path class="cls-1" d="M7.31,73.63C26.53,86.33,37,85.2,51.26,102.69a4.4,4.4,0,0,0,6.63,0C72.11,85.2,82.61,86.33,101.84,73.63"/><line class="cls-1" x1="54.52" y1="104.2" x2="54.52" y2="125.78"/><path class="cls-1" d="M17.5,43.5a77.76,77.76,0,0,1-4,9.34,64,64,0,0,0-7.3,28.75,84.54,84.54,0,0,0,12.33,44.19"/><path class="cls-1" d="M16,1.5s8.69,13.5,3.59,35"/><path class="cls-1" d="M34.15,46.95C15,44.46,1.5,38.5,1.5,31.53c0-4.41,5.42-8.43,14.27-11.41"/><polyline class="cls-1" points="37.24 39.52 43.33 48.31 35.12 54.8"/><path class="cls-1" d="M91.54,43.5a77.59,77.59,0,0,0,4,9.34,64,64,0,0,1,7.29,28.75,84.54,84.54,0,0,1-12.33,44.19"/><path class="cls-1" d="M93.07,1.5s-8.69,13.5-3.59,35"/><path class="cls-1" d="M74.89,46.95C94,44.46,107.54,38.5,107.54,31.53c0-4.41-5.42-8.43-14.27-11.41"/><polyline class="cls-1" points="71.8 39.52 65.71 48.31 73.92 54.8"/><path class="cls-2" d="M54.57,80.16a92.86,92.86,0,0,1-28.95-4.33,72,72,0,0,0,9,5.72l1.72.93.09,0h0A62.69,62.69,0,0,1,54.57,97.59h0A62.69,62.69,0,0,1,72.74,82.53h0l.09,0,1.72-.93a72,72,0,0,0,9-5.72A92.86,92.86,0,0,1,54.57,80.16Z"/></g></g></svg>