<svg xmlns="http://www.w3.org/2000/svg" viewBox="0 0 130.04 117.89" width="49px"><defs><style>.cls-1{fill:none;stroke:#354254;stroke-linecap:round;stroke-linejoin:round;stroke-width:3px;}.cls-2{fill:#ec6463;}</style></defs><title>pulmonologicheskoe</title><g id="Слой_2" data-name="Слой 2"><g id="Layer_1" data-name="Layer 1"><path class="cls-1" d="M126.25,88.73s-6,8.57-21.6,8.57"/><path class="cls-1" d="M117.92,71.58s-3.42,5-11.65,5.42"/><path class="cls-1" d="M118.22,70.91c-7.52-26.37-16.64-36.54-22.37-40.46a8.63,8.63,0,0,0-12.1,2.44,39.7,39.7,0,0,0-3.56,7.79q-.73,2.1-1.31,4.24h0L75.27,42c-3.71-3-4.84-7.46-4.84-12.22V1.5"/><path class="cls-1" d="M118.22,70.91"/><path class="cls-2" d="M92.36,35.54a2.51,2.51,0,0,0-1.91-.36,2.27,2.27,0,0,0-1.47,1,33.3,33.3,0,0,0-3,6.54c-.25.72-.49,1.45-.71,2.19a50,50,0,0,1,24,18.24C102.85,45,96.11,38.1,92.36,35.54Z"/><path class="cls-1" d="M3.79,88.73s6,8.57,21.6,8.57"/><path class="cls-1" d="M12.12,71.58s3.42,5,11.65,5.42"/><path class="cls-1" d="M11.82,70.91c7.52-26.37,16.64-36.54,22.37-40.46a8.63,8.63,0,0,1,12.1,2.44,39.7,39.7,0,0,1,3.56,7.79q.73,2.1,1.31,4.24h0L54.76,42c3.71-3,4.84-7.46,4.84-12.22V1.5"/><path class="cls-1" d="M11.82,70.91"/><path class="cls-2" d="M37.67,35.54a2.51,2.51,0,0,1,1.91-.36,2.27,2.27,0,0,1,1.47,1,33.3,33.3,0,0,1,3,6.54c.25.72.49,1.45.71,2.19a50,50,0,0,0-24,18.24C27.19,45,33.93,38.1,37.67,35.54Z"/><path class="cls-1" d="M11.82,70.91s-21.75,36.15-2.09,44.31A16.48,16.48,0,0,0,16,116.39a165,165,0,0,0,18.37-1.3c7-.75,12.62-7.26,14.23-14.15,2.28-9.77,5.22-23.38,4.94-38.62,0-.26,0-.55,0-.86a13.39,13.39,0,0,1,5.12-11.1h0a10.35,10.35,0,0,1,12.77,0h0a13.39,13.39,0,0,1,5.12,11.1c0,.31,0,.6,0,.86-.28,15.25,2.66,28.85,4.94,38.62,1.61,6.89,7.2,13.4,14.23,14.15a165,165,0,0,0,18.37,1.3,16.48,16.48,0,0,0,6.28-1.18c19.66-8.16-2.09-44.31-2.09-44.31"/></g></g></svg>