<svg xmlns="http://www.w3.org/2000/svg" viewBox="0 0 137.1 109.24" width="45px"><defs><style>.cls-1{fill:#a4d9ea;}.cls-2{fill:none;stroke:#354254;stroke-linecap:round;stroke-miterlimit:10;stroke-width:3px;}.cls-3{fill:#ec6463;}</style></defs><title>reanimaciya</title><g id="Слой_2" data-name="Слой 2"><g id="Layer_1" data-name="Layer 1"><path class="cls-1" d="M55.47,48.74l7.3-17-21.24,0a6.36,6.36,0,0,0-5.69,3.46l-7,13.53Z"/><path class="cls-1" d="M97,31.77l-27.13-.06-7,17,22.73.06a6.53,6.53,0,0,0,6.06-4.06Z"/><path class="cls-2" d="M22.8,94.6"/><path class="cls-2" d="M54,14.44h.74A6.56,6.56,0,0,1,61.3,21v4.38a0,0,0,0,1,0,0H47.44a0,0,0,0,1,0,0V21A6.56,6.56,0,0,1,54,14.44Z" transform="translate(0.03 -0.1) rotate(0.1)"/><circle class="cls-2" cx="25.39" cy="95.99" r="11.6" transform="translate(-70.64 121.21) rotate(-89.9)"/><circle class="cls-3" cx="25.39" cy="95.99" r="4.71" transform="translate(-70.64 121.21) rotate(-89.9)"/><circle class="cls-3" cx="111.58" cy="96.14" r="4.71" transform="translate(15.25 207.55) rotate(-89.9)"/><path class="cls-2" d="M127.14,96a10,10,0,0,0,8.37-9.84l.09-50.64a10,10,0,0,0-10-10l-84.07-.15a12.73,12.73,0,0,0-11.33,6.9L18.48,55C10,61.9,7.17,63.46,3.77,67.35a10.88,10.88,0,0,0-2.24,7.22l0,16.27A5.11,5.11,0,0,0,6.6,96H9.83"/><line class="cls-2" x1="43.07" y1="96.02" x2="93.91" y2="96.11"/><circle class="cls-2" cx="111.58" cy="96.14" r="11.6" transform="translate(15.25 207.55) rotate(-89.9)"/><line class="cls-2" x1="67.48" y1="66.8" x2="67.45" y2="83.62"/><line class="cls-2" x1="75.88" y1="75.23" x2="59.06" y2="75.2"/><line class="cls-2" x1="18.48" y1="55.02" x2="135.56" y2="55.22"/><line class="cls-2" x1="45.03" y1="10.38" x2="41.49" y2="6.82"/><line class="cls-2" x1="54.39" y1="6.51" x2="54.4" y2="1.5"/><line class="cls-2" x1="63.75" y1="10.41" x2="67.3" y2="6.87"/></g></g></svg>