<svg xmlns="http://www.w3.org/2000/svg" viewBox="0 0 126.62 129.48" width="59px"><defs><style>.cls-1{fill:none;stroke:#354254;stroke-linecap:round;stroke-linejoin:round;stroke-width:3px;}.cls-2{fill:#ec6463;}</style></defs><title>revmatolog</title><g id="Слой_2" data-name="Слой 2"><g id="Layer_1" data-name="Layer 1"><path class="cls-1" d="M55.36,1.5s2.93,26.4-5.73,40.11a19.79,19.79,0,0,0-3.33,9.58c-.24,5.35,1.8,11.78,13,11.78h8.26c11.19,0,13.23-6.42,13-11.78a19.8,19.8,0,0,0-3.33-9.58C68.54,27.9,71.47,1.5,71.47,1.5"/><path class="cls-1" d="M73.5,128a150,150,0,0,1,1-28.26,25.29,25.29,0,0,1,5.75-12.9l.08-.1A5.1,5.1,0,0,0,78.6,79c-2.61-1.31-7.18-2.48-15.19-2.48S50.83,77.72,48.23,79a5.1,5.1,0,0,0-1.72,7.68l.08.1a25.31,25.31,0,0,1,5.76,12.9,150.13,150.13,0,0,1,1,28.26"/><path class="cls-1" d="M125.12,78l-9-9-8.84,8.84L98.46,69l-9,9-1-1a26.46,26.46,0,0,0-18.71-7.75H57.12A26.46,26.46,0,0,0,38.41,77l-1,1-9-9L19.52,77.9,10.62,69,1.5,78.12"/><path class="cls-2" d="M76.25,52.57s-4,8-18.67,6c-12.14-1.66-4-15.33-4-15.33S62.25,53.24,76.25,52.57Z"/><path class="cls-2" d="M52.25,84.57s1.66-6,16.33-4c12.14,1.66,1,14.68,1,14.68S66.25,83.91,52.25,84.57Z"/></g></g></svg>