<svg xmlns="http://www.w3.org/2000/svg" viewBox="0 0 119.45 114.9" width="42px"><defs><style>.cls-1{fill:none;stroke:#354254;stroke-linecap:round;stroke-miterlimit:10;stroke-width:3px;}.cls-2{fill:#a4d9ea;}</style></defs><title>stamotologiya</title><g id="Слой_2" data-name="Слой 2"><g id="Layer_1" data-name="Layer 1"><path class="cls-1" d="M72.26,81.34a279.65,279.65,0,0,1,8.88,27.57,6,6,0,0,0,10.46,2.33,67.4,67.4,0,0,0,15.52-45.38,11.82,11.82,0,0,1,2.75-8.11c3.65-4.3,5.78-10.17,7-15,3.36-13.22-1.28-27.4-12.42-35.28a32.91,32.91,0,0,0-44.74,6.41A32.91,32.91,0,0,0,15,7.52C3.81,15.42-.8,29.66,2.6,42.92c1.22,4.75,3.34,10.55,6.94,14.81a11.92,11.92,0,0,1,2.77,8.16,67.4,67.4,0,0,0,15.48,45.3,6,6,0,0,0,10.5-2.28,279.67,279.67,0,0,1,8.88-27.57A13.43,13.43,0,0,1,72.26,81.34Z"/><path class="cls-1" d="M59.72,13.93a46.18,46.18,0,0,1,6,10.56"/><path class="cls-2" d="M18.06,69.81A61.25,61.25,0,0,0,32.24,107.5c.07.09.11.1.19.1s.26-.13.28-.2c1.49-5.56,3.78-13.46,6.8-22C27.7,82.92,18.06,69.81,18.06,69.81Z"/><path class="cls-2" d="M101.38,69.81A61.25,61.25,0,0,1,87.2,107.5c-.07.09-.11.1-.19.1s-.26-.13-.28-.2c-1.49-5.56-3.78-13.46-6.8-22C91.75,82.92,101.38,69.81,101.38,69.81Z"/></g></g></svg>