<svg xmlns="http://www.w3.org/2000/svg" viewBox="0 0 127.81 127.81" width="47px"><defs><style>.cls-1{fill:#a4d9ea;}.cls-2,.cls-3{fill:none;stroke:#354254;stroke-miterlimit:10;stroke-width:3px;}.cls-3{stroke-linecap:round;}</style></defs><title>travmotologia</title><g id="Слой_2" data-name="Слой 2"><g id="Layer_1" data-name="Layer 1"><path class="cls-1" d="M37.61,96.11a10.82,10.82,0,0,0-1.79,13,7.47,7.47,0,0,1-6.5,11.2A7.63,7.63,0,0,1,27,120a7.46,7.46,0,0,0,1.33-8.81c-2.27-4.27-1.91-10.3,1.66-13.65l25.23-19Z"/><path class="cls-2" d="M123.31,20.81a13.45,13.45,0,0,0-11.37-4.95,13.48,13.48,0,1,0-25.23,5.66A4.94,4.94,0,0,1,86,27.46L65.75,47.68a4.64,4.64,0,0,0,0,6.56h0a4.64,4.64,0,0,0,4.35,1.23l5.7-1.35-2,8.22,3,3,23.49-23.49a4.94,4.94,0,0,1,5.93-.75,13.49,13.49,0,0,0,17-20.28Z"/><path class="cls-2" d="M41.85,100.35,63,79.19a3.29,3.29,0,0,0,0-4.66h0a7,7,0,0,1-1.87-6.59l1-4.4-8.22,2-3-3L27.46,86a4.94,4.94,0,0,1-5.93.75,13.49,13.49,0,1,0-5.66,25.23,13.48,13.48,0,1,0,25.23-5.66A4.94,4.94,0,0,1,41.85,100.35Z"/><line class="cls-3" x1="20.67" y1="49.91" x2="34" y2="49.91"/><line class="cls-3" x1="38.84" y1="38.58" x2="29.66" y2="29.4"/><line class="cls-3" x1="50.52" y1="33.09" x2="50.52" y2="21.28"/></g></g></svg>