<svg xmlns="http://www.w3.org/2000/svg" viewBox="0 0 129.79 126.22" width="46px"><defs><style>.cls-1,.cls-2{fill:none;stroke:#354254;stroke-linecap:round;stroke-width:3px;}.cls-1{stroke-miterlimit:10;}.cls-2{stroke-linejoin:round;}.cls-3{fill:#a4d9ea;}.cls-4{fill:#ec6463;}</style></defs><title>uzi</title><g id="Слой_2" data-name="Слой 2"><g id="Layer_1" data-name="Layer 1"><path class="cls-1" d="M115.28,50.49h0a4.29,4.29,0,0,0,4.26-3.79L123.15,16H94.35L98,46.7a4.29,4.29,0,0,0,4.26,3.79h13.05Z"/><path class="cls-1" d="M37,100.5v13.13a11.09,11.09,0,0,0,11.09,11.09H97.66a11.09,11.09,0,0,0,11.09-11.09v-54"/><path class="cls-1" d="M108.75,59.67h0A4.85,4.85,0,0,1,104,55.8l-1.1-5.31h11.7l-1.1,5.31A4.85,4.85,0,0,1,108.75,59.67Z"/><path class="cls-1" d="M123.15,16h2.76a2.37,2.37,0,0,0,2.33-2.83l-1.36-6.95A5.8,5.8,0,0,0,121.2,1.5H96.31a5.8,5.8,0,0,0-5.69,4.69l-1.36,6.95A2.37,2.37,0,0,0,91.59,16h2.76"/><rect class="cls-1" x="11.22" y="84.34" width="51.54" height="15.96" rx="3.89" ry="3.89"/><line class="cls-1" x1="30.41" y1="92.32" x2="43.56" y2="92.32"/><rect id="_Прямоугольник_" data-name="&lt;Прямоугольник&gt;" class="cls-2" x="1.5" y="26.29" width="70.97" height="45.1" rx="5.88" ry="5.88"/><path class="cls-3" d="M58.65,53.28a31.64,31.64,0,0,1-43.32,0L25.81,39.84a16.32,16.32,0,0,0,22.35,0Z"/><line class="cls-2" x1="9.4" y1="33.75" x2="15.73" y2="33.75"/><line class="cls-2" x1="9.4" y1="39.84" x2="12.56" y2="39.84"/><path class="cls-1" d="M27.75,71.4a16.89,16.89,0,0,1,0,12.93"/><path class="cls-1" d="M46.23,71.4a16.89,16.89,0,0,0,0,12.93"/><path class="cls-4" d="M103.74,44.49h10l1.64-14a27,27,0,0,1-12.6,6Z"/></g></g></svg>