<svg xmlns="http://www.w3.org/2000/svg" viewBox="0 0 94.41 130.29" width="41px"><defs><style>.cls-1{fill:none;stroke:#354254;stroke-linecap:round;stroke-miterlimit:10;stroke-width:3px;}.cls-2{fill:#a4d9ea;}.cls-3{fill:#ec6463;}</style></defs><title>vakcinaciya</title><g id="Слой_2" data-name="Слой 2"><g id="Layer_1" data-name="Layer 1"><path class="cls-1" d="M29.3,90A28.16,28.16,0,0,1,7.74,90V35H29.3Z"/><path class="cls-2" d="M18.52,86.14a22.12,22.12,0,0,0,4.78-.52V69.17H13.74V85.63A22.11,22.11,0,0,0,18.52,86.14Z"/><path class="cls-1" d="M12.8,91.55v14.7a14.94,14.94,0,0,0,11.44,0V91.55A28.13,28.13,0,0,1,12.8,91.55Z"/><line class="cls-1" x1="18.52" y1="107.38" x2="18.52" y2="128.41"/><path class="cls-1" d="M31.95,35H5.09A3.59,3.59,0,0,1,1.5,31.38h0a3.59,3.59,0,0,1,3.59-3.59H31.95a3.59,3.59,0,0,1,3.59,3.59h0A3.59,3.59,0,0,1,31.95,35Z"/><path class="cls-1" d="M24.77,8.68H12.27A3.59,3.59,0,0,1,8.68,5.09h0A3.59,3.59,0,0,1,12.27,1.5h12.5a3.59,3.59,0,0,1,3.59,3.59h0A3.59,3.59,0,0,1,24.77,8.68Z"/><rect class="cls-1" x="13.16" y="8.68" width="10.73" height="19.11"/><line class="cls-1" x1="7.74" y1="43.33" x2="14.42" y2="43.33"/><line class="cls-1" x1="7.74" y1="51.8" x2="14.42" y2="51.8"/><line class="cls-1" x1="7.74" y1="60.26" x2="14.42" y2="60.26"/><path class="cls-1" d="M62.44,82.25a11.86,11.86,0,0,1-.78-5.79c.26-2.85.17-5.93.17-8.57a57.45,57.45,0,0,0-.7-8.44,5.61,5.61,0,0,0-1.32-3.23,3.08,3.08,0,0,0-5.11,0,5.62,5.62,0,0,0-1.32,3.23,57.46,57.46,0,0,0-.7,8.44c0,2.65-.09,5.72.17,8.57a11.85,11.85,0,0,1-.78,5.79,36.08,36.08,0,0,0-2.94,14.12v32.42H65.38V96.36A36.08,36.08,0,0,0,62.44,82.25Z"/><polygon class="cls-3" points="52.5 105.5 52.5 125.5 57 125.5 61.5 125.5 61.5 105.5 52.5 105.5"/><polygon class="cls-2" points="80.28 105.5 80.28 125.5 84.78 125.5 89.28 125.5 89.28 105.5 80.28 105.5"/><path class="cls-1" d="M90,82.25a11.86,11.86,0,0,1-.78-5.79c.26-2.85.17-5.93.17-8.57a57.63,57.63,0,0,0-.7-8.44,5.62,5.62,0,0,0-1.32-3.23,3.08,3.08,0,0,0-5.11,0,5.61,5.61,0,0,0-1.32,3.23,57.65,57.65,0,0,0-.7,8.44c0,2.65-.09,5.72.17,8.57a11.85,11.85,0,0,1-.78,5.79,36.09,36.09,0,0,0-2.94,14.12v32.42H92.91V96.36A36.06,36.06,0,0,0,90,82.25Z"/></g></g></svg>