<svg xmlns="http://www.w3.org/2000/svg" viewBox="0 0 108.59 128.28" width="39px"><defs><style>.cls-1{fill:none;stroke:#354254;stroke-linecap:round;stroke-miterlimit:10;stroke-width:3px;}.cls-2{fill:#a4d9ea;}.cls-3{fill:#ec6463;}</style></defs><title>yrologia</title><g id="Слой_2" data-name="Слой 2"><g id="Layer_1" data-name="Layer 1"><path class="cls-1" d="M50.39,62.2a42.59,42.59,0,0,0-9.52-8.05A2.82,2.82,0,0,0,37,58a48.65,48.65,0,0,1,7.23,25.15v22.12s.27,9.49,5.64,10.57"/><path class="cls-1" d="M58.54,62.2a42.59,42.59,0,0,1,9.52-8.05A2.82,2.82,0,0,1,71.95,58a48.65,48.65,0,0,0-7.23,25.15v22.12s-.27,9.49-5.64,10.57"/><path class="cls-1" d="M63.06,112.35l2,2a5.67,5.67,0,0,1,.57,7.27c-2.2,3.08-5.74,6.44-10,4.68a2.91,2.91,0,0,0-2.22,0c-4.28,1.76-7.82-1.6-10-4.68a5.67,5.67,0,0,1,.57-7.27l2-2"/><path class="cls-1" d="M28.27,15.45s-5.88,19.12,12.18,25.7c0,0,1.16,9.07,14,9.07"/><path class="cls-1" d="M80.66,15.45l.74-2.15A17.27,17.27,0,0,1,96.67,1.52c3.94-.19,7.75,1.09,9.68,5.79,4.16,10.12-10.59,16.29-14.48,41.93-1.55,10.22,4.28,20.64,7.08,30.59.47,1.67,4.76,12.42,3.56,22"/><ellipse class="cls-1" cx="91.54" cy="102.8" rx="13.89" ry="10.7" transform="translate(-32.21 163.09) rotate(-74.29)"/><path class="cls-2" d="M87.29,106.89a10.31,10.31,0,0,1,.16-5.23c1.06-3.76,3.72-6.08,5.58-6.08a1.93,1.93,0,0,1,.53.07c1.87.53,3.17,4.19,2.11,8.17A10.39,10.39,0,0,0,87.29,106.89Z"/><path class="cls-1" d="M80.66,15.45s5.88,19.12-12.18,25.7c0,0-1.16,9.07-14,9.07"/><path class="cls-1" d="M80.66,15.45A44.34,44.34,0,0,0,54.46,5.93h0a44.34,44.34,0,0,0-26.19,9.52"/><path class="cls-1" d="M27.93,15.45l-.74-2.15A17.27,17.27,0,0,0,11.91,1.52C8,1.33,4.17,2.6,2.23,7.3-1.93,17.43,12.83,23.6,16.72,49.24c1.55,10.22-4.28,20.64-7.08,30.59-.47,1.67-4.76,12.42-3.56,22"/><ellipse class="cls-1" cx="17.05" cy="102.8" rx="10.7" ry="13.89" transform="translate(-27.2 8.46) rotate(-15.71)"/><path class="cls-2" d="M21.29,106.89a10.31,10.31,0,0,0-.16-5.23c-1.06-3.76-3.72-6.08-5.58-6.08a1.93,1.93,0,0,0-.53.07c-1.87.53-3.17,4.19-2.11,8.17A10.39,10.39,0,0,1,21.29,106.89Z"/><path class="cls-3" d="M54.46,39.13A36.22,36.22,0,0,1,71.58,16.69a37,37,0,0,0-17.12-4.76,37,37,0,0,0-17.12,4.76A36.22,36.22,0,0,1,54.46,39.13Z"/></g></g></svg>