<svg xmlns="http://www.w3.org/2000/svg" viewBox="0 0 125.16 84.62"><defs><style>.cls-1{fill:#80593b;}.cls-2{fill:none;stroke:#1f1e21;stroke-linecap:round;stroke-linejoin:round;}</style></defs><title>Ресурс 1</title><g id="Слой_2" data-name="Слой 2"><g id="Layer_1" data-name="Layer 1"><path class="cls-1" d="M64.34,72.62,124.56,39V38.8l-.12.09L60.62.5.5,34.1Z"/><polygon class="cls-2" points="64.37 84.12 0.5 45.82 0.5 34.32 64.37 72.62 64.37 84.12"/><polyline class="cls-2" points="60.79 0.5 124.66 38.8 124.66 50.3"/><polygon class="cls-2" points="64.44 84.12 124.66 50.46 124.66 38.96 64.44 72.62 64.44 84.12"/><polyline class="cls-2" points="60.72 0.5 0.5 34.16 0.5 45.66"/><path class="cls-2" d="M63.32,61.37"/><line class="cls-2" x1="115.81" y1="33.88" x2="56.22" y2="67.4"/><line class="cls-2" x1="106.74" y1="28.39" x2="47.15" y2="61.91"/><line class="cls-2" x1="97.26" y1="22.89" x2="37.67" y2="56.41"/><line class="cls-2" x1="87.92" y1="16.98" x2="28.33" y2="50.5"/><line class="cls-2" x1="78.85" y1="11.49" x2="19.26" y2="45.01"/><line class="cls-2" x1="69.37" y1="5.99" x2="9.78" y2="39.51"/></g></g></svg>