<svg xmlns="http://www.w3.org/2000/svg" viewBox="0 0 125.16 101.62"><defs><style>.cls-1{fill:none;stroke:#1f1e21;stroke-linecap:round;stroke-linejoin:round;}</style></defs><title>Ресурс 1</title><g id="Слой_2" data-name="Слой 2"><g id="Layer_1" data-name="Layer 1"><polygon class="cls-1" points="64.37 101.12 0.5 62.82 0.5 34.32 64.37 72.62 64.37 101.12"/><polyline class="cls-1" points="60.79 0.5 124.66 38.8 124.66 67.3"/><polyline class="cls-1" points="85.58 49.16 95.56 55.18 95.56 83.68"/><polyline class="cls-1" points="32.04 17 40.75 22.16 40.75 47.74"/><line class="cls-1" x1="61.45" y1="10.83" x2="105.78" y2="37.51"/><polyline class="cls-1" points="44.98 50.32 61.5 41.02 80 52.11 61.5 41.02"/><line class="cls-1" x1="18.79" y1="34.83" x2="63.07" y2="61.36"/><line class="cls-1" x1="124.66" y1="38.88" x2="64.44" y2="72.54"/><line class="cls-1" x1="64.44" y1="101.12" x2="124.66" y2="67.46"/><polyline class="cls-1" points="60.72 0.5 0.5 34.16 0.5 62.66"/><polyline class="cls-1" points="114.38 32.83 54.17 66.49 54.17 94.99"/><polyline class="cls-1" points="69.72 6.17 9.5 39.83 9.5 67.96"/><polyline class="cls-1" points="40.08 47.66 30.84 52.83 30.84 80.82"/><polyline class="cls-1" points="91.05 19.17 83.19 23.56 83.19 50.19"/><path class="cls-1" d="M30,41.57"/><line class="cls-1" x1="61.45" y1="10.83" x2="61.45" y2="40.82"/></g></g></svg>