<svg xmlns="http://www.w3.org/2000/svg" viewBox="0 0 138.19 116.89"><defs><style>.cls-1{fill:#80593b;}.cls-1,.cls-2{stroke:#1f1e21;stroke-linecap:round;stroke-linejoin:round;}.cls-2{fill:none;}</style></defs><title>Ресурс 1</title><g id="Слой_2" data-name="Слой 2"><g id="Layer_1" data-name="Layer 1"><polygon class="cls-1" points="21.43 83.64 28.43 98.64 28.43 116.39 35.69 116.39 35.69 98.39 37.94 92.14 21.43 83.64"/><line class="cls-2" x1="61.52" y1="7.7" x2="29.92" y2="61.54"/><line class="cls-2" x1="74.3" y1="15.39" x2="42.7" y2="69.23"/><line class="cls-2" x1="86.83" y1="22.88" x2="55.22" y2="76.72"/><line class="cls-2" x1="98.6" y1="30.22" x2="66.99" y2="84.06"/><polygon class="cls-2" points="79.95 91.73 18.78 55.06 49.63 0.5 110.8 37.18 79.95 91.73"/><path class="cls-2" d="M.52,66.46l61.17,36.68s5.49,5,10.75,1.57a12.42,12.42,0,0,0,5.37-9.52L16.63,58.5s-1.5,5-5.78,6.81C4.52,68,.52,66.46.52,66.46Z"/><polyline class="cls-2" points="80.02 91.73 137.69 59.5 110.8 37.18"/><path class="cls-2" d="M78.95,69.95"/><path class="cls-1" d="M.52,66.46A7.23,7.23,0,0,0,4,72.9c3.45,2.34,45.88,27.4,56,33.35a8.48,8.48,0,0,0,4.75,1.34,15.26,15.26,0,0,0,6.45-2.16,11.82,11.82,0,0,1-9.46-2.29Z"/></g></g></svg>