<svg xmlns="http://www.w3.org/2000/svg" viewBox="0 0 125.16 97.61"><defs><style>.cls-1{fill:none;stroke:#1f1e21;stroke-linecap:round;stroke-linejoin:round;}.cls-2{fill:#80593b;}</style></defs><title>Ресурс 1</title><g id="Слой_2" data-name="Слой 2"><g id="Layer_1" data-name="Layer 1"><polygon class="cls-1" points="4.5 36.56 0.5 34.16 0.5 58.59 4.5 60.99 4.5 36.56"/><polygon class="cls-1" points="30.36 52.33 26.36 49.94 26.36 74.37 30.36 76.77 30.36 52.33"/><polyline class="cls-1" points="86.54 23.51 86.54 40.68 90.54 43.08 90.54 25.78"/><polygon class="cls-1" points="120.66 41.28 124.66 38.88 124.66 63.31 120.66 65.71 120.66 41.28"/><polygon class="cls-1" points="94.8 56.06 98.8 53.66 98.8 78.09 94.8 80.49 94.8 56.06"/><polyline class="cls-1" points="37.48 20.86 37.48 37.59 33.48 39.99 33.48 22.75"/><polygon class="cls-1" points="64.42 72.83 60.42 70.43 60.42 94.86 64.17 97.11 68.17 95.15 68.17 70.72 64.42 72.83"/><polyline class="cls-1" points="57.01 9.88 57.01 27.11 60.76 29.36 64.76 27.4 64.76 10.26"/><path class="cls-2" d="M60.79.5.5,34.32l63.87,38.3L124.66,38.8Zm3.57,64.92L13.13,34.49,61.07,7.77l51.27,31.07Z"/><line class="cls-1" x1="0.5" y1="34.32" x2="64.37" y2="72.62"/><line class="cls-1" x1="60.79" y1="0.5" x2="124.66" y2="38.8"/><line class="cls-1" x1="61.07" y1="7.77" x2="112.34" y2="38.85"/><line class="cls-1" x1="13.13" y1="34.49" x2="64.35" y2="65.42"/><line class="cls-1" x1="124.66" y1="38.96" x2="64.44" y2="72.62"/><line class="cls-1" x1="60.72" y1="0.5" x2="0.5" y2="34.16"/><line class="cls-1" x1="118.22" y1="35.55" x2="58.63" y2="69.08"/><line class="cls-1" x1="66.46" y1="4.39" x2="6.7" y2="37.81"/></g></g></svg>