<svg xmlns="http://www.w3.org/2000/svg" viewBox="0 0 118.5 80.74"><defs><style>.cls-1,.cls-2,.cls-5{fill:none;}.cls-1,.cls-2,.cls-3,.cls-4,.cls-5{stroke:#1f1e21;}.cls-1,.cls-2{stroke-linejoin:round;}.cls-2{stroke-linecap:round;}.cls-3{fill:#eec982;}.cls-3,.cls-4,.cls-5{stroke-miterlimit:10;}.cls-4{fill:#80593b;}</style></defs><title>Ресурс 1</title><g id="Слой_2" data-name="Слой 2"><g id="Layer_1" data-name="Layer 1"><path class="cls-1" d="M22.31,1.27"/><polygon class="cls-2" points="64.71 80.24 0.84 41.94 0.84 30.44 64.71 68.74 64.71 80.24"/><polygon class="cls-2" points="118 50.44 54.13 12.14 54.13 0.65 118 38.94 118 50.44"/><polygon class="cls-2" points="92 64.94 28.13 26.64 28.13 15.14 92 53.44 92 64.94"/><polygon class="cls-3" points="58.44 65.07 111.94 35.49 98.82 27.38 45.32 56.96 58.44 65.07"/><polygon class="cls-4" points="49.76 59.77 103.25 30.19 54.24 0.58 0.99 30.44 49.76 59.77"/><polygon class="cls-5" points="25.01 29.56 31.11 25.76 46.21 31.74 47.39 43.58 40.57 47.54 28.16 43.1 25.01 29.56"/><polyline class="cls-5" points="43.06 55.8 40.92 47.6 47.35 43.59 61.54 49.53 62.16 53.04"/><polygon class="cls-5" points="50.12 14.9 56.22 11.1 71.32 17.08 72.5 28.91 65.68 32.88 52.85 27.95 50.12 14.9"/><polyline class="cls-5" points="72.08 47.33 68.04 45.86 66.18 32.89 72.28 29.08 87.38 35.07 87.76 38.91"/><line class="cls-5" x1="70.77" y1="17.47" x2="76.3" y2="14.02"/><line class="cls-5" x1="46.21" y1="31.74" x2="52.63" y2="28.02"/><polyline class="cls-5" points="28.73 43.08 28.04 43.48 25.82 45.19"/><path class="cls-5" d="M87,21.84"/><path class="cls-5" d="M43.57,61"/><line class="cls-5" x1="68.04" y1="45.86" x2="61.11" y2="49.74"/><polyline class="cls-5" points="87.38 35.07 93.06 32.02 93.12 24.02"/><line class="cls-5" x1="93.05" y1="32.02" x2="97.4" y2="33.47"/><line class="cls-5" x1="54.16" y1="0.85" x2="56.22" y2="11.1"/><line class="cls-5" x1="50.12" y1="14.9" x2="37.54" y2="10.3"/><line class="cls-5" x1="29.27" y1="14.92" x2="31.35" y2="25.93"/><line class="cls-5" x1="25.01" y1="29.56" x2="10.72" y2="24.92"/></g></g></svg>