<svg xmlns="http://www.w3.org/2000/svg" viewBox="0 0 125.16 84.62"><defs><style>.cls-1{fill:#80593b;}.cls-2{fill:none;stroke:#1f1e21;stroke-linecap:round;stroke-linejoin:round;}</style></defs><title>Ресурс 1</title><g id="Слой_2" data-name="Слой 2"><g id="Layer_1" data-name="Layer 1"><path class="cls-1" d="M64.44,72.62,124.66,39V38.8l-.12.09L60.72.5.6,34.1ZM61.49,10.87l44.33,26.58L63.34,61.4,19.17,34.84Z"/><polygon class="cls-2" points="64.37 84.12 0.5 45.82 0.5 34.32 64.37 72.62 64.37 84.12"/><polyline class="cls-2" points="60.79 0.5 124.66 38.8 124.66 50.3"/><polyline class="cls-2" points="85.58 49.16 95.56 55.18 95.56 66.68"/><polyline class="cls-2" points="32.04 17 40.75 22.16 40.75 35.32"/><line class="cls-2" x1="61.45" y1="10.83" x2="105.78" y2="37.51"/><polyline class="cls-2" points="30.44 41.51 61.5 24.02 94.46 43.78 61.5 24.02"/><line class="cls-2" x1="18.79" y1="34.83" x2="63.07" y2="61.36"/><polygon class="cls-2" points="64.44 84.12 124.66 50.46 124.66 38.96 64.44 72.62 64.44 84.12"/><polyline class="cls-2" points="60.72 0.5 0.5 34.16 0.5 45.66"/><polyline class="cls-2" points="114.38 32.83 54.17 66.49 54.17 77.99"/><polyline class="cls-2" points="69.72 6.17 9.5 39.83 9.5 50.96"/><polyline class="cls-2" points="40.08 47.66 30.84 52.83 30.84 63.82"/><polyline class="cls-2" points="91.05 19.17 83.19 23.56 83.19 36.36"/><polyline class="cls-2" points="61.45 10.83 61.45 23.82 29.97 41.57"/></g></g></svg>