<svg xmlns="http://www.w3.org/2000/svg" viewBox="0 0 67.81 97.46"><defs><style>.cls-1,.cls-3{fill:none;stroke:#1f1e21;stroke-linejoin:round;}.cls-2{fill:#80593b;}.cls-3{stroke-linecap:round;}</style></defs><title>Ресурс 3</title><g id="Слой_2" data-name="Слой 2"><g id="Layer_1" data-name="Layer 1"><path class="cls-1" d="M3.93,9.24"/><polyline class="cls-1" points="3.93 9.24 3.93 13.99 0.5 17.98"/><polyline class="cls-2" points="43.44 96.85 47.45 94.78 47.45 90.48 51.77 88.55 51.77 92.35 60.02 87.73 60.02 83.73 64.08 81.98 64.08 85.51 67.56 83.66 67.56 30.15 63.62 30 63.62 26.28 59.56 28.03 59.56 32.33 50.92 37.14 50.92 33.03 46.6 34.97 46.6 39.72 43.17 43.72"/><polygon class="cls-1" points="7.76 7.05 3.93 9.24 46.68 35.15 50.67 33.03 7.76 7.05"/><polygon class="cls-1" points="21.03 0.5 17.2 2.69 59.45 28.36 63.44 26.24 21.03 0.5"/><polyline class="cls-1" points="3.54 13.69 4.03 13.99 46.29 39.6"/><line class="cls-1" x1="16.74" y1="6.49" x2="58.99" y2="32.11"/><polyline class="cls-1" points="46.35 34.97 46.35 39.72 42.91 43.72"/><polyline class="cls-1" points="59.31 28.03 59.31 32.33 50.67 37.14 50.67 33.03"/><polyline class="cls-3" points="43.27 43.96 0.5 17.98 0.5 71.23 42.9 96.96"/><line class="cls-3" x1="43.17" y1="96.56" x2="43.17" y2="43.32"/><polyline class="cls-1" points="43.19 96.85 47.2 94.78 47.2 90.48 51.52 88.55 51.52 92.35 59.77 87.73 59.77 83.73 63.83 81.98 63.83 85.51 67.31 83.66 67.31 30.15 63.37 30 63.37 26.28"/><path class="cls-3" d="M43.67,95.6"/><polyline class="cls-1" points="17.22 2.83 17.22 6.79 12.17 9.66"/></g></g></svg>