<svg xmlns="http://www.w3.org/2000/svg" viewBox="0 0 133.99 107.76"><defs><style>.cls-1{fill:#80593b;}.cls-2,.cls-3{fill:none;}.cls-2{stroke:#1f1e21;stroke-linecap:round;stroke-linejoin:round;}.cls-3{stroke:#eec982;stroke-miterlimit:10;}</style></defs><title>Ресурс 1</title><g id="Слой_2" data-name="Слой 2"><g id="Layer_1" data-name="Layer 1"><path class="cls-1" d="M67.19,72.62,127.4,39V38.8l-.12.09L63.46.5,3.34,34.1ZM64.24,10.87l44.34,26.58L66.08,61.4,21.91,34.84Z"/><polygon class="cls-2" points="67.11 101.12 3.24 62.82 3.24 34.32 67.11 72.62 67.11 101.12"/><polyline class="cls-2" points="63.53 0.5 127.4 38.8 127.4 67.3"/><polyline class="cls-2" points="88.33 49.16 98.3 55.18 98.3 83.68"/><polyline class="cls-2" points="34.78 17 43.49 22.16 43.49 47.74"/><line class="cls-2" x1="64.2" y1="10.83" x2="108.52" y2="37.51"/><polyline class="cls-2" points="47.72 50.32 64.24 41.02 82.74 52.11 64.24 41.02"/><line class="cls-2" x1="21.53" y1="34.83" x2="65.81" y2="61.36"/><line class="cls-2" x1="127.4" y1="38.88" x2="67.19" y2="72.54"/><line class="cls-2" x1="67.19" y1="101.12" x2="127.4" y2="67.46"/><polygon class="cls-1" points="73.53 79.18 133.74 45.52 133.74 74.11 73.53 107.76 73.53 79.18"/><line class="cls-3" x1="133.74" y1="51.75" x2="73.53" y2="85.41"/><line class="cls-3" x1="133.74" y1="57.75" x2="73.53" y2="91.41"/><line class="cls-3" x1="133.74" y1="63.74" x2="73.53" y2="97.4"/><line class="cls-3" x1="133.74" y1="69.74" x2="73.53" y2="103.39"/><polyline class="cls-2" points="63.46 0.5 3.24 34.16 3.24 62.66"/><polyline class="cls-2" points="117.13 32.83 56.91 66.49 56.91 94.99"/><polyline class="cls-2" points="72.46 6.17 12.24 39.83 12.24 67.96"/><polyline class="cls-2" points="42.82 47.66 33.58 52.83 33.58 80.82"/><polyline class="cls-2" points="93.8 19.17 85.93 23.56 85.93 50.19"/><path class="cls-2" d="M32.71,41.57"/><line class="cls-2" x1="64.2" y1="10.83" x2="64.2" y2="40.82"/><polygon class="cls-1" points="60.46 79.18 0.24 45.52 0.24 74.11 60.46 107.76 60.46 79.18"/><line class="cls-3" x1="0.24" y1="51.75" x2="60.46" y2="85.41"/><line class="cls-3" x1="0.24" y1="57.75" x2="60.46" y2="91.41"/><line class="cls-3" x1="0.24" y1="63.74" x2="60.46" y2="97.4"/><line class="cls-3" x1="0.24" y1="69.74" x2="60.46" y2="103.39"/></g></g></svg>