<svg xmlns="http://www.w3.org/2000/svg" viewBox="0 0 125.16 84.62"><defs><style>.cls-1{fill:#eec982;}.cls-2,.cls-3{fill:none;}.cls-2{stroke:#80593b;stroke-miterlimit:10;}.cls-3{stroke:#1f1e21;stroke-linecap:round;stroke-linejoin:round;}</style></defs><title>Ресурс 1</title><g id="Слой_2" data-name="Слой 2"><g id="Layer_1" data-name="Layer 1"><polygon class="cls-1" points="64.34 72.62 124.56 39.01 124.56 38.96 124.56 38.8 124.44 38.89 60.62 0.5 0.5 34.1 64.34 72.62"/><line class="cls-2" x1="72.76" y1="7.59" x2="12.55" y2="41.25"/><line class="cls-2" x1="85.33" y1="15.15" x2="25.11" y2="48.81"/><line class="cls-2" x1="99.43" y1="23.59" x2="39.21" y2="57.25"/><line class="cls-2" x1="111.83" y1="31.32" x2="51.61" y2="64.98"/><polygon class="cls-3" points="64.37 84.12 0.5 45.82 0.5 34.32 64.37 72.62 64.37 84.12"/><polyline class="cls-3" points="60.79 0.5 124.66 38.8 124.66 50.3"/><polygon class="cls-3" points="64.44 84.12 124.66 50.46 124.66 38.96 64.44 72.62 64.44 84.12"/><polyline class="cls-3" points="60.72 0.5 0.5 34.16 0.5 45.66"/><path class="cls-3" d="M63.32,61.37"/></g></g></svg>