<svg xmlns="http://www.w3.org/2000/svg" viewBox="0 0 118.5 80.74"><defs><style>.cls-1,.cls-2{fill:none;stroke-linejoin:round;}.cls-1,.cls-2,.cls-3,.cls-4{stroke:#1f1e21;}.cls-2{stroke-linecap:round;}.cls-3{fill:#eec982;}.cls-3,.cls-4{stroke-miterlimit:10;}.cls-4{fill:#80593b;}</style></defs><title>Ресурс 1</title><g id="Слой_2" data-name="Слой 2"><g id="Layer_1" data-name="Layer 1"><path class="cls-1" d="M22.31,1.27"/><polygon class="cls-2" points="64.71 80.24 0.84 41.94 0.84 30.44 64.71 68.74 64.71 80.24"/><polygon class="cls-2" points="118 50.44 54.13 12.14 54.13 0.65 118 38.94 118 50.44"/><polygon class="cls-2" points="92 64.94 28.13 26.64 28.13 15.14 92 53.44 92 64.94"/><path class="cls-2" d="M65,79.84"/><polygon class="cls-3" points="58.44 65.07 111.94 35.49 98.82 27.38 45.32 56.96 58.44 65.07"/><polygon class="cls-4" points="49.76 59.77 103.25 30.19 54.24 0.58 0.99 30.44 49.76 59.77"/><line class="cls-2" x1="94.73" y1="25.15" x2="41.68" y2="54.66"/><line class="cls-2" x1="86.28" y1="20.16" x2="33.18" y2="49.77"/><line class="cls-2" x1="77.73" y1="14.97" x2="24.81" y2="44.53"/><line class="cls-2" x1="69.79" y1="9.98" x2="16.68" y2="39.64"/><line class="cls-2" x1="61.59" y1="4.97" x2="8.19" y2="34.76"/></g></g></svg>