<svg xmlns="http://www.w3.org/2000/svg" viewBox="0 0 118.17 80.66"><defs><style>.cls-1,.cls-2{fill:none;}.cls-1,.cls-2,.cls-3,.cls-4{stroke:#1f1e21;}.cls-1,.cls-2,.cls-4{stroke-linejoin:round;}.cls-2,.cls-4{stroke-linecap:round;}.cls-3{fill:#eec982;stroke-miterlimit:10;}.cls-4{fill:#80593b;}</style></defs><title>Ресурс 1</title><g id="Слой_2" data-name="Слой 2"><g id="Layer_1" data-name="Layer 1"><path class="cls-1" d="M22,1.19"/><polygon class="cls-2" points="64.37 80.16 0.5 41.87 0.5 30.36 64.37 68.66 64.37 80.16"/><polygon class="cls-2" points="117.67 50.37 53.8 12.07 53.8 0.57 117.67 38.87 117.67 50.37"/><polygon class="cls-2" points="91.67 64.86 27.8 26.57 27.8 15.07 91.67 53.37 91.67 64.86"/><path class="cls-2" d="M64.64,79.77"/><polygon class="cls-3" points="58.11 64.99 111.6 35.41 98.48 27.3 44.99 56.88 58.11 64.99"/><polygon class="cls-4" points="51.72 60.97 55.16 53.25 68.9 51.47 73.5 43.11 87.35 41.27 92.05 32.85 105.22 31.39 53.9 0.5 0.66 30.36 51.72 60.97"/><line class="cls-2" x1="9.29" y1="25.46" x2="55.46" y2="53.15"/><line class="cls-2" x1="18.66" y1="20.55" x2="68.84" y2="51.42"/><line class="cls-2" x1="28.03" y1="15.2" x2="73.64" y2="43"/><line class="cls-2" x1="36.73" y1="10.18" x2="87.35" y2="41.26"/><line class="cls-2" x1="45.87" y1="5.05" x2="92.05" y2="32.85"/></g></g></svg>