<svg xmlns="http://www.w3.org/2000/svg" xmlns:xlink="http://www.w3.org/1999/xlink" viewBox="0 0 87.9 88.65"><defs><style>.cls-1,.cls-3,.cls-4{fill:none;}.cls-2{clip-path:url(#clip-path);}.cls-3{stroke:#1f1e21;stroke-linecap:round;stroke-linejoin:round;}.cls-4{stroke:#80593b;stroke-miterlimit:10;}</style><clipPath id="clip-path" transform="translate(-0.69)"><polygon class="cls-1" points="13.94 39.06 1.19 53.3 0 61.39 46.5 89.39 89.25 64.36 89.25 55.89 82.5 50.39 76.73 47.23 45.45 64.36 14.63 46.02 13.94 39.06"/></clipPath></defs><title>Ресурс 1</title><g id="Слой_2" data-name="Слой 2"><g id="Layer_1" data-name="Layer 1"><g class="cls-2"><polygon class="cls-3" points="45.2 88.15 0.5 61.35 0.5 53.3 45.2 80.1 45.2 88.15"/><polyline class="cls-3" points="42.69 29.62 87.4 56.43 87.4 64.48"/><polygon class="cls-3" points="45.25 88.15 87.4 64.59 87.4 56.54 45.25 80.1 45.25 88.15"/><polyline class="cls-3" points="42.64 29.62 0.5 53.18 0.5 61.23"/><path class="cls-3" d="M45.16,72.23" transform="translate(-0.69)"/></g><path class="cls-4" d="M36.35,59.22" transform="translate(-0.69)"/><path class="cls-4" d="M58.67,21.2" transform="translate(-0.69)"/><polygon class="cls-3" points="44.71 64.36 1.9 38.68 23.49 0.5 66.3 26.17 44.71 64.36"/><polyline class="cls-3" points="77.44 46.19 44.76 64.36 85.12 41.79 66.3 26.17"/><path class="cls-3" d="M44.7,49.11" transform="translate(-0.69)"/></g></g></svg>