<svg xmlns="http://www.w3.org/2000/svg" width="22" height="22" viewBox="0 0 22 22">
<defs>
    <style>
      .icon_od {
        fill: #ececec;
        fill-rule: evenodd;
      }
    </style>
  </defs>
  <path id="icon_od" data-name="Forma 1" class="icon_od" d="M480.011,4598.12a1.9,1.9,0,1,0-1.908-1.88A1.889,1.889,0,0,0,480.011,4598.12ZM480,4589a11,11,0,1,0,11,11A11,11,0,0,0,480,4589Zm0.016,3.35a3.87,3.87,0,1,1-3.887,3.86A3.866,3.866,0,0,1,480.016,4592.35Zm4.339,9.27a4.8,4.8,0,0,1-1.677,1.08,8.1,8.1,0,0,1-1.9.43c0.1,0.1.144,0.16,0.2,0.22,0.882,0.88,1.767,1.77,2.646,2.65a0.879,0.879,0,0,1,.2,1.03,1.031,1.031,0,0,1-.979.61,0.933,0.933,0,0,1-.62-0.31c-0.665-.67-1.343-1.33-2-2.01-0.19-.2-0.281-0.16-0.448.01q-1,1.035-2.034,2.04a0.848,0.848,0,0,1-1.029.19,1.05,1.05,0,0,1-.6-0.96,0.979,0.979,0,0,1,.323-0.65q1.31-1.3,2.612-2.61c0.058-.06.112-0.12,0.2-0.21a6.052,6.052,0,0,1-3.173-1.13,4.317,4.317,0,0,1-.335-0.28,0.951,0.951,0,0,1,1.076-1.55,1.455,1.455,0,0,1,.263.16,5.214,5.214,0,0,0,5.767.05,1.5,1.5,0,0,1,.562-0.29A0.949,0.949,0,0,1,484.355,4601.62Z" transform="translate(-469 -4589)"/>
</svg>
