<svg xmlns="http://www.w3.org/2000/svg" viewBox="0 0 80 80" width="52" height="52">
    <path style="line-height:normal;text-indent:0;text-align:start;text-decoration-line:none;text-decoration-style:solid;text-decoration-color:#000;text-transform:none;block-progression:tb;isolation:auto;mix-blend-mode:normal" d="M 40 7 C 27.309534 7 17 17.309534 17 30 C 17 33.339283 18.438315 37.538514 20.527344 42.103516 C 22.616372 46.668517 25.383374 51.566091 28.146484 56.078125 C 33.672705 65.102193 39.195312 72.59375 39.195312 72.59375 L 40 73.685547 L 40.804688 72.59375 C 40.804688 72.59375 46.327295 65.102193 51.853516 56.078125 C 54.616626 51.566091 57.383628 46.668517 59.472656 42.103516 C 61.561685 37.538514 63 33.339283 63 30 C 63 17.309534 52.690466 7 40 7 z M 40 9 C 51.609534 9 61 18.390466 61 30 C 61 32.735717 59.688315 36.822424 57.652344 41.271484 C 55.616372 45.720545 52.883374 50.563987 50.146484 55.033203 C 45.316174 62.920881 41.069749 68.79945 40 70.269531 C 38.930251 68.79945 34.683826 62.920881 29.853516 55.033203 C 27.116626 50.563987 24.383628 45.720545 22.347656 41.271484 C 20.311685 36.822424 19 32.735717 19 30 C 19 18.390466 28.390466 9 40 9 z M 40 11 A 1 1 0 0 0 39 12 A 1 1 0 0 0 40 13 A 1 1 0 0 0 41 12 A 1 1 0 0 0 40 11 z M 35.349609 11.613281 A 1 1 0 0 0 35.279297 11.615234 A 1 1 0 0 0 35.082031 11.648438 A 1 1 0 0 0 34.375 12.873047 A 1 1 0 0 0 35.599609 13.580078 A 1 1 0 0 0 36.306641 12.355469 A 1 1 0 0 0 35.349609 11.613281 z M 44.650391 11.615234 A 1 1 0 0 0 43.693359 12.355469 A 1 1 0 0 0 44.400391 13.580078 A 1 1 0 0 0 45.625 12.873047 A 1 1 0 0 0 44.917969 11.648438 A 1 1 0 0 0 44.650391 11.615234 z M 30.976562 13.412109 A 1 1 0 0 0 30.5 13.544922 A 1 1 0 0 0 30.132812 14.912109 A 1 1 0 0 0 31.5 15.277344 A 1 1 0 0 0 31.865234 13.912109 A 1 1 0 0 0 30.976562 13.412109 z M 48.951172 13.414062 A 1 1 0 0 0 48.132812 13.912109 A 1 1 0 0 0 48.5 15.279297 A 1 1 0 0 0 49.865234 14.912109 A 1 1 0 0 0 49.5 13.546875 A 1 1 0 0 0 48.951172 13.414062 z M 27.287109 16.271484 A 1 1 0 0 0 26.564453 16.564453 A 1 1 0 0 0 26.564453 17.978516 A 1 1 0 0 0 27.978516 17.978516 A 1 1 0 0 0 27.978516 16.564453 A 1 1 0 0 0 27.287109 16.271484 z M 52.742188 16.271484 A 1 1 0 0 0 52.019531 16.564453 A 1 1 0 0 0 52.019531 17.978516 A 1 1 0 0 0 53.433594 17.978516 A 1 1 0 0 0 53.433594 16.564453 A 1 1 0 0 0 52.742188 16.271484 z M 55.5625 20 A 1 1 0 0 0 55.085938 20.132812 A 1 1 0 0 0 54.720703 21.5 A 1 1 0 0 0 56.085938 21.865234 A 1 1 0 0 0 56.453125 20.5 A 1 1 0 0 0 55.5625 20 z M 24.365234 20.001953 A 1 1 0 0 0 23.546875 20.5 A 1 1 0 0 0 23.912109 21.865234 A 1 1 0 0 0 25.277344 21.5 A 1 1 0 0 0 24.912109 20.134766 A 1 1 0 0 0 24.365234 20.001953 z M 40 23 C 36.145851 23 33 26.145851 33 30 C 33 33.854149 36.145851 37 40 37 C 43.854149 37 47 33.854149 47 30 C 47 26.145851 43.854149 23 40 23 z M 22.603516 24.341797 A 1 1 0 0 0 21.646484 25.083984 A 1 1 0 0 0 22.353516 26.308594 A 1 1 0 0 0 23.578125 25.601562 A 1 1 0 0 0 22.871094 24.376953 A 1 1 0 0 0 22.603516 24.341797 z M 57.423828 24.341797 A 1 1 0 0 0 57.126953 24.375 A 1 1 0 0 0 56.419922 25.601562 A 1 1 0 0 0 57.644531 26.308594 A 1 1 0 0 0 58.351562 25.083984 A 1 1 0 0 0 57.423828 24.341797 z M 40 25 C 42.773268 25 45 27.226732 45 30 C 45 32.773268 42.773268 35 40 35 C 37.226732 35 35 32.773268 35 30 C 35 27.226732 37.226732 25 40 25 z M 22 29 A 1 1 0 0 0 21 30 A 1 1 0 0 0 22 31 A 1 1 0 0 0 23 30 A 1 1 0 0 0 22 29 z M 58 29 A 1 1 0 0 0 57 30 A 1 1 0 0 0 58 31 A 1 1 0 0 0 59 30 A 1 1 0 0 0 58 29 z M 22.650391 33.660156 A 1 1 0 0 0 22.353516 33.693359 A 1 1 0 0 0 21.646484 34.917969 A 1 1 0 0 0 22.871094 35.625 A 1 1 0 0 0 23.578125 34.400391 A 1 1 0 0 0 22.650391 33.660156 z M 57.376953 33.660156 A 1 1 0 0 0 56.419922 34.402344 A 1 1 0 0 0 57.128906 35.626953 A 1 1 0 0 0 58.353516 34.919922 A 1 1 0 0 0 57.646484 33.695312 A 1 1 0 0 0 57.376953 33.660156 z"/>
</svg>