<svg xmlns="http://www.w3.org/2000/svg" viewBox="0 0 80 80" width="50" height="50">
    <path style="line-height:normal;text-indent:0;text-align:start;text-decoration-line:none;text-decoration-style:solid;text-decoration-color:#000;text-transform:none;block-progression:tb;isolation:auto;mix-blend-mode:normal" d="M 40 4.8457031 L 39.5 5.1347656 L 31.841797 9.5546875 L 22.421875 9.5546875 L 17.712891 17.712891 L 9.5546875 22.421875 L 9.5546875 31.841797 L 4.8457031 40 L 9.5546875 48.158203 L 9.5546875 57.578125 L 17.712891 62.287109 L 22.421875 70.445312 L 31.841797 70.445312 L 40 75.154297 L 48.158203 70.445312 L 57.578125 70.445312 L 62.287109 62.287109 L 70.445312 57.578125 L 70.445312 48.158203 L 75.154297 40 L 70.445312 31.841797 L 70.445312 22.421875 L 62.287109 17.712891 L 57.578125 9.5546875 L 48.158203 9.5546875 L 40 4.8457031 z M 40 7.1542969 L 47.621094 11.554688 L 56.421875 11.554688 L 60.822266 19.177734 L 68.445312 23.578125 L 68.445312 32.378906 L 72.845703 40 L 68.445312 47.621094 L 68.445312 56.421875 L 60.822266 60.822266 L 56.421875 68.445312 L 47.621094 68.445312 L 40 72.845703 L 32.378906 68.445312 L 23.578125 68.445312 L 19.177734 60.822266 L 11.554688 56.421875 L 11.554688 47.621094 L 7.1542969 40 L 11.554688 32.378906 L 11.554688 23.578125 L 19.177734 19.177734 L 23.578125 11.554688 L 32.378906 11.554688 L 40 7.1542969 z M 40 10 A 1 1 0 0 0 39 11 A 1 1 0 0 0 40 12 A 1 1 0 0 0 41 11 A 1 1 0 0 0 40 10 z M 25.476562 13.884766 A 1 1 0 0 0 25 14.019531 A 1 1 0 0 0 24.632812 15.384766 A 1 1 0 0 0 26 15.75 A 1 1 0 0 0 26.365234 14.384766 A 1 1 0 0 0 25.476562 13.884766 z M 54.453125 13.886719 A 1 1 0 0 0 53.632812 14.386719 A 1 1 0 0 0 54 15.751953 A 1 1 0 0 0 55.365234 15.386719 A 1 1 0 0 0 55 14.019531 A 1 1 0 0 0 54.453125 13.886719 z M 40 16 A 1 1 0 0 0 39 17 A 1 1 0 0 0 40 18 A 1 1 0 0 0 41 17 A 1 1 0 0 0 40 16 z M 35.517578 16.441406 A 1 1 0 0 0 35.318359 16.460938 A 1 1 0 0 0 34.533203 17.636719 A 1 1 0 0 0 35.708984 18.421875 A 1 1 0 0 0 36.494141 17.246094 A 1 1 0 0 0 35.517578 16.441406 z M 44.513672 16.441406 A 1 1 0 0 0 43.507812 17.246094 A 1 1 0 0 0 44.292969 18.421875 A 1 1 0 0 0 45.46875 17.636719 A 1 1 0 0 0 44.683594 16.460938 A 1 1 0 0 0 44.513672 16.441406 z M 48.824219 17.748047 A 1 1 0 0 0 47.876953 18.365234 A 1 1 0 0 0 48.419922 19.671875 A 1 1 0 0 0 49.724609 19.130859 A 1 1 0 0 0 49.183594 17.824219 A 1 1 0 0 0 48.824219 17.748047 z M 31.205078 17.75 A 1 1 0 0 0 30.816406 17.826172 A 1 1 0 0 0 30.275391 19.132812 A 1 1 0 0 0 31.580078 19.673828 A 1 1 0 0 0 32.123047 18.367188 A 1 1 0 0 0 31.205078 17.75 z M 27.232422 19.875 A 1 1 0 0 0 26.666016 20.042969 A 1 1 0 0 0 26.390625 21.429688 A 1 1 0 0 0 27.777344 21.707031 A 1 1 0 0 0 28.052734 20.318359 A 1 1 0 0 0 27.232422 19.875 z M 52.796875 19.875 A 1 1 0 0 0 51.947266 20.318359 A 1 1 0 0 0 52.222656 21.705078 A 1 1 0 0 0 53.609375 21.429688 A 1 1 0 0 0 53.333984 20.042969 A 1 1 0 0 0 52.796875 19.875 z M 23.751953 22.736328 A 1 1 0 0 0 23.029297 23.029297 A 1 1 0 0 0 23.029297 24.443359 A 1 1 0 0 0 24.443359 24.443359 A 1 1 0 0 0 24.443359 23.029297 A 1 1 0 0 0 23.751953 22.736328 z M 56.277344 22.736328 A 1 1 0 0 0 55.556641 23.029297 A 1 1 0 0 0 55.556641 24.443359 A 1 1 0 0 0 56.970703 24.443359 A 1 1 0 0 0 56.970703 23.029297 A 1 1 0 0 0 56.277344 22.736328 z M 65.089844 24.5 A 1 1 0 0 0 64.613281 24.632812 A 1 1 0 0 0 64.248047 26 A 1 1 0 0 0 65.613281 26.365234 A 1 1 0 0 0 65.978516 25 A 1 1 0 0 0 65.089844 24.5 z M 14.837891 24.501953 A 1 1 0 0 0 14.019531 25 A 1 1 0 0 0 14.384766 26.365234 A 1 1 0 0 0 15.751953 26 A 1 1 0 0 0 15.384766 24.634766 A 1 1 0 0 0 14.837891 24.501953 z M 59.134766 26.21875 A 1 1 0 0 0 58.568359 26.388672 A 1 1 0 0 0 58.292969 27.775391 A 1 1 0 0 0 59.679688 28.050781 A 1 1 0 0 0 59.955078 26.664062 A 1 1 0 0 0 59.134766 26.21875 z M 20.896484 26.220703 A 1 1 0 0 0 20.046875 26.666016 A 1 1 0 0 0 20.322266 28.052734 A 1 1 0 0 0 21.708984 27.777344 A 1 1 0 0 0 21.433594 26.388672 A 1 1 0 0 0 20.896484 26.220703 z M 33.302734 28.167969 C 30.364734 28.167969 28.333984 30.449469 28.333984 33.730469 C 28.333984 37.012469 30.380734 39.293969 33.302734 39.292969 C 36.240734 39.292969 38.271484 37.011469 38.271484 33.730469 C 38.271484 30.434469 36.240734 28.167969 33.302734 28.167969 z M 46.380859 28.621094 L 38.880859 39.386719 L 30.302734 51.167969 L 33.724609 51.167969 L 41.068359 40.558594 L 49.787109 28.621094 L 46.380859 28.621094 z M 18.771484 30.197266 A 1 1 0 0 0 17.826172 30.814453 A 1 1 0 0 0 18.367188 32.121094 A 1 1 0 0 0 19.673828 31.580078 A 1 1 0 0 0 19.132812 30.273438 A 1 1 0 0 0 18.771484 30.197266 z M 61.255859 30.197266 A 1 1 0 0 0 60.867188 30.273438 A 1 1 0 0 0 60.326172 31.580078 A 1 1 0 0 0 61.632812 32.121094 A 1 1 0 0 0 62.173828 30.814453 A 1 1 0 0 0 61.255859 30.197266 z M 33.302734 30.605469 C 34.615734 30.605469 35.427734 31.776844 35.427734 33.714844 C 35.427734 35.620844 34.583734 36.855469 33.302734 36.855469 C 32.021734 36.855469 31.177734 35.620844 31.177734 33.714844 C 31.177734 31.808844 32.005734 30.605469 33.302734 30.605469 z M 17.466797 34.513672 A 1 1 0 0 0 16.460938 35.318359 A 1 1 0 0 0 17.246094 36.494141 A 1 1 0 0 0 18.421875 35.708984 A 1 1 0 0 0 17.636719 34.53125 A 1 1 0 0 0 17.466797 34.513672 z M 62.5625 34.513672 A 1 1 0 0 0 62.365234 34.53125 A 1 1 0 0 0 61.578125 35.707031 A 1 1 0 0 0 62.753906 36.494141 A 1 1 0 0 0 63.541016 35.318359 A 1 1 0 0 0 62.5625 34.513672 z M 11 39 A 1 1 0 0 0 10 40 A 1 1 0 0 0 11 41 A 1 1 0 0 0 12 40 A 1 1 0 0 0 11 39 z M 17 39 A 1 1 0 0 0 16 40 A 1 1 0 0 0 17 41 A 1 1 0 0 0 18 40 A 1 1 0 0 0 17 39 z M 63 39 A 1 1 0 0 0 62 40 A 1 1 0 0 0 63 41 A 1 1 0 0 0 64 40 A 1 1 0 0 0 63 39 z M 69 39 A 1 1 0 0 0 68 40 A 1 1 0 0 0 69 41 A 1 1 0 0 0 70 40 A 1 1 0 0 0 69 39 z M 46.693359 40.496094 C 43.756359 40.496094 41.708984 42.761969 41.708984 46.042969 C 41.708984 49.339969 43.755359 51.621094 46.693359 51.621094 C 49.631359 51.621094 51.662109 49.339969 51.662109 46.042969 C 51.662109 42.761969 49.630359 40.496094 46.693359 40.496094 z M 46.693359 42.933594 C 47.990359 42.933594 48.802734 44.104969 48.802734 46.042969 C 48.802734 47.948969 47.974359 49.183594 46.693359 49.183594 C 45.412359 49.183594 44.568359 47.948969 44.568359 46.042969 C 44.568359 44.136969 45.396359 42.933594 46.693359 42.933594 z M 62.583984 43.486328 A 1 1 0 0 0 61.578125 44.291016 A 1 1 0 0 0 62.363281 45.466797 A 1 1 0 0 0 63.539062 44.681641 A 1 1 0 0 0 62.753906 43.505859 A 1 1 0 0 0 62.583984 43.486328 z M 17.447266 43.488281 A 1 1 0 0 0 17.248047 43.505859 A 1 1 0 0 0 16.460938 44.681641 A 1 1 0 0 0 17.636719 45.46875 A 1 1 0 0 0 18.423828 44.292969 A 1 1 0 0 0 17.447266 43.488281 z M 18.759766 47.800781 A 1 1 0 0 0 18.369141 47.876953 A 1 1 0 0 0 17.828125 49.183594 A 1 1 0 0 0 19.134766 49.724609 A 1 1 0 0 0 19.675781 48.417969 A 1 1 0 0 0 18.759766 47.800781 z M 61.271484 47.800781 A 1 1 0 0 0 60.326172 48.417969 A 1 1 0 0 0 60.867188 49.724609 A 1 1 0 0 0 62.173828 49.181641 A 1 1 0 0 0 61.632812 47.875 A 1 1 0 0 0 61.271484 47.800781 z M 59.142578 51.775391 A 1 1 0 0 0 58.292969 52.220703 A 1 1 0 0 0 58.568359 53.607422 A 1 1 0 0 0 59.957031 53.330078 A 1 1 0 0 0 59.679688 51.943359 A 1 1 0 0 0 59.142578 51.775391 z M 20.888672 51.777344 A 1 1 0 0 0 20.322266 51.945312 A 1 1 0 0 0 20.046875 53.332031 A 1 1 0 0 0 21.433594 53.609375 A 1 1 0 0 0 21.708984 52.220703 A 1 1 0 0 0 20.888672 51.777344 z M 14.861328 53.498047 A 1 1 0 0 0 14.384766 53.632812 A 1 1 0 0 0 14.019531 54.998047 A 1 1 0 0 0 15.384766 55.365234 A 1 1 0 0 0 15.75 53.998047 A 1 1 0 0 0 14.861328 53.498047 z M 65.066406 53.501953 A 1 1 0 0 0 64.248047 54.001953 A 1 1 0 0 0 64.613281 55.367188 A 1 1 0 0 0 65.978516 55.001953 A 1 1 0 0 0 65.613281 53.634766 A 1 1 0 0 0 65.066406 53.501953 z M 23.75 55.261719 A 1 1 0 0 0 23.029297 55.554688 A 1 1 0 0 0 23.029297 56.96875 A 1 1 0 0 0 24.443359 56.96875 A 1 1 0 0 0 24.443359 55.554688 A 1 1 0 0 0 23.75 55.261719 z M 56.277344 55.263672 A 1 1 0 0 0 55.554688 55.556641 A 1 1 0 0 0 55.554688 56.970703 A 1 1 0 0 0 56.96875 56.970703 A 1 1 0 0 0 56.96875 55.556641 A 1 1 0 0 0 56.277344 55.263672 z M 52.791016 58.121094 A 1 1 0 0 0 52.224609 58.291016 A 1 1 0 0 0 51.949219 59.677734 A 1 1 0 0 0 53.335938 59.953125 A 1 1 0 0 0 53.611328 58.566406 A 1 1 0 0 0 52.791016 58.121094 z M 27.242188 58.123047 A 1 1 0 0 0 26.392578 58.566406 A 1 1 0 0 0 26.667969 59.953125 A 1 1 0 0 0 28.054688 59.677734 A 1 1 0 0 0 27.779297 58.291016 A 1 1 0 0 0 27.242188 58.123047 z M 31.220703 60.248047 A 1 1 0 0 0 30.275391 60.865234 A 1 1 0 0 0 30.816406 62.171875 A 1 1 0 0 0 32.123047 61.630859 A 1 1 0 0 0 31.582031 60.324219 A 1 1 0 0 0 31.220703 60.248047 z M 48.810547 60.248047 A 1 1 0 0 0 48.419922 60.324219 A 1 1 0 0 0 47.878906 61.630859 A 1 1 0 0 0 49.185547 62.171875 A 1 1 0 0 0 49.726562 60.865234 A 1 1 0 0 0 48.810547 60.248047 z M 35.541016 61.558594 A 1 1 0 0 0 34.533203 62.363281 A 1 1 0 0 0 35.320312 63.539062 A 1 1 0 0 0 36.496094 62.753906 A 1 1 0 0 0 35.708984 61.578125 A 1 1 0 0 0 35.541016 61.558594 z M 44.492188 61.558594 A 1 1 0 0 0 44.292969 61.578125 A 1 1 0 0 0 43.507812 62.753906 A 1 1 0 0 0 44.683594 63.539062 A 1 1 0 0 0 45.46875 62.363281 A 1 1 0 0 0 44.492188 61.558594 z M 40 62 A 1 1 0 0 0 39 63 A 1 1 0 0 0 40 64 A 1 1 0 0 0 41 63 A 1 1 0 0 0 40 62 z M 54.474609 64.113281 A 1 1 0 0 0 53.998047 64.248047 A 1 1 0 0 0 53.632812 65.613281 A 1 1 0 0 0 54.998047 65.978516 A 1 1 0 0 0 55.365234 64.613281 A 1 1 0 0 0 54.474609 64.113281 z M 25.451172 64.117188 A 1 1 0 0 0 24.632812 64.615234 A 1 1 0 0 0 25 65.982422 A 1 1 0 0 0 26.365234 65.615234 A 1 1 0 0 0 26 64.25 A 1 1 0 0 0 25.451172 64.117188 z M 40 68 A 1 1 0 0 0 39 69 A 1 1 0 0 0 40 70 A 1 1 0 0 0 41 69 A 1 1 0 0 0 40 68 z"/>
</svg>