<svg version="1.1" id="Layer_1" xmlns="http://www.w3.org/2000/svg" xmlns:xlink="http://www.w3.org/1999/xlink" x="0px" y="0px" viewBox="0 0 40 40" style="enable-background:new 0 0 40 40;" xml:space="preserve" width="24" height="24">
<g>
	<rect x="5.5" y="33.5" style="fill:#F5CE85;" width="29" height="5"/>
	<path style="fill:#967A44;" d="M34,34v4H6v-4H34 M35,33H5v6h30V33L35,33z"/>
</g>
<g>
	<rect x="5.5" y="28.5" style="fill:#F5CE85;" width="29" height="5"/>
	<path style="fill:#967A44;" d="M34,29v4H6v-4H34 M35,28H5v6h30V28L35,28z"/>
</g>
<g>
	<rect x="5.5" y="23.5" style="fill:#F5CE85;" width="29" height="5"/>
	<path style="fill:#967A44;" d="M34,24v4H6v-4H34 M35,23H5v6h30V23L35,23z"/>
</g>
<g>
	<rect x="5.5" y="18.5" style="fill:#F5CE85;" width="29" height="5"/>
	<path style="fill:#967A44;" d="M34,19v4H6v-4H34 M35,18H5v6h30V18L35,18z"/>
</g>
<g>
	<rect x="5.5" y="13.5" style="fill:#F5CE85;" width="29" height="5"/>
	<path style="fill:#967A44;" d="M34,14v4H6v-4H34 M35,13H5v6h30V13L35,13z"/>
</g>
<g>
	<polygon style="fill:#F5CE85;" points="6.361,13.5 12.25,8.5 28.011,8.5 33.678,13.5 &#9;"/>
	<path style="fill:#967A44;" d="M27.822,9l4.533,4H7.723l4.711-4H27.822 M28.2,8H12.067L5,14h30L28.2,8L28.2,8z"/>
</g>
<g>
	<polygon style="fill:#F5CE85;" points="15.935,8.5 19.268,3.5 20.732,3.5 24.065,8.5 &#9;"/>
	<path style="fill:#967A44;" d="M20.465,4l2.667,4h-6.263l2.667-4H20.465 M21,3h-2l-4,6h10L21,3L21,3z"/>
</g>
<g>
	<circle style="fill:#F5CE85;" cx="35" cy="36" r="2.5"/>
	<path style="fill:#967A44;" d="M35,34c1.103,0,2,0.897,2,2s-0.897,2-2,2s-2-0.897-2-2S33.897,34,35,34 M35,33c-1.657,0-3,1.343-3,3&#10;&#9;&#9;s1.343,3,3,3s3-1.343,3-3S36.657,33,35,33L35,33z"/>
</g>
<g>
	<circle style="fill:#F5CE85;" cx="35" cy="31" r="2.5"/>
	<path style="fill:#967A44;" d="M35,29c1.103,0,2,0.897,2,2s-0.897,2-2,2s-2-0.897-2-2S33.897,29,35,29 M35,28c-1.657,0-3,1.343-3,3&#10;&#9;&#9;s1.343,3,3,3s3-1.343,3-3S36.657,28,35,28L35,28z"/>
</g>
<g>
	<circle style="fill:#F5CE85;" cx="35" cy="26" r="2.5"/>
	<path style="fill:#967A44;" d="M35,24c1.103,0,2,0.897,2,2s-0.897,2-2,2s-2-0.897-2-2S33.897,24,35,24 M35,23c-1.657,0-3,1.343-3,3&#10;&#9;&#9;s1.343,3,3,3s3-1.343,3-3S36.657,23,35,23L35,23z"/>
</g>
<g>
	<circle style="fill:#F5CE85;" cx="35" cy="21" r="2.5"/>
	<path style="fill:#967A44;" d="M35,19c1.103,0,2,0.897,2,2s-0.897,2-2,2s-2-0.897-2-2S33.897,19,35,19 M35,18c-1.657,0-3,1.343-3,3&#10;&#9;&#9;s1.343,3,3,3s3-1.343,3-3S36.657,18,35,18L35,18z"/>
</g>
<g>
	<circle style="fill:#F5CE85;" cx="35" cy="16" r="2.5"/>
	<path style="fill:#967A44;" d="M35,14c1.103,0,2,0.897,2,2s-0.897,2-2,2s-2-0.897-2-2S33.897,14,35,14 M35,13c-1.657,0-3,1.343-3,3&#10;&#9;&#9;s1.343,3,3,3s3-1.343,3-3S36.657,13,35,13L35,13z"/>
</g>
<g>
	<circle style="fill:#F5CE85;" cx="5" cy="36" r="2.5"/>
	<path style="fill:#967A44;" d="M5,34c1.103,0,2,0.897,2,2s-0.897,2-2,2s-2-0.897-2-2S3.897,34,5,34 M5,33c-1.657,0-3,1.343-3,3&#10;&#9;&#9;s1.343,3,3,3s3-1.343,3-3S6.657,33,5,33L5,33z"/>
</g>
<g>
	<circle style="fill:#F5CE85;" cx="5" cy="31" r="2.5"/>
	<path style="fill:#967A44;" d="M5,29c1.103,0,2,0.897,2,2s-0.897,2-2,2s-2-0.897-2-2S3.897,29,5,29 M5,28c-1.657,0-3,1.343-3,3&#10;&#9;&#9;s1.343,3,3,3s3-1.343,3-3S6.657,28,5,28L5,28z"/>
</g>
<g>
	<circle style="fill:#F5CE85;" cx="5" cy="26" r="2.5"/>
	<path style="fill:#967A44;" d="M5,24c1.103,0,2,0.897,2,2s-0.897,2-2,2s-2-0.897-2-2S3.897,24,5,24 M5,23c-1.657,0-3,1.343-3,3&#10;&#9;&#9;s1.343,3,3,3s3-1.343,3-3S6.657,23,5,23L5,23z"/>
</g>
<g>
	<circle style="fill:#F5CE85;" cx="5" cy="21" r="2.5"/>
	<path style="fill:#967A44;" d="M5,19c1.103,0,2,0.897,2,2s-0.897,2-2,2s-2-0.897-2-2S3.897,19,5,19 M5,18c-1.657,0-3,1.343-3,3&#10;&#9;&#9;s1.343,3,3,3s3-1.343,3-3S6.657,18,5,18L5,18z"/>
</g>
<g>
	<circle style="fill:#F5CE85;" cx="5" cy="16" r="2.5"/>
	<path style="fill:#967A44;" d="M5,14c1.103,0,2,0.897,2,2s-0.897,2-2,2s-2-0.897-2-2S3.897,14,5,14 M5,13c-1.657,0-3,1.343-3,3&#10;&#9;&#9;s1.343,3,3,3s3-1.343,3-3S6.657,13,5,13L5,13z"/>
</g>
<g>
	<polygon style="fill:#B08159;" points="19.997,6.097 1.5,16.159 1.5,12.288 19.997,1.578 38.5,12.288 38.5,16.159 &#9;"/>
	<g>
		<path style="fill:#704E34;" d="M19.997,2.155L38,12.577v2.741l-17.526-9.53l-0.478-0.26l-0.478,0.26L2,15.318v-2.741L19.997,2.155&#10;&#9;&#9;&#9; M19.997,1L1,12v5L19.997,6.667L39,17v-5L19.997,1L19.997,1z"/>
	</g>
</g>
<g>
	<rect x="14.5" y="21.5" style="fill:#B08159;" width="11" height="17"/>
	<path style="fill:#704E34;" d="M25,22v16H15V22H25 M26,21H14v18h12V21L26,21z"/>
</g>
<line style="fill:none;stroke:#704E34;stroke-miterlimit:10;" x1="23.5" y1="29" x2="23.5" y2="32"/>
</svg>