<svg x="0" y="0" version="1.1" xmlns="http://www.w3.org/2000/svg" xmlns:xlink="http://www.w3.org/1999/xlink" viewBox="0 0 50 50" width="50" height="50" style="fill: rgb(255, 255, 255);"><g fill="none" stroke="none" stroke-width="1" stroke-linecap="butt" stroke-linejoin="miter" stroke-miterlimit="10" stroke-dasharray="" stroke-dashoffset="0" font-family="sans-serif" font-weight="normal" font-size="12" text-anchor="start" mix-blend-mode="normal"><g><g><path d="M0,50l0,-50l50,0l0,50z" fill="none"/><path d="M25,50c-13.80712,0 -25,-11.19288 -25,-25l0,0c0,-13.80712 11.19288,-25 25,-25l0,0c13.80712,0 25,11.19288 25,25l0,0c0,13.80712 -11.19288,25 -25,25z" fill="#b08159"/><g fill="#ffffff"><g id="surface1"><path d="M25,14.18086l-0.84375,0.8625l-5.94375,5.925c-0.47109,0.47109 -0.47109,1.23516 0,1.70625c0.47109,0.47109 1.23516,0.47109 1.70625,0l3.88125,-3.9l0,15.075c-0.00703,0.43359 0.22031,0.83438 0.59531,1.05234c0.37266,0.22031 0.83672,0.22031 1.20938,0c0.375,-0.21797 0.60234,-0.61875 0.59531,-1.05234l0,-15.075l3.88125,3.9c0.47109,0.47109 1.23516,0.47109 1.70625,0c0.47109,-0.47109 0.47109,-1.23516 0,-1.70625l-5.94375,-5.925z"/></g></g></g></g></g></svg>