<svg xmlns="http://www.w3.org/2000/svg" viewBox="0 0 52.13 52.13"><defs><style>.cls-1{fill:#e8c480;}</style></defs><title>Ресурс 1</title><g id="Слой_2" data-name="Слой 2"><g id="Layer_1" data-name="Layer 1"><path class="cls-1" d="M26.07,52.13A26.07,26.07,0,1,1,52.13,26.07,26.1,26.1,0,0,1,26.07,52.13Zm0-50.63A24.57,24.57,0,1,0,50.63,26.07,24.59,24.59,0,0,0,26.07,1.5Z"/><path class="cls-1" d="M26.2,42.18a11.13,11.13,0,0,1-7.43-19.41l1,1.12a9.63,9.63,0,1,0,16.06,7.17,9.55,9.55,0,0,0-2.92-6.91l1-1.08A11.13,11.13,0,0,1,26.2,42.18Z"/><path class="cls-1" d="M37.42,23.32c-1.11-3.49-2.19-9-2.19-9a9.29,9.29,0,0,0-8.63-6.68l-.22,0h-.52a9.31,9.31,0,0,0-8.72,6.61s-1.14,5.51-2.28,9a11.9,11.9,0,0,1-3.72,5.65,2.57,2.57,0,0,0,2.66,2.47,2.68,2.68,0,0,0,2.5-1.56,2.76,2.76,0,0,0,5,0,2.67,2.67,0,0,0,2.49,1.58,2.72,2.72,0,0,0,2.34-1.25,2.77,2.77,0,0,0,4.83-.29,2.76,2.76,0,0,0,5,0,2.68,2.68,0,0,0,2.49,1.58A2.58,2.58,0,0,0,41.08,29,11.86,11.86,0,0,1,37.42,23.32Zm-9.23-2.39a1.56,1.56,0,0,1-.46.36.87.87,0,0,1,.3.2,1.3,1.3,0,0,1-.1,1.72c-.47.54-1.72,1.5-1.91,2-.18-.69-1.42-1.57-1.85-2.13a1.3,1.3,0,0,1,0-1.73.84.84,0,0,1,.31-.18,1.53,1.53,0,0,1-.44-.39A1.41,1.41,0,0,1,24,19a1,1,0,0,1,.77-.24,2.26,2.26,0,0,1,0-.49,1.67,1.67,0,0,1,1.47-1.79,1.65,1.65,0,0,1,1.36,1.86,2.48,2.48,0,0,1-.07.48,1,1,0,0,1,.75.28A1.42,1.42,0,0,1,28.19,20.93Z"/></g></g></svg>