<svg xmlns="http://www.w3.org/2000/svg" width="29.219" height="22.937" viewBox="0 0 29.219 22.937">
  <metadata><?xpacket begin="﻿" id="W5M0MpCehiHzreSzNTczkc9d"?>
<x:xmpmeta xmlns:x="adobe:ns:meta/" x:xmptk="Adobe XMP Core 5.6-c138 79.159824, 2016/09/14-01:09:01        ">
   <rdf:RDF xmlns:rdf="http://www.w3.org/1999/02/22-rdf-syntax-ns#">
      <rdf:Description rdf:about=""/>
   </rdf:RDF>
</x:xmpmeta>
                                                                                                    
                                                                                                    
                                                                                                    
                                                                                                    
                                                                                                    
                                                                                                    
                                                                                                    
                                                                                                    
                                                                                                    
                                                                                                    
                                                                                                    
                                                                                                    
                                                                                                    
                                                                                                    
                                                                                                    
                                                                                                    
                                                                                                    
                                                                                                    
                                                                                                    
                                                                                                    
                           
<?xpacket end="w"?></metadata>
<defs>
    <style>
      .cls-1 {
        fill-rule: evenodd;
      }
    </style>
  </defs>
  <path id="_С" data-name="ºС" class="cls-1" d="M722.692,490.314a5.266,5.266,0,0,0-5.314,5.544,5.105,5.105,0,0,0,5.248,5.347,5.18,5.18,0,0,0,5.281-5.512A5.033,5.033,0,0,0,722.692,490.314Zm-0.066,1.65c2.178,0,3.07,2.145,3.07,3.8,0,2.278-1.288,3.8-3.037,3.8-1.65,0-3.069-1.584-3.069-3.763C719.59,494.01,720.514,491.964,722.626,491.964Zm23.333,14.852a11.5,11.5,0,0,1-4.687.924c-5.413,0-8.548-3.5-8.548-8.944,0-5.842,3.465-9.176,8.68-9.176a10.461,10.461,0,0,1,4.489.925l0.693-2.344a11.928,11.928,0,0,0-5.281-.99c-6.9,0-11.618,4.72-11.618,11.684,0,7.294,4.72,11.254,10.991,11.254a14.257,14.257,0,0,0,5.875-1.056Z" transform="translate(-717.375 -487.219)"/>
</svg>
