<svg xmlns="http://www.w3.org/2000/svg" width="31.313" height="28" viewBox="0 0 31.313 28">
  <metadata><?xpacket begin="﻿" id="W5M0MpCehiHzreSzNTczkc9d"?>
<x:xmpmeta xmlns:x="adobe:ns:meta/" x:xmptk="Adobe XMP Core 5.6-c138 79.159824, 2016/09/14-01:09:01        ">
   <rdf:RDF xmlns:rdf="http://www.w3.org/1999/02/22-rdf-syntax-ns#">
      <rdf:Description rdf:about=""/>
   </rdf:RDF>
</x:xmpmeta>
                                                                                                    
                                                                                                    
                                                                                                    
                                                                                                    
                                                                                                    
                                                                                                    
                                                                                                    
                                                                                                    
                                                                                                    
                                                                                                    
                                                                                                    
                                                                                                    
                                                                                                    
                                                                                                    
                                                                                                    
                                                                                                    
                                                                                                    
                                                                                                    
                                                                                                    
                                                                                                    
                           
<?xpacket end="w"?></metadata>
<defs>
    <style>
      .cls-1 {
        fill-rule: evenodd;
      }
    </style>
  </defs>
  <path id="Forma_1" data-name="Forma 1" class="cls-1" d="M880.344,492.96c-0.234-7.71-9.818-3.4-9.818-3.4,2.715,0,5.92,2.845,5.92,2.845-7.924-1.552-9.276,2.328-9.276,2.328l3.356-.777c2.3-.52,3.641-0.111,4.373.771-2.007.987-4.741,3.3-6.654,8.646-2.31-7.772-5.994-10.966-8.639-12.266,0.885-1.063,2.5-1.562,5.291-.93l4.059,0.938s-1.636-4.692-11.22-2.815c0,0,3.877-3.442,7.161-3.442,0,0-10.383-4.008-10.667,5.319,0,0-7.251,8.131,0,11.263,0,0-1.567-6.686,2.059-8.448,0,0-.2,8.448,4.127,8.448,0.041,0.1-2.566-5.739-1.45-9.147,8.556,8.218,5.462,19.7,5.462,19.7h6.488s-2.558-9.491,4.516-16.284c0.921,2.818-1.233,7.644-1.2,7.562,3.577,0,3.412-6.984,3.412-6.984,3,1.456,1.7,6.984,1.7,6.984C885.341,500.682,880.344,492.96,880.344,492.96Z" transform="translate(-851 -484)"/>
</svg>
