<svg xmlns="http://www.w3.org/2000/svg" width="574" height="102" viewBox="0 0 574 102">
  <metadata><?xpacket begin="﻿" id="W5M0MpCehiHzreSzNTczkc9d"?>
<x:xmpmeta xmlns:x="adobe:ns:meta/" x:xmptk="Adobe XMP Core 5.6-c138 79.159824, 2016/09/14-01:09:01        ">
   <rdf:RDF xmlns:rdf="http://www.w3.org/1999/02/22-rdf-syntax-ns#">
      <rdf:Description rdf:about=""/>
   </rdf:RDF>
</x:xmpmeta>
                                                                                                    
                                                                                                    
                                                                                                    
                                                                                                    
                                                                                                    
                                                                                                    
                                                                                                    
                                                                                                    
                                                                                                    
                                                                                                    
                                                                                                    
                                                                                                    
                                                                                                    
                                                                                                    
                                                                                                    
                                                                                                    
                                                                                                    
                                                                                                    
                                                                                                    
                                                                                                    
                           
<?xpacket end="w"?></metadata>
<defs>
    <style>
      .cls-1 {
        fill: #ee2c37;
      }

      .cls-1, .cls-2 {
        fill-rule: evenodd;
      }
    </style>
  </defs>
  <path id="Фигура_521" data-name="Фигура 521" class="cls-1" d="M80.331,95.229L73.7,86.383H40.525c-4.865.442-6.192,7.961,0,8.846C46.717,97.441,80.331,95.229,80.331,95.229ZM67.063,77.538l-2.212-8.846s-28.307-.442-39.806,0c-11.942,1.327-4.865,8.846,0,8.846H67.063ZM62.639,59.846V51H5.141c-4.423-.885-8.846,7.519,0,8.846h57.5Zm0-19.9L64.851,31.1h-19.9c-3.538,0-9.73,3.538-2.212,8.846h19.9Zm6.634-17.692L73.7,13.4H25.045c-5.308.885-6.634,6.192,0,8.846C33.448,22.693,69.274,22.251,69.274,22.251Z"/>
  <path id="Эллипс_522" data-name="Эллипс 522" class="cls-1" d="M125.672,13.406A36.484,36.484,0,1,1,89.188,49.891,36.484,36.484,0,0,1,125.672,13.406Zm-9.957,8.844,6.634,19.9-4.423,2.211-15.48-11.057Zm17.692,0,15.48,11.057-15.48,11.057-4.423-2.211ZM155.521,51l-6.634,17.692-15.48-13.269V51h22.114Zm-26.537,8.846,6.634,17.692h-19.9l6.634-17.692h6.635ZM102.446,66.48l15.48-11.057-2.211-6.634L95.812,51Z"/>
  <path id="Эллипс_523" data-name="Эллипс 523" class="cls-1" d="M125.656,0.125c28.7,0,51.969,22.778,51.969,50.875s-23.267,50.875-51.969,50.875S73.688,79.1,73.688,51,96.955,0.125,125.656.125Zm0.016,11.063a38.7,38.7,0,1,1-38.7,38.7A38.7,38.7,0,0,1,125.672,11.188Z"/>
  <path id="IWHEELY.RU" class="cls-2" d="M200.6,29.576a0.836,0.836,0,0,0-.119-0.436,0.823,0.823,0,0,0-.4-0.317,3.41,3.41,0,0,0-.733-0.2,7.076,7.076,0,0,0-1.169-.079,6.48,6.48,0,0,0-1.09.079,3.854,3.854,0,0,0-.753.2,0.933,0.933,0,0,0-.436.317,0.742,0.742,0,0,0-.139.436V79.282a0.824,0.824,0,0,0,.119.436,0.812,0.812,0,0,0,.4.317,3.4,3.4,0,0,0,.753.2,7.149,7.149,0,0,0,1.15.079,7.075,7.075,0,0,0,1.169-.079,3.41,3.41,0,0,0,.733-0.2,0.819,0.819,0,0,0,.4-0.317,0.833,0.833,0,0,0,.119-0.436V29.576Zm75.985,0.832a3.234,3.234,0,0,0,.138-0.951,0.712,0.712,0,0,0-.277-0.555,1.706,1.706,0,0,0-.773-0.277,9.6,9.6,0,0,0-1.387-.079,11.151,11.151,0,0,0-1.308.059,2.855,2.855,0,0,0-.753.178,0.705,0.705,0,0,0-.377.317,2.737,2.737,0,0,0-.178.476L259.1,74.565h-0.08L246.1,29.576a1.58,1.58,0,0,0-.218-0.476,0.957,0.957,0,0,0-.4-0.317,2.462,2.462,0,0,0-.674-0.178,8.022,8.022,0,0,0-1.09-.059,13.308,13.308,0,0,0-1.407.059,3.3,3.3,0,0,0-.832.178,0.818,0.818,0,0,0-.417.317,2.013,2.013,0,0,0-.2.476L229.016,74.565h-0.04L216.094,29.576a2.818,2.818,0,0,0-.179-0.476,0.711,0.711,0,0,0-.376-0.317,2.96,2.96,0,0,0-.793-0.178,12.726,12.726,0,0,0-1.387-.059,13.282,13.282,0,0,0-1.407.059,1.6,1.6,0,0,0-.793.258,0.66,0.66,0,0,0-.258.555,3.553,3.553,0,0,0,.2.991L225.646,79.2a1.277,1.277,0,0,0,.377.535,1.788,1.788,0,0,0,.694.337,6.342,6.342,0,0,0,1.01.178,13.509,13.509,0,0,0,1.368.059,11.882,11.882,0,0,0,1.288-.059,4.86,4.86,0,0,0,.912-0.178,1.428,1.428,0,0,0,.594-0.337,1.137,1.137,0,0,0,.3-0.535l11.1-42.135h0.079L255.494,79.2a1.266,1.266,0,0,0,.376.535,1.787,1.787,0,0,0,.674.337,5.815,5.815,0,0,0,.971.178,12.013,12.013,0,0,0,1.268.059,11.453,11.453,0,0,0,1.249-.059,5.807,5.807,0,0,0,.951-0.178,1.787,1.787,0,0,0,.674-0.337,1.277,1.277,0,0,0,.377-0.535Zm45.781-.832a0.836,0.836,0,0,0-.119-0.436,0.82,0.82,0,0,0-.4-0.317,3.4,3.4,0,0,0-.753-0.2,7.158,7.158,0,0,0-1.15-.079,7.068,7.068,0,0,0-1.169.079,3.378,3.378,0,0,0-.733.2,0.814,0.814,0,0,0-.4.317,0.836,0.836,0,0,0-.119.436V51.06H291.92V29.576a0.835,0.835,0,0,0-.118-0.436,0.823,0.823,0,0,0-.4-0.317,3.41,3.41,0,0,0-.733-0.2,7.076,7.076,0,0,0-1.169-.079,7.15,7.15,0,0,0-1.15.079,3.4,3.4,0,0,0-.753.2,0.815,0.815,0,0,0-.4.317,0.826,0.826,0,0,0-.119.436V79.282a0.824,0.824,0,0,0,.119.436,0.812,0.812,0,0,0,.4.317,3.4,3.4,0,0,0,.753.2,7.149,7.149,0,0,0,1.15.079,7.075,7.075,0,0,0,1.169-.079,3.41,3.41,0,0,0,.733-0.2,0.819,0.819,0,0,0,.4-0.317,0.833,0.833,0,0,0,.118-0.436V55.38h25.606v23.9a0.833,0.833,0,0,0,.119.436,0.81,0.81,0,0,0,.4.317,3.378,3.378,0,0,0,.733.2,7.067,7.067,0,0,0,1.169.079,7.157,7.157,0,0,0,1.15-.079,3.4,3.4,0,0,0,.753-0.2,0.816,0.816,0,0,0,.4-0.317,0.833,0.833,0,0,0,.119-0.436V29.576Zm42.412,47.387a1.755,1.755,0,0,0-.257-0.674,1.319,1.319,0,0,0-.417-0.4,1,1,0,0,0-.515-0.139h-21.4V55.3h18.154a1.228,1.228,0,0,0,.555-0.119,1.028,1.028,0,0,0,.4-0.357,1.768,1.768,0,0,0,.238-0.614,4.37,4.37,0,0,0,.079-0.892,5.235,5.235,0,0,0-.079-0.971,2.024,2.024,0,0,0-.238-0.674,1.149,1.149,0,0,0-.4-0.4,1.086,1.086,0,0,0-.555-0.139H342.181V33.1h21.047a1,1,0,0,0,.516-0.139,1.139,1.139,0,0,0,.4-0.4,2.007,2.007,0,0,0,.238-0.654A4.668,4.668,0,0,0,364.457,31a5.233,5.233,0,0,0-.079-0.971,2.269,2.269,0,0,0-.238-0.694,1.108,1.108,0,0,0-.4-0.416,1.01,1.01,0,0,0-.516-0.139H339.565a2.54,2.54,0,0,0-1.467.535,2.253,2.253,0,0,0-.753,1.962v46.3a2.253,2.253,0,0,0,.753,1.962,2.541,2.541,0,0,0,1.467.535h24.02a1,1,0,0,0,.515-0.139,1.246,1.246,0,0,0,.417-0.416,1.935,1.935,0,0,0,.257-0.674,4.663,4.663,0,0,0,.08-0.912A5.228,5.228,0,0,0,364.774,76.963Zm39.677,0a1.755,1.755,0,0,0-.257-0.674,1.326,1.326,0,0,0-.416-0.4,1.01,1.01,0,0,0-.516-0.139h-21.4V55.3h18.154a1.228,1.228,0,0,0,.555-0.119,1.028,1.028,0,0,0,.4-0.357,1.749,1.749,0,0,0,.238-0.614,4.37,4.37,0,0,0,.079-0.892,5.235,5.235,0,0,0-.079-0.971,2,2,0,0,0-.238-0.674,1.149,1.149,0,0,0-.4-0.4,1.086,1.086,0,0,0-.555-0.139H381.858V33.1h21.048a1,1,0,0,0,.515-0.139,1.139,1.139,0,0,0,.4-0.4,1.984,1.984,0,0,0,.238-0.654A4.668,4.668,0,0,0,404.134,31a5.233,5.233,0,0,0-.079-0.971,2.242,2.242,0,0,0-.238-0.694,1.108,1.108,0,0,0-.4-0.416,1.01,1.01,0,0,0-.515-0.139H379.242a2.54,2.54,0,0,0-1.467.535,2.253,2.253,0,0,0-.753,1.962v46.3a2.253,2.253,0,0,0,.753,1.962,2.541,2.541,0,0,0,1.467.535h24.02a1,1,0,0,0,.516-0.139,1.252,1.252,0,0,0,.416-0.416,1.935,1.935,0,0,0,.257-0.674,4.663,4.663,0,0,0,.08-0.912A5.228,5.228,0,0,0,404.451,76.963Zm37.894-.079a2.026,2.026,0,0,0-.238-0.674,1.149,1.149,0,0,0-.4-0.4,1.086,1.086,0,0,0-.555-0.139H421.535v-46.1a0.775,0.775,0,0,0-.515-0.753,3.41,3.41,0,0,0-.733-0.2,8.527,8.527,0,0,0-2.319,0,3.39,3.39,0,0,0-.753.2,0.823,0.823,0,0,0-.4.317,0.836,0.836,0,0,0-.119.436v48a2.251,2.251,0,0,0,.754,1.962,2.536,2.536,0,0,0,1.466.535h22.237a1,1,0,0,0,.951-0.575,2.544,2.544,0,0,0,.238-0.694,4.909,4.909,0,0,0,.079-0.951A5.235,5.235,0,0,0,442.345,76.884ZM473.1,30.409a2.923,2.923,0,0,0,.317-0.912,0.641,0.641,0,0,0-.2-0.575,1.559,1.559,0,0,0-.833-0.3,12.186,12.186,0,0,0-1.546-.079,8.951,8.951,0,0,0-1.129.059,2.833,2.833,0,0,0-.734.178,1.1,1.1,0,0,0-.436.317,2.045,2.045,0,0,0-.277.476L460.34,45.669q-1.11,2.339-2.18,4.717t-2.1,4.717h-0.08q-1.11-2.457-2.2-4.875t-2.2-4.677l-7.848-15.974a3.88,3.88,0,0,0-.317-0.476,1.079,1.079,0,0,0-.5-0.317,4.024,4.024,0,0,0-.872-0.178,13.321,13.321,0,0,0-1.407-.059,8.918,8.918,0,0,0-1.309.079,1.422,1.422,0,0,0-.733.277,0.613,0.613,0,0,0-.178.555,3.273,3.273,0,0,0,.317.951l14.745,29.451V79.282a0.833,0.833,0,0,0,.119.436,0.812,0.812,0,0,0,.416.317,3.854,3.854,0,0,0,.753.2,8.516,8.516,0,0,0,2.319,0,3.4,3.4,0,0,0,.753-0.2,0.819,0.819,0,0,0,.4-0.317,0.833,0.833,0,0,0,.118-0.436V59.859Zm4.935,43.066a3.634,3.634,0,0,0-2.6-.733,3.779,3.779,0,0,0-2.695.753q-0.753.753-.753,3.092,0,2.3.733,3.032a3.63,3.63,0,0,0,2.6.733,3.783,3.783,0,0,0,2.7-.753q0.751-.753.753-3.092Q478.772,74.209,478.039,73.475Z"/>
  <path id="Фигура_522" data-name="Фигура 522" class="cls-1" d="M524.771,78.449q-0.139-.515-0.654-1.9l-4.8-11.971q-0.793-1.982-1.585-3.587a19.691,19.691,0,0,0-1.685-2.834,11.494,11.494,0,0,0-1.942-2.1,10.458,10.458,0,0,0-2.359-1.467,20.61,20.61,0,0,0,4-1.863,12.957,12.957,0,0,0,3.131-2.636,11.08,11.08,0,0,0,2.022-3.528,13.479,13.479,0,0,0,.713-4.538,14.657,14.657,0,0,0-.694-4.578,11.237,11.237,0,0,0-2.12-3.805A12,12,0,0,0,515.2,30.8a17.373,17.373,0,0,0-5.114-1.665q-1.03-.158-2.279-0.258t-3.151-.1h-9.632a2.538,2.538,0,0,0-1.466.535,2.25,2.25,0,0,0-.753,1.962v48a0.833,0.833,0,0,0,.118.436,0.819,0.819,0,0,0,.4.317,3.39,3.39,0,0,0,.753.2,8.516,8.516,0,0,0,2.319,0,3.41,3.41,0,0,0,.733-0.2,0.812,0.812,0,0,0,.4-0.317,0.824,0.824,0,0,0,.119-0.436V56.173h5.312a11.828,11.828,0,0,1,4.558.793,9.791,9.791,0,0,1,3.25,2.16,12.962,12.962,0,0,1,2.3,3.23q0.951,1.864,1.784,3.964l4.8,12.446a3.2,3.2,0,0,0,.357.773,1.477,1.477,0,0,0,.515.476,2.126,2.126,0,0,0,.773.238,8.947,8.947,0,0,0,1.13.059,8.159,8.159,0,0,0,1.248-.079,2.771,2.771,0,0,0,.773-0.218,0.794,0.794,0,0,0,.377-0.337,1.067,1.067,0,0,0,.1-0.476A3.319,3.319,0,0,0,524.771,78.449Zm-9.037-32.225a7.659,7.659,0,0,1-2.061,2.973,10.122,10.122,0,0,1-3.548,2,15.823,15.823,0,0,1-5.113.733h-7.373V33.1h6.342q2.18,0,3.528.139a15.362,15.362,0,0,1,2.5.456,8.256,8.256,0,0,1,4.915,3.27,10.079,10.079,0,0,1,1.467,5.569A10.2,10.2,0,0,1,515.734,46.224Zm57.018-16.648a0.835,0.835,0,0,0-.118-0.436,0.823,0.823,0,0,0-.4-0.317,3.4,3.4,0,0,0-.753-0.2,8.381,8.381,0,0,0-2.3,0,3.39,3.39,0,0,0-.753.2,0.815,0.815,0,0,0-.4.317,0.826,0.826,0,0,0-.119.436v31.67a21.3,21.3,0,0,1-.932,6.639,12.83,12.83,0,0,1-2.675,4.737,10.747,10.747,0,0,1-4.261,2.834,16.432,16.432,0,0,1-5.728.931,15.694,15.694,0,0,1-5.688-.971,11.178,11.178,0,0,1-4.281-2.894,12.8,12.8,0,0,1-2.695-4.816,22.022,22.022,0,0,1-.932-6.738V29.576a0.826,0.826,0,0,0-.119-0.436,0.815,0.815,0,0,0-.4-0.317,3.4,3.4,0,0,0-.753-0.2,7.158,7.158,0,0,0-1.15-.079,6.7,6.7,0,0,0-1.149.079,3.876,3.876,0,0,0-.733.2,0.818,0.818,0,0,0-.417.317,0.835,0.835,0,0,0-.118.436V61.762a23.276,23.276,0,0,0,1.327,8.185,16.391,16.391,0,0,0,3.726,5.946,15.664,15.664,0,0,0,5.708,3.627,20.639,20.639,0,0,0,7.234,1.229,22.424,22.424,0,0,0,7.809-1.288,15.982,15.982,0,0,0,5.945-3.785,16.837,16.837,0,0,0,3.786-6.144,24.242,24.242,0,0,0,1.327-8.324V29.576Z"/>
  <path id="Фигура_523" data-name="Фигура 523" class="cls-1" d="M438,98"/>
</svg>
