<svg xmlns="http://www.w3.org/2000/svg" width="85" height="85" viewBox="0 0 85 85">
  <metadata><?xpacket begin="﻿" id="W5M0MpCehiHzreSzNTczkc9d"?>
<x:xmpmeta xmlns:x="adobe:ns:meta/" x:xmptk="Adobe XMP Core 5.6-c138 79.159824, 2016/09/14-01:09:01        ">
   <rdf:RDF xmlns:rdf="http://www.w3.org/1999/02/22-rdf-syntax-ns#">
      <rdf:Description rdf:about=""/>
   </rdf:RDF>
</x:xmpmeta>
                                                                                                    
                                                                                                    
                                                                                                    
                                                                                                    
                                                                                                    
                                                                                                    
                                                                                                    
                                                                                                    
                                                                                                    
                                                                                                    
                                                                                                    
                                                                                                    
                                                                                                    
                                                                                                    
                                                                                                    
                                                                                                    
                                                                                                    
                                                                                                    
                                                                                                    
                                                                                                    
                           
<?xpacket end="w"?></metadata>
<defs>
    <style>
      .cls-1 {
        fill: #32496c;
      }

      .cls-1, .cls-2 {
        fill-rule: evenodd;
      }

      .cls-2 {
        fill: #fff;
      }
    </style>
  </defs>
  <path id="Фигура_8" data-name="Фигура 8" class="cls-1" d="M0,85L85,0H0V85Z"/>
  <path id="Хит_продаж" data-name="Хит продаж" class="cls-2" d="M13.915,59.838l-1.732-3.91,3.91,1.732,1.238-1.237-5-2.128-2.079-4.653L9.015,50.879l1.633,3.514L7.134,52.76,5.9,54l4.653,2.079,2.128,5Zm5.4-5.4-1.732-4.5,0.05-.05,3.118,3.118,1.138-1.138-4.95-4.95-1.287,1.287,1.732,4.306-0.049.05-3.019-3.019-1.138,1.138,4.95,4.95ZM25.052,48.7l-4.207-4.207,1.238-1.237-0.742-.743-3.663,3.663,0.742,0.742,1.238-1.238,4.207,4.207Zm5.643-5.643-4.207-4.207,1.336-1.336,4.207,4.207,1.188-1.188-4.95-4.95L24.557,39.3l4.95,4.95Zm5.791-1.831,1.188-1.188L35.545,37.91a1.994,1.994,0,0,0,1.089-.594,2.2,2.2,0,0,0,.713-1.93,4.659,4.659,0,0,0-1.5-2.425,4.786,4.786,0,0,0-2.405-1.515,2.041,2.041,0,0,0-1.851.624,2.141,2.141,0,0,0-.693,1.485l-0.049.05L30.4,33.456l-0.841.841Zm-0.841-4.306a1.194,1.194,0,0,1-.376.257,0.949,0.949,0,0,1-.366.089L31.536,33.9a2.485,2.485,0,0,1,.114-0.411,1,1,0,0,1,.233-0.332,1.026,1.026,0,0,1,1.074-.233,4.527,4.527,0,0,1,1.7,1.223,4.525,4.525,0,0,1,1.223,1.7,1.026,1.026,0,0,1-.233,1.074h0Zm5.544-4.158a2.563,2.563,0,0,0,.891-2.089,4.432,4.432,0,0,0-1.485-2.465,4.433,4.433,0,0,0-2.465-1.485,3.044,3.044,0,0,0-2.98,2.98,4.433,4.433,0,0,0,1.485,2.465A4.433,4.433,0,0,0,39.1,33.654a2.563,2.563,0,0,0,2.089-.891h0Zm-0.643-.643a0.908,0.908,0,0,1-1.015.153,5.358,5.358,0,0,1-1.708-1.292,5.359,5.359,0,0,1-1.292-1.708A0.865,0.865,0,0,1,37.7,28.105,5.358,5.358,0,0,1,39.406,29.4,5.357,5.357,0,0,1,40.7,31.1a0.908,0.908,0,0,1-.153,1.015h0Zm4.356-.4,0.742-.742A4.788,4.788,0,0,0,44.6,29.15l2.623-2.623a4.784,4.784,0,0,0,1.831,1.04l0.742-.742-2.178-2.178-0.594.594-4.207-4.207L39.555,24.3l2.722,3.019a3.262,3.262,0,0,1,.891,1.782l-0.446.445Zm-0.544-3.811a3.262,3.262,0,0,0-.891-1.782l-2.019-2.237,0.93-.931,3.465,3.465Zm6.286-4.6a2.141,2.141,0,0,0,.693-1.485l0.05-.049,0.445,0.148,0.842-.841-3.366-3.366a2.844,2.844,0,0,0-1.262-.817,1.625,1.625,0,0,0-1.163.153,5.5,5.5,0,0,0-1.287,1.01,5.028,5.028,0,0,0-.554.673,5.776,5.776,0,0,0-.436.713l0.495,0.5,0.99-.99a1.711,1.711,0,0,1,.995-0.569,1.369,1.369,0,0,1,1.035.52l0.4,0.4a6.248,6.248,0,0,0-.941.742,2.668,2.668,0,0,0-.866,1.549,2.15,2.15,0,0,0,.817,1.668,2.2,2.2,0,0,0,1.648.827,2.387,2.387,0,0,0,1.47-.777h0Zm-0.3-1.089a1.035,1.035,0,0,1-.733.317,1.669,1.669,0,0,1-1.366-1.366,1.036,1.036,0,0,1,.317-0.733l0.544-.544,1.584,1.584a0.961,0.961,0,0,1-.084.361,1.178,1.178,0,0,1-.262.381h0Zm3.811-2.425a1.663,1.663,0,0,0,.525-0.98,1.569,1.569,0,0,0-.228-1L53.76,16.627a1.239,1.239,0,0,1-.188-0.614,0.645,0.645,0,0,1,.188-0.475l0.05-.05,2.227,2.227,1.188-1.188L55,14.3l0.05-.05a0.645,0.645,0,0,1,.475-0.188,1.243,1.243,0,0,1,.614.188l1.188,0.693a1.567,1.567,0,0,0,1,.228,1.662,1.662,0,0,0,.98-0.525A2.8,2.8,0,0,0,59.67,14.2a2.736,2.736,0,0,0,.178-0.3l-0.495-.5a0.928,0.928,0,0,1-.515.287,0.682,0.682,0,0,1-.475-0.089l-0.99-.594a1.6,1.6,0,0,0-1.772-.069l-0.04-.04a1.179,1.179,0,0,0,.158-0.683,2.651,2.651,0,0,0-.277-0.94l-0.4-.891a0.733,0.733,0,0,1,.248-0.841l-0.5-.495a2.744,2.744,0,0,0-.3.178,2.8,2.8,0,0,0-.446.366,1.513,1.513,0,0,0-.48.876,1.965,1.965,0,0,0,.183,1l0.445,1.039a2.364,2.364,0,0,1,.2.658,0.406,0.406,0,0,1-.1.332l-0.05.05-1.98-1.98-1.188,1.188,1.98,1.98-0.05.05a0.405,0.405,0,0,1-.332.1,2.354,2.354,0,0,1-.658-0.2l-1.039-.446a1.967,1.967,0,0,0-1-.183,1.513,1.513,0,0,0-.876.48,2.793,2.793,0,0,0-.366.445,2.729,2.729,0,0,0-.178.3l0.495,0.495a0.734,0.734,0,0,1,.841-0.247l0.891,0.4a2.647,2.647,0,0,0,.94.277,1.179,1.179,0,0,0,.683-0.158l0.04,0.04a1.6,1.6,0,0,0,.069,1.772l0.594,0.99a0.684,0.684,0,0,1,.089.475,0.929,0.929,0,0,1-.287.515l0.495,0.495a2.732,2.732,0,0,0,.3-0.178,2.793,2.793,0,0,0,.446-0.366h0Z"/>
</svg>
