<svg xmlns="http://www.w3.org/2000/svg" xmlns:xlink="http://www.w3.org/1999/xlink" viewBox="0 0 25.35 24"><defs><style>.cls-1{fill:none;}.cls-2{clip-path:url(#clip-path);}.cls-3{fill:#676767;}</style><clipPath id="clip-path" transform="translate(0 0)"><rect class="cls-1" width="25.35" height="24"/></clipPath></defs><title>Ресурс 4</title><g id="Слой_2" data-name="Слой 2"><g id="Слой_1-2" data-name="Слой 1"><g class="cls-2"><path class="cls-3" d="M23.79,22.44H22.24v-.78a.78.78,0,0,0-.78-.78H14.22a.78.78,0,0,0-.78.78v.78H11.9v-.78a.78.78,0,0,0-.78-.78H3.88a.78.78,0,0,0-.78.78v.78H1.55V19.3H23.79ZM3.1,10.44H11.9v7.3H3.1ZM8.28,1.57h8.79v7.3H8.28Zm14,16.17H13.45v-7.3h8.79Zm2.33,0h-.78V9.65A.78.78,0,0,0,23,8.87h-4.4V.78A.78.78,0,0,0,17.85,0H7.5a.78.78,0,0,0-.78.78V8.87H2.33a.78.78,0,0,0-.78.78v8.09H.78a.78.78,0,0,0-.78.78v4.7A.78.78,0,0,0,.78,24h3.1a.78.78,0,0,0,.78-.78v-.78h5.69v.78a.78.78,0,0,0,.78.78h3.1a.78.78,0,0,0,.78-.78v-.78h5.69v.78a.78.78,0,0,0,.78.78h3.1a.78.78,0,0,0,.78-.78v-4.7a.78.78,0,0,0-.78-.78" transform="translate(0 0)"/></g></g></g></svg>