<svg xmlns="http://www.w3.org/2000/svg" xmlns:xlink="http://www.w3.org/1999/xlink" viewBox="0 0 92.71 16"><defs><style>.cls-1{fill:none;}.cls-2{clip-path:url(#clip-path);}.cls-3{fill:#41ab34;}.cls-4{fill:#cdcccc;}</style><clipPath id="clip-path"><rect class="cls-1" width="92.71" height="16"/></clipPath></defs><title>Ресурс 1</title><g id="Слой_2" data-name="Слой 2"><g id="Слой_1-2" data-name="Слой 1"><g class="cls-2"><path class="cls-3" d="M.95,6.39,4.56,9.91a.3.3,0,0,1,.09.27l-.85,5L8.26,12.8a.31.31,0,0,1,.28,0L13,15.15l-.85-5a.31.31,0,0,1,.09-.27l3.61-3.52-5-.73a.3.3,0,0,1-.23-.16L8.4,1,6.16,5.5a.3.3,0,0,1-.22.17ZM3.39,16a.3.3,0,0,1-.3-.35L4,10.23.09,6.4a.3.3,0,0,1,.17-.51L5.69,5.1,8.13.17a.3.3,0,0,1,.54,0L11.1,5.1l5.44.79a.3.3,0,0,1,.17.51l-3.94,3.84.93,5.41a.3.3,0,0,1-.12.29.3.3,0,0,1-.32,0L8.4,13.41,3.53,16a.31.31,0,0,1-.14,0"/><path class="cls-3" d="M20,6.39,23.6,9.91a.3.3,0,0,1,.08.27l-.85,5L27.3,12.8a.31.31,0,0,1,.28,0L32,15.15l-.85-5a.31.31,0,0,1,.09-.27l3.61-3.52-5-.73a.3.3,0,0,1-.23-.16L27.44,1,25.2,5.5a.3.3,0,0,1-.23.17ZM22.43,16a.3.3,0,0,1-.3-.35l.93-5.42L19.13,6.4a.3.3,0,0,1,.17-.51l5.44-.79L27.17.17a.3.3,0,0,1,.54,0L30.14,5.1l5.44.79a.3.3,0,0,1,.17.51l-3.93,3.84.93,5.41a.3.3,0,0,1-.12.29.3.3,0,0,1-.32,0l-4.86-2.56L22.57,16a.31.31,0,0,1-.14,0"/><path class="cls-3" d="M39,6.39l3.61,3.52a.3.3,0,0,1,.08.27l-.85,5,4.47-2.35a.31.31,0,0,1,.28,0l4.47,2.35-.85-5a.31.31,0,0,1,.09-.27l3.61-3.52-5-.73a.3.3,0,0,1-.23-.16L46.48,1,44.24,5.5a.3.3,0,0,1-.23.17ZM41.47,16a.3.3,0,0,1-.3-.35l.93-5.42L38.17,6.4a.3.3,0,0,1,.17-.51l5.44-.79L46.21.17a.3.3,0,0,1,.54,0L49.18,5.1l5.44.79a.3.3,0,0,1,.17.51l-3.93,3.84.93,5.41a.3.3,0,0,1-.12.29.3.3,0,0,1-.32,0l-4.86-2.56L41.61,16a.31.31,0,0,1-.14,0"/><path class="cls-3" d="M58.07,6.39l3.61,3.52a.3.3,0,0,1,.08.27l-.85,5,4.47-2.35a.31.31,0,0,1,.28,0l4.47,2.35-.85-5a.31.31,0,0,1,.09-.27L73,6.39l-5-.73a.3.3,0,0,1-.23-.16L65.52,1,63.28,5.5a.3.3,0,0,1-.23.17ZM60.51,16a.3.3,0,0,1-.3-.35l.93-5.42L57.21,6.4a.3.3,0,0,1,.17-.51l5.44-.79L65.25.17a.3.3,0,0,1,.54,0L68.22,5.1l5.44.79a.3.3,0,0,1,.17.51l-3.93,3.84.93,5.41a.3.3,0,0,1-.12.29.3.3,0,0,1-.32,0l-4.86-2.56L60.65,16a.31.31,0,0,1-.14,0"/><path class="cls-4" d="M76.86,6.39l3.61,3.52a.3.3,0,0,1,.08.27l-.85,5,4.47-2.35a.31.31,0,0,1,.28,0l4.46,2.35-.85-5a.31.31,0,0,1,.09-.27l3.61-3.52-5-.73a.3.3,0,0,1-.23-.16L84.31,1,82.08,5.5a.3.3,0,0,1-.22.17ZM79.31,16a.3.3,0,0,1-.3-.35l.93-5.42L76,6.4a.3.3,0,0,1,.17-.51l5.44-.79L84,.17a.3.3,0,0,1,.54,0L87,5.1l5.44.79a.3.3,0,0,1,.17.51l-3.93,3.84.93,5.41a.3.3,0,0,1-.12.29.3.3,0,0,1-.32,0l-4.86-2.56L79.45,16a.31.31,0,0,1-.14,0"/></g></g></g></svg>