<svg xmlns="http://www.w3.org/2000/svg" xmlns:xlink="http://www.w3.org/1999/xlink" viewBox="0 0 19.71 22"><defs><style>.cls-1{fill:none;}.cls-2{clip-path:url(#clip-path);}.cls-3{fill:#676767;}</style><clipPath id="clip-path"><rect class="cls-1" width="19.72" height="22"/></clipPath></defs><title>Ресурс 3</title><g id="Слой_2" data-name="Слой 2"><g id="Слой_1-2" data-name="Слой 1"><g class="cls-2"><path class="cls-3" d="M6.9,2.27A.94.94,0,0,0,6,3.58l.88,2a9.91,9.91,0,0,1,5.89,0l.88-2a.94.94,0,0,0-.86-1.31ZM13,6.61l-.15,0a9,9,0,0,0-6.08,0,.44.44,0,0,1-.55-.24l-1-2.41A1.81,1.81,0,0,1,6.9,1.4h5.92a1.81,1.81,0,0,1,1.67,2.53l-1,2.41a.44.44,0,0,1-.4.27M3.26,21.12h13.2a9,9,0,0,0-2.34-14,.44.44,0,0,1-.2-.56l1-2.43A2.34,2.34,0,0,0,12.82.88H6.9A2.34,2.34,0,0,0,4.75,4.13l1,2.43a.44.44,0,0,1-.2.56,9,9,0,0,0-2.34,14M16.65,22H3.07a.44.44,0,0,1-.32-.13A9.86,9.86,0,0,1,4.83,6.55L3.94,4.48A3.21,3.21,0,0,1,6.9,0h5.92a3.21,3.21,0,0,1,3,4.48l-.89,2.07A9.86,9.86,0,0,1,17,21.87a.44.44,0,0,1-.32.13"/><path class="cls-3" d="M11.17,20.69H3.9a.44.44,0,0,1,0-.88h7.27a.44.44,0,0,1,0,.88"/><path class="cls-3" d="M13.14,20.69h-.44a.44.44,0,0,1,0-.88h.44a.44.44,0,0,1,0,.88"/></g><polygon class="cls-3" points="6.86 13.06 8.43 11.15 9.72 11.15 7.87 13.32 9.87 15.73 8.51 15.73 6.86 13.7 6.86 15.73 5.8 15.73 5.8 11.15 6.86 11.15 6.86 13.06"/><g class="cls-2"><path class="cls-3" d="M11.18,13.62a.84.84,0,0,0-.23.57.81.81,0,0,0,.21.55.74.74,0,0,0,.56.22.76.76,0,0,0,.54-.2.81.81,0,0,0,.24-.58.78.78,0,0,0-.23-.56.83.83,0,0,0-.54-.19.81.81,0,0,0-.54.2m1.23-1h1v2.88A1.79,1.79,0,0,1,13,16.85a1.75,1.75,0,0,1-1.29.45,1.91,1.91,0,0,1-1.28-.39A1.37,1.37,0,0,1,10,16.1h1.08a.5.5,0,0,0,.22.3.81.81,0,0,0,.43.1.7.7,0,0,0,.49-.16.91.91,0,0,0,.2-.64v-.35a1,1,0,0,1-.91.46,1.51,1.51,0,0,1-1.12-.43,1.6,1.6,0,0,1-.45-1.16A1.75,1.75,0,0,1,10.38,13a1.51,1.51,0,0,1,1.11-.44,1,1,0,0,1,.91.46Z"/><path class="cls-3" d="M15,14.59a.63.63,0,1,1-.63.63.62.62,0,0,1,.63-.63"/></g></g></g></svg>