<svg xmlns="http://www.w3.org/2000/svg" xmlns:xlink="http://www.w3.org/1999/xlink" viewBox="0 0 27.51 24"><defs><style>.cls-1{fill:none;}.cls-2{clip-path:url(#clip-path);}.cls-3{fill:#676767;}</style><clipPath id="clip-path" transform="translate(0 0)"><rect class="cls-1" width="27.51" height="24"/></clipPath></defs><title>Ресурс 6</title><g id="Слой_2" data-name="Слой 2"><g id="Слой_1-2" data-name="Слой 1"><g class="cls-2"><path class="cls-3" d="M23.56,10.46A2.59,2.59,0,0,1,21,8.32h5.11a2.61,2.61,0,0,1-2.56,2.14m.23,12.19H12.68V15.38a2.31,2.31,0,0,0-2.31-2.31h-2A2.31,2.31,0,0,0,6.1,15.38v7.28H3.71V11.8h.24a3.94,3.94,0,0,0,3.27-1.74,3.94,3.94,0,0,0,6.54,0,3.93,3.93,0,0,0,6.53,0,3.94,3.94,0,0,0,3.27,1.74h.23Zm-12.46,0H7.45V15.38a1,1,0,0,1,1-1h2a1,1,0,0,1,1,1v7.27ZM1.39,8.32H6.5a2.6,2.6,0,0,1-5.11,0M13,8.32a2.6,2.6,0,0,1-5.11,0Zm6.54,0a2.59,2.59,0,0,1-5.1,0Zm-14.42-7H22.35L25.55,7H2ZM27.51,7.86a.62.62,0,0,0-.09-.33L23.33.34A.68.68,0,0,0,22.74,0h-18a.67.67,0,0,0-.58.34L.09,7.53A.68.68,0,0,0,0,7.86a3.94,3.94,0,0,0,2.36,3.61V23.33A.68.68,0,0,0,3,24H24.47a.68.68,0,0,0,.67-.67V11.55a.28.28,0,0,0,0-.07,4,4,0,0,0,2.37-3.62" transform="translate(0 0)"/></g></g></g></svg>