<svg xmlns="http://www.w3.org/2000/svg" viewBox="0 0 154 135.5" width="110px"><defs><style>.cls-1,.cls-4,.cls-5{fill:none;stroke:#344154;stroke-width:3px;}.cls-1,.cls-4{stroke-linecap:round;}.cls-1{stroke-linejoin:round;}.cls-2{fill:#a3dced;}.cls-3{fill:#ff635f;}.cls-4,.cls-5{stroke-miterlimit:10;}</style></defs><title>50+</title><g id="Слой_2" data-name="Слой 2"><g id="Icon_Set" data-name="Icon Set"><line class="cls-1" x1="58" y1="9.42" x2="58" y2="18.42"/><line class="cls-1" x1="53.5" y1="13.92" x2="62.5" y2="13.92"/><line class="cls-1" x1="24.5" y1="105.92" x2="24.5" y2="114.92"/><line class="cls-1" x1="20" y1="110.42" x2="29" y2="110.42"/><line class="cls-1" x1="93" y1="120.42" x2="93" y2="129.42"/><line class="cls-1" x1="88.5" y1="124.92" x2="97.5" y2="124.92"/><circle class="cls-2" cx="64" cy="133.42" r="2.08"/><circle class="cls-2" cx="2.24" cy="102.42" r="2.24"/><circle class="cls-2" cx="20" cy="25.24" r="3.19"/><circle class="cls-2" cx="150.76" cy="67.42" r="3.24"/><path class="cls-3" d="M36.82,71.24c-2-12.91,13.48-23.19,25-12.09,0,0-6.07-14-19.92-13.09A21.22,21.22,0,0,0,24.46,57.44a21.75,21.75,0,0,0-1.12,17.27A28.1,28.1,0,0,0,27,82a29.55,29.55,0,0,0,1.94,2.52A143.93,143.93,0,0,0,43.59,98.69S58,110.52,61.48,118.35c0-10-4.27-20.16-10.75-27.65C45.82,85,38.12,79.48,36.82,71.24Z"/><g id="_Группа_" data-name="&lt;Группа&gt;"><g id="_Группа_2" data-name="&lt;Группа&gt;"><path id="_Контур_" data-name="&lt;Контур&gt;" class="cls-4" d="M97.63,80.43a27.62,27.62,0,0,0,2.45-5.32,21.75,21.75,0,0,0-.95-17.28A21.21,21.21,0,0,0,81.84,46.26c-13.84-1.05-20,12.89-20,12.89s-6.07-14-19.92-13.09A21.22,21.22,0,0,0,24.46,57.44a21.75,21.75,0,0,0-1.12,17.27A28.08,28.08,0,0,0,27,82a29.39,29.39,0,0,0,1.94,2.52A143.93,143.93,0,0,0,43.59,98.69S58,110.52,61.48,118.35c2.12-4.68,8.22-10.76,12.76-14.87"/></g></g><circle class="cls-5" cx="78.5" cy="84.73" r="7.8"/><path class="cls-4" d="M77.42,69.95a13.7,13.7,0,0,0-13.7,13.7"/><path class="cls-4" d="M89.83,95.11l4,2.89a19.88,19.88,0,0,0,31.49-16.14V44.29"/><path class="cls-4" d="M142.71,7.39l-1.05-.31a2.85,2.85,0,0,1-1.94-3.46h0a2.85,2.85,0,0,1,3.48-2l2.89.76a4.58,4.58,0,0,1,3.42,4.23c.43,9.85-.44,37.71-24.16,37.71S100.76,16.43,101.19,6.59a4.58,4.58,0,0,1,3.42-4.23l2.89-.76a2.85,2.85,0,0,1,3.48,2h0A2.85,2.85,0,0,1,109,7.08L108,7.39"/></g></g></svg>