<svg xmlns="http://www.w3.org/2000/svg" viewBox="0 0 146.4 136.28" width="117px"><defs><style>.cls-1,.cls-3{fill:none;stroke:#344154;stroke-linecap:round;stroke-width:3px;}.cls-1{stroke-linejoin:round;}.cls-2{fill:#a3dced;}.cls-3{stroke-miterlimit:10;}.cls-4{fill:#ff635f;}</style></defs><title>obsledovania</title><g id="Слой_2" data-name="Слой 2"><g id="Icon_Set" data-name="Icon Set"><line class="cls-1" x1="25.52" y1="127.01" x2="25.52" y2="134.78"/><line class="cls-1" x1="21.64" y1="130.89" x2="29.4" y2="130.89"/><line class="cls-1" x1="128.51" y1="121.26" x2="128.51" y2="129.02"/><line class="cls-1" x1="124.62" y1="125.14" x2="132.39" y2="125.14"/><line class="cls-1" x1="5.38" y1="18.92" x2="5.38" y2="26.68"/><line class="cls-1" x1="1.5" y1="22.8" x2="9.27" y2="22.8"/><circle class="cls-2" cx="124.34" cy="29.71" r="1.79"/><circle class="cls-2" cx="77.67" cy="133.84" r="1.79"/><circle class="cls-2" cx="143.61" cy="85.8" r="2.79"/><circle class="cls-2" cx="6.39" cy="96.89" r="2.75"/><path class="cls-3" d="M115.71,57.1h6.81v45.61a7.34,7.34,0,0,1-7.34,7.34H32.42a7.34,7.34,0,0,1-7.34-7.34V57.1H31.9"/><path class="cls-3" d="M52.75,46.36V94.3a7.12,7.12,0,0,1-7.12,7.12h0A7.12,7.12,0,0,1,38.5,94.3V46.36H38a2.47,2.47,0,0,1-2.47-2.47V38.69H55.74v5.19a2.47,2.47,0,0,1-2.47,2.47H45.63"/><path class="cls-4" d="M43.46,69.33v25a2.17,2.17,0,1,0,4.34,0V66.93A13.6,13.6,0,0,1,43.46,69.33Z"/><path class="cls-3" d="M80.93,46.36V94.3a7.12,7.12,0,0,1-7.12,7.12h0a7.12,7.12,0,0,1-7.12-7.12V46.36h-.52a2.47,2.47,0,0,1-2.47-2.47V38.69H83.92v5.19a2.47,2.47,0,0,1-2.47,2.47H73.8"/><path class="cls-4" d="M71.64,69.33v25a2.17,2.17,0,0,0,4.34,0V66.93A13.6,13.6,0,0,1,71.64,69.33Z"/><path class="cls-3" d="M109.1,46.36V94.3a7.12,7.12,0,0,1-7.12,7.12h0a7.12,7.12,0,0,1-7.12-7.12V46.36h-.52a2.47,2.47,0,0,1-2.47-2.47V38.69H112.1v5.19a2.47,2.47,0,0,1-2.47,2.47H102"/><path class="cls-4" d="M99.82,69.33v25a2.17,2.17,0,0,0,4.34,0V66.93A13.6,13.6,0,0,1,99.82,69.33Z"/><path class="cls-3" d="M83.25,15.42,83.32,1.5l34.62.1a4.91,4.91,0,0,1,4.88,4.93l0,4.11a4.91,4.91,0,0,1-4.93,4.88Z"/><path class="cls-3" d="M49.67,12.55l33.6,0,0-8.12-33.6,0a4.06,4.06,0,0,0-4.08,4h0A4.06,4.06,0,0,0,49.67,12.55Z"/><path class="cls-2" d="M50.73,27.24c0-4.09-5.11-9.27-5.11-9.27s-5.11,5.18-5.11,9.27a5.11,5.11,0,0,0,5.11,5.11h0A5.11,5.11,0,0,0,50.73,27.24Z"/></g></g></svg>