<svg xmlns="http://www.w3.org/2000/svg" viewBox="0 0 153.5 160.77" width="102px"><defs><style>.cls-1{fill:#ff635f;}.cls-2{fill:#a3dced;}.cls-3,.cls-4{fill:none;stroke:#344154;stroke-linejoin:round;stroke-width:3px;}.cls-3{stroke-linecap:round;}</style></defs><title>vedenieberemennosti</title><g id="Слой_2" data-name="Слой 2"><g id="Icon_Set" data-name="Icon Set"><path class="cls-1" d="M30.17,153.75s32.17,11,54.83-2.17C80.35,150,72.68,148,72,148.25c-4.09,1.24-18.54,4.45-41.17-3A18.08,18.08,0,0,0,30.17,153.75Z"/><path class="cls-2" d="M67.5,134.86A35.53,35.53,0,0,0,90.23,136c15.91-5,23.9-16.71,24.49-28.35,1.64-32.2-27.09-49.28-27.09-49.28l3-3.94s55.09,36.53,35.2,71.76c0,0-11.42,32-47.91,17.46Z"/><path class="cls-3" d="M65.61,61c5.9.79,12.11.9,17.43-2.23a12.94,12.94,0,0,0,5.75-6.68,12.12,12.12,0,0,0,.27-7.24,15,15,0,0,0-14.58-11H60.19"/><path class="cls-3" d="M64.88,136.94c31.62,28.81,75.76,1.75,64.12-38.19-3.5-12-16.5-31-39.41-46.75"/><path class="cls-4" d="M29.45,143.79c13,4.31,30.61,7,42.4,3.13"/><path class="cls-3" d="M84,153.09C64.86,165.76,30.69,155,30.69,155c-3.52-7.27.08-17.29,1.64-25.22C38.59,98,38.48,68.43,25.57,35.88"/><line class="cls-3" x1="124.02" y1="119.47" x2="124.02" y2="116.32"/><circle class="cls-4" cx="78.81" cy="47.85" r="0.87"/><line class="cls-3" x1="9.5" y1="48" x2="9.5" y2="57"/><line class="cls-3" x1="5" y1="52.5" x2="14" y2="52.5"/><line class="cls-3" x1="93" y1="1.5" x2="93" y2="10.5"/><line class="cls-3" x1="88.5" y1="6" x2="97.5" y2="6"/><line class="cls-3" x1="147.5" y1="113" x2="147.5" y2="122"/><line class="cls-3" x1="143" y1="117.5" x2="152" y2="117.5"/><line class="cls-3" x1="6" y1="138" x2="6" y2="147"/><line class="cls-3" x1="1.5" y1="142.5" x2="10.5" y2="142.5"/><circle class="cls-2" cx="16" cy="98.75" r="2.08"/><circle class="cls-2" cx="145" cy="146.75" r="2.08"/><circle class="cls-2" cx="126.25" cy="53" r="2.24"/><circle class="cls-2" cx="42" cy="11.75" r="3.19"/></g></g></svg>