<svg xmlns="http://www.w3.org/2000/svg" xmlns:xlink="http://www.w3.org/1999/xlink" viewBox="0 0 350.96 391.76"><defs><style>.cls-1{fill:none;}.cls-2{clip-path:url(#clip-path);}.cls-3{fill:#595959;}</style><clipPath id="clip-path" transform="translate(0 -0.16)"><rect class="cls-1" width="350.88" height="392.88"/></clipPath></defs><title>Ресурс 1</title><g id="Слой_2" data-name="Слой 2"><g id="Layer_1" data-name="Layer 1"><g class="cls-2"><path class="cls-3" d="M351,117.36A37.48,37.48,0,0,0,285.2,92.72L211,49.76a37.52,37.52,0,1,0-73-12.08,37,37,0,0,0,2,12l-74.16,43a37.5,37.5,0,1,0-36.32,61.28l.08,84.16a37.5,37.5,0,1,0,35.76,61.76l74.4,43a37,37,0,0,0-1.84,11.6,37.52,37.52,0,1,0,75,0,37.09,37.09,0,0,0-1.84-11.6l74.4-43a37.51,37.51,0,1,0,35.12-61.92V154.08A37.36,37.36,0,0,0,351,117.36Zm-37.52-23a23,23,0,1,1-23,23,23,23,0,0,1,23-23ZM175.52,14.72a23.06,23.06,0,0,1,20.32,33.92,3.57,3.57,0,0,0-.4.56l-.24.48a23,23,0,1,1-19.68-35Zm-161,102.64a23,23,0,1,1,23,23,23,23,0,0,1-23-23Zm23,180.48a23,23,0,1,1,23-23,23,23,0,0,1-23,23Zm137.92,79.6a23,23,0,1,1,23-23,23,23,0,0,1-23,23Zm28.56-47.28a37.35,37.35,0,0,0-57.12,0L72.88,287.44a36.85,36.85,0,0,0,2.24-12.64,37.55,37.55,0,0,0-31-37l-.08-83.6a37.52,37.52,0,0,0,29-49l74.16-43a37.48,37.48,0,0,0,56.56,0l74.16,43a37.51,37.51,0,0,0,28.24,48.88v83.84A37.52,37.52,0,0,0,276,274.72a36.58,36.58,0,0,0,2.24,12.64Zm132.4-55.36a23,23,0,1,1-23-23,23,23,0,0,1,23,23Zm0,0" transform="translate(0 -0.16)"/></g><path class="cls-3" d="M210.48,225V198.88a22.55,22.55,0,0,0,6.88-16.32V148.24a38.2,38.2,0,0,0-38.16-38.16h-7.36a38.2,38.2,0,0,0-38.16,38.16v34.32a22.86,22.86,0,0,0,6.88,16.32V225c-8.32,4.32-28.32,15.28-47,30.64a7.27,7.27,0,1,0,9.28,11.2,259.31,259.31,0,0,1,47.44-30.4,8.69,8.69,0,0,0,4.88-7.92V195.44a7.15,7.15,0,0,0-3.2-6,8.16,8.16,0,0,1-3.68-6.88V148.24a23.73,23.73,0,0,1,23.68-23.68h7.36A23.73,23.73,0,0,1,203,148.24v34.32a8.37,8.37,0,0,1-3.68,6.88,7.26,7.26,0,0,0-3.2,6v33.12a8.86,8.86,0,0,0,5,7.92,264,264,0,0,1,47.44,30.4,7.16,7.16,0,0,0,10.16-1,7.33,7.33,0,0,0-1-10.24A284.21,284.21,0,0,0,210.48,225Zm0,0" transform="translate(0 -0.16)"/></g></g></svg>