<svg xmlns="http://www.w3.org/2000/svg" width="11" height="12.938" viewBox="0 0 11 12.938">
<defs>
    <style>
      .cls-2 {
        fill: #fff;
        fill-rule: evenodd;
      }
    </style>
  </defs>
  <path class="cls-2" d="M209.512,180.5H209.6a2.472,2.472,0,0,0,1.89-.818,4.91,4.91,0,0,0,.842-3.349,2.735,2.735,0,0,0-1.3-2.431,2.971,2.971,0,0,0-1.443-.378h-0.045a2.982,2.982,0,0,0-1.442.367,2.737,2.737,0,0,0-1.316,2.442,4.9,4.9,0,0,0,.841,3.349,2.464,2.464,0,0,0,1.887.818h0Zm-2.013-4.1c0-.007,0-0.016,0-0.021a1.95,1.95,0,0,1,2.037-2.129h0.032a1.961,1.961,0,0,1,2.038,2.129,0.065,0.065,0,0,0,0,.021,4.24,4.24,0,0,1-.662,2.8,1.753,1.753,0,0,1-1.38.574h-0.027a1.749,1.749,0,0,1-1.378-.574,4.272,4.272,0,0,1-.665-2.8h0Zm0,0,7.565,7.408V183.8c0-.021,0-0.043,0-0.067a2.1,2.1,0,0,0-1.214-2.169l-0.027-.008a7.736,7.736,0,0,1-2.225-1.013,0.361,0.361,0,1,0-.415.592,8.333,8.333,0,0,0,2.447,1.118,1.422,1.422,0,0,1,.713,1.5,0.486,0.486,0,0,0,0,.067,4.918,4.918,0,0,1-.057.828,10.7,10.7,0,0,1-9.454,0,4.643,4.643,0,0,1-.056-0.829c0-.021,0-0.043,0-0.067a1.421,1.421,0,0,1,.713-1.5,8.436,8.436,0,0,0,2.447-1.118,0.362,0.362,0,0,0-.415-0.593,7.675,7.675,0,0,1-2.225,1.014,0.146,0.146,0,0,0-.027.008,2.107,2.107,0,0,0-1.214,2.169,0.486,0.486,0,0,1,0,.067V183.8a4.1,4.1,0,0,0,.137,1.214,0.339,0.339,0,0,0,.139.169,11.319,11.319,0,0,0,10.465,0,0.361,0.361,0,0,0,.139-0.169,4.341,4.341,0,0,0,.129-1.212h0Zm0,0" transform="translate(-204.063 -173.531)"/>
</svg>
