<svg xmlns="http://www.w3.org/2000/svg" viewBox="0 0 51.2 33.6"><title>Ресурс 1</title><g id="Слой_2" data-name="Слой 2"><g id="Layer_1" data-name="Layer 1"><path fill="#5c5c5b" d="M48.8,4a2.4,2.4,0,0,0-1.7,4.09L37.44,16.5l-3-11.86a2.39,2.39,0,1,0-2.16-.25L26,14.73l-7-10.45A2.4,2.4,0,1,0,17,4.7L14.6,16.51,4.11,8.07A2.39,2.39,0,1,0,2.4,8.8h.07L7.28,33.6H44.87L48.74,8.79h.06a2.4,2.4,0,0,0,0-4.8ZM33.6,1.6a.8.8,0,1,1-.8.8.8.8,0,0,1,.8-.8Zm-16,0a.8.8,0,1,1-.8.8.8.8,0,0,1,.8-.8ZM1.6,6.4a.8.8,0,1,1,.8.8.8.8,0,0,1-.8-.8ZM8.6,32l-.46-2.4H43.88L43.5,32Zm35.53-4H8a.83.83,0,0,0-.17,0L4.4,10.36l10.22,8.23,1.29-.47L18.33,6.05l7.07,10.61,1.35,0L33.13,6.05l3.07,12.11,1.3.41,9.36-8.16ZM48.8,7.2a.8.8,0,1,1,.8-.8.8.8,0,0,1-.8.8Zm0,0"/></g></g></svg>