<svg xmlns="http://www.w3.org/2000/svg" viewBox="0 0 337.31 373.63"><defs><style>.cls-1{fill:#fff;}</style></defs><title>Ресурс 1</title><g id="Слой_2" data-name="Слой 2"><g id="Isolation_Mode" data-name="Isolation Mode"><path class="cls-1" d="M287.39,232c-7-8.72-16-13.84-25.86-14.71s-19.58,2.54-28.33,9.89l-27.38,22.9c-2-1.3-4-2.51-5.86-3.72-2.74-1.69-5.34-3.28-7.52-4.92-22.28-17-42-38.45-60.36-65.51-8.86-13.46-14.63-24.65-18.55-35.83,7.06-5.41,13.66-11.09,20.08-16.56,2.43-2,4.86-4.15,7.29-6.19C159.1,102.08,161,80.4,145.73,62.2L125.87,38.54c-2.25-2.69-4.58-5.46-6.75-8.22-4.35-5.36-8.92-10.9-13.68-16.14C98.38,5.86,89.49,1,79.77.13S60.29,2.52,51.65,9.48l-.17.15L22,34.59A58.53,58.53,0,0,0,1.45,70.13c-3.95,23.1,1,45.38,5,60,9.86,36,26.33,69.92,52.07,107,31.26,44.73,70.38,81.32,116.33,108.71,17.57,10.29,41.14,22.71,68.32,26.85,1.67.23,3.41.46,5,.6,18.41,1.61,34.45-3.65,47.71-15.74.09-.15.26-.22.35-.37A181.17,181.17,0,0,1,311.48,344c3.71-3,7.52-6.09,11.26-9.38,8.61-7.52,13.59-16.72,14.44-26.52s-2.53-19.74-9.88-28.41Zm21.19,86.41c-.08,0-.09.07,0,0-3.4,3.08-6.85,5.83-10.58,8.87a210.32,210.32,0,0,0-16.77,14.59c-8.8,7.9-18.64,11.14-31.08,10-1.19-.1-2.47-.22-3.66-.4C223,347.94,201.77,336.77,186,327.44A355.41,355.41,0,0,1,76.39,225c-24.31-35.13-39.83-67-49-100.58-5.68-20.49-7-36.19-4.56-50.67A36.71,36.71,0,0,1,35.88,51.06l29.55-24.8c4.22-3.32,8.54-5,12.61-4.6,5,.44,8.82,3.83,11.15,6.6l.22.26c4.47,5,8.67,10.08,13.1,15.52,2.25,2.77,4.57,5.54,6.89,8.39L129.25,76.1c7.71,9.19,7,17-2.16,24.71-2.51,2.11-4.95,4.23-7.45,6.25-7.29,6.27-14.23,12.09-21.7,17.7-.17.15-.34.21-.44.36-7.45,6.26-6.76,13.06-5.73,17.73l.18.74c4.46,14.2,11.3,27.81,22.07,44.25l.07.08c19.63,29,41,52.17,65.13,70.59a108.11,108.11,0,0,0,9.34,6.2c2.75,1.69,5.34,3.28,7.52,4.92.31.19.6.45.91.64a17.34,17.34,0,0,0,7.71,2.68c6.62.58,11.12-3.2,12.59-4.44l29.64-24.87c2.95-2.48,7.54-5.36,12.56-4.92s8.73,3.89,11,6.82l40.22,47.93c7.5,8.85,6.77,17.22-2.1,25Zm0,0"/></g></g></svg>