<svg xmlns="http://www.w3.org/2000/svg" width="12.5" height="12" viewBox="0 0 12.5 12">
  <metadata><?xpacket begin="﻿" id="W5M0MpCehiHzreSzNTczkc9d"?>
<x:xmpmeta xmlns:x="adobe:ns:meta/" x:xmptk="Adobe XMP Core 5.6-c138 79.159824, 2016/09/14-01:09:01        ">
   <rdf:RDF xmlns:rdf="http://www.w3.org/1999/02/22-rdf-syntax-ns#">
      <rdf:Description rdf:about=""/>
   </rdf:RDF>
</x:xmpmeta>
                                                                                                    
                                                                                                    
                                                                                                    
                                                                                                    
                                                                                                    
                                                                                                    
                                                                                                    
                                                                                                    
                                                                                                    
                                                                                                    
                                                                                                    
                                                                                                    
                                                                                                    
                                                                                                    
                                                                                                    
                                                                                                    
                                                                                                    
                                                                                                    
                                                                                                    
                                                                                                    
                           
<?xpacket end="w"?></metadata>
<defs>
    <style>
      .cls-1 {
        fill: #fbd601;
        fill-rule: evenodd;
      }
    </style>
  </defs>
  <path id="stars_copy" data-name="stars copy" class="cls-1" d="M171.761,139.464a0.23,0.23,0,0,1-.132-0.042,0.227,0.227,0,0,1-.089-0.222l0.694-4.061-2.939-2.876a0.227,0.227,0,0,1-.057-0.231,0.223,0.223,0,0,1,.181-0.153l4.062-.592,1.817-3.7a0.223,0.223,0,0,1,.4,0l1.816,3.7,4.063,0.592a0.225,0.225,0,0,1,.124.384l-2.939,2.877,0.694,4.062a0.228,0.228,0,0,1-.09.22,0.223,0.223,0,0,1-.237.016l-3.632-1.917-3.633,1.917a0.218,0.218,0,0,1-.105.026h0Zm-1.827-7.205" transform="translate(-169.25 -127.469)"/>
</svg>
