<svg xmlns="http://www.w3.org/2000/svg" xmlns:xlink="http://www.w3.org/1999/xlink" viewBox="0 0 20 20"><defs><style>.cls-1{isolation:isolate;}.cls-2{fill:#198942;}.cls-3{fill:#50b848;}.cls-4,.cls-5{opacity:0.3;mix-blend-mode:screen;}.cls-4{fill:url(#linear-gradient);}.cls-5{fill:url(#linear-gradient-2);}.cls-6{fill:#fff;}</style><linearGradient id="linear-gradient" x1="1306.72" y1="2178.92" x2="1316.64" y2="2196.1" gradientTransform="translate(-2179.68 1350.43) rotate(-90) scale(1.02 1)" gradientUnits="userSpaceOnUse"><stop offset="0.09" stop-color="#fff"/><stop offset="1" stop-color="#fff" stop-opacity="0"/></linearGradient><linearGradient id="linear-gradient-2" x1="1300.91" y1="2179.54" x2="1312.01" y2="2198.77" xlink:href="#linear-gradient"/></defs><title>Ресурс 2</title><g class="cls-1"><g id="Слой_2" data-name="Слой 2"><g id="Layer_1" data-name="Layer 1"><polygon class="cls-2" points="0 0 20 10 0 4.86 0 0"/><polygon class="cls-2" points="20 10 0 20 0 15.14 20 10"/><polygon class="cls-3" points="0 4.86 20 10 0 15.14 0 4.86"/><polygon class="cls-4" points="0 15.14 20 10 4.69 10 0 4.86 0 10.47 0 15.14"/><polygon class="cls-5" points="20 10 0 17.48 0 20 20 10"/><polygon class="cls-6" points="0 0 0 15.14 0.36 5.11 20 10 0.41 4.69 0 0"/></g></g></g></svg>