<svg xmlns="http://www.w3.org/2000/svg" viewBox="0 0 174.03 45.63"><defs><style>.cls-1{fill:#fff;}</style></defs><title>Ресурс 1</title><g id="Слой_2" data-name="Слой 2"><g id="Layer_1" data-name="Layer 1"><path class="cls-1" d="M23.79,38.64h-.21a1.44,1.44,0,0,0-1,.26,3,3,0,0,0-.62.62l-.13.24-.13.24,0,.06,0,.09A22.93,22.93,0,0,1,18.75,44a5.59,5.59,0,0,1-4.26,1.65l-.3,0a10.43,10.43,0,0,1-2.71-.36,8,8,0,0,1-1.79-.72,1.58,1.58,0,0,1-.27-.13,1.17,1.17,0,0,1-.21-.16,6.92,6.92,0,0,0,1-.5q.46-.28.92-.62l.3,0A3.44,3.44,0,0,0,12,44a2.91,2.91,0,0,0,.71.51,2.53,2.53,0,0,0,.41.14l.38.07a2.51,2.51,0,0,0,1.42-.55,5.83,5.83,0,0,0,1-1.06l.24-.35c.08-.11.15-.21.21-.31l.11-.17.1-.16q.42-.57.89-1.1a6.48,6.48,0,0,1,1.21-1,11,11,0,0,1,1.11-.66q.63-.33,1.47-.69v-.21l-.71.1-.71.08-1.67.06-1.91.06a2.24,2.24,0,0,1-.36,0h-.39l-.58,0h-.62l-.3,0a1.07,1.07,0,0,0-.25,0h-.29a1,1,0,0,0-.25,0H13l-1.12,0-3.31-.17-.65,0-.61,0L6,38.39l-1.42,0c-.44,0-.81,0-1.11,0l-.81.06-.23,0-.22,0-.44,0-.37,0H.3l-.3,0V37.51H.38l.07,0,.08,0H.6Q2,37.41,2.14,35.08t.17-5.7V25.75a43.18,43.18,0,0,0-.15-4.53Q2,19.36.72,19.36H.09V18.25H1.75l.38,0,.18,0,.18,0,.21,0h.18l.72.08a6.19,6.19,0,0,0,.75,0l.36,0H5.1l.36,0,.36,0H6l.21,0,.18,0,.18,0,.38,0H8.61v1.11H8q-1.23,0-1.41,1.65a33.46,33.46,0,0,0-.15,4v6.63q0,1.11,0,2.16l.06,1.56c0,.52,0,1.06.09,1.62L7,37l.36,0q.45.06.93.09l1,.06c.44,0,.89.07,1.33.09l1.28,0q1.23,0,2.26,0l1.73-.06q0-.21,0-1.09t0-2.06V32.74q0-1.5,0-2.81t0-1.63c0-.36,0-.72,0-1.09s0-.74,0-1.09,0-.71,0-1.07,0-.69,0-1a16.19,16.19,0,0,0-.29-3.32q-.29-1.33-1.33-1.33h-.63V18.25h1.67l.38,0,.18,0,.18,0,.21,0h.18l.72.08a6.19,6.19,0,0,0,.75,0l.36,0h.39l.36,0,.36,0h.18l.21,0,.18,0,.18,0,.38,0h1.67v1.11h-.63a1.26,1.26,0,0,0-1.36,1.18,14.26,14.26,0,0,0-.17,2.63v11a12.05,12.05,0,0,0,.17,2.1,1.15,1.15,0,0,0,1.21,1l.22,0H22l.6-.14a4.9,4.9,0,0,0,.54-.16l.22-.08.17-.08h.3Z"/><path class="cls-1" d="M27.91,37.47h.63a1.56,1.56,0,0,0,1.11-.42,4.14,4.14,0,0,0,.75-.93,2.81,2.81,0,0,0,.25-.43l.2-.41q.45-1,1.21-3T33.67,28l.24-.66.24-.66q.93-2.7,1.71-5.12t1-3.49a12.09,12.09,0,0,0,1.18-.3c.39-.12.76-.25,1.13-.39h.3q.21.81,1,3.39t3.48,10q1.17,3.33,1.82,4.7A4.73,4.73,0,0,0,47,37.24a1.42,1.42,0,0,0,.58.21,6.7,6.7,0,0,0,.67,0h.54v1.14h-1l-.51,0a3.89,3.89,0,0,1-.51-.09l-.26,0-.25,0-.39-.06-.39,0a3.05,3.05,0,0,0-.42,0h-.39c-.36,0-.69,0-1,0l-.81.06-.22,0H42.4l-.51.06-.45.06h-.63l-.78,0h-.3V37.47h.69q.66,0,.85-.36a1.91,1.91,0,0,0,.23-.78v-.81a4.14,4.14,0,0,0-.36-1.32q-.33-.78-1-2.61h-.81l-.75,0-.78,0H36.6l-.29,0-.69,0-1.2-.06-.11.32a2.24,2.24,0,0,0-.08.28.25.25,0,0,1,0,.08.21.21,0,0,1,0,.08l-.12.33-.15.42q-.06.18-.17.54l-.22.78-.06.2-.06.22c-.1.34-.18.67-.25,1a3.71,3.71,0,0,0-.11.72.83.83,0,0,0,.35.78,1.81,1.81,0,0,0,.85.24l.32,0,.31,0h.3v1.14h-.84a3,3,0,0,1-.48,0l-.6-.11-.72-.07a7.87,7.87,0,0,0-.9,0c-.34,0-.63,0-.87,0l-.63.06-.18,0h-.18l-.22,0-.23,0a4.09,4.09,0,0,1-.5,0h-.61l-.3,0Zm8.93-13.41q-.35,1.14-2,6.15l.2,0,.2,0q.51.06,1,.09t1.18,0q.57,0,1,0t.9-.09l.15,0,.18,0Q39,28,38.4,26.42a19.76,19.76,0,0,1-1-3c0-.16-.08-.31-.11-.45s-.06-.28-.08-.42Q37.18,22.92,36.84,24.07Z"/><path class="cls-1" d="M60.69,28.8H61l.17,0,.17,0,.17,0h.17a3.33,3.33,0,0,0,2.26-1.14,4.71,4.71,0,0,0,1-3.36A4.94,4.94,0,0,0,64,21a4.56,4.56,0,0,0-2.13-1.38,6.42,6.42,0,0,0-.83-.18,5.22,5.22,0,0,0-.76-.06h-.21a.26.26,0,0,1-.12,0h-.12q0,.3,0,.63c0,.22,0,.45,0,.69,0,.44,0,.9,0,1.38s0,1,0,1.47v9.88c0,.21,0,.42,0,.64a9.17,9.17,0,0,0,.33,2.31,1.23,1.23,0,0,0,1.23,1h.84v1.14h-.72q-.42,0-.75,0l-.6-.06-.23,0-.22,0a8.74,8.74,0,0,0-.88-.15,9.43,9.43,0,0,0-1.12-.06,8.5,8.5,0,0,0-1.05.06q-.48.06-.9.15l-.21,0-.21,0-.57.06q-.3,0-.72,0h-.63V37.47H54q1.11,0,1.39-1.41a15.22,15.22,0,0,0,.25-3.24V31.24c0-.26,0-.52,0-.78V26.29c0-.26,0-.52,0-.78a7,7,0,0,0,0-.78v-.46a3.14,3.14,0,0,0,0-.43v-.57a15.51,15.51,0,0,0-.32-2.6A1.44,1.44,0,0,0,54,19.36h-.18l-.08,0h-.37l0-1.2h.3l1.46.09.88.06.41,0h.46a9.87,9.87,0,0,0,1.09-.06l1-.12,1.13-.12A12.24,12.24,0,0,1,61.38,18h.3a8.86,8.86,0,0,1,4.68,1,6,6,0,0,1,2.19,2.19,5.37,5.37,0,0,1,.51,1.49,7.26,7.26,0,0,1,.12,1.16,5.89,5.89,0,0,1-1.77,4.38,6.33,6.33,0,0,1-4.71,1.71h-.3l-.83,0a6.76,6.76,0,0,1-.88-.12Z"/><path class="cls-1" d="M94.06,33.94q-.63,3.39-2.64,4.21a14.82,14.82,0,0,1-5.49.82l-.3,0Q80,39,76.85,35.75a10.43,10.43,0,0,1-3.17-7.54,13.39,13.39,0,0,1,.08-1.38A10.34,10.34,0,0,1,74,25.38a10.79,10.79,0,0,1,3.17-5.23q2.48-2.38,7.61-2.38h.3a21.87,21.87,0,0,1,2.28.09q.81.09,1.38.21l.24,0,.24,0c.26.06.54.11.83.15a7.8,7.8,0,0,0,1.07.06q.66,0,1.18,0a7.38,7.38,0,0,0,.86-.09h.3q-.09.69-.15,1.17a7.49,7.49,0,0,0-.06.93,2,2,0,0,1,0,.27,2.24,2.24,0,0,0,0,.27c0,.1,0,.2,0,.3a2.79,2.79,0,0,0,0,.3,1.57,1.57,0,0,0,0,.3,1.57,1.57,0,0,1,0,.3v.45c0,.14,0,.29,0,.46s0,.36,0,.55H91.72a3.77,3.77,0,0,0-1.63-3.31A7,7,0,0,0,86,19a10.88,10.88,0,0,0-1.44.2,7.46,7.46,0,0,0-2.34.88,8.46,8.46,0,0,0-2.7,2.63,9,9,0,0,0-1.23,5.12A10.4,10.4,0,0,0,80.69,35a7.47,7.47,0,0,0,5.63,2.77,3.21,3.21,0,0,0,.44,0l.43-.06a8.08,8.08,0,0,0,3.29-1.31,5.89,5.89,0,0,0,2.17-2.41h1.41Z"/><path class="cls-1" d="M98.6,18.25h1.65l.39,0,.18,0,.18,0,.18,0h.18l.36,0,.39,0h.36l.36,0a6.58,6.58,0,0,0,.76,0l.74-.08h.18l.18,0,.18,0,.21,0,.36,0h1.68v1.11h-.63q-1.2,0-1.38,1.63a40.67,40.67,0,0,0-.18,4.28v5a2.49,2.49,0,0,0,0,.49v3.56a8.55,8.55,0,0,0,.38,2.16,1.24,1.24,0,0,0,1.25,1h.6v1.14h-.66l-.63,0a3.29,3.29,0,0,1-.54-.07l-.24,0-.24,0a8.65,8.65,0,0,0-.88-.15,9.15,9.15,0,0,0-1.09-.06,8.76,8.76,0,0,0-1.08.06q-.48.06-.9.15l-.22,0-.23,0a3.34,3.34,0,0,1-.55.07l-.67,0h-.63V37.47h.6a1.28,1.28,0,0,0,1.29-1,8.67,8.67,0,0,0,.39-2.25c0-.3,0-.59,0-.88s0-.55,0-.79v-.27q0-.36,0-.74c0-.25,0-.49,0-.73V27.46q0-4.41-.2-6.25t-1.37-1.84H98.6Zm12.18,0,.33,0h.57l.39,0,.36,0h.29l.25,0,.69.07a8.2,8.2,0,0,0,.93,0l.79,0,1-.09.75,0,.84,0h.3v1.14h-.63a3.6,3.6,0,0,0-1.11.16,4.47,4.47,0,0,0-1,.47,14.14,14.14,0,0,0-3,2.64,52,52,0,0,1-4.87,4.59,6.64,6.64,0,0,1,2.87,2,24.05,24.05,0,0,1,2.14,3q.54.9,1,1.77t1,1.59a7.69,7.69,0,0,0,1.09,1.33,2,2,0,0,0,1.18.58l.3-.06.33-.06.2-.06.2-.06.33-.12.24-.09h.3v1.17l-1.14.39a5,5,0,0,1-.87.21,2.11,2.11,0,0,1-.42.07l-.45,0-.3,0a4.56,4.56,0,0,1-1.75-.37,4.69,4.69,0,0,1-1.46-1.06,23,23,0,0,1-2.8-3.63,53.56,53.56,0,0,0-4.49-5.73q4.32-4.5,5.63-6.23a7.6,7.6,0,0,0,1.31-2c0-.14-.09-.25-.27-.33a1.92,1.92,0,0,0-.63-.15l-.06,0h-.39Z"/><path class="cls-1" d="M127.41,38.83l-2.07.3H125q.09-1.47.15-2.76t.09-2.58q0-1.17,0-2.4t0-2.58q0-.66,0-1.29t0-1.23q0-.63,0-1.2c0-.38,0-.75,0-1.11a16,16,0,0,0-.29-3.33q-.29-1.29-1.33-1.29h-.63V18.25h1.66l.38,0,.18,0,.18,0,.21,0h.18l.72.08a6.18,6.18,0,0,0,.75,0l.36,0h.39l.36,0,.36,0h.18l.21,0,.18,0,.18,0,.38,0h1.67v1.11H131a1.19,1.19,0,0,0-1.28.95,8.91,8.91,0,0,0-.29,2.08v6.69c0,.28,0,.56,0,.84a7.79,7.79,0,0,1,0,.84c0,.3,0,.62,0,1s-.06.67-.1,1-.05.59-.09.87l-.12.84q.42-.6,1.21-1.58t2.89-3.22q.57-.6,1.14-1.25l1.14-1.3,1-1.14c.33-.38.65-.77,1-1.17q1.5-1.8,2.85-3.54t2.37-3.12l.81-.11.78-.08h.3q0,.3,0,.6c0,.2,0,.39,0,.57q-.06,1-.07,2.17t0,3v9.46a2.9,2.9,0,0,0,0,.4,9.54,9.54,0,0,0,.32,2.28,1.22,1.22,0,0,0,1.25,1h.63v1.14h-.66l-.63,0a3.31,3.31,0,0,1-.54-.07l-.24,0-.24,0a8.65,8.65,0,0,0-.88-.15,9.43,9.43,0,0,0-1.12-.06,8.39,8.39,0,0,0-1.06.06q-.47.06-.89.15l-.21,0-.21,0-.57.06q-.3,0-.72,0H138V37.47h.63a1.25,1.25,0,0,0,1.29-1.09,11.09,11.09,0,0,0,.3-2.42q0-.27,0-.54c0-.18,0-.35,0-.51V26.44a11.75,11.75,0,0,1,.09-1.47c0-.16,0-.31.08-.46s.06-.3.1-.46a17.16,17.16,0,0,1-1.63,2.1q-1.25,1.44-4.87,5.46-3.36,3.66-4.47,4.84t-1.65,1.88l-.08.09-.07.09-.12.15a1,1,0,0,0-.12.15Z"/><path class="cls-1" d="M154.86,38.83l-1.92.24h-.3q0-1.32.06-2.5t0-2.38q0-1.29,0-2.61V23.13a14.11,14.11,0,0,0-.17-2.61,1.25,1.25,0,0,0-1.36-1.17h-.63V18.25h1.66l.38,0,.18,0,.18,0,.21,0h.18l.72.08a6.18,6.18,0,0,0,.75,0l.36,0h.39l.36,0,.36,0h.18l.21,0,.18,0,.18,0,.38,0h1.67v1.11h-.63a1.19,1.19,0,0,0-1.28.95,8.91,8.91,0,0,0-.29,2.08v6.69c0,.28,0,.56,0,.84a7.79,7.79,0,0,1,0,.84c0,.3,0,.62,0,1s-.06.67-.1,1-.05.59-.09.87l-.12.84q.42-.6,1.21-1.58t2.89-3.22q.57-.6,1.14-1.25l1.14-1.3,1-1.14c.33-.38.65-.77,1-1.17q1.5-1.8,2.85-3.54t2.37-3.12l.36-.06.39-.06.38,0,.41-.06h.3q-.09,1.86-.1,3.11t0,2.38V33.74a2.9,2.9,0,0,0,0,.4,9.54,9.54,0,0,0,.32,2.28,1.22,1.22,0,0,0,1.25,1H174v1.14h-.66l-.63,0a3.31,3.31,0,0,1-.54-.07l-.24,0-.24,0a8.65,8.65,0,0,0-.88-.15,9.43,9.43,0,0,0-1.12-.06,8.39,8.39,0,0,0-1.06.06q-.47.06-.89.15l-.21,0-.21,0-.57.06q-.3,0-.72,0h-.63V37.47h.63a1.25,1.25,0,0,0,1.29-1.09,11.09,11.09,0,0,0,.3-2.42q0-.27,0-.54c0-.18,0-.35,0-.51V26.44A11.75,11.75,0,0,1,167.7,25c0-.16,0-.31.08-.46s.06-.3.1-.46a17.16,17.16,0,0,1-1.63,2.1q-1.25,1.44-4.87,5.46-3.36,3.66-4.47,4.84t-1.65,1.88l-.08.09-.07.09-.12.15a1,1,0,0,0-.12.15Zm6.36-24.48a1.18,1.18,0,0,0,.51,1,2.23,2.23,0,0,0,1.14.44,3.63,3.63,0,0,0,1-.22,3.19,3.19,0,0,0,1.08-.71,5.14,5.14,0,0,0,.78-.86,6.59,6.59,0,0,0,.72-1.28h.3l.58.48c.19.16.38.31.58.45A8.25,8.25,0,0,1,164,16.8a11.73,11.73,0,0,1-3.13.54h-.3a2.31,2.31,0,0,1-1.82-.72,4.75,4.75,0,0,1-1-1.74,9.18,9.18,0,0,0,1.48-.93,10.15,10.15,0,0,0,1.33-1.23h.63Z"/><path class="cls-1" d="M57.34.07h.87v6.2l0,1,.66-1,5-6.17h.87V8.26h-.87V2.07l0-1-.66,1-5,6.16h-.87Z"/><path class="cls-1" d="M68.36,3.71h1.15c1.26,0,2-.56,2-1.53S70.72.73,69.58.73a6,6,0,0,0-2,.39L67.31.43A6.47,6.47,0,0,1,69.67,0c1.8,0,2.67,1,2.67,2a2,2,0,0,1-1.33,2,2,2,0,0,1,1.71,2c0,1.14-1,2.37-3.09,2.37a7.05,7.05,0,0,1-2.75-.6L67.19,7a5.54,5.54,0,0,0,2.44.57c1.13,0,2.22-.42,2.22-1.59s-1.12-1.56-2.34-1.56H68.36Z"/><path class="cls-1" d="M75.25,7.56a2.28,2.28,0,0,0,1.82-1.41l.19-.39H76.9L73.78.07h1l2.79,5,2.24-5h.9L77.82,6.31A3.19,3.19,0,0,1,75.55,8.4Z"/><path class="cls-1" d="M91.18,8.26V2l0-1L87.82,8.26H86.53L83.44,1.13,83.5,2V8.26h-.86V.07h1.28L87.2,7.68,90.77.07H92V8.26Z"/><path class="cls-1" d="M95,.07H98a2.44,2.44,0,0,1,2.61,2.66c0,1.44-1,2.77-3.21,2.77h-.2V4.74h.27c1.26,0,2.22-.63,2.22-2a1.73,1.73,0,0,0-2-2H95.89V8.26H95Z"/><path class="cls-1" d="M102.9,7.56a2.28,2.28,0,0,0,1.82-1.41l.19-.39h-.36L101.43.07h1l2.79,5,2.24-5h.9l-2.91,6.24A3.19,3.19,0,0,1,103.2,8.4Z"/><path class="cls-1" d="M108.31,7.5h.88a10,10,0,0,0,1.17-2.58,25.64,25.64,0,0,0,.54-4.85h4.84V7.5h1.32v3h-.9V8.26h-7v2.21h-.85Zm6.58,0V.84h-3.18a34.32,34.32,0,0,1-.61,4.53,12.1,12.1,0,0,1-.87,2.13Z"/></g></g></svg>