<svg xmlns="http://www.w3.org/2000/svg" xmlns:xlink="http://www.w3.org/1999/xlink" viewBox="0 0 286.34 51.93">
  <defs>
    <style>
      .cls-1{isolation:isolate;}.cls-2{fill:#19825a;}.cls-3{opacity:0.3;fill:url(#linear-gradient);}.cls-13,.cls-14,.cls-15,.cls-3{mix-blend-mode:screen;}.cls-4{fill:#b5b7b9;}.cls-5{fill:url(#linear-gradient-2);}.cls-6{fill:#198942;}.cls-7{fill:#50b848;}.cls-8{fill:#d2e288;}.cls-9{fill:url(#linear-gradient-3);}.cls-10{fill:#17733b;}.cls-11,.cls-15{opacity:0.6;}.cls-11,.cls-12{mix-blend-mode:multiply;}.cls-11{fill:url(#linear-gradient-4);}.cls-12{fill:url(#linear-gradient-5);}.cls-13{opacity:0.5;fill:url(#linear-gradient-6);}.cls-14{opacity:0.7;fill:url(#linear-gradient-7);}.cls-15{fill:url(#linear-gradient-8);}.cls-16{fill:url(#radial-gradient);}.cls-17{fill:url(#radial-gradient-2);}
    </style>
    <linearGradient id="linear-gradient" x1="87.04" x2="276.54" y1="12.86" y2="12.86" gradientUnits="userSpaceOnUse">
      <stop offset="0" stop-color="#fff" stop-opacity="0"/>
      <stop offset=".91" stop-color="#fff"/>
    </linearGradient>
    <linearGradient id="linear-gradient-2" x1="2.66" x2="28.22" y1="9.79" y2="9.79" gradientUnits="userSpaceOnUse">
      <stop offset="0" stop-color="#198942"/>
      <stop offset=".8" stop-color="#89c765"/>
    </linearGradient>
    <linearGradient id="linear-gradient-3" x1="53.33" x2="78.89" y1="9.79" y2="9.79" gradientUnits="userSpaceOnUse">
      <stop offset=".2" stop-color="#89c765"/>
      <stop offset="1" stop-color="#198942"/>
    </linearGradient>
    <linearGradient id="linear-gradient-4" x1="12.68" x2="40.12" y1="9.81" y2="9.81" xlink:href="#linear-gradient-2"/>
    <linearGradient id="linear-gradient-5" x1="21.21" x2="59.22" y1="17.65" y2="24.35" xlink:href="#linear-gradient-3"/>
    <linearGradient id="linear-gradient-6" x1="23.03" x2="79.01" y1="7.29" y2="17.16" gradientUnits="userSpaceOnUse">
      <stop offset=".09" stop-color="#fff"/>
      <stop offset="1" stop-color="#fff" stop-opacity="0"/>
    </linearGradient>
    <linearGradient id="linear-gradient-7" x1="35.87" x2="54.62" y1="9.35" y2="41.81" xlink:href="#linear-gradient-6"/>
    <linearGradient id="linear-gradient-8" x1="10.03" x2="33.4" y1="13.58" y2="54.06" xlink:href="#linear-gradient-6"/>
    <radialGradient id="radial-gradient" cx="21.56" cy="17.49" r="26.46" gradientUnits="userSpaceOnUse">
      <stop offset="0" stop-color="#fff"/>
      <stop offset="1" stop-color="#fff" stop-opacity="0"/>
    </radialGradient>
    <radialGradient id="radial-gradient-2" cx="60.72" cy="17.72" r="17.14" xlink:href="#radial-gradient"/>
  </defs>
  <g class="cls-1">
    <g id="Слой_2" data-name="Слой 2">
      <g id="Layer_1" data-name="Layer 1">
        <path d="M119.88 29.07c-1.5 0-3.5-.1-5.55-.1s-4.05.1-5.6.1c-.15 0-.15-.6 0-.6 2.85 0 3.4-.55 3.4-3.45V10.57l-15.2 18.75a1 1 0 0 1-.7.2c-.5 0-1.1-.2-1.1-.45V9.72c0-2.85-.5-3.45-3.4-3.45-.2 0-.2-.6 0-.6 1.5 0 3.45.15 5.5.15s4.05-.15 5.6-.15c.15 0 .15.6 0 .6-2.9 0-3.4.6-3.4 3.45v14.45l15.2-18.75a1 1 0 0 1 .7-.2c.45 0 1.1.2 1.1.45V25c0 2.9.55 3.45 3.45 3.45.2.02.2.62 0 .62zm22.71-6.85c0 4.35-4.45 7.45-9.85 7.45a12.52 12.52 0 0 1-6.25-1.55c-.55-.3-.65-.45-.7-1.15l-.55-4.9c0-.2.5-.3.6-.1 1.5 4.15 4.35 6.6 7.3 6.6s4.25-2.7 4.25-5.55c0-4.05-2.25-6-6.15-6-.25 0-.25-.9 0-.9 3.75 0 5.55-2 5.55-5.15 0-2.65-1.3-5-3.7-5s-4.75 2.2-6.6 6.3c-.1.25-.6.15-.6-.05l.65-4.75c.1-.8.15-1 .75-1.15a18.34 18.34 0 0 1 6.5-1.3c5 0 7.9 2.2 7.9 5s-3 5.35-5.65 6.3c3.8.35 6.55 2.6 6.55 5.9zm28.82-15.95c-1.2 0-2.6 1.4-4 4.2L160.81 24c-2.15 4.35-2 5.1-3.35 5.1h-6.05c-.2 0-.2-.6 0-.6a9.6 9.6 0 0 0 7.35-4l-8.05-14.68c-1.5-2.65-3-3.55-4.55-3.55-.2 0-.2-.6 0-.6 1.55 0 3.15.15 5.4.15s3.75-.15 5.25-.15c.2 0 .2.6 0 .6-2.35 0-2.7.95-1.55 3.05l6.05 10.8 5-10c1.15-2.3.25-3.9-2.9-3.9-.15 0-.15-.6 0-.6 1.3 0 1.8.15 3.9.15 1.8 0 2.6-.15 4.15-.15.1.05.1.65-.05.65zm35.73 22.8c-1.4 0-3.2-.1-5.15-.1-2.25 0-4.15.1-5.7.1-.2 0-.2-.6 0-.6 3 0 3.6-.55 3.45-3.45l-.8-15.9-8.05 19.6a.47.47 0 0 1-.75 0l-9.5-18.55-.3 12.8c-.05 3.9 1 5.5 3.6 5.5.15 0 .15.6 0 .6-1.25 0-2.5-.1-4.1-.1s-3 .1-4.2.1c-.2 0-.2-.6 0-.6 2.55 0 3.65-1.6 3.75-5.5l.3-14.4a4.49 4.49 0 0 0-3.9-2.3c-.15 0-.15-.6 0-.6h6.55c.9 0 1.3.4 2.4 2.6L192.29 23l6.55-16.05a1.85 1.85 0 0 1 1.5-1.25h6.65c.15 0 .15.6 0 .6-2.4 0-3.7.5-3.55 3.35l.8 15.4c.15 2.9.45 3.45 2.9 3.45.2-.03.2.57 0 .57zm17.86-.6c.2 0 .2.6 0 .6-1.9 0-4.15-.1-6.7-.1-2 0-4 .1-5.6.1-.2 0-.2-.6 0-.6 2.8 0 3.35-.55 3.35-3.45V9.72c0-2.85-.55-3.45-3.35-3.45-.2 0-.2-.6 0-.6 1.55 0 3.5.15 5.55.15 1.75 0 4-.3 6-.3 5.45 0 8.4 1.75 8.6 5.75.3 5.05-4.35 7.6-8.45 7.6a5 5 0 0 1-1.5-.15c-.25-.05-.3-.65.2-.65a4.62 4.62 0 0 0 1 .1c2.25 0 4-1.8 4-5.75 0-4.35-1.9-6.05-4.9-6.05-1.7 0-2.65.3-2.65 3.45v15c-.11 3 .59 3.65 4.45 3.65zm36.89-22.2c-1.2 0-2.6 1.4-4 4.2L251.29 24c-2.15 4.35-2 5.1-3.35 5.1h-6.05c-.2 0-.2-.6 0-.6a9.6 9.6 0 0 0 7.35-4l-8.05-14.68c-1.5-2.65-3-3.55-4.55-3.55-.2 0-.2-.6 0-.6 1.55 0 3.15.15 5.4.15s3.75-.15 5.25-.15c.2 0 .2.6 0 .6-2.35 0-2.7.95-1.55 3.05l6.05 10.8 5-10c1.15-2.3.25-3.9-2.9-3.9-.15 0-.15-.6 0-.6 1.3 0 1.8.15 3.9.15 1.8 0 2.6-.15 4.15-.15.06.05.06.65-.05.65zm24.45 22.51c0 1.65-.45 3-.45 7.9 0 .3-.55.3-.55 0 0-5.25-2.3-7.6-6.15-7.6h-12.55c-3.75 0-6 2.35-6 7.6 0 .3-.55.3-.55 0 0-5.35-.45-6-.45-7.9 0-.7 0-.75.55-.75h2.4l9.65-23.1a.33.33 0 0 1 .6 0l10.7 23.15h2.2c.55-.01.6.14.6.7zm-7.55-.7l-7.8-17L264 28z" class="cls-2"/>
        <path d="M97 43.77h-1.95v3.46h-1.11v-7.8h1.11v3.41H97a3.79 3.79 0 0 1 4.1-3.53 3.68 3.68 0 0 1 3.88 4 3.77 3.77 0 0 1-4.1 4A3.63 3.63 0 0 1 97 43.77zm6.88-.44a2.9 2.9 0 1 0-5.78 0 2.9 2.9 0 1 0 5.78 0zm7.28 3.9h-3.21v-7.8h2.88c1.79 0 2.73.8 2.73 2a1.78 1.78 0 0 1-1 1.64A2 2 0 0 1 114.1 45c0 1.28-.91 2.23-2.94 2.23zm-.57-6.91h-1.53v2.51h1.81c1.17 0 1.54-.44 1.54-1.26s-.66-1.26-1.82-1.26zm.17 3.36h-1.7v2.66H111c1 0 2-.26 2-1.33s-.8-1.34-2.24-1.34zm6.33 3.55v-7.8h5.23v.91h-4.12v2.5h3.87v.93h-3.87v2.53h4.37v.93zm10.17-7.8h4.83v7.8H131v-6.87h-2.73c-.23 2.94-.63 5-1.1 5.73a4.08 4.08 0 0 1-1.91 1.37l-.44-1a3.33 3.33 0 0 0 1.58-1.27 18.8 18.8 0 0 0 .86-5.76zm8.38 0h1.11v6.37l.67-1 4.26-5.34h1.13v7.8h-1.13v-6.4l-.66 1-4.27 5.34h-1.11zm10.69 0h2.93a2.46 2.46 0 0 1 2.64 2.63c0 1.49-1 2.73-3.21 2.73h-.31v-.94h.39c1.17 0 2-.61 2-1.74a1.54 1.54 0 0 0-1.77-1.75h-1.58v6.87h-1.1zm13.93 7.8v-3.46h-4.63v3.46h-1.11v-7.8h1.11v3.41h4.63v-3.41h1.1v7.8zm6.74-7.8h1.67l2.71 7.8h-1.23l-.86-2.6h-3.24l-1 2.6h-1.17zm2 4.28l-1.2-3.63-1.4 3.63zm4.35 2.73A2.51 2.51 0 0 0 175 45.2l.63-1.06a2.26 2.26 0 0 1-1.49-2.24 2.33 2.33 0 0 1 2.63-2.47h2.88v7.8h-1.13v-2.82h-1.19a2.62 2.62 0 0 1-.57 0l-1.06 1.7a2.62 2.62 0 0 1-2.21 1.24zm5.2-2.93v-3.15H177c-1.13 0-1.7.49-1.7 1.59s.87 1.57 1.94 1.57zm12.37 3.86a3.8 3.8 0 0 1-4.13-4 3.78 3.78 0 0 1 4.08-4.08 6 6 0 0 1 2.38.44l-.31.9a6.27 6.27 0 0 0-2-.36 2.72 2.72 0 0 0-3 3 2.9 2.9 0 0 0 3.18 3.14 7 7 0 0 0 1.9-.31c0 .11.24.77.29.88a6.49 6.49 0 0 1-2.39.39zm5.08-.14v-7.8h5.23v.91h-4.11v2.5H201v.93h-3.87v2.53h4.37v.93zm11.68-6.86v6.86h-1.1v-6.86h-2.9v-.94h6.9v.94zm5.46-.94h1.1v6.87H216c1.21 0 1.74-.53 1.74-1.58s-.79-1.57-2-1.57h-.61v-.93h.64c2.24 0 3.1 1.13 3.1 2.54a2.34 2.34 0 0 1-2.66 2.47h-3.13z"/>
        <path d="M87.04 0v25.71l189.5-14.37V0H87.04z" class="cls-3"/>
        <path d="M60.38.13H20.89l-.45.39-19 16.08L0 17.84l1.48 1.24 38.12 32 1 .88 1-.88 38.12-32 1.48-1.24-1.4-1.25L60.84.51l-.46-.38z" class="cls-4"/>
        <path d="M28.22 1.75h-6.59L2.66 17.83h18.51l7.05-16.08z" class="cls-5"/>
        <path d="M40.77 49.8l38.12-31.97H60.37L40.77 49.8z" class="cls-6"/>
        <path d="M21.17 17.83l19.6 31.97 19.6-31.97h-39.2z" class="cls-7"/>
        <path d="M60.37 17.83L53.33 1.75H28.22l-7.05 16.08h39.2z" class="cls-8"/>
        <path d="M53.33 1.75l7.04 16.08h18.52L59.92 1.75h-6.59z" class="cls-9"/>
        <path d="M2.66 17.83L40.77 49.8l-19.6-31.97H2.66z" class="cls-10"/>
        <path d="M21.63 1.75l1.9 10.47 3.02-6.54 13.57 12.19-18.95-.04-8.49-8.49 8.95-7.59z" class="cls-11"/>
        <path d="M21.17 17.83l31.76 12.14 7.44-12.14h-39.2z" class="cls-12"/>
        <path d="M21.17 17.83L55.54 6.76l-2.21-5.01 25.56 16.08H21.17z" class="cls-13"/>
        <path d="M21.17 17.83l19.6 31.97V25.34l19.6-7.51h-39.2z" class="cls-14"/>
        <path d="M40.77 49.8L12.24 17.83H2.66L40.77 49.8z" class="cls-15"/>
        <path d="M60.79 33.02l-.42-15.19-19.6 31.97 15.78-18.41 4.24 1.63z" class="cls-10"/>
        <path d="M2.66 17.83l18.04-.47 7.35-15.22-5.97 15.2 38.29.49-38.23.57 18.63 31.4-20.23-31.31-17.88-.66z" class="cls-16"/>
        <path d="M46.47 40.52l13.36-22.36-21.23-.26 21.23-.46-4.29-10.68 5.03 10.68 12.79.46-12.76.3-14.13 22.32z" class="cls-17"/>
      </g>
    </g>
  </g>
</svg>
