<?xml version="1.0" encoding="iso-8859-1"?>
<!-- Generator: Adobe Illustrator 19.0.0, SVG Export Plug-In . SVG Version: 6.00 Build 0)  -->
<svg xmlns="http://www.w3.org/2000/svg" xmlns:xlink="http://www.w3.org/1999/xlink" version="1.1" id="Layer_1" x="0px" y="0px" viewBox="0 0 512 512" style="enable-background:new 0 0 512 512;" xml:space="preserve" width="512px" height="512px">
<g>
	<g>
		<path d="M409.6,0H102.4C45.85,0,0,45.841,0,102.4v307.2C0,466.15,45.85,512,102.4,512h307.2c56.559,0,102.4-45.85,102.4-102.4    V102.4C512,45.841,466.159,0,409.6,0z M486.4,409.6c0,42.351-34.449,76.8-76.8,76.8H102.4c-42.351,0-76.8-34.449-76.8-76.8V102.4    c0-42.351,34.449-76.8,76.8-76.8h307.2c42.351,0,76.8,34.449,76.8,76.8V409.6z" fill="#FFFFFF"/>
	</g>
</g>
<g>
	<g>
		<path d="M256,51.2c-56.465,0-102.4,45.935-102.4,102.4c0,14.14,11.46,25.6,25.6,25.6h153.6c14.14,0,25.6-11.46,25.6-25.6    C358.4,97.135,312.465,51.2,256,51.2z M268.373,153.6l-26.999-44.988c-3.627-6.059-11.503-8.038-17.562-4.386    c-6.059,3.635-8.021,11.503-4.386,17.562l19.089,31.812H179.2c0-42.419,34.381-76.8,76.8-76.8c42.419,0,76.8,34.381,76.8,76.8    H268.373z" fill="#FFFFFF"/>
	</g>
</g>
<g>
</g>
<g>
</g>
<g>
</g>
<g>
</g>
<g>
</g>
<g>
</g>
<g>
</g>
<g>
</g>
<g>
</g>
<g>
</g>
<g>
</g>
<g>
</g>
<g>
</g>
<g>
</g>
<g>
</g>
</svg>
