<?xml version="1.0" encoding="utf-8"?>
<!-- Generator: Adobe Illustrator 21.1.0, SVG Export Plug-In . SVG Version: 6.00 Build 0)  -->
<svg version="1.1" id="Layer_1" xmlns="http://www.w3.org/2000/svg" xmlns:xlink="http://www.w3.org/1999/xlink" x="0px" y="0px"
	 viewBox="0 0 495.9 495.9" style="enable-background:new 0 0 495.9 495.9;" xml:space="preserve">
<style type="text/css">
	.st0{fill:#FFFFFF;}
</style>
<g>
	<path class="st0" d="M365.3,73.7c1.9,0,3.9,0.2,6.1,0.7c0,0,19.5,3.6,23.4,3.6c0.2,0,0.4,0,0.5,0c0,0,10.6,5.9,13,16.6
		c0,0,60.9,49.1,57.3,86.9c0,0,21.9,25.4,1.8,39.6c-20.1,14.2-8.9,12.4-22.5,18.3c-13.6,5.9-10.6,11.2-17.7,21.3
		c-6.7,9.4-26.4,17.8-44.4,17.8c-1.2,0-2.3,0-3.5-0.1c0,0-12.4,12.4-24.8,13c0,0-10.1,53.8-27.8,73.3c0,0-10.6,18.3-11.8,76.3
		c0,0-69.5,11.3-70.2,12.5c0,0,0,0,0,0c0,0,0,0,0-0.1c0,0,0,0,0,0c0,0,0,0,0,0C242.6,453.2,177,441,177,441
		c-1.2-57.9-11.8-76.3-11.8-76.3c-17.7-19.5-27.8-73.3-27.8-73.3c-12.4-0.6-24.8-13-24.8-13c-1.1,0.1-2.3,0.1-3.5,0.1
		c-18.1,0-37.8-8.4-44.4-17.8c-7.1-10.1-4.1-15.4-17.7-21.3c-13.6-5.9-2.4-4.1-22.5-18.3c-20.1-14.2,1.8-39.6,1.8-39.6
		c-3.5-37.8,57.3-86.9,57.3-86.9C86,83.9,96.6,78,96.6,78c0.1,0,0.3,0,0.5,0c3.9,0,23.4-3.6,23.4-3.6c2.2-0.5,4.2-0.7,6.1-0.7
		c19.6,0,21.8,23.3,21.8,23.3c5.8,25.7-14.2,26.6-14.2,26.6c-2.5,3.6-4.8,4.7-6.7,4.7c-3,0-4.9-2.9-4.9-2.9c-3.2,4-6.6,5.4-9.9,5.4
		c-6.7,0-12.3-5.8-12.3-5.8c-4,0.4-13.3,24.8-13.3,24.8c8.9,12.4,1.3,35.5,1.3,35.5c6.2-3.1,11.9-4.3,16.8-4.3
		c18.7,0,28.4,17.1,28.4,17.1c5.9-3.2,11.4-4.5,16.4-4.5c20,0,31.9,20.4,31.9,20.4c4.9-10.7,21.7-11.1,24.1-11.1c0.2,0,0.3,0,0.3,0
		l2.2-20.4l-2.2-9.8c-0.3,0-0.5,0-0.7,0c-6.7,0-5.5-5.8-5.5-5.8c0.4-4.9-3.5-10.6-3.5-10.6c-1.3-13.2,1.8-15.9,4.5-15.9
		c1.8,0,3.5,1.2,3.5,1.2c-5.2-55.7,32.2-58.6,39.9-58.6c0.6,0,1.1,0,1.3,0c0-0.1,0-0.1,0-0.1s0.5,0,1.4,0c7.7,0,45,2.9,39.9,58.6
		c0,0,1.7-1.2,3.5-1.2c2.7,0,5.8,2.7,4.5,15.9c0,0-4,5.8-3.5,10.6c0,0,1.2,5.8-5.5,5.8c-0.2,0-0.5,0-0.7,0l-2.2,9.8l2.2,20.4
		c0,0,0.1,0,0.3,0c2.4,0,19.2,0.4,24.1,11.1c0,0,11.9-20.4,31.9-20.4c5,0,10.5,1.3,16.4,4.5c0,0,9.7-17.2,28.4-17.1
		c5,0,10.6,1.2,16.8,4.3c0,0-7.5-23.1,1.3-35.5c0,0-9.3-24.4-13.3-24.8c0,0-5.6,5.8-12.3,5.8c-3.2,0-6.7-1.4-9.9-5.4
		c0,0-1.9,2.9-4.9,2.9c-1.8,0-4.1-1.1-6.7-4.7c0,0-20-0.9-14.2-26.6C343.5,97,345.7,73.7,365.3,73.7 M365.3,58.7
		C365.3,58.7,365.3,58.7,365.3,58.7c-13.6,0-25.1,7.2-31.6,19.8c-3.5,6.8-4.7,13.3-5,16c-3.4,16.2,1,26.3,5.3,32
		c4.8,6.3,11,9.3,15.8,10.8c5.2,4.8,10.6,6,14.5,6c1.1,0,2.1-0.1,3.1-0.2c3.6,1.8,7.5,2.8,11.6,2.8c2.6,0,5-0.4,7.3-1
		c0.6,1.4,1.2,2.8,1.9,4.3c-1.9,5-2.8,10.6-2.9,16.9c-13.9,0.4-24.7,7.1-32,14.2c-3.9-1-7.8-1.5-11.7-1.5
		c-13.9,0-25.4,6.7-33.6,14.2c-2.9-1.4-5.9-2.5-9-3.2l-0.6-5.4c1.8-1.2,3.1-2.6,4-3.7c4-5,4.5-10.5,4.2-13.9
		c0.3-0.7,0.7-1.5,0.8-1.7l2.2-3.2l0.4-3.9c0.8-8.4,1-19-5.6-26.2c-0.6-0.6-1.2-1.2-1.8-1.8c-0.3-18.7-5.5-33.7-15.4-44.6
		c-14.1-15.5-32.6-17.1-40-17.1c-1.3,0-2.2,0.1-2.5,0.1l-0.5,0c-1.9,0-4.5,0.1-7.5,0.6l-5.9,0.4l0,0.7c-8.2,2-18,6.3-26.3,15.4
		c-9.9,10.9-15.1,25.8-15.4,44.6c-0.6,0.5-1.3,1.1-1.8,1.8c-6.6,7.3-6.4,17.8-5.6,26.2l0.4,4l2.1,2.9c0.3,0.5,0.7,1.2,0.9,1.7
		c-0.2,3.4,0.2,8.9,4.2,13.9c0.9,1.1,2.2,2.4,3.9,3.7l-0.6,5.4c-3.1,0.8-6.2,1.8-9,3.2c-8.2-7.5-19.7-14.2-33.6-14.2
		c-3.9,0-7.8,0.5-11.7,1.5c-7.3-7.1-18.1-13.8-32-14.2c0-6.3-1-11.9-2.9-16.9c0.6-1.5,1.2-2.9,1.9-4.3c2.3,0.6,4.7,1,7.3,1
		c4.1,0,8-1,11.6-2.8c1,0.2,2,0.2,3.1,0.2c3.9,0,9.3-1.2,14.5-6c4.8-1.4,11-4.5,15.8-10.8c4.3-5.7,8.8-15.8,5.3-32
		c-0.4-2.7-1.5-9.3-5-16c-6.5-12.6-18-19.8-31.6-19.8c-2.9,0-5.9,0.3-9,1c-7.4,1.3-16.3,2.8-19.8,3.2l-3.7-0.7l-4.8,2.7
		c-1.5,0.8-13.4,7.8-18.7,21C65,90.7,53.6,101,42.3,114c-20.1,23.1-30.6,44.2-31.1,62.7c-4.6,6.8-11.6,19.5-9.9,33.1
		c1.2,9.5,6.2,17.7,14.6,23.6c8,5.7,9.4,7.6,10,8.6c3.5,5.2,6.9,7.7,15.1,11.3c3.1,1.4,3.9,2.2,3.9,2.2c0.3,0.3,0.9,1.7,1.4,2.9
		c1.2,2.8,2.9,6.6,6.1,11.1c9.4,13.4,32.6,23.5,54.5,24.2c4.1,3.4,10.4,7.7,17.7,10.4c3.9,17.1,13.1,51.3,27.8,69.1
		c1.9,4.5,8.6,23.7,9.5,68.3l0.2,12.2l12,2.2c47.8,8.9,62.2,11.4,67.1,12.2c1.1,0.3,2.2,0.4,3.4,0.4h8.2l0,0h0.6l1-1.9
		c11.4-2.2,38.3-6.8,62.7-10.8l12.3-2l0.3-12.5c0.9-44.6,7.7-63.9,9.5-68.3c14.7-17.9,23.9-52.1,27.8-69.1c7.3-2.7,13.6-7,17.7-10.4
		c22-0.6,45.1-10.8,54.5-24.2c3.2-4.5,4.9-8.3,6.1-11.1c0.5-1.2,1.2-2.6,1.4-2.9c0,0,0.8-0.9,3.9-2.2c8.3-3.6,11.7-6.1,15.1-11.3
		c0.6-0.9,2-2.9,10-8.6c8.4-5.9,13.4-14.1,14.6-23.6c1.7-13.6-5.2-26.3-9.9-33.1c-0.6-18.5-11-39.5-31.1-62.7
		c-11.3-13-22.8-23.3-28.4-28.1c-5.3-13.2-17.2-20.1-18.7-21l-4.8-2.7l-3.7,0.7c-3.5-0.4-12.5-1.9-19.8-3.2
		C371.2,59,368.2,58.7,365.3,58.7L365.3,58.7L365.3,58.7z"/>
</g>
</svg>
