<svg xmlns="http://www.w3.org/2000/svg" width="12" height="13" viewBox="0 0 12 13">
  <metadata><?xpacket begin="﻿" id="W5M0MpCehiHzreSzNTczkc9d"?>
<x:xmpmeta xmlns:x="adobe:ns:meta/" x:xmptk="Adobe XMP Core 5.6-c138 79.159824, 2016/09/14-01:09:01        ">
   <rdf:RDF xmlns:rdf="http://www.w3.org/1999/02/22-rdf-syntax-ns#">
      <rdf:Description rdf:about=""/>
   </rdf:RDF>
</x:xmpmeta>
                                                                                                    
                                                                                                    
                                                                                                    
                                                                                                    
                                                                                                    
                                                                                                    
                                                                                                    
                                                                                                    
                                                                                                    
                                                                                                    
                                                                                                    
                                                                                                    
                                                                                                    
                                                                                                    
                                                                                                    
                                                                                                    
                                                                                                    
                                                                                                    
                                                                                                    
                                                                                                    
                           
<?xpacket end="w"?></metadata>
<defs>
    <style>
      .cls-1 {
        fill: #999;
        fill-rule: evenodd;
      }
    </style>
  </defs>
  <path id="Forma_1_copy_4" data-name="Forma 1 copy 4" class="cls-1" d="M416.786,1118.87h-1.5v-0.65a0.218,0.218,0,0,0-.215-0.22h-1.5a0.218,0.218,0,0,0-.214.22v0.65h-4.714v-0.65a0.218,0.218,0,0,0-.214-0.22h-1.5a0.218,0.218,0,0,0-.215.22v0.65h-1.5a0.21,0.21,0,0,0-.214.21v11.7a0.218,0.218,0,0,0,.214.22h11.572a0.218,0.218,0,0,0,.214-0.22v-11.7A0.21,0.21,0,0,0,416.786,1118.87Zm-3-.44h1.071v1.3h-1.071v-1.3Zm-6.643,0h1.071v1.3h-1.071v-1.3Zm-1.715.87h1.286v0.65a0.218,0.218,0,0,0,.215.22h1.5a0.218,0.218,0,0,0,.214-0.22v-0.65h4.714v0.65a0.218,0.218,0,0,0,.214.22h1.5a0.218,0.218,0,0,0,.215-0.22v-0.65h1.285v1.95H405.428v-1.95Zm0,11.27v-8.89h11.143v8.89H405.428Zm7.286-7.59h-5.785v6.29h8.142v-6.29h-2.357Zm-1.5.44h1.5v1.51h-1.5v-1.51Zm1.5,3.46h-1.5v-1.51h1.5v1.51Zm-3.428-1.51h1.5v1.51h-1.5v-1.51Zm0-1.95h1.5v1.51h-1.5v-1.51Zm-1.929,0h1.5v1.51h-1.5v-1.51Zm0,1.95h1.5v1.51h-1.5v-1.51Zm1.5,3.46h-1.5v-1.51h1.5v1.51Zm1.929,0h-1.5v-1.51h1.5v1.51Zm1.928,0h-1.5v-1.51h1.5v1.51Zm1.929,0h-1.5v-1.51h1.5v1.51Zm0-1.95h-1.5v-1.51h1.5v1.51Zm0-3.46v1.51h-1.5v-1.51h1.5Z" transform="translate(-405 -1118)"/>
</svg>
