<svg xmlns="http://www.w3.org/2000/svg" width="30.97" height="32" viewBox="0 0 30.97 32">
  <metadata><?xpacket begin="﻿" id="W5M0MpCehiHzreSzNTczkc9d"?>
<x:xmpmeta xmlns:x="adobe:ns:meta/" x:xmptk="Adobe XMP Core 5.6-c138 79.159824, 2016/09/14-01:09:01        ">
   <rdf:RDF xmlns:rdf="http://www.w3.org/1999/02/22-rdf-syntax-ns#">
      <rdf:Description rdf:about=""/>
   </rdf:RDF>
</x:xmpmeta>
                                                                                                    
                                                                                                    
                                                                                                    
                                                                                                    
                                                                                                    
                                                                                                    
                                                                                                    
                                                                                                    
                                                                                                    
                                                                                                    
                                                                                                    
                                                                                                    
                                                                                                    
                                                                                                    
                                                                                                    
                                                                                                    
                                                                                                    
                                                                                                    
                                                                                                    
                                                                                                    
                           
<?xpacket end="w"?></metadata>
<defs>
    <style>
      .cls-1 {
        fill: #4da0f7;
        fill-rule: evenodd;
      }
    </style>
  </defs>
  <path class="cls-1" d="M1351.24,2949.67l-1.21,4.29h-3.4a0.781,0.781,0,0,0-.78.78,0.773,0.773,0,0,0,.78.77h4.1a0.035,0.035,0,0,1,.02-0.01c0.03,0,.05-0.01.08-0.01a0.01,0.01,0,0,0,.01-0.01l4.91-1.34a0.83,0.83,0,0,0,.34-0.2l15.11-14.96a2.613,2.613,0,0,0,0-3.71l-0.92-.9a2.656,2.656,0,0,0-3.74,0l-0.56.56v-4.24a1.705,1.705,0,0,0-1.71-1.69h-16.03a0.781,0.781,0,0,0-.55.23l-6.46,6.39a0.781,0.781,0,0,0-.23.55v23.14a1.705,1.705,0,0,0,1.71,1.69h21.56a1.705,1.705,0,0,0,1.71-1.69v-10.77a0.785,0.785,0,0,0-1.57,0v10.77a0.143,0.143,0,0,1-.14.14h-21.56a0.143,0.143,0,0,1-.14-0.14v-22.36h4.75a1.705,1.705,0,0,0,1.71-1.69v-4.71h15.24a0.143,0.143,0,0,1,.14.14v5.79l-5.15,5.1h-12.63a0.773,0.773,0,0,0-.78.77,0.781,0.781,0,0,0,.78.78h11.07l-4.69,4.64h-6.38a0.775,0.775,0,1,0,0,1.55h4.81v0.01A0.658,0.658,0,0,0,1351.24,2949.67Zm-3.78-14.41a0.143,0.143,0,0,1-.14.14h-3.64l3.78-3.75v3.61Zm20.19,0.2a1.1,1.1,0,0,1,.76-0.31,1.066,1.066,0,0,1,.76.31l0.92,0.91a1.062,1.062,0,0,1,0,1.51l-0.98.97-2.44-2.42Zm-2.08,2.07,2.43,2.42-12.46,12.34-2.44-2.42Zm-13.18,13.84,1.64,1.62-2.27.63Z" transform="translate(-1341 -2929)"/>
</svg>
