<svg xmlns="http://www.w3.org/2000/svg" width="22" height="22" viewBox="0 0 22 22">
<defs>
    <style>
      .icon_inst {
        fill: #ececec;
        fill-rule: evenodd;
      }
    </style>
  </defs>
  <path id="icon_inst" data-name="Forma 1" class="icon_inst" d="M512,4602.2a2.206,2.206,0,0,0,2.2-2.2,2.2,2.2,0,0,0-4.4,0A2.206,2.206,0,0,0,512,4602.2Zm4.807-4.89v-2.12h-2.12l0.007,2.12h2.113ZM512,4589a11,11,0,1,0,11,11A11.015,11.015,0,0,0,512,4589Zm6.255,9.72v5.12a2.416,2.416,0,0,1-2.418,2.41h-7.673a2.416,2.416,0,0,1-2.418-2.41v-7.68a2.416,2.416,0,0,1,2.418-2.41h7.673a2.416,2.416,0,0,1,2.418,2.41v2.56ZM515.42,4600a3.421,3.421,0,0,1-6.841,0,3.358,3.358,0,0,1,.252-1.28h-1.868v5.12a1.194,1.194,0,0,0,1.2,1.19h7.674a1.193,1.193,0,0,0,1.2-1.19v-5.12h-1.867A3.377,3.377,0,0,1,515.42,4600Z" transform="translate(-501 -4589)"/>
</svg>
