<svg xmlns="http://www.w3.org/2000/svg" width="22" height="22" viewBox="0 0 22 22">
<defs>
    <style>
      .icon_vk {
        fill: #ececec;
        fill-rule: evenodd;
      }
    </style>
  </defs>
  <path id="icon_vk" data-name="Forma 1" class="icon_vk" d="M416,4589a11,11,0,1,0,11,11A11,11,0,0,0,416,4589Zm5.58,12.19a21.3,21.3,0,0,1,1.515,1.52,4.356,4.356,0,0,1,.542.79,0.557,0.557,0,0,1-.342.87h-2.254a1.732,1.732,0,0,1-1.435-.59c-0.312-.31-0.6-0.65-0.9-0.98a2.29,2.29,0,0,0-.406-0.36,0.47,0.47,0,0,0-.75.18,2.363,2.363,0,0,0-.237,1.05,0.6,0.6,0,0,1-.718.7,5.833,5.833,0,0,1-3.225-.69,7.188,7.188,0,0,1-2.17-2.04,27.157,27.157,0,0,1-2.856-5.09c-0.181-.4-0.049-0.61.394-0.62,0.735-.02,1.471-0.01,2.206,0a0.635,0.635,0,0,1,.613.46,14.049,14.049,0,0,0,1.5,2.77,2.339,2.339,0,0,0,.565.62,0.343,0.343,0,0,0,.583-0.17,1.952,1.952,0,0,0,.13-0.59,8.557,8.557,0,0,0-.036-2.03,0.846,0.846,0,0,0-.723-0.78c-0.216-.04-0.184-0.12-0.079-0.24a0.8,0.8,0,0,1,.691-0.35h2.546a0.61,0.61,0,0,1,.546.67l0,2.82a0.843,0.843,0,0,0,.36.73,0.511,0.511,0,0,0,.508-0.25,8.717,8.717,0,0,0,1.435-2.21c0.172-.34.32-0.71,0.464-1.07a0.537,0.537,0,0,1,.576-0.39h2.452a1.577,1.577,0,0,1,.217.01,0.43,0.43,0,0,1,.4.66,5.976,5.976,0,0,1-.974,1.68c-0.41.57-.846,1.12-1.252,1.69A0.765,0.765,0,0,0,421.58,4601.19Z" transform="translate(-405 -4589)"/>
</svg>
