<?xml version="1.0" encoding="UTF-8"?>
<svg width="10px" height="20px" viewBox="0 0 10 20" version="1.1" xmlns="http://www.w3.org/2000/svg" xmlns:xlink="http://www.w3.org/1999/xlink">
    <!-- Generator: sketchtool 42 (36781) - http://www.bohemiancoding.com/sketch -->
    <title>CC34F40A-55DA-4479-9942-FA0620417978</title>
    <desc>Created with sketchtool.</desc>
    <defs></defs>
    <g id="Page-1" stroke="none" stroke-width="1" fill="none" fill-rule="evenodd">
        <g id="M-Contacts" transform="translate(-534.000000, -718.000000)" fill="#222944">
            <g id="Group-7-Copy-6" transform="translate(534.000000, 718.000000)">
                <path d="M8.32184446,14.8480871 L6.84179634,16.2600953 C6.52235429,16.5620971 6.00864341,16.3360958 6.00864341,15.8970932 L6.00864341,1.00000586 C6.00864341,0.448002627 5.55201152,0 4.99924659,0 L5.00725768,0 C4.45449275,0 4.00587194,0.448002627 4.00587194,1.00000586 L4.00587194,15.8820931 C4.00587194,16.3230957 3.46312087,16.548097 3.1456816,16.2420952 L1.68365842,14.838087 C1.2851069,14.4580848 0.648225573,14.4750849 0.271704537,14.8780872 L0.267698994,14.8800872 C-0.1048165,15.2780896 -0.0867915564,15.9020932 0.31075858,16.2770954 L3.65338416,19.4541141 C4.42745534,20.1851183 5.63913207,20.1811183 6.41019909,19.447114 L9.69274153,16.2980956 C10.0852847,15.9240934 10.1043111,15.3050897 9.73479973,14.9080874 L9.72478587,14.8970873 C9.35126899,14.496085 8.72239875,14.4740849 8.32184446,14.8480871" id="arrow_down-[#364]-copy-4"></path>
            </g>
        </g>
    </g>
</svg>