<?xml version="1.0" encoding="UTF-8"?>
<svg width="265px" height="25px" viewBox="0 0 265 25" version="1.1" xmlns="http://www.w3.org/2000/svg" xmlns:xlink="http://www.w3.org/1999/xlink">
    <!-- Generator: Sketch 42 (36781) - http://www.bohemiancoding.com/sketch -->
    <title>Page 1 Copy 19</title>
    <desc>Created with Sketch.</desc>
    <defs>
        <polygon id="path-1" points="0.145387706 14.9522569 40.4971931 14.9522569 40.4971931 0.0607061632 0.145387706 0.0607061632"></polygon>
    </defs>
    <g id="Symbols" stroke="none" stroke-width="1" fill="none" fill-rule="evenodd">
        <g id="S-Footer" transform="translate(-57.000000, 0.000000)">
            <g id="Group-5">
                <g id="Page-1-Copy-19" transform="translate(57.000000, 0.000000)">
                    <g id="Group-3" transform="translate(17.000000, 9.000000)">
                        <mask id="mask-2" fill="white">
                            <use xlink:href="#path-1"></use>
                        </mask>
                        <g id="Clip-2"></g>
                        <path d="M24.6273602,14.9471732 L1.25827104,14.9531541 C0.242496306,14.9531541 -0.240310204,13.759964 0.512115526,13.1080456 L15.2690652,0.338818142 C15.4728471,0.16238151 15.7393312,0.0636966146 16.0152207,0.0636966146 L39.3843098,0.0607061632 C40.4000845,0.0607061632 40.882891,1.25389627 40.1304653,1.90282422 L25.3735157,14.6720516 C25.1697337,14.8484883 24.9032496,14.9471732 24.6273602,14.9471732" id="Fill-1" fill="#F7323F" mask="url(#mask-2)"></path>
                    </g>
                    <path d="M94.2685275,24.9935743 L71.1031807,25 C70.096262,25 69.6176648,23.7180723 70.3635305,23.0176707 L84.9918223,9.29879518 C85.1938276,9.10923695 85.4579884,9.00321285 85.7314725,9.00321285 L108.896819,9 C109.903738,9 110.382335,10.2819277 109.636469,10.9791165 L95.0081777,24.697992 C94.8061724,24.8875502 94.5420116,24.9935743 94.2685275,24.9935743" id="Fill-4" fill="#F7323F"></path>
                    <path d="M148.268527,24.9935743 L125.103181,25 C124.096262,25 123.617665,23.7180723 124.363531,23.0176707 L138.991822,9.29879518 C139.193828,9.10923695 139.457988,9.00321285 139.731473,9.00321285 L162.896819,9 C163.903738,9 164.382335,10.2819277 163.636469,10.9791165 L149.008178,24.697992 C148.806172,24.8875502 148.542012,24.9935743 148.268527,24.9935743" id="Fill-6" fill="#F7323F"></path>
                    <path d="M198.268527,24.9935743 L175.103181,25 C174.096262,25 173.617665,23.7180723 174.363531,23.0176707 L188.991822,9.29879518 C189.193828,9.10923695 189.457988,9.00321285 189.731473,9.00321285 L212.896819,9 C213.903738,9 214.382335,10.2819277 213.636469,10.9791165 L199.008178,24.697992 C198.806172,24.8875502 198.542012,24.9935743 198.268527,24.9935743" id="Fill-8" fill="#F7323F"></path>
                    <path d="M249.268527,24.9935743 L226.103181,25 C225.096262,25 224.617665,23.7180723 225.363531,23.0176707 L239.991822,9.29879518 C240.193828,9.10923695 240.457988,9.00321285 240.731473,9.00321285 L263.896819,9 C264.903738,9 265.382335,10.2819277 264.636469,10.9791165 L250.008178,24.697992 C249.806172,24.8875502 249.542012,24.9935743 249.268527,24.9935743" id="Fill-10" fill="#F7323F"></path>
                    <path d="M223.728943,15.9935743 L246.945011,16 C247.90809,16 248.366403,14.7694779 247.651062,14.097992 L232.975732,0.285943775 C232.783736,0.106024096 232.532902,0.00321285141 232.269681,0.00321285141 L209.053612,0 C208.090534,0 207.635317,1.22730924 208.347562,1.89879518 L223.022892,15.7108434 C223.214888,15.8939759 223.468819,15.9935743 223.728943,15.9935743" id="Fill-16" fill="#222944"></path>
                    <path d="M173.728943,15.9935743 L196.945011,16 C197.90809,16 198.366403,14.7694779 197.651062,14.097992 L182.975732,0.285943775 C182.783736,0.106024096 182.532902,0.00321285141 182.269681,0.00321285141 L159.053612,0 C158.090534,0 157.635317,1.22730924 158.347562,1.89879518 L173.022892,15.7108434 C173.214888,15.8939759 173.468819,15.9935743 173.728943,15.9935743" id="Fill-18" fill="#222944"></path>
                    <path d="M119.728943,15.9935743 L142.945011,16 C143.90809,16 144.366403,14.7694779 143.651062,14.097992 L128.975732,0.285943775 C128.783736,0.106024096 128.532902,0.00321285141 128.269681,0.00321285141 L105.053612,0 C104.090534,0 103.635317,1.22730924 104.347562,1.89879518 L119.022892,15.7108434 C119.214888,15.8939759 119.468819,15.9935743 119.728943,15.9935743" id="Fill-20" fill="#222944"></path>
                    <path d="M65.7289426,15.9935743 L88.9450114,16 C89.9080896,16 90.3664033,14.7694779 89.6510623,14.097992 L74.9757321,0.285943775 C74.7837358,0.106024096 74.532902,0.00321285141 74.2696812,0.00321285141 L51.0536125,0 C50.0905342,0 49.6353172,1.22730924 50.3475615,1.89879518 L65.0228917,15.7108434 C65.214888,15.8939759 65.4688186,15.9935743 65.7289426,15.9935743" id="Fill-22" fill="#222944"></path>
                    <path d="M15.7289426,15.9935743 L38.9450114,16 C39.9080896,16 40.3664033,14.7694779 39.6510623,14.097992 L24.9757321,0.285943775 C24.7837358,0.106024096 24.532902,0.00321285141 24.2696812,0.00321285141 L1.05361246,0 C0.0905342398,0 -0.364682795,1.22730924 0.347561545,1.89879518 L15.0228917,15.7108434 C15.214888,15.8939759 15.4688186,15.9935743 15.7289426,15.9935743" id="Fill-24" fill="#222944"></path>
                </g>
            </g>
        </g>
    </g>
</svg>