<?xml version="1.0" encoding="UTF-8"?>
<svg width="27px" height="13px" viewBox="0 0 27 13" version="1.1" xmlns="http://www.w3.org/2000/svg" xmlns:xlink="http://www.w3.org/1999/xlink">
    <!-- Generator: Sketch 42 (36781) - http://www.bohemiancoding.com/sketch -->
    <title>Combined-Shape-path</title>
    <desc>Created with Sketch.</desc>
    <defs></defs>
    <g id="Symbols" stroke="none" stroke-width="1" fill="none" fill-rule="evenodd">
        <g id="Footer-1440" transform="translate(-160.000000, -192.000000)" fill="#FFFFFF">
            <g id="Group-4" transform="translate(160.000000, 187.000000)">
                <path d="M14.8241205,17.9456642 C14.8241205,17.9456642 15.3114113,17.8999691 15.5609991,17.6737222 C15.7894579,17.4664223 15.7815344,17.075227 15.7815344,17.075227 C15.7815344,17.075227 15.7511615,15.2485352 16.756116,14.9788222 C17.7465442,14.7135675 19.0182541,16.7453302 20.3678776,17.5266062 C21.3873585,18.1172996 22.1612131,17.9880158 22.1612131,17.9880158 L25.7676925,17.9456642 C25.7676925,17.9456642 27.6534679,17.8475867 26.7594413,16.5959852 C26.6854893,16.4934496 26.2378158,15.6698222 24.0786822,13.9779867 C21.8165441,12.2070207 22.1202753,12.4934513 24.8432928,9.42964653 C26.50193,7.56394659 27.1648566,6.42491111 26.957527,5.93786756 C26.760762,5.47199979 25.5405543,5.59571104 25.5405543,5.59571104 L21.481119,5.61688697 C21.481119,5.61688697 21.1800289,5.58233686 20.9568523,5.69490307 C20.738958,5.80524014 20.5976569,6.06269339 20.5976569,6.06269339 C20.5976569,6.06269339 19.9558595,7.50599169 19.0988089,8.73418846 C17.2909472,11.324324 16.5685949,11.4614094 16.272787,11.3009191 C15.5847694,10.9253271 15.7564437,9.79409326 15.7564437,8.99052713 C15.7564437,6.47952243 16.2080789,5.43299181 14.878264,5.16216438 C14.4371933,5.07188852 14.1123327,5.01281919 12.9832445,5.00278858 C11.5345782,4.99052883 10.3090882,5.0072466 9.61446781,5.29367722 C9.15226797,5.48425954 8.7957139,5.91000461 9.01360812,5.93452398 C9.28168404,5.96461593 9.88914674,6.07272399 10.2113659,6.44274331 C10.6273458,6.92087069 10.6128196,7.99303524 10.6128196,7.99303524 C10.6128196,7.99303524 10.8518429,10.9487319 10.054218,11.3154078 C9.50750157,11.5672885 8.75741727,11.0534966 7.14500005,8.70298207 C6.3196433,7.49930467 5.69633378,6.16857244 5.69633378,6.16857244 C5.69633378,6.16857244 5.57616168,5.92003522 5.36090873,5.78629336 C5.10075614,5.62468856 4.73759915,5.57453526 4.73759915,5.57453526 L0.880211228,5.59571104 C0.880211228,5.59571104 0.300480559,5.60908523 0.0878686199,5.8219579 C-0.100973042,6.01031108 0.0733423331,6.40150618 0.0733423331,6.40150618 C0.0733423331,6.40150618 3.09348824,12.365282 6.51376722,15.3711319 C9.65012334,18.1262158 13.2103828,17.9456642 13.2103828,17.9456642 L14.8241205,17.9456642 L14.8241205,17.9456642 Z" id="Combined-Shape-path"></path>
            </g>
        </g>
    </g>
</svg>