<svg xmlns="http://www.w3.org/2000/svg" viewBox="0 0 1010.36 500">
    
    <defs>
        <style>
        .cls-1{fill:#ef283c;}
        .cls-1,.cls-2,.cls-3,.cls-4{fill-rule:evenodd;}
        .cls-2{fill:#00b9f3;}.cls-3{fill:#fff;}
        .cls-5{fill:#fff;}
        .cls-4{fill:#33619c;}
        </style>
    </defs>
    
   <g id="Слой_2" data-name="Слой 2"><g id="Слой_1-2" data-name="Слой 1"><path class="cls-1" d="M748.87,193.47c-7.44-30.44-33.82-74.4-115-74.4-16.91,0-61.55,4.74-69.67,4.74.68-2.71,8.79-25.7,10.15-29.09-5.41-2.71-19.62-5.41-39.91-6.09-47.35-1.35-104.84,18.94-140.69,45.32-4.06,12.18-11.5,31.12-16.23,42.61,37.2-19.62,92-39.91,133.93-44,28.41-2.7,39.23,2.71,42.61,4.74,3.38,1.35-24.35,10.82-23.67,21.64,0,13.53,56.82-1.35,94,0,64.26,2,92.67,24.35,102.81,56.14,12.85,39.23-10.15,77.11-38.56,91.31,35.17-8.79,73.05-59.52,60.2-113Z"/><path class="cls-2" d="M534.45,88.63c20.29.67,34.5,3.38,39.91,6.09-1.35,3.38-9.47,26.38-10.15,29.09,8.12,0,52.76-4.74,69.67-4.74,81.17,0,107.55,44,115,74.4a108.9,108.9,0,0,1,2.7,25c4.74-22.32,4.74-49.38,2-64.26-4.73-30.44-31.79-73.05-106.2-74.4-16.91,0-61.55,4.73-69,4.73.67-2.71,8.79-25.7,9.47-29.08-4.73-2.71-16.91-7.44-37.2-8.12-48-.68-105.52,18.94-141.37,45.32-4.06,12.17-10.82,29.76-15.56,41.26,35.85-26.38,93.34-46.67,140.69-45.32Z"/><path class="cls-3" d="M752.25,106.21c-6.76-24.35-33.14-63.58-91.31-64.93-16.91,0-59.52,3.38-69,4.06.68-2,7.44-22.32,8.79-25.7-4.06-5.41-16.23-10.15-36.52-10.82-48-1.35-104.84,20.29-140.69,47.35-4.06,12.17-14.2,37.88-14.2,36.53,35.85-26.38,93.34-46,141.37-45.32,20.29.67,32.47,5.41,37.2,8.12-.68,3.38-8.79,26.38-9.47,29.08,7.44,0,52.08-4.73,69-4.73,74.41,1.35,101.46,44,106.2,74.4,1.35,7.44,2,18.94,1.35,31.11,4.06-25.7,3.38-54.11-2.7-79.14Z"/><path class="cls-4" d="M600.73,19.63c1.35-3.38,2-6.77,2.71-8.12C598.7,7.46,585.85.69,566.91,0c-47.35-.68-104.17,21-140,47.35-.68,2.7-2,5.41-3.38,8.79,35.85-26.38,93.34-48.7,140.69-47.35,19.62.68,31.79,5.41,36.52,10.82ZM750.9,95.39c-5.41-22.32-31.12-62.91-89.29-62.91-19.62,0-56.14,2.71-67,4.06-1.35,4.73-2.71,8.12-2.71,8.79,9.47-.68,52.08-4.06,69-4.06,58.17,1.35,84.55,40.58,91.31,64.93,1.35,6.09,2,11.5,3.38,17.59-1.35-11.5-2.7-21.64-4.73-28.41Z"/><path class="cls-5" d="M408.63,307.46V252.27H386.68v55.19H378V245.23H417.3v62.23Z"/><path class="cls-5" d="M462.91,279.28c-3.16,2.44-6.5,3.79-13.1,3.79h-10.3v24.39h-8.67V245.23h16.62c8,0,11.47.81,14.81,2.89a17.09,17.09,0,0,1,8.22,15.17C470.5,270.33,468.42,275,462.91,279.28Zm-5.24-23.94c-2.17-2.08-5.24-3.07-10.11-3.07h-8V276h9.66c4.25,0,7-1,8.94-3.52a12.53,12.53,0,0,0,2.62-8.31C460.75,260.22,459.75,257.33,457.67,255.34Z"/><path class="cls-5" d="M502.93,308.36c-17.16,0-25.65-13.64-25.65-32.15,0-20.41,9.94-31.88,25.2-31.88,18.33,0,25.56,15.27,25.56,32.52C528,295.71,518.73,308.36,502.93,308.36ZM502.66,251c-11.2,0-15.63,8.22-15.63,24s3.7,26.64,16.08,26.64c9.66,0,15.17-7,15.17-24.21C518.28,260.76,514.4,251,502.66,251Z"/><path class="cls-5" d="M537.07,307.46V245.23h33.87l-1.17,7.22h-24v19h20.14v7H545.74v21.77h26.19v7.22Z"/><path class="cls-5" d="M625.5,250.47l-3,.72a7.37,7.37,0,0,0-3.25,1.63,7,7,0,0,0-1.9,3.7l-2.17,7.86c-.72,2.53-1.26,5.33-4,7.86a10.65,10.65,0,0,1-3.52,2.17v.09a10.08,10.08,0,0,1,3.52,2.17c2.26,2.17,3.07,5.06,3.7,7.23l3.34,11.65a7.65,7.65,0,0,0,1.8,3.79,11,11,0,0,0,4.25,2.08l2.26.72L625,308.18l-4.52-.45c-2.44-.27-5.6-.81-7.77-3-2-1.9-2.8-4.79-3.34-7.5l-2.26-10.84c-.45-2.17-1.45-5-3-6.41a8.41,8.41,0,0,0-6.05-2.08h-7v29.53h-8.76V245.23h8.76v25.65h7c1.81,0,5-.09,7.14-2.17,1.63-1.63,2.17-3.79,2.62-6l1.72-8c.54-2.35,1.08-4.78,3-6.68,2.26-2.35,5.51-2.89,7.23-3.07l4-.45Z"/><path class="cls-5" d="M672,252.45H655.94v55h-8.67v-55H631.1v-7.22h41.82Z"/><path class="cls-5" d="M409.89,403.1V377c0-2.8.27-8.31.54-11.83-1.45,4.06-2.62,7-4.25,10.75L394.63,403.1H377.56v-63h16.17v26.1c0,2.89-.27,8.31-.54,11.83,1-2.71,2.44-6.41,4.24-10.75L409,340.14h17.07v63Z"/><path class="cls-5" d="M475,355.59a15,15,0,0,0-9.39-3.34c-3.61,0-5.69,1.17-7,2.44-4.16,3.88-4.06,9.94-4.06,13.82,0,10.93.45,15.08,3.07,18.42a9.88,9.88,0,0,0,8,4.06,15.23,15.23,0,0,0,10.84-4.25l7,11c-3.43,3-9.21,6.41-19.6,6.41-6.14,0-14.09-1.44-20.59-8.67-5.51-6.23-7.23-14.18-7.23-22.67,0-7.68,1.17-13.82,4.34-19.51,6.5-11.83,17.16-14.27,25.47-14.27,9.94,0,14.18,3.07,16.08,4.61Z"/><path class="cls-5" d="M529.85,353.51H515.21V403.1H498.87V353.51H484.23V340.14h47.51Z"/><path class="cls-5" d="M582.06,394.43c-2.62,3.61-8.22,9.75-21.77,9.75-10.39,0-17.43-3.79-21.95-9.66-3.07-4-6.41-10.66-6.41-21.31,0-11,2.71-19.87,9.21-26.37,5.06-5.06,11.47-7.77,19.69-7.77,7.32,0,16.26,2,22.22,10.57,4.52,6.5,5.42,13.19,5.42,19.6C588.47,378.53,587.2,387.2,582.06,394.43Zm-15.17-40.37a8.24,8.24,0,0,0-6.05-2.35,8.87,8.87,0,0,0-7.86,4.16c-.63,1-3,5-3,15.53,0,12.28,2.26,16,4,17.61a9.22,9.22,0,0,0,6.59,2.44A8.51,8.51,0,0,0,567,389c2.53-2.62,3.43-7.5,3.43-17.79C570.4,360.56,569.14,356.31,566.88,354.05Z"/><path class="cls-5" d="M615.29,340.14c5.51,0,13.28.36,18.79,4.52s6.59,9.75,6.59,15.08c0,4.61-1,11.56-7,16.26-5.15,4.06-12.46,4.7-17.61,4.7H611v22.4H594.79v-63Zm.36,27.73c1.26,0,3.7,0,5.24-1.17,2.08-1.63,2.17-5.15,2.17-6.68s-.09-3.61-1.17-4.88c-1.36-1.63-3.79-1.81-5.33-1.81H611v14.54Z"/><path class="cls-5" d="M679.34,403.1V377c0-2.8.27-8.31.54-11.83-1.45,4.06-2.62,7-4.25,10.75L664.07,403.1H647v-63h16.17v26.1c0,2.89-.27,8.31-.54,11.83,1-2.71,2.44-6.41,4.24-10.75l11.56-27.19H695.5v63Z"/><path class="cls-5" d="M728.46,403.1V379.25a32.37,32.37,0,0,1-10.39,1.81c-4.7,0-9.75-1.17-12.64-3.7-4.25-3.8-4.52-9.67-4.52-13V340.14h16.17v20.5c0,1.26.09,4.52,1.17,6.05,1.17,1.72,3.25,1.9,4.61,1.9a18.81,18.81,0,0,0,5.6-1V340.14h16.17v63Z"/><path class="cls-5" d="M751.85,403.1v-63h36.58l-1.17,13.28H768V364h15.71v12.82H768v12.83H789.6V403.1Z"/><path class="cls-5" d="M831.61,355.59a15,15,0,0,0-9.39-3.34c-3.61,0-5.69,1.17-7,2.44-4.16,3.88-4.06,9.94-4.06,13.82,0,10.93.45,15.08,3.07,18.42a9.88,9.88,0,0,0,8,4.06,15.23,15.23,0,0,0,10.84-4.25l7,11c-3.43,3-9.21,6.41-19.6,6.41-6.14,0-14.09-1.44-20.59-8.67-5.51-6.23-7.23-14.18-7.23-22.67,0-7.68,1.17-13.82,4.34-19.51,6.5-11.83,17.16-14.27,25.47-14.27,9.94,0,14.18,3.07,16.08,4.61Z"/><path class="cls-5" d="M861.6,363.27h3.52c1.89,0,4.06-.18,5.69-1.81,1.44-1.36,1.89-3.43,2.26-5.06l1.53-6.5c.72-3.07,1.72-5.42,4.06-7.22,2.71-2.08,6.05-2.62,9.21-3l4.43-.45,3.7,10.21-3.61,1a7.35,7.35,0,0,0-2.62,1.08,7.27,7.27,0,0,0-1.9,3.43l-1.72,5.6c-1.26,4.06-2.35,5.69-3.07,6.41a9.83,9.83,0,0,1-5,2.62v.36a11.79,11.79,0,0,1,5.33,3.52,16.57,16.57,0,0,1,2.71,5.33l3.07,9a6.57,6.57,0,0,0,2.44,3.7,12.66,12.66,0,0,0,3.43,1.45l2.53.81-3.25,10.48-4.79-.36c-4.06-.27-9.3-.81-12.37-4.43-2.17-2.53-2.89-6.23-3.25-7.95l-1.63-7.59c-.45-1.9-1.08-4.25-2.62-5.6a8.28,8.28,0,0,0-5.51-1.72H861.6V403.1H845.43v-63H861.6Z"/><path class="cls-5" d="M937.74,403.1,934.49,391h-14.9l-3.43,12.1h-17l20.23-63h16.8l19.06,63Zm-9.21-36a48.66,48.66,0,0,1-1.17-8.85,71.78,71.78,0,0,1-1.72,10l-2.53,10.3h8.13Z"/><path class="cls-5" d="M991,378.89a8.27,8.27,0,0,0-5.51,1.72c-1.72,1.53-2.35,4.25-2.62,5.6l-1.08,5.33c-.45,2.26-1.26,5.6-3.25,7.95-3.07,3.61-8.22,4.06-12.37,4.43l-5,.45-3.43-10.84,2.71-.54a9.06,9.06,0,0,0,3.43-1.45,6.71,6.71,0,0,0,2.44-3.7l1.72-5.87a17.77,17.77,0,0,1,2.71-5.6,11,11,0,0,1,6.14-3.43v-.27a16.59,16.59,0,0,1-8.76-4.43c-2-2-3.79-5.24-3.79-10.21,0-7.68,3.61-11.83,6.23-13.82,5.15-3.79,12.19-4.06,17.16-4.06h22.58v63H994.19V378.89Zm-1.35-26.1c-7,0-7.5,3.7-7.5,6.59,0,6.59,4.88,6.86,7.41,6.86h5.06V352.79Z"/><path class="cls-5" d="M405.92,498.74V448.52H393.73v50.22H377.56v-63h44.53v63Z"/><path class="cls-5" d="M465,498.74l-3.25-12.1h-14.9l-3.43,12.1h-17l20.23-63h16.8l19.06,63Zm-9.21-36a48.66,48.66,0,0,1-1.17-8.85,71.77,71.77,0,0,1-1.72,10l-2.53,10.3h8.13Z"/><path class="cls-5" d="M538.25,498.74l-1.54-27.19c-.18-3.07-.27-1.72-.45-10.84h-.09c-1.72,8.58-1.08,6-2.17,10l-7.68,28H512.59l-6.68-27.28a97.22,97.22,0,0,1-2.08-10.84h-.09c.09,4.06-.09,7-.27,11.2l-1.26,26.91H485.95l6.14-63h19.78L518,462.52c1.17,5.33,1.63,7.5,2.08,10.11h.09c1.44-7.41,1.53-7.31,2.44-11L529,435.78h19.15l5.78,63Z"/><path class="cls-5" d="M589.91,474.53a8.27,8.27,0,0,0-5.51,1.72c-1.72,1.53-2.35,4.25-2.62,5.6l-1.08,5.33c-.45,2.26-1.26,5.6-3.25,7.95-3.07,3.61-8.22,4.06-12.37,4.43l-5,.45-3.43-10.84,2.71-.54a9.06,9.06,0,0,0,3.43-1.45,6.71,6.71,0,0,0,2.44-3.7L567,477.6a17.78,17.78,0,0,1,2.71-5.6,11,11,0,0,1,6.14-3.43v-.27a16.59,16.59,0,0,1-8.76-4.43c-2-2-3.79-5.24-3.79-10.21,0-7.68,3.61-11.83,6.23-13.82,5.15-3.79,12.19-4.06,17.16-4.06h22.58v63H593.07V474.53Zm-1.35-26.1c-7,0-7.5,3.7-7.5,6.59,0,6.59,4.88,6.86,7.41,6.86h5.06V448.43Z"/><path class="cls-5" d="M659.37,449.15H644.74v49.58H628.39V449.15H613.76V435.78h47.51Z"/><path class="cls-5" d="M688.37,458.9c4.7,0,12.55.18,17.7,4.25,5.6,4.42,6.23,11.38,6.23,14.81,0,8.22-2.8,13-5.51,15.63-4.88,4.79-10.75,5.15-14.81,5.15H666.69v-63h16.17V458.9Zm-6,26.37h5.51a5.81,5.81,0,0,0,4.33-1.63,7.13,7.13,0,0,0,1.63-5,7.88,7.88,0,0,0-1.36-5.06,5.47,5.47,0,0,0-4.42-1.89H682.4Z"/><path class="cls-5" d="M248,341.42V253h-37.4L156.76.72,101.1,253h-30v88.38H0V499.19H25.24V366.66H290.3V497.54h25.24V341.42ZM156.31,131.83,182.19,253H129.57ZM99.3,281.2H219.88v60.23H99.3Z"/><path class="cls-5" d="M162.64,432.12a67.24,67.24,0,0,0-67.17,67.16h29.24a37.93,37.93,0,0,1,75.86,0H229.8A67.24,67.24,0,0,0,162.64,432.12Z"/></g></g></svg>