<svg xmlns="http://www.w3.org/2000/svg" viewBox="0 0 133 112.01" width="33px"><defs><style>.cls-1{fill:#ec6463;}.cls-2{fill:none;stroke:#354254;stroke-linecap:round;stroke-miterlimit:10;stroke-width:3px;}.cls-3{fill:#a4d9ea;}</style></defs><title>1</title><g id="Слой_2" data-name="Слой 2"><g id="Слой_1-2" data-name="Слой 1"><g id="Слой_2-2" data-name="Слой 2"><g id="Layer_1" data-name="Layer 1"><polygon class="cls-1" points="79.57 67.6 69.15 67.6 69.15 57.18 63.85 57.18 63.85 67.6 53.43 67.6 53.43 72.9 63.85 72.9 63.85 83.32 69.15 83.32 69.15 72.9 79.57 72.9 79.57 67.6"/><path class="cls-2" d="M127.42,40.12v65.25a5.14,5.14,0,0,1-5.14,5.14H10.72a5.14,5.14,0,0,1-5.14-5.14V40.12"/><path class="cls-2" d="M58.94,44c-18.59-.19-37.14-1.1-55.53-4.21A2.3,2.3,0,0,1,1.5,37.49V19.27a5.14,5.14,0,0,1,5.14-5.14H126.36a5.14,5.14,0,0,1,5.14,5.14V37.49a2.3,2.3,0,0,1-1.91,2.27c-18.39,3.12-36.95,4-55.53,4.21Z"/><path class="cls-2" d="M94.83,14.13V7.5a6,6,0,0,0-6-6H44.18a6,6,0,0,0-6,6v6.62"/><path class="cls-3" d="M10.82,92v13.3H122.18V92A705.38,705.38,0,0,1,10.82,92Z"/></g></g></g></g></svg>