<svg xmlns="http://www.w3.org/2000/svg" viewBox="0 0 99.85 108.03"  width="30px"><defs><style>.cls-1{fill:none;stroke:#354254;stroke-linecap:round;stroke-miterlimit:10;stroke-width:3px;}.cls-2{fill:#a4d9ea;}.cls-3{fill:#ec6463;}</style></defs><title>3</title><g id="Слой_2" data-name="Слой 2"><g id="Layer_1" data-name="Layer 1"><path class="cls-1" d="M34.43,106.53h54a9.89,9.89,0,0,0,8.94-14.1L72.73,40.08a21.76,21.76,0,0,1-2.08-9.27V10.45h0a3.5,3.5,0,0,0,3.5-3.5V5a3.5,3.5,0,0,0-3.5-3.5H48A3.5,3.5,0,0,0,44.52,5V6.95a3.5,3.5,0,0,0,3.5,3.5h0V30.8a21.76,21.76,0,0,1-2.08,9.27L34.4,64.6"/><line class="cls-1" x1="70.65" y1="10.45" x2="62.46" y2="10.45"/><line class="cls-1" x1="70.65" y1="16.56" x2="65.04" y2="16.56"/><line class="cls-1" x1="70.65" y1="22.67" x2="62.46" y2="22.67"/><line class="cls-1" x1="70.65" y1="34.88" x2="62.46" y2="34.88"/><line class="cls-1" x1="70.65" y1="28.77" x2="65.04" y2="28.77"/><line class="cls-1" x1="5.03" y1="53.2" x2="13.22" y2="53.2"/><line class="cls-1" x1="5.03" y1="47.09" x2="10.64" y2="47.09"/><line class="cls-1" x1="5.03" y1="40.99" x2="13.22" y2="40.99"/><line class="cls-1" x1="5.03" y1="28.77" x2="13.22" y2="28.77"/><line class="cls-1" x1="5.03" y1="34.88" x2="10.64" y2="34.88"/><path class="cls-1" d="M1.5,23.3v2.06a3.42,3.42,0,0,0,3.42,3.42h0V96.53a10,10,0,0,0,10,10h2.81a10,10,0,0,0,10-10V28.77h0a3.42,3.42,0,0,0,3.42-3.42V23.3a3.42,3.42,0,0,0-3.42-3.42H4.92A3.42,3.42,0,0,0,1.5,23.3Z"/><path class="cls-2" d="M92.83,94.58,80.53,68.46c-7.15,8.15-24.7,16.72-46.14,18.93v14.1H88.45a4.84,4.84,0,0,0,4.38-6.91Z"/><path class="cls-3" d="M9.72,79.54h0V94.75a5.53,5.53,0,0,0,5.53,5.53H16.8a5.53,5.53,0,0,0,5.53-5.53V79.54h0"/></g></g></svg>