<svg xmlns="http://www.w3.org/2000/svg" viewBox="0 0 92.79 110.21" width="28px"><defs><style>.cls-1{fill:#a4d9ea;}.cls-2,.cls-3{fill:none;stroke:#354254;stroke-linecap:round;stroke-width:3px;}.cls-2{stroke-miterlimit:10;}.cls-3{stroke-linejoin:round;}</style></defs><title>4</title><g id="Слой_2" data-name="Слой 2"><g id="Layer_1" data-name="Layer 1"><circle class="cls-1" cx="48.59" cy="41.02" r="21.87"/><path class="cls-2" d="M76.74,108.71V84.25A32.3,32.3,0,0,1,83,66.06,36.44,36.44,0,0,0,89,55.23C92.78,43.44,95,20.31,69.64,6.75,69.64,6.75,41-8,19.13,12a29,29,0,0,0-8.51,13.72,40.83,40.83,0,0,0-1,15.6c.09.73.22,1.45.35,2.17A15.68,15.68,0,0,1,7.68,54.65L1.84,63.12s-1.74,3.71,2.6,4.49a9.11,9.11,0,0,1,2.36.56,1.05,1.05,0,0,1,.39,1.65c-.65.75-1.24,2,.6,3a1.09,1.09,0,0,1,.43,1.51c-.59,1-.92,2.52,1.6,3.27a1.08,1.08,0,0,1,.78,1.23c-.59,3-1.64,12,6.61,11.89L24,90A9.28,9.28,0,0,1,34.09,97.6,51,51,0,0,1,35,108.71"/><path class="cls-3" d="M74.26,37.89A5.79,5.79,0,0,0,71,27.77a5.79,5.79,0,0,0-7.12-7.91,5.79,5.79,0,0,0-9.72-4.33,5.79,5.79,0,0,0-10.64,0,5.79,5.79,0,0,0-9.72,4.33,5.79,5.79,0,0,0-7.12,7.91,5.79,5.79,0,0,0-3.29,10.12,5.79,5.79,0,0,0,1.11,10.58,5.79,5.79,0,0,0,5.32,9.22,5.79,5.79,0,0,0,8.61,6.26A5.79,5.79,0,0,0,48.8,66.16a5.79,5.79,0,0,0,10.41-2.21,5.79,5.79,0,0,0,8.61-6.26,5.79,5.79,0,0,0,5.32-9.22,5.79,5.79,0,0,0,1.11-10.58Z"/><path class="cls-3" d="M32.68,47.23a5.38,5.38,0,0,0,4.84-7.73,5.45,5.45,0,0,0,3.39-.29,5.88,5.88,0,0,0,3.51-4.13,5.67,5.67,0,0,0-.24-3.18l.36,0c.25,0,.5,0,.75,0,5.28-.49,6.73-7.45,2.29-10.35-2.05-1.34-4-3.31-4.11-6"/><path class="cls-3" d="M44.55,31.91a12.33,12.33,0,0,1-6.89-7.08"/><path class="cls-3" d="M63.85,19.86s-3.42,11.28-13.79,7.88"/><path class="cls-3" d="M74.26,37.89a8.08,8.08,0,0,0-8.11,6.59s-6.72-3.6-12.78.1a11.14,11.14,0,0,0-3.28,3.15c-1.62,2.31-3.81,6.67-2,11.62"/><path class="cls-3" d="M71.1,27.46S57.75,29.91,58.07,43"/><path class="cls-3" d="M29.78,57.69s7.08-8.79,18-5"/><path class="cls-3" d="M59.21,63.95A8.23,8.23,0,0,1,56,57.45a4.93,4.93,0,0,1,7.42-4.33l.1.06"/><path class="cls-3" d="M43.19,37.55a9.23,9.23,0,0,1,8.08,8.74"/><path class="cls-3" d="M37.52,39.5a17.51,17.51,0,0,1-5.46-4.27"/></g></g></svg>