<svg xmlns="http://www.w3.org/2000/svg" viewBox="0 0 88.03 115" width="26px"><defs><style>.cls-1{fill:#a4d9ea;}.cls-2{fill:none;stroke:#354254;stroke-linecap:round;stroke-miterlimit:10;stroke-width:3px;}.cls-3{fill:#ec6463;}</style></defs><title>7</title><g id="Слой_2" data-name="Слой 2"><g id="Layer_1" data-name="Layer 1"><path class="cls-1" d="M14.91,8.76h3.54a1.63,1.63,0,0,1,1.63,1.63V15a0,0,0,0,1,0,0h-6.8a0,0,0,0,1,0,0V10.4a1.63,1.63,0,0,1,1.63-1.63Z" transform="translate(32.3 25.13) rotate(-175.21)"/><path class="cls-2" d="M38.55,5.29l-.08-.7a2.77,2.77,0,0,1,2.44-3.07h0A2.77,2.77,0,0,1,44,3.9l.06.44C52.86,3.21,59,9.4,55.49,20.08,50.25,35.91,41.81,56.76,29,56.76S7.76,35.91,2.52,20.08C-1,9.4,5.14,3.21,14,4.34L14,3.9a2.77,2.77,0,0,1,3.05-2.38h0a2.77,2.77,0,0,1,2.44,3.07l-.08.7"/><path class="cls-1" d="M37.93,8.76h6.8a0,0,0,0,1,0,0v4.62A1.63,1.63,0,0,1,43.1,15H39.56a1.63,1.63,0,0,1-1.63-1.63V8.76A0,0,0,0,1,37.93,8.76Z" transform="translate(-0.85 3.5) rotate(-4.79)"/><circle class="cls-2" cx="74.85" cy="66.76" r="11.68"/><path class="cls-3" d="M74.85,67.41a7,7,0,0,1-5.77-3.06,6.25,6.25,0,1,0,11.54,0A7,7,0,0,1,74.85,67.41Z"/><path class="cls-2" d="M29,56.76V90.28a14.12,14.12,0,0,1-14.12,14.12c-6.24,0-11.7-4.9-11.29-11.29.36-5.67,4.07-8.63,9-9a11,11,0,0,1,9.86,5.06"/><path class="cls-2" d="M30.29,101.9s11.3,11.6,26.22,11.6h0A18.34,18.34,0,0,0,74.85,95.16V78.44"/><path class="cls-2" d="M83.58,51.79a16.47,16.47,0,0,0-17.47,0"/></g></g></svg>