<svg xmlns="http://www.w3.org/2000/svg" viewBox="0 0 106.62 100.62" width="28px"><defs><style>.cls-1{fill:none;stroke:#354254;stroke-linecap:round;stroke-miterlimit:10;stroke-width:3px;}.cls-2{fill:#ec6463;}</style></defs><title>8</title><g id="Слой_2" data-name="Слой 2"><g id="Layer_1" data-name="Layer 1"><path class="cls-1" d="M13.82,95.77c0-3.63-.07-8.89.32-12.95a3.37,3.37,0,0,1,6-1.79c1.3,1.62,2.61,3.11,3.93,4.49,13.62,14.2,35.16,17.88,52.27,8.17C99.13,80.75,104,52.08,104,52.08c4.55-22.9-6.17-35.14-12.59-39.17a18.26,18.26,0,0,0-10.59-2.8C74,10.46,71.16,14.65,70,18.69a3.45,3.45,0,0,1-6.43.55A37.78,37.78,0,0,1,60,3V1.5"/><path class="cls-1" d="M21.28,48.41V60.66a5.54,5.54,0,0,0,3.05,4.93,51.17,51.17,0,0,0,10.23,4c12.77,3.29,23.57-4.34,24.79-16.33.91-9-3.71-17-3.71-17A72,72,0,0,1,47.37,6.89V1.5"/><path class="cls-1" d="M1.5,95.77V80.17A17.22,17.22,0,0,1,9,66.18a5.73,5.73,0,0,0,2.39-4.62V48.41"/><path class="cls-2" d="M93.25,68.06a68.15,68.15,0,0,0,6-16.82v-.12C104,27.31,90.4,18,88.84,17.05A13.51,13.51,0,0,0,81.72,15l-.63,0c-3.3.17-5.18,1.53-6.22,4.48C85.67,24.9,94.93,38.62,93.25,68.06Z"/></g></g></svg>