<svg xmlns="http://www.w3.org/2000/svg" width="9" height="9" viewBox="0 0 9 9">
  <metadata><?xpacket begin="﻿" id="W5M0MpCehiHzreSzNTczkc9d"?>
<x:xmpmeta xmlns:x="adobe:ns:meta/" x:xmptk="Adobe XMP Core 5.6-c138 79.159824, 2016/09/14-01:09:01        ">
   <rdf:RDF xmlns:rdf="http://www.w3.org/1999/02/22-rdf-syntax-ns#">
      <rdf:Description rdf:about=""/>
   </rdf:RDF>
</x:xmpmeta>
                                                                                                    
                                                                                                    
                                                                                                    
                                                                                                    
                                                                                                    
                                                                                                    
                                                                                                    
                                                                                                    
                                                                                                    
                                                                                                    
                                                                                                    
                                                                                                    
                                                                                                    
                                                                                                    
                                                                                                    
                                                                                                    
                                                                                                    
                                                                                                    
                                                                                                    
                                                                                                    
                           
<?xpacket end="w"?></metadata>
<defs>
    <style>
      .cls-1 {
        fill: #f26d7d;
        fill-rule: evenodd;
      }
    </style>
  </defs>
  <path id="Forma_1" data-name="Forma 1" class="cls-1" d="M0.451,8.907A0.238,0.238,0,0,1,.264,9,0.238,0.238,0,0,1,.077,8.907a0.366,0.366,0,0,1,0-.45L3.362,4.5,0.077,0.54a0.366,0.366,0,0,1,0-.45,0.234,0.234,0,0,1,.374,0L3.922,4.273a0.366,0.366,0,0,1,0,.45Z"/>
  <path id="Forma_1_copy_2" data-name="Forma 1 copy 2" class="cls-1" d="M5.451,8.907a0.234,0.234,0,0,1-.374,0,0.366,0.366,0,0,1,0-.45L8.362,4.5,5.077,0.54a0.366,0.366,0,0,1,0-.45,0.234,0.234,0,0,1,.374,0L8.922,4.273a0.366,0.366,0,0,1,0,.45Z"/>
</svg>
