<?xml version="1.0" encoding="iso-8859-1"?>
<!-- Generator: Adobe Illustrator 19.0.0, SVG Export Plug-In . SVG Version: 6.00 Build 0)  -->
<svg xmlns="http://www.w3.org/2000/svg" xmlns:xlink="http://www.w3.org/1999/xlink" version="1.1" id="Layer_1" x="0px" y="0px" viewBox="0 0 496 496" style="enable-background:new 0 0 496 496;" xml:space="preserve" width="512px" height="512px">
<g>
	<g>
		<g>
			<rect x="80" y="312" width="16" height="16" fill="#d0b36f"/>
			<path d="M496,296v-96h-45.576c-5.104-21.632-13.624-42.16-25.376-61.168l32.256-32.256l-67.88-67.88l-32.256,32.256     C338.16,59.192,317.64,50.68,296,45.568V0h-96v45.576c-8.152,1.928-16.136,4.536-24,7.448V28.688L147.312,0H112l0.024,64.024     h-48.04L64,0H28.688L0,28.688v70.624l48,48v201.376l-48,48v70.624L28.688,496H64l-0.024-64.024h48.04L112,496h35.32L176,467.312     v-24.336c7.864,2.912,15.848,5.52,24,7.448V496h96v-45.568c21.64-5.112,42.16-13.624,61.168-25.384l32.256,32.256l67.88-67.88     l-32.256-32.256c11.76-19.008,20.272-39.528,25.376-61.168H496z M16,92.688V35.312L35.312,16H48l-0.024,64.024h80.056L128,16     h12.68L160,35.312v57.376L116.688,136H59.312L16,92.688z M96,304V152h16v192H64V152h16v152H96z M160,460.688L140.688,480H128     l0.024-64.024H47.976L48,480H35.312L16,460.688v-57.376L59.312,360h57.376L160,403.312V460.688z M436.152,286.408     c-4.896,24.104-14.312,46.8-27.984,67.456l-3.608,5.448l30.12,30.12l-45.256,45.256l-30.12-30.128l-5.448,3.608     c-20.648,13.68-43.336,23.096-67.44,27.984L280,437.456V480h-64v-42.544l-6.408-1.296c-11.472-2.336-22.736-5.8-33.592-10.208     v-29.264l-48-48V248V147.312l48-48V70.048c10.856-4.4,22.12-7.864,33.592-10.2L216,58.544V16h64v42.544l6.408,1.304     c24.104,4.888,46.8,14.304,67.44,27.984l5.448,3.608l30.12-30.128l45.256,45.256l-30.12,30.12l3.608,5.448     c13.672,20.656,23.088,43.352,27.984,67.456l1.312,6.408H480v64h-42.544L436.152,286.408z" fill="#d0b36f"/>
			<path d="M248,368c66.168,0,120-53.832,120-120s-53.832-120-120-120s-120,53.832-120,120S181.832,368,248,368z M248,144     c57.344,0,104,46.656,104,104s-46.656,104-104,104s-104-46.656-104-104S190.656,144,248,144z" fill="#d0b36f"/>
			<path d="M248,304c30.88,0,56-25.128,56-56s-25.12-56-56-56s-56,25.128-56,56S217.12,304,248,304z M248,208     c22.056,0,40,17.944,40,40c0,22.056-17.944,40-40,40c-22.056,0-40-17.944-40-40C208,225.944,225.944,208,248,208z" fill="#d0b36f"/>
			<rect x="320" y="240" width="16" height="16" fill="#d0b36f"/>
			<rect x="160" y="240" width="16" height="16" fill="#d0b36f"/>
			<rect x="240" y="160" width="16" height="16" fill="#d0b36f"/>
			<rect x="240" y="320" width="16" height="16" fill="#d0b36f"/>
		</g>
	</g>
</g>
<g>
</g>
<g>
</g>
<g>
</g>
<g>
</g>
<g>
</g>
<g>
</g>
<g>
</g>
<g>
</g>
<g>
</g>
<g>
</g>
<g>
</g>
<g>
</g>
<g>
</g>
<g>
</g>
<g>
</g>
</svg>
