<?xml version="1.0" encoding="iso-8859-1"?>
<!-- Generator: Adobe Illustrator 19.0.0, SVG Export Plug-In . SVG Version: 6.00 Build 0)  -->
<svg xmlns="http://www.w3.org/2000/svg" xmlns:xlink="http://www.w3.org/1999/xlink" version="1.1" id="Layer_1" x="0px" y="0px" viewBox="0 0 512 512" style="enable-background:new 0 0 512 512;" xml:space="preserve" width="512px" height="512px">
<g>
	<g>
		<rect x="397.061" y="124.343" width="41.796" height="15.673" fill="#d0b36f"/>
	</g>
</g>
<g>
	<g>
		<path d="M438.857,10.449v15.673c31.689,0,57.469,25.781,57.469,57.469v268.306c-13.404-17.019-34.174-27.979-57.469-27.979v15.673    c31.689,0,57.469,25.781,57.469,57.469s-25.781,57.469-57.469,57.469H324.549L31.347,161.325v293.206H15.673V140.016h199.21    v152.19l20.898,33.437l20.898-33.437v-152.19h25.443v-15.673h-25.443V10.449h-41.796v113.894H0v345.861h31.347v31.347h340.222    l-31.347-31.347h98.635c40.331,0,73.143-32.812,73.143-73.143V83.592C512,43.261,479.188,10.449,438.857,10.449z M230.557,26.122    h10.449v10.449h-10.449V26.122z M230.557,52.245h10.449v235.467l-5.224,8.359l-5.224-8.359V52.245z M47.02,485.878v-15.673h23.51    v-15.674H47.02v-20.898h13.061v-15.673H47.02v-20.898h23.51v-15.673H47.02V360.49h13.061v-15.673H47.02v-20.898h23.51v-15.674    H47.02v-20.898h13.061v-15.673H47.02v-20.898h23.51v-15.673H47.02v-35.937l286.711,286.713H47.02z" fill="#d0b36f"/>
	</g>
</g>
<g>
	<g>
		<path d="M382.49,161.437h-9.079c6.596-7.752,10.589-17.783,10.589-28.735c0-21.811-15.811-39.988-36.571-43.702V77.845h15.673    V20.376h-47.02v57.469h15.674V89c-20.76,3.714-36.571,21.89-36.571,43.702c0,10.952,3.994,20.983,10.589,28.735h-9.078    l-34.729,160.914h30.891l46.735-129.925l46.736,129.925h30.891L382.49,161.437z M331.755,36.049h15.673v26.122h-15.673V36.049z     M281.838,306.678h-0.456l27.965-129.567h19.098L281.838,306.678z M310.857,132.702c0-15.845,12.89-28.735,28.735-28.735    c15.845,0,28.735,12.89,28.735,28.735c0,15.845-12.89,28.735-28.735,28.735C323.747,161.437,310.857,148.547,310.857,132.702z     M350.739,177.11h19.098l27.965,129.567h-0.456L350.739,177.11z" fill="#d0b36f"/>
	</g>
</g>
<g>
	<g>
		<path d="M339.592,111.804c-11.523,0-20.898,9.375-20.898,20.898s9.375,20.898,20.898,20.898c11.523,0,20.898-9.375,20.898-20.898    S351.115,111.804,339.592,111.804z M339.592,137.926c-2.881,0-5.224-2.344-5.224-5.224c0-2.881,2.344-5.224,5.224-5.224    c2.881,0,5.224,2.344,5.224,5.224C344.816,135.583,342.473,137.926,339.592,137.926z" fill="#d0b36f"/>
	</g>
</g>
<g>
	<g>
		<path d="M83.597,283.283l-0.005,161.842h161.845L83.597,283.283z M99.269,321.121l108.329,108.331H99.266L99.269,321.121z" fill="#d0b36f"/>
	</g>
</g>
<g>
</g>
<g>
</g>
<g>
</g>
<g>
</g>
<g>
</g>
<g>
</g>
<g>
</g>
<g>
</g>
<g>
</g>
<g>
</g>
<g>
</g>
<g>
</g>
<g>
</g>
<g>
</g>
<g>
</g>
</svg>
