<?xml version="1.0" encoding="utf-8"?>
<!-- Generator: Adobe Illustrator 21.0.2, SVG Export Plug-In . SVG Version: 6.00 Build 0)  -->
<svg version="1.1" id="Capa_1" xmlns="http://www.w3.org/2000/svg" xmlns:xlink="http://www.w3.org/1999/xlink" x="0px" y="0px"
	 viewBox="0 0 512 512" style="enable-background:new 0 0 512 512;" xml:space="preserve">
<style type="text/css">
	.st0{fill:#D0B36F;}
</style>
<g>
	<g id="XMLID_1_">
		<g>
			<path class="st0" d="M511.8,404c1.1,8.3-1.5,15.5-7.6,21.7l-72.1,71.5c-3.3,3.6-7.5,6.7-12.7,9.2s-10.4,4.2-15.4,4.9
				c-0.4,0-1.4,0.1-3.3,0.3c-1.8,0.2-4.2,0.3-7,0.3c-6.9,0-18-1.2-33.3-3.5c-15.4-2.4-34.1-8.1-56.4-17.4
				c-22.2-9.2-47.4-23-75.6-41.5s-58.2-43.7-90-75.9c-25.3-24.9-46.3-48.8-62.9-71.5c-16.6-22.8-30-43.8-40.1-63.1
				c-10.1-19.3-17.7-36.9-22.8-52.6s-8.5-29.3-10.3-40.7c-1.8-11.4-2.5-20.3-2.2-26.8c0.4-6.5,0.5-10.1,0.5-10.8
				C1.4,103,3,97.8,5.5,92.6c2.5-5.2,5.6-9.5,9.2-12.7L86.8,7.8c5.1-5.1,10.8-7.6,17.4-7.6c4.7,0,8.8,1.4,12.5,4.1
				c3.6,2.7,6.7,6,9.2,10l58,110c3.3,5.8,4.2,12.1,2.7,19c-1.4,6.9-4.5,12.7-9.2,17.3l-26.6,26.6c-0.7,0.7-1.4,1.9-1.9,3.5
				c-0.5,1.6-0.8,3-0.8,4.1c1.4,7.6,4.7,16.3,9.8,26c4.3,8.7,11,19.2,20,31.7c9,12.5,21.9,26.8,38.5,43.1
				c16.3,16.6,30.7,29.5,43.4,38.8c12.6,9.2,23.2,16,31.7,20.3c8.5,4.3,15,7,19.5,7.9l6.8,1.4c0.7,0,1.9-0.3,3.5-0.8
				c1.6-0.5,2.8-1.2,3.5-1.9l30.9-31.4c6.5-5.8,14.1-8.7,22.8-8.7c6.1,0,11,1.1,14.6,3.3h0.5l104.6,61.8
				C505.8,390.8,510.3,396.7,511.8,404z"/>
		</g>
		<g>
		</g>
	</g>
</g>
</svg>
