<svg xmlns="http://www.w3.org/2000/svg" width="14" height="14" viewBox="0 0 14 14">
  <metadata><?xpacket begin="﻿" id="W5M0MpCehiHzreSzNTczkc9d"?>
<x:xmpmeta xmlns:x="adobe:ns:meta/" x:xmptk="Adobe XMP Core 5.6-c138 79.159824, 2016/09/14-01:09:01        ">
   <rdf:RDF xmlns:rdf="http://www.w3.org/1999/02/22-rdf-syntax-ns#">
      <rdf:Description rdf:about=""/>
   </rdf:RDF>
</x:xmpmeta>
                                                                                                    
                                                                                                    
                                                                                                    
                                                                                                    
                                                                                                    
                                                                                                    
                                                                                                    
                                                                                                    
                                                                                                    
                                                                                                    
                                                                                                    
                                                                                                    
                                                                                                    
                                                                                                    
                                                                                                    
                                                                                                    
                                                                                                    
                                                                                                    
                                                                                                    
                                                                                                    
                           
<?xpacket end="w"?></metadata>
<defs>
    <style>
      .cls-1 {
        fill: #fff;
        fill-rule: evenodd;
      }
    </style>
  </defs>
  <path id="Ellipse_4_copy_5" data-name="Ellipse 4 copy 5" class="cls-1" d="M26.5,15.5a1,1,0,1,1-1,1A1,1,0,0,1,26.5,15.5Zm6-3a1,1,0,1,1-1,1A1,1,0,0,1,32.5,12.5Zm6,3a1,1,0,1,1-1,1A1,1,0,0,1,38.5,15.5Zm0,6a1,1,0,1,1-1,1A1,1,0,0,1,38.5,21.5Zm-12,0a1,1,0,1,1-1,1A1,1,0,0,1,26.5,21.5Zm6,3a1,1,0,1,1-1,1A1,1,0,0,1,32.5,24.5Z" transform="translate(-25.5 -12.5)"/>
</svg>
