<svg width="25px" height="23px" xmlns="http://www.w3.org/2000/svg" viewBox="0 0 47 43.95"><defs><style>.cls-1{fill:none;stroke:#fff;stroke-miterlimit:10;stroke-width:2px;}</style></defs><title>Ресурс 1</title><g id="Слой_2" data-name="Слой 2"><g id="Layer_1" data-name="Layer 1"><path class="cls-1" d="M14.61,1S23.1,0,25,8.21c0,0,2.18,10.67,7.49,13.91,3.82,2.28.14,8.73,4.61,10s1.79,7.7,7.22,6.53-3.64,6.95-9.21,3.44c-4.47-2.82-4.85-.85-9.2-1.27,0,0-10.45-1.64-7.38-14.7,0,0,5.31-5.15,4.25-12.42H6.39c-1,7.27,4.25,12.42,4.25,12.42,3.08,13.05-7.38,14.7-7.38,14.7C.87,32.64.7,30.65,1.28,25.35A131.64,131.64,0,0,1,4.16,8.16C6.12,0,14.61,1,14.61,1"/></g></g></svg>