<svg xmlns="http://www.w3.org/2000/svg" viewBox="0 0 15 15"><defs><style>.cls-1{fill:#fff;}.cls-2{fill:#fdfeff;}</style></defs><title>Ресурс 1</title><g id="Слой_2" data-name="Слой 2"><g id="Layer_1" data-name="Layer 1"><rect class="cls-1" x="2.12" y="1.13" width="3" height="0.75" transform="translate(2.12 5.12) rotate(-90)"/><rect class="cls-1" x="4" y="8" width="1" height="1" transform="translate(-4 13) rotate(-90)"/><rect class="cls-1" x="7" y="8" width="1" height="1" transform="translate(-1 16) rotate(-90)"/><rect class="cls-1" x="10" y="8" width="1" height="1" transform="translate(2 19) rotate(-90)"/><rect class="cls-1" x="4" y="11" width="1" height="1" transform="translate(-7 16) rotate(-90)"/><rect class="cls-1" x="7" y="11" width="1" height="1" transform="translate(-4 19) rotate(-90)"/><rect class="cls-1" x="10" y="11" width="1" height="1" transform="translate(-1 22) rotate(-90)"/><rect class="cls-1" x="5.87" y="1.13" width="3" height="0.75" transform="translate(5.87 8.87) rotate(-90)"/><rect class="cls-1" x="10.12" y="1.13" width="3" height="0.75" transform="translate(10.12 13.12) rotate(-90)"/><rect class="cls-2" x="0.16" y="4" width="14.69" height="0.75" transform="translate(15 8.75) rotate(-180)"/><path class="cls-1" d="M14,1.75a.25.25,0,0,1,.25.25V14a.25.25,0,0,1-.25.25H1A.25.25,0,0,1,.75,14V2A.25.25,0,0,1,1,1.75H14M14,1H1A1,1,0,0,0,0,2V14a1,1,0,0,0,1,1H14a1,1,0,0,0,1-1V2a1,1,0,0,0-1-1Z"/></g></g></svg>