<svg xmlns="http://www.w3.org/2000/svg" viewBox="0 0 17.29 17.25"><defs><style>.cls-1,.cls-3{fill:none;stroke:#fff;stroke-width:0.75px;}.cls-1{stroke-miterlimit:10;}.cls-2{fill:#fff;}.cls-3{stroke-linejoin:round;}</style></defs><title>Ресурс 1</title><g id="Слой_2" data-name="Слой 2"><g id="Layer_1" data-name="Layer 1"><path class="cls-1" d="M15.09,10.38a6.5,6.5,0,1,1-13,0"/><circle class="cls-1" cx="8.59" cy="1.88" r="1.5"/><rect class="cls-2" x="6.91" y="4.31" width="3.13" height="0.75" transform="translate(3.78 13.16) rotate(-90)"/><rect class="cls-2" x="4.5" y="12.47" width="7.94" height="0.75" transform="translate(-4.38 21.31) rotate(-90)"/><path class="cls-3" d="M4.09,8.17s.38,1.15,2.69,1.15c2.62,0,4.23-2.08,6.31-.92V5.63C11,4.48,9.4,6.55,6.79,6.55,4.47,6.55,4.09,5.4,4.09,5.4v3"/><polyline class="cls-3" points="0.33 13.21 1.98 10.27 4.92 11.91"/><polyline class="cls-3" points="16.96 13.46 15.31 10.52 12.37 12.16"/></g></g></svg>