<svg xmlns="http://www.w3.org/2000/svg" viewBox="0 0 178 178.2"><defs><style>.cls-1{fill:none;stroke:#201600;stroke-miterlimit:10;stroke-width:10px;}.cls-2{fill:#201600;}</style></defs><title>Ресурс 1</title><g id="Слой_2" data-name="Слой 2"><g id="Layer_2_copy" data-name="Layer 2 copy"><path class="cls-1" d="M89,173.2a84,84,0,0,1-84-84C5,42.81,44,8.53,89,5.2c46.27-3.43,84,37.61,84,84A84,84,0,0,1,89,173.2Z"/></g><g id="Layer_2" data-name="Layer 2"><path d="M87.75,173.2a83.78,83.78,0,0,0,62-27.36,41.66,41.66,0,0,0-40.53-32.64h-40a41.65,41.65,0,0,0-41,35.26A83.73,83.73,0,0,0,87.75,173.2Z"/><path class="cls-2" d="M120.67,69.2C120,86.68,106.49,100.87,89,100.87a31.67,31.67,0,0,1,0-63.33C106.49,37.53,121.29,51.74,120.67,69.2Z"/></g></g></svg>