<svg xmlns="http://www.w3.org/2000/svg" viewBox="0 0 375.5 426.7"><defs><style>.cls-1,.cls-2{fill:none;stroke:#000703;stroke-miterlimit:10;}.cls-1{stroke-width:19px;}.cls-2{stroke-width:15px;}.cls-3{fill:#000703;}.cls-4{font-size:172px;fill:#201600;font-family:MyriadPro-Regular, Myriad Pro;}</style></defs><title>Ресурс 1</title><g id="Слой_2" data-name="Слой 2"><g id="Layer_2" data-name="Layer 2"><path class="cls-1" d="M294,417.2H59A49.65,49.65,0,0,1,9.5,367.7V100.44c0-8.8,3.12-17.73,9.89-23.34C48,53.35,59,42.85,93.49,17.61A42,42,0,0,1,118.29,9.5H294A49.65,49.65,0,0,1,343.5,59V367.7A49.65,49.65,0,0,1,294,417.2Z"/><path class="cls-2" d="M96.81,13.41l17.69.44V93.67c0,13.33-10.52,24.24-23.37,24.24l-80.63-.84"/><path class="cls-2" d="M26.11,70.43"/><rect class="cls-3" x="180.5" y="125.48" width="96" height="27" rx="8.25" ry="8.25"/><rect class="cls-3" x="72.5" y="180.85" width="220" height="27" rx="8.25" ry="8.25"/><rect class="cls-3" x="72.5" y="244.33" width="108.04" height="27" rx="8.25" ry="8.25"/><rect class="cls-3" x="73.5" y="308.85" width="108.04" height="27" rx="8.25" ry="8.25"/><text class="cls-4" transform="translate(206.5 354.47)">$</text><rect class="cls-3" x="180.5" y="65.66" width="96" height="27" rx="8.25" ry="8.25"/></g></g></svg>