<svg xmlns="http://www.w3.org/2000/svg" viewBox="0 0 219.33 228.86"><defs><style>.cls-1,.cls-2{fill:none;}.cls-2{stroke:#201600;stroke-miterlimit:10;stroke-width:11px;}</style></defs><title>Ресурс 1</title><g id="Слой_2" data-name="Слой 2"><g id="Layer_2" data-name="Layer 2"><path class="cls-1" d="M107.55,219.88V101.32H208a198.35,198.35,0,0,0,5.85-46.11S181.58,44.1,159.9,5.5H107.34v95.82h-96c12.72,52.48,46.05,107.4,98.32,121.84h0a100.77,100.77,0,0,0,9.82-3.27Z"/><path class="cls-2" d="M159.9,5.5H59.43C37.75,44.1,5.5,55.2,5.5,55.2c0,61.33,36,149.11,104.17,168h0c68.21-18.84,104.17-106.63,104.17-168C213.83,55.2,181.58,44.1,159.9,5.5Z"/><rect x="101.83" y="65.52" width="15.67" height="86.3"/><rect x="101.83" y="65.52" width="15.67" height="86.3" transform="translate(218.34 -0.99) rotate(90)"/></g></g></svg>