<svg xmlns="http://www.w3.org/2000/svg" viewBox="0 0 495.4 271.08"><defs><style>.cls-1{fill:#42464e;}</style></defs><title>Ресурс 1</title><g id="Слой_2" data-name="Слой 2"><g id="Layer_1" data-name="Layer 1"><circle class="cls-1" cx="246.99" cy="69.34" r="62.25"/><path class="cls-1" d="M121,271.08h0c0-69.3,56.7-126,126-126h0c69.3,0,126,56.7,126,126h0"/><circle class="cls-1" cx="393.78" cy="50.21" r="50.21"/><path class="cls-1" d="M292.16,212.92h0c0-55.89,45.73-101.62,101.62-101.62h0c55.89,0,101.62,45.73,101.62,101.62h0"/><circle class="cls-1" cx="101.62" cy="50.21" r="50.21"/><path class="cls-1" d="M0,212.92H0C0,157,45.73,111.3,101.62,111.3h0c55.89,0,101.62,45.73,101.62,101.62h0"/></g></g></svg>