<svg xmlns="http://www.w3.org/2000/svg" viewBox="0 0 334 407.7"><defs><style>.cls-1{fill:#42464e;}</style></defs><title>Ресурс 1</title><g id="Слой_2" data-name="Слой 2"><g id="Layer_2" data-name="Layer 2"><path class="cls-1" d="M284.5,0H108.79A42,42,0,0,0,84,8.11C49.5,33.35,38.5,43.85,9.89,67.6,3.12,73.22,0,82.14,0,90.94V358.2a49.65,49.65,0,0,0,49.5,49.5h235A49.65,49.65,0,0,0,334,358.2V49.5A49.65,49.65,0,0,0,284.5,0ZM171,64.41a8.25,8.25,0,0,1,8.25-8.25h79.5A8.25,8.25,0,0,1,267,64.41v10.5a8.25,8.25,0,0,1-8.25,8.25h-79.5A8.25,8.25,0,0,1,171,74.91Zm0,59.81a8.25,8.25,0,0,1,8.25-8.25h79.5a8.25,8.25,0,0,1,8.25,8.25v10.5a8.25,8.25,0,0,1-8.25,8.25h-79.5a8.25,8.25,0,0,1-8.25-8.25ZM282,326.35a8.25,8.25,0,0,1-8.25,8.25H70.25A8.25,8.25,0,0,1,62,326.35v-10.5a8.25,8.25,0,0,1,8.25-8.25h203.5a8.25,8.25,0,0,1,8.25,8.25Zm2-64a8.25,8.25,0,0,1-8.25,8.25H72.25A8.25,8.25,0,0,1,64,262.35v-10.5a8.25,8.25,0,0,1,8.25-8.25h203.5a8.25,8.25,0,0,1,8.25,8.25Zm0-60.5a8.25,8.25,0,0,1-8.25,8.25H72.25A8.25,8.25,0,0,1,64,201.85v-10.5a8.25,8.25,0,0,1,8.25-8.25h203.5a8.25,8.25,0,0,1,8.25,8.25Z"/></g></g></svg>