<svg xmlns="http://www.w3.org/2000/svg" viewBox="0 0 48.19 44.9"><defs><style>.cls-1{fill:#070707;stroke:#fff;stroke-miterlimit:10;stroke-width:2px;}.cls-2{fill:#fff;}</style></defs><title>Ресурс 1</title><g id="Слой_2" data-name="Слой 2"><g id="Capa_1" data-name="Capa 1"><path d="M48.19,17.48C48.19,7.83,39.46,0,28.69,0,20.92,0,14.2,4.08,11.07,10A21,21,0,0,1,22.45,6.7C33.22,6.7,42,14.52,42,24.18a16.18,16.18,0,0,1-3.46,9.94A38.05,38.05,0,0,0,48.19,37C46,34.8,45.24,30.3,45,27.11A16.14,16.14,0,0,0,48.19,17.48Z"/><path class="cls-1" d="M22.62,5.94c-10.94,0-19.8,7.95-19.8,17.75a16.39,16.39,0,0,0,3.27,9.78c-.27,3.24-1.05,7.8-3.27,10,0,0,6.79-1,11.39-3.73a21.64,21.64,0,0,0,8.41,1.68c10.94,0,19.8-7.95,19.8-17.75S33.55,5.94,22.62,5.94Z"/><circle class="cls-2" cx="12.92" cy="23.56" r="2.7"/><circle class="cls-2" cx="22.62" cy="23.56" r="2.7"/><circle class="cls-2" cx="32.33" cy="23.56" r="2.7"/></g></g></svg>