<svg xmlns="http://www.w3.org/2000/svg" viewBox="0 0 102.92 137.74"   width="64px"><defs><style>.cls-1,.cls-2{fill:none;stroke:#354254;stroke-linecap:round;stroke-width:3px;}.cls-1{stroke-linejoin:round;}.cls-2{stroke-miterlimit:10;}.cls-3{fill:#ec6463;}</style></defs><title>i1</title><g id="Слой_2" data-name="Слой 2"><g id="Layer_1" data-name="Layer 1"><path class="cls-1" d="M58.91,89.59l-2.53,2.48a7,7,0,0,1-9.83,0L44,89.59"/><polyline class="cls-2" points="55.3 92.93 63.6 123.38 51.46 135.61 39.32 123.38 47.62 92.93"/><polyline class="cls-2" points="55.3 92.93 63.6 123.38 51.46 135.61 39.32 123.38 47.62 92.93"/><path class="cls-2" d="M71.84,123.09,101.16,117,97.28,97.62a19.14,19.14,0,0,0-6.55-11,15.65,15.65,0,0,0-6.42-3.37L67.73,78.47a3.61,3.61,0,0,1-2.58-3l-.77-6.56a28.26,28.26,0,0,0,9.72-15.28c3-.26,5.23-3.55,5.23-7.7,0-3.84-1.93-6.94-4.57-7.6"/><path class="cls-2" d="M28,38.33c-2.56.73-4.42,3.79-4.42,7.56,0,4.15,2.26,7.43,5.21,7.7a28.38,28.38,0,0,0,9.72,15.28l-.76,6.56a3.6,3.6,0,0,1-2.58,3L18.67,83.27a15.65,15.65,0,0,0-6.48,3.39,19.08,19.08,0,0,0-6.56,11L1.76,117,28,122.46"/><path class="cls-2" d="M29.77,26.53A37.11,37.11,0,0,0,28,38.33"/><path class="cls-2" d="M74.77,38.28a36.92,36.92,0,0,0-1.71-11.82"/><path class="cls-2" d="M73.06,26.46A24,24,0,0,1,59,28.75c-5.24-.58-9.33-3.09-14-5.22-3.24-1.48-7-2.45-10.33-1.23a8.82,8.82,0,0,0-4.9,4.23"/><polyline class="cls-1" points="64.98 73.89 51.46 85.99 37.94 73.89"/><line class="cls-1" x1="73.05" y1="106.42" x2="88.35" y2="103.54"/><path class="cls-2" d="M29.34,27.94V8.74A7.24,7.24,0,0,1,36.58,1.5H65.82a7.24,7.24,0,0,1,7.24,7.24V26.46"/><line class="cls-2" x1="51.2" y1="18.16" x2="51.2" y2="8.03"/><line class="cls-2" x1="46.13" y1="13.1" x2="56.27" y2="13.1"/><path class="cls-3" d="M45.6,121.46l5.86,6.4,5.86-6.4-2.8-10.56a35.27,35.27,0,0,1-7,3.21Z"/></g></g></svg>