<svg xmlns="http://www.w3.org/2000/svg" viewBox="0 0 98 111.88"   width="64px"><defs><style>.cls-1{fill:none;stroke:#354254;stroke-linecap:round;stroke-miterlimit:10;stroke-width:3px;}.cls-2{fill:#ec6463;}</style></defs><title>i2</title><g id="Слой_2" data-name="Слой 2"><g id="Layer_1" data-name="Layer 1"><path class="cls-1" d="M4.85,57.77a2.48,2.48,0,0,0-2.86,2,33.67,33.67,0,0,0-.48,5.75,30.11,30.11,0,0,0,1,8.37,36,36,0,0,0,2.94,7.84,40.78,40.78,0,0,0,7.49,11.31,17.92,17.92,0,0,1,4.77,11.41v1a1.64,1.64,0,0,0,0,.33,4.9,4.9,0,0,0,4.85,4.55H37.13A4.88,4.88,0,0,0,42,105.51v-.83a51.94,51.94,0,0,0,6.56.1v.73a4.88,4.88,0,0,0,4.87,4.87H68a4.88,4.88,0,0,0,4.87-4.87V102A12.07,12.07,0,0,1,77,93.78h0l.63-.55a1.22,1.22,0,0,0,.25-.25c.33-.38,7.66-8.84,10.45-15.35h1.33a6.89,6.89,0,0,0,6.88-6.88V59.86A6.89,6.89,0,0,0,89.62,53H88.14a38.9,38.9,0,0,0-11.36-15.7c-.75-2.69-.2-5.55,1.68-8.54a5.13,5.13,0,0,0-5-7.81c-7.26.9-11.61,4.2-14.14,7.26A47.82,47.82,0,0,0,52,26.75a2.49,2.49,0,0,0-2.76,2.18M7.31,72.6m2.59,7M77,93.78"/><path class="cls-2" d="M4.71,35.34A17.48,17.48,0,1,0,22.19,17.86,17.49,17.49,0,0,0,4.71,35.34Zm30.71,0"/><path class="cls-2" d="M50,8.27a8.27,8.27,0,1,0-8.27,8.27A8.28,8.28,0,0,0,50,8.27Zm-13.67,0"/></g></g></svg>