<svg xmlns="http://www.w3.org/2000/svg" viewBox="0 0 143.26 126.25"   width="89px"><defs><style>.cls-1,.cls-3{fill:none;stroke:#354254;stroke-miterlimit:10;stroke-width:3px;}.cls-2{fill:#ec6463;}.cls-3{stroke-linecap:round;}</style></defs><title>i3</title><g id="Слой_2" data-name="Слой 2"><g id="Layer_1" data-name="Layer 1"><path class="cls-1" d="M64.69,40.23H60.26a2.71,2.71,0,0,0-2.72,2.14,2.61,2.61,0,0,0,.7,2.29,7,7,0,0,1,2.08,4.49v.05a2.78,2.78,0,0,1-.81,2.13l-.88.88a9.29,9.29,0,0,0-2.72,6.57V86.26H87.35V58.78a9.29,9.29,0,0,0-2.72-6.57l-.88-.88a2.78,2.78,0,0,1-.81-2.12h0a7.46,7.46,0,0,1,2.13-4.6,2.61,2.61,0,0,0,.65-2.24A2.71,2.71,0,0,0,83,40.23H78.57"/><path class="cls-2" d="M82,80.89V66.6A6,6,0,0,1,71.77,66a6,6,0,0,1-10.49.14V80.89Z"/><path class="cls-1" d="M77.13,44.58h-11l-2-8.11a1.33,1.33,0,0,1,1.29-1.65H77.87a1.33,1.33,0,0,1,1.29,1.65Z"/><circle class="cls-3" cx="46.48" cy="19.57" r="6.02"/><circle class="cls-3" cx="96.96" cy="19.57" r="6.02" transform="translate(14.56 74.29) rotate(-45)"/><circle class="cls-3" cx="121.92" cy="63.13" r="6.02"/><circle class="cls-3" cx="21.34" cy="63.13" r="6.02"/><circle class="cls-3" cx="46.48" cy="106.68" r="6.02"/><circle class="cls-3" cx="96.96" cy="106.68" r="6.02"/><line class="cls-3" x1="103.25" y1="30.79" x2="115.49" y2="51.99"/><line class="cls-3" x1="59.44" y1="19.57" x2="83.92" y2="19.57"/><line class="cls-3" x1="27.82" y1="51.91" x2="40.05" y2="30.71"/><line class="cls-3" x1="40.01" y1="95.46" x2="27.77" y2="74.26"/><line class="cls-3" x1="83.82" y1="106.68" x2="59.34" y2="106.68"/><line class="cls-3" x1="115.44" y1="74.35" x2="103.21" y2="95.55"/><line class="cls-3" x1="102.98" y1="8.73" x2="107.15" y2="1.5"/><line class="cls-3" x1="40.2" y1="8.78" x2="36.02" y2="1.55"/><line class="cls-3" x1="8.84" y1="63.17" x2="1.5" y2="63.18"/><line class="cls-3" x1="40.28" y1="117.52" x2="36.11" y2="124.75"/><line class="cls-3" x1="103.06" y1="117.48" x2="107.24" y2="124.7"/><line class="cls-3" x1="134.41" y1="63.08" x2="141.76" y2="63.07"/></g></g></svg>