<svg xmlns="http://www.w3.org/2000/svg" viewBox="0 0 104.99 109.39"   width="62px"><defs><style>.cls-1{fill:#ec6463;}.cls-2{fill:none;stroke:#354254;stroke-linecap:round;stroke-linejoin:round;stroke-width:3px;}</style></defs><title>i4</title><g id="Слой_2" data-name="Слой 2"><g id="Layer_1" data-name="Layer 1"><path class="cls-1" d="M54.57,86,46,101.53l16.12,7.86L70.69,96.1l2.12,3.29,6.42,10,16.34-7.8-5.87-11.2L86.94,85.1c.56,1.94-8,7.79-16,7.79A22.52,22.52,0,0,1,54.57,86Z"/><path class="cls-2" d="M70.51,52.29A18.43,18.43,0,1,1,52.08,70.73,18.43,18.43,0,0,1,70.51,52.29Z"/><path class="cls-2" d="M103.49,25.93V69.58a3.89,3.89,0,0,1-3.75,3.75l-9.18.39m-40,0L5.25,73.33A3.81,3.81,0,0,1,1.5,69.58V5.25A3.76,3.76,0,0,1,5.25,1.5H79.06m24.43,24.43H82.81a3.76,3.76,0,0,1-3.75-3.75V1.5l24.43,24.43Zm-88.86-8.1H65.85M14.64,29.53H65.85M14.64,41.23H65.85"/><path class="cls-1" d="M70.51,61.94a8.78,8.78,0,1,1-8.78,8.78,8.78,8.78,0,0,1,8.78-8.78Z"/></g></g></svg>