<svg xmlns="http://www.w3.org/2000/svg" viewBox="0 0 127.48 114.35"   width="62px"><defs><style>.cls-1{fill:none;stroke:#354254;stroke-linecap:round;stroke-miterlimit:10;stroke-width:3px;}.cls-2{fill:#ec6463;}</style></defs><title>i5</title><g id="Слой_2" data-name="Слой 2"><g id="Layer_1" data-name="Layer 1"><polyline class="cls-1" points="47.88 77.18 47.88 96.89 101.25 96.89 101.25 77.18"/><path class="cls-1" d="M122.47,77.18V73.77a4.55,4.55,0,0,0-4.55-4.55H31.21a4.55,4.55,0,0,0-4.55,4.55v3.41"/><line class="cls-1" x1="63.93" y1="48.05" x2="61.65" y2="53.65"/><line class="cls-1" x1="74.56" y1="48.05" x2="74.56" y2="53.65"/><line class="cls-1" x1="85.2" y1="48.05" x2="87.47" y2="53.65"/><path class="cls-1" d="M19.41,22H42.15v8.54H56.61l5,8.13h26l5-8.13H107v-23a6,6,0,0,0-6-6H48.13a6,6,0,0,0-6,6v5.18H17A15.49,15.49,0,0,0,1.5,28.14v84.7H126c0-8.81-6.33-16-14.14-16H26.66"/><path class="cls-2" d="M64,7.8A54.65,54.65,0,0,1,78.09,32.34H84l3.12-5.11,1.84-3h11.7V7.8Z"/></g></g></svg>