<svg xmlns="http://www.w3.org/2000/svg" viewBox="0 0 138.25 127.48"   width="71px"><defs><style>.cls-1,.cls-2{fill:none;stroke:#354254;stroke-linecap:round;stroke-width:3px;}.cls-1{stroke-linejoin:round;}.cls-2{stroke-miterlimit:10;}.cls-3{fill:#ec6463;}</style></defs><title>i6</title><g id="Слой_2" data-name="Слой 2"><g id="Layer_1" data-name="Layer 1"><path class="cls-1" d="M28.87,43.11l.15.09a8.87,8.87,0,0,1,4.13,8.72l-.23,1.75L35.85,64a13.52,13.52,0,0,0,7.32,8.58l6,2.8A27.7,27.7,0,0,1,64.21,93h0a9.59,9.59,0,0,1-6,11.64l-15.36,5.53a5.61,5.61,0,0,0-3.31,7.37L43,126l20-7.3"/><path class="cls-2" d="M36.89,84.4c-.43.06-.86.11-1.27.14a20.75,20.75,0,0,1-18-8.06C8.74,65.15,2,72.23,2,72.23A144.82,144.82,0,0,1,14.28,89.61a26.22,26.22,0,0,0,16.19,12.57l1.31.3a15.25,15.25,0,0,1,10.39,7.85"/><path class="cls-2" d="M8.61,70.13l-3-13.77,8.84-27.15s5.07,1.27,3.76,9l-4,17.66,2.74,11.16"/><path class="cls-2" d="M17.64,32.08,20,24.75s6.57,2.41,4.35,11.16L20.69,55.09l2.93,10.37"/><path class="cls-2" d="M24.81,32.06l.33.25A10,10,0,0,1,29,42.18L26.92,53.53l3,10.56"/><path class="cls-1" d="M109.37,43.11l-.15.09a8.87,8.87,0,0,0-4.13,8.72l.23,1.75L102.4,64a13.52,13.52,0,0,1-7.32,8.58l-6,2.8A27.7,27.7,0,0,0,74,93h0a9.59,9.59,0,0,0,6,11.64l15.36,5.53a5.61,5.61,0,0,1,3.31,7.37L95.29,126l-20-7.3"/><path class="cls-2" d="M101.36,84.4q.65.09,1.27.14a20.75,20.75,0,0,0,18-8.06c8.84-11.33,15.58-4.25,15.58-4.25A144.82,144.82,0,0,0,124,89.61a26.22,26.22,0,0,1-16.19,12.57l-1.31.3a15.25,15.25,0,0,0-10.39,7.85"/><path class="cls-2" d="M129.64,70.13l3-13.77L123.8,29.22s-5.07,1.27-3.76,9l4,17.66-2.74,11.16"/><path class="cls-2" d="M120.61,32.08l-2.37-7.33s-6.57,2.41-4.35,11.16l3.68,19.17-2.93,10.37"/><path class="cls-2" d="M113.44,32.06l-.33.25a10,10,0,0,0-3.91,9.87l2.13,11.36-3,10.56"/><path id="_Контур_" data-name="&lt;Контур&gt;" class="cls-2" d="M69.12,11.69S73.83.83,84.58,1.53a16.46,16.46,0,0,1,13.51,8.84A16.87,16.87,0,0,1,99,23.77a21.79,21.79,0,0,1-2.84,5.69,22.81,22.81,0,0,1-1.5,2,111.69,111.69,0,0,1-11.37,11S71.8,51.55,69.12,57.63C66.45,51.55,55,42.38,55,42.38a111.69,111.69,0,0,1-11.37-11,22.81,22.81,0,0,1-1.5-2,21.78,21.78,0,0,1-2.84-5.69,16.87,16.87,0,0,1,.87-13.4A16.46,16.46,0,0,1,53.67,1.53C64.42.83,69.12,11.69,69.12,11.69Z"/><path class="cls-3" d="M59.88,9.62a8.24,8.24,0,0,0-5.22-1.94l-.59,0a10.29,10.29,0,0,0-8.42,5.51,10.76,10.76,0,0,0-.48,8.65,15.59,15.59,0,0,0,2,4.08,17,17,0,0,0,1.1,1.44c1.2,1.39,3.26,3.53,5.73,5.86A20.88,20.88,0,0,1,59.88,9.62Z"/></g></g></svg>