<svg xmlns="http://www.w3.org/2000/svg" xmlns:xlink="http://www.w3.org/1999/xlink" viewBox="0 0 117.6 133.13"><defs><style>.cls-1,.cls-4{fill:none;}.cls-2{clip-path:url(#clip-path);}.cls-3,.cls-6{fill:#80593b;}.cls-4,.cls-6{stroke:#1f1e21;stroke-linecap:round;stroke-linejoin:round;}.cls-5{clip-path:url(#clip-path-2);}</style><clipPath id="clip-path" transform="translate(0 -6.03)"><path class="cls-1" d="M91.62,23.19C90.81,22.65,42,0,42,0S30.43,20.86,24.64,31.05A34.78,34.78,0,1,1,12.42,90.36l-.87,9.92,43.13,29.66s43.13-1.89,45.29-3,29.39-16.44,30.46-17,8.09-50.14,8.09-50.14S92.43,23.72,91.62,23.19Z"/></clipPath><clipPath id="clip-path-2" transform="translate(0 -6.03)"><circle class="cls-1" cx="35.28" cy="64.16" r="34.78"/></clipPath></defs><title>Ресурс 1</title><g id="Слой_2" data-name="Слой 2"><g id="Layer_1" data-name="Layer 1"><g class="cls-2"><polygon class="cls-3" points="70.4 74.29 20.93 44.62 45.88 0.5 95.36 30.16 70.4 74.29"/><line class="cls-4" x1="55.5" y1="6.32" x2="29.94" y2="49.87"/><line class="cls-4" x1="65.84" y1="12.54" x2="40.28" y2="56.09"/><line class="cls-4" x1="75.97" y1="18.6" x2="50.41" y2="62.15"/><line class="cls-4" x1="85.49" y1="24.54" x2="59.93" y2="68.08"/><polygon class="cls-4" points="70.4 74.29 20.93 44.62 45.88 0.5 95.36 30.16 70.4 74.29"/><polyline class="cls-4" points="70.4 118.5 20.93 88.84 20.93 44.62"/><polyline class="cls-4" points="117.1 48.22 117.1 92.43 70.46 118.5 70.46 74.29 117.1 48.22 95.36 30.16"/><line class="cls-4" x1="70.4" y1="110.41" x2="20.93" y2="80.75"/><line class="cls-4" x1="87.02" y1="101.16" x2="70.46" y2="110.41"/><line class="cls-4" x1="117.1" y1="84.34" x2="103.11" y2="92.16"/><polyline class="cls-4" points="87.1 109.18 87.1 77.4 102.96 68.54 102.96 83.23 102.96 100.31"/><line class="cls-4" x1="35.65" y1="71.42" x2="20.93" y2="62.6"/><line class="cls-4" x1="70.4" y1="92.26" x2="51.89" y2="81.16"/><line class="cls-4" x1="87" y1="83.02" x2="70.46" y2="92.26"/><line class="cls-4" x1="117.1" y1="66.19" x2="103.17" y2="74"/><line class="cls-4" x1="70.4" y1="83.19" x2="20.93" y2="53.52"/><line class="cls-4" x1="117.1" y1="57.11" x2="70.46" y2="83.19"/><line class="cls-4" x1="35.56" y1="80.44" x2="20.93" y2="71.67"/><line class="cls-4" x1="70.4" y1="101.34" x2="52.03" y2="90.32"/><line class="cls-4" x1="87.02" y1="92.09" x2="70.46" y2="101.34"/><line class="cls-4" x1="117.1" y1="75.27" x2="102.93" y2="83.19"/></g><polygon class="cls-4" points="35.61 83.6 51.86 93.34 51.86 76.77 35.61 67.02 35.61 83.6"/><g class="cls-5"><path class="cls-6" d="M48.49,66.5c1-1.67,4.83-3,6.38-4.1s2.23-3.16,1.53-4.55a2.15,2.15,0,0,0-.59-.73,4.14,4.14,0,0,0,1.41-.67c1.68-1.22,2.43-3.44,1.66-5a2.35,2.35,0,0,0-1.65-1.26A7,7,0,0,0,57.75,49c.82-2.68-.06-5.34-2-5.92s-4.13,1.11-5,3.8a7,7,0,0,0-.27,1.33,2.35,2.35,0,0,0-2.07.12c-1.49.83-2.12,3.08-1.41,5a4.15,4.15,0,0,0,.79,1.34,2.2,2.2,0,0,0-.9.27c-1.37.76-1.95,2.83-1.29,4.63s2.84,5.37,2.82,6.93Z" transform="translate(0 -6.03)"/><line class="cls-6" x1="54.81" y1="40.19" x2="48.8" y2="59.76"/><path class="cls-6" d="M55.82,52.95s-3,1.08-4,3.09" transform="translate(0 -6.03)"/><path class="cls-6" d="M50.19,51.22s1.88,2.58,1.6,4.82" transform="translate(0 -6.03)"/><path class="cls-6" d="M54.14,58.43s-3,1.08-4,3.09" transform="translate(0 -6.03)"/><path class="cls-6" d="M48.51,56.7s1.87,2.58,1.6,4.83" transform="translate(0 -6.03)"/><path class="cls-6" d="M57.47,70.46c1.43-1.35,5.43-1.68,7.21-2.37s3-2.5,2.62-4a2.19,2.19,0,0,0-.39-.85,4.12,4.12,0,0,0,1.53-.29c1.94-.76,3.22-2.72,2.85-4.38A2.35,2.35,0,0,0,70,56.91a7,7,0,0,0,.82-1.08c1.47-2.39,1.29-5.18-.42-6.23s-4.27,0-5.75,2.43a7,7,0,0,0-.6,1.22,2.34,2.34,0,0,0-2-.41c-1.65.43-2.82,2.45-2.63,4.52a4.14,4.14,0,0,0,.43,1.49,2.19,2.19,0,0,0-.94,0c-1.52.39-2.59,2.25-2.41,4.15s1.4,5.91,1,7.42Z" transform="translate(0 -6.03)"/><line class="cls-6" x1="68.68" y1="46.39" x2="57.95" y2="63.82"/><path class="cls-6" d="M68,59.19s-3.17.29-4.68,2" transform="translate(0 -6.03)"/><path class="cls-6" d="M63,56.1s1.17,3,.34,5.07" transform="translate(0 -6.03)"/><path class="cls-6" d="M65,64.07s-3.17.29-4.68,2" transform="translate(0 -6.03)"/><path class="cls-6" d="M59.95,61s1.17,3,.34,5.07" transform="translate(0 -6.03)"/><path class="cls-6" d="M62.61,85.39c1.76-.89,5.68,0,7.59-.2s3.54-1.54,3.67-3.1a2.17,2.17,0,0,0-.13-.93,4.13,4.13,0,0,0,1.55.16c2.07-.17,3.86-1.68,4-3.38A2.35,2.35,0,0,0,78.52,76a7.07,7.07,0,0,0,1.1-.8c2.1-1.87,2.72-4.59,1.39-6.09s-4.11-1.19-6.2.68a7.07,7.07,0,0,0-.92,1,2.36,2.36,0,0,0-1.83-1c-1.7-.06-3.41,1.54-3.81,3.58a4.17,4.17,0,0,0,0,1.55,2.18,2.18,0,0,0-.91-.24c-1.57-.06-3.13,1.41-3.5,3.29s-.36,6.06-1.18,7.39Z" transform="translate(0 -6.03)"/><line class="cls-6" x1="78.53" y1="65.29" x2="63.25" y2="78.91"/><path class="cls-6" d="M75.91,77.6s-3.12-.63-5.05.56" transform="translate(0 -6.03)"/><path class="cls-6" d="M72,73.2s.27,3.17-1.13,5" transform="translate(0 -6.03)"/><path class="cls-6" d="M71.63,81.42s-3.12-.63-5.05.56" transform="translate(0 -6.03)"/><path class="cls-6" d="M67.71,77s.27,3.17-1.13,5" transform="translate(0 -6.03)"/><path class="cls-6" d="M54.47,83.42c2-1.26,6.7-.73,8.93-1.14s4-2.24,4-4.1a2.59,2.59,0,0,0-.26-1.08,4.93,4.93,0,0,0,1.84,0c2.43-.45,4.35-2.44,4.31-4.46a2.79,2.79,0,0,0-1.12-2.19,8.28,8.28,0,0,0,1.2-1.07c2.25-2.45,2.66-5.74.91-7.35s-5-.91-7.24,1.54a8.35,8.35,0,0,0-1,1.29,2.79,2.79,0,0,0-2.28-.93c-2,.13-3.84,2.22-4.07,4.67a4.91,4.91,0,0,0,.16,1.83,2.57,2.57,0,0,0-1.1-.17c-1.85.12-3.53,2-3.74,4.29s.3,7.2-.52,8.86Z" transform="translate(0 -6.03)"/><line class="cls-6" x1="71.58" y1="58.9" x2="55.17" y2="76.78"/><path class="cls-6" d="M69.24,72.65s-3.76-.37-5.89,1.26" transform="translate(0 -6.03)"/><path class="cls-6" d="M64.09,67.93s.69,3.71-.75,6" transform="translate(0 -6.03)"/><path class="cls-6" d="M64.64,77.66s-3.76-.37-5.89,1.26" transform="translate(0 -6.03)"/><path class="cls-6" d="M59.49,72.94s.7,3.71-.75,6" transform="translate(0 -6.03)"/><path class="cls-6" d="M53.07,95.66C55.31,95,59.71,96.79,62,97s4.46-1.06,4.93-2.86a2.59,2.59,0,0,0,0-1.11,4.92,4.92,0,0,0,1.77.51c2.45.24,4.86-1.16,5.36-3.11A2.79,2.79,0,0,0,73.59,88a8.22,8.22,0,0,0,1.45-.7c2.84-1.74,4.13-4.79,2.89-6.81s-4.55-2.24-7.38-.5a8.44,8.44,0,0,0-1.28,1,2.79,2.79,0,0,0-1.94-1.52c-2-.43-4.3,1.08-5.2,3.38a4.91,4.91,0,0,0-.35,1.81,2.59,2.59,0,0,0-1-.46c-1.81-.39-4,1-4.77,3.11s-1.68,7-2.92,8.37Z" transform="translate(0 -6.03)"/><line class="cls-6" x1="74.59" y1="76.52" x2="53.91" y2="89.23"/><path class="cls-6" d="M70.22,89.34s-3.51-1.39-6-.4" transform="translate(0 -6.03)"/><path class="cls-6" d="M66.56,83.39s-.35,3.76-2.35,5.55" transform="translate(0 -6.03)"/><path class="cls-6" d="M64.43,92.9s-3.51-1.39-6-.4" transform="translate(0 -6.03)"/><path class="cls-6" d="M60.77,86.95s-.35,3.76-2.35,5.55" transform="translate(0 -6.03)"/><path class="cls-6" d="M51.63,81.11c1.4-2.27,6.52-4.09,8.61-5.62s3-4.3,2-6.19a3,3,0,0,0-.81-1,5.59,5.59,0,0,0,1.9-.92c2.27-1.66,3.26-4.68,2.2-6.74A3.19,3.19,0,0,0,63.31,59a9.44,9.44,0,0,0,.7-1.7c1.09-3.65-.13-7.23-2.72-8s-5.58,1.55-6.68,5.19a9.57,9.57,0,0,0-.35,1.81,3.19,3.19,0,0,0-2.81.18c-2,1.14-2.84,4.2-1.86,6.84a5.61,5.61,0,0,0,1.08,1.81,3,3,0,0,0-1.22.38c-1.85,1-2.61,3.86-1.71,6.28s3.9,7.25,3.88,9.36Z" transform="translate(0 -6.03)"/><line class="cls-6" x1="60" y1="47.54" x2="52.05" y2="74.11"/><path class="cls-6" d="M61.44,62.68S57.39,64.17,56,66.91" transform="translate(0 -6.03)"/><path class="cls-6" d="M53.8,60.38s2.56,3.47,2.21,6.52" transform="translate(0 -6.03)"/><path class="cls-6" d="M59.21,70.12s-4.05,1.49-5.43,4.23" transform="translate(0 -6.03)"/><path class="cls-6" d="M51.57,67.83s2.57,3.47,2.21,6.52" transform="translate(0 -6.03)"/><path class="cls-6" d="M41.93,66.5c-1-1.67-4.83-3-6.38-4.1S33.31,59.25,34,57.85a2.15,2.15,0,0,1,.59-.73,4.13,4.13,0,0,1-1.41-.67c-1.68-1.22-2.43-3.44-1.66-5a2.35,2.35,0,0,1,1.65-1.26A6.92,6.92,0,0,1,32.67,49c-.83-2.68.06-5.34,2-5.92s4.13,1.11,5,3.8a7,7,0,0,1,.27,1.33,2.35,2.35,0,0,1,2.07.12c1.49.83,2.12,3.08,1.41,5a4.15,4.15,0,0,1-.79,1.34,2.2,2.2,0,0,1,.9.27c1.37.76,1.95,2.83,1.29,4.63s-2.84,5.37-2.82,6.93Z" transform="translate(0 -6.03)"/><line class="cls-6" x1="35.61" y1="40.19" x2="41.62" y2="59.76"/><path class="cls-6" d="M34.59,52.95s3,1.08,4,3.09" transform="translate(0 -6.03)"/><path class="cls-6" d="M40.23,51.22s-1.88,2.58-1.6,4.82" transform="translate(0 -6.03)"/><path class="cls-6" d="M36.28,58.43s3,1.08,4,3.09" transform="translate(0 -6.03)"/><path class="cls-6" d="M41.91,56.7s-1.87,2.58-1.6,4.83" transform="translate(0 -6.03)"/><path class="cls-6" d="M45.29,74.21c-.69-2.58-5.07-5.79-6.63-7.85s-1.64-5-.17-6.51a3,3,0,0,1,1.06-.71A5.56,5.56,0,0,1,38,57.72c-1.7-2.25-1.78-5.42-.18-7.08a3.18,3.18,0,0,1,2.64-1,9.47,9.47,0,0,1-.18-1.83c0-3.8,2.2-6.89,4.9-6.89s4.9,3.09,4.9,6.89a9.59,9.59,0,0,1-.18,1.83,3.19,3.19,0,0,1,2.64,1c1.6,1.67,1.52,4.84-.18,7.08a5.61,5.61,0,0,1-1.55,1.42,3,3,0,0,1,1.06.71c1.47,1.53,1.39,4.44-.17,6.51s-5.81,5.83-6.41,7.85Z" transform="translate(0 -6.03)"/><line class="cls-6" x1="45.17" y1="39.39" x2="45.17" y2="67.13"/><path class="cls-6" d="M41.18,53.74s3.45,2.59,4,5.61" transform="translate(0 -6.03)"/><path class="cls-6" d="M49.17,53.74s-3.45,2.59-4,5.61" transform="translate(0 -6.03)"/><path class="cls-6" d="M41.18,61.51s3.45,2.59,4,5.61" transform="translate(0 -6.03)"/><path class="cls-6" d="M49.17,61.51s-3.45,2.59-4,5.61" transform="translate(0 -6.03)"/><path class="cls-6" d="M33,70.46c-1.43-1.35-5.43-1.68-7.21-2.37s-3-2.5-2.62-4a2.21,2.21,0,0,1,.39-.85A4.12,4.12,0,0,1,22,62.93c-1.94-.76-3.22-2.72-2.85-4.38a2.34,2.34,0,0,1,1.28-1.63,7,7,0,0,1-.82-1.08c-1.47-2.39-1.29-5.18.42-6.23s4.28,0,5.75,2.43a7,7,0,0,1,.6,1.22,2.35,2.35,0,0,1,2-.41c1.65.43,2.82,2.45,2.63,4.52a4.15,4.15,0,0,1-.43,1.49,2.19,2.19,0,0,1,.94,0c1.52.39,2.59,2.25,2.41,4.15s-1.4,5.91-1,7.42Z" transform="translate(0 -6.03)"/><line class="cls-6" x1="21.74" y1="46.39" x2="32.47" y2="63.82"/><path class="cls-6" d="M22.45,59.19s3.17.29,4.68,2" transform="translate(0 -6.03)"/><path class="cls-6" d="M27.46,56.1s-1.17,3-.34,5.07" transform="translate(0 -6.03)"/><path class="cls-6" d="M25.45,64.07s3.17.29,4.68,2" transform="translate(0 -6.03)"/><path class="cls-6" d="M30.47,61s-1.17,3-.34,5.07" transform="translate(0 -6.03)"/><path class="cls-6" d="M27.8,85.39c-1.76-.89-5.68,0-7.59-.2s-3.54-1.54-3.67-3.1a2.17,2.17,0,0,1,.13-.93,4.14,4.14,0,0,1-1.55.16c-2.07-.17-3.86-1.68-4-3.38A2.35,2.35,0,0,1,11.9,76a7.07,7.07,0,0,1-1.1-.8c-2.1-1.87-2.72-4.59-1.39-6.09s4.11-1.19,6.2.68a7,7,0,0,1,.92,1,2.36,2.36,0,0,1,1.83-1c1.7-.06,3.41,1.54,3.81,3.58a4.13,4.13,0,0,1,0,1.55,2.19,2.19,0,0,1,.91-.24c1.57-.06,3.13,1.41,3.5,3.29s.36,6.06,1.18,7.39Z" transform="translate(0 -6.03)"/><line class="cls-6" x1="11.89" y1="65.29" x2="27.17" y2="78.91"/><path class="cls-6" d="M14.5,77.6s3.12-.63,5.05.56" transform="translate(0 -6.03)"/><path class="cls-6" d="M18.43,73.2s-.27,3.17,1.13,5" transform="translate(0 -6.03)"/><path class="cls-6" d="M18.79,81.42s3.12-.63,5.05.56" transform="translate(0 -6.03)"/><path class="cls-6" d="M22.71,77s-.27,3.17,1.13,5" transform="translate(0 -6.03)"/><path class="cls-6" d="M36.26,83.42c-2-1.26-6.7-.73-8.93-1.14s-4-2.24-4-4.1a2.59,2.59,0,0,1,.26-1.08,4.93,4.93,0,0,1-1.84,0c-2.43-.45-4.35-2.44-4.31-4.46a2.79,2.79,0,0,1,1.12-2.19,8.33,8.33,0,0,1-1.2-1.07c-2.25-2.45-2.66-5.74-.91-7.35s5-.91,7.24,1.54a8.49,8.49,0,0,1,1,1.29A2.79,2.79,0,0,1,27,63.94c2,.13,3.84,2.22,4.07,4.67a4.91,4.91,0,0,1-.16,1.83,2.57,2.57,0,0,1,1.1-.17c1.85.12,3.53,2,3.74,4.29s-.3,7.2.52,8.86Z" transform="translate(0 -6.03)"/><line class="cls-6" x1="19.16" y1="58.9" x2="35.57" y2="76.78"/><path class="cls-6" d="M21.5,72.65s3.76-.37,5.89,1.26" transform="translate(0 -6.03)"/><path class="cls-6" d="M26.65,67.93s-.69,3.71.75,6" transform="translate(0 -6.03)"/><path class="cls-6" d="M26.1,77.66s3.76-.37,5.89,1.26" transform="translate(0 -6.03)"/><path class="cls-6" d="M31.24,72.94s-.69,3.71.75,6" transform="translate(0 -6.03)"/><path class="cls-6" d="M37.67,95.66C35.42,95,31,96.79,28.77,97s-4.46-1.06-4.93-2.86a2.59,2.59,0,0,1,0-1.11,4.92,4.92,0,0,1-1.77.51c-2.46.24-4.86-1.16-5.36-3.11A2.79,2.79,0,0,1,17.14,88a8.2,8.2,0,0,1-1.45-.7c-2.84-1.74-4.13-4.79-2.89-6.81s4.55-2.24,7.38-.5a8.53,8.53,0,0,1,1.28,1,2.79,2.79,0,0,1,1.94-1.52c2-.43,4.3,1.08,5.2,3.38A4.92,4.92,0,0,1,29,84.64a2.59,2.59,0,0,1,1-.46c1.81-.39,4,1,4.77,3.11s1.68,7,2.92,8.37Z" transform="translate(0 -6.03)"/><line class="cls-6" x1="16.15" y1="76.52" x2="36.83" y2="89.23"/><path class="cls-6" d="M20.52,89.34s3.51-1.39,6-.4" transform="translate(0 -6.03)"/><path class="cls-6" d="M24.17,83.39s.35,3.76,2.36,5.55" transform="translate(0 -6.03)"/><path class="cls-6" d="M26.31,92.9s3.51-1.39,6-.4" transform="translate(0 -6.03)"/><path class="cls-6" d="M30,86.95s.35,3.76,2.35,5.55" transform="translate(0 -6.03)"/><path class="cls-6" d="M39.1,81.11c-1.4-2.27-6.52-4.09-8.61-5.62s-3-4.3-2-6.19a3,3,0,0,1,.81-1,5.59,5.59,0,0,1-1.9-.92c-2.27-1.66-3.26-4.68-2.2-6.74A3.19,3.19,0,0,1,27.42,59a9.4,9.4,0,0,1-.7-1.7c-1.09-3.65.13-7.23,2.72-8s5.58,1.55,6.68,5.19a9.61,9.61,0,0,1,.35,1.81,3.19,3.19,0,0,1,2.81.18c2,1.14,2.84,4.2,1.86,6.84a5.6,5.6,0,0,1-1.08,1.81,3,3,0,0,1,1.22.38c1.85,1,2.61,3.86,1.71,6.28S39.09,79,39.1,81.11Z" transform="translate(0 -6.03)"/><line class="cls-6" x1="30.73" y1="47.54" x2="38.69" y2="74.11"/><path class="cls-6" d="M29.29,62.68s4.05,1.49,5.43,4.23" transform="translate(0 -6.03)"/><path class="cls-6" d="M36.94,60.38s-2.56,3.47-2.22,6.52" transform="translate(0 -6.03)"/><path class="cls-6" d="M31.52,70.12s4.05,1.49,5.43,4.23" transform="translate(0 -6.03)"/><path class="cls-6" d="M39.17,67.83S36.6,71.3,37,74.35" transform="translate(0 -6.03)"/><path class="cls-6" d="M45.19,103.42c-1.92-1.85-7.33-2.33-9.74-3.29s-4-3.42-3.5-5.48a3,3,0,0,1,.54-1.15,5.6,5.6,0,0,1-2.07-.41c-2.62-1-4.32-3.72-3.81-6a3.19,3.19,0,0,1,1.75-2.2,9.44,9.44,0,0,1-1.1-1.47c-2-3.26-1.68-7,.64-8.43s5.79.11,7.76,3.36A9.64,9.64,0,0,1,36.45,80a3.18,3.18,0,0,1,2.76-.53c2.23.6,3.8,3.36,3.51,6.16a5.63,5.63,0,0,1-.59,2,3,3,0,0,1,1.27.06c2,.55,3.49,3.08,3.22,5.66s-2,8-1.43,10Z" transform="translate(0 -6.03)"/><line class="cls-6" x1="30.21" y1="72.8" x2="44.55" y2="96.55"/><path class="cls-6" d="M31.09,88s4.29.43,6.32,2.74" transform="translate(0 -6.03)"/><path class="cls-6" d="M37.92,83.89s-1.62,4-.52,6.87" transform="translate(0 -6.03)"/><path class="cls-6" d="M35.1,94.67s4.29.43,6.32,2.74" transform="translate(0 -6.03)"/><path class="cls-6" d="M41.94,90.54s-1.62,4-.52,6.87" transform="translate(0 -6.03)"/><path class="cls-6" d="M45.55,103.42c1.92-1.85,7.33-2.33,9.74-3.29s4-3.42,3.5-5.48a3,3,0,0,0-.54-1.15,5.6,5.6,0,0,0,2.07-.41c2.62-1,4.32-3.72,3.81-6a3.19,3.19,0,0,0-1.75-2.2,9.41,9.41,0,0,0,1.1-1.47c2-3.26,1.68-7-.64-8.43s-5.79.11-7.76,3.36A9.57,9.57,0,0,0,54.29,80a3.18,3.18,0,0,0-2.77-.53c-2.23.6-3.8,3.36-3.5,6.16a5.62,5.62,0,0,0,.59,2,3,3,0,0,0-1.27.06c-2,.55-3.49,3.08-3.22,5.66s2,8,1.43,10Z" transform="translate(0 -6.03)"/><line class="cls-6" x1="60.52" y1="72.8" x2="46.19" y2="96.55"/><path class="cls-6" d="M59.65,88s-4.29.43-6.32,2.74" transform="translate(0 -6.03)"/><path class="cls-6" d="M52.81,83.89s1.62,4,.52,6.87" transform="translate(0 -6.03)"/><path class="cls-6" d="M55.63,94.67s-4.3.43-6.32,2.74" transform="translate(0 -6.03)"/><path class="cls-6" d="M48.79,90.54s1.62,4,.52,6.87" transform="translate(0 -6.03)"/><path class="cls-6" d="M45.29,103.25c-.69-2.58-5.07-5.79-6.63-7.85s-1.64-5-.17-6.51a3,3,0,0,1,1.06-.71A5.59,5.59,0,0,1,38,86.76c-1.7-2.25-1.78-5.42-.18-7.08a3.18,3.18,0,0,1,2.64-1,9.48,9.48,0,0,1-.18-1.83c0-3.81,2.2-6.89,4.9-6.89s4.9,3.08,4.9,6.89a9.6,9.6,0,0,1-.18,1.83,3.18,3.18,0,0,1,2.64,1c1.6,1.67,1.52,4.84-.18,7.08a5.64,5.64,0,0,1-1.55,1.42,3,3,0,0,1,1.06.71c1.47,1.53,1.39,4.44-.17,6.51s-5.81,5.83-6.41,7.85Z" transform="translate(0 -6.03)"/><line class="cls-6" x1="45.17" y1="68.43" x2="45.17" y2="96.17"/><path class="cls-6" d="M41.18,82.78s3.45,2.59,4,5.61" transform="translate(0 -6.03)"/><path class="cls-6" d="M49.17,82.78s-3.45,2.59-4,5.61" transform="translate(0 -6.03)"/><path class="cls-6" d="M41.18,90.55s3.45,2.59,4,5.61" transform="translate(0 -6.03)"/><path class="cls-6" d="M49.17,90.55s-3.45,2.59-4,5.61" transform="translate(0 -6.03)"/><rect class="cls-4" x="40.74" y="95.59" width="8.93" height="37.04"/><line class="cls-4" x1="40.44" y1="108.26" x2="49.55" y2="108.26"/><line class="cls-4" x1="40.44" y1="112.65" x2="49.55" y2="112.65"/><line class="cls-4" x1="40.44" y1="117.04" x2="49.55" y2="117.04"/><line class="cls-4" x1="40.44" y1="121.42" x2="49.55" y2="121.42"/></g><circle class="cls-4" cx="35.28" cy="58.13" r="34.78"/></g></g></svg>