<svg xmlns="http://www.w3.org/2000/svg" viewBox="0 0 105.82 121.18"><defs><style>.cls-1{fill:#80593b;}.cls-2{fill:none;stroke:#1f1e21;stroke-linecap:round;stroke-linejoin:round;}</style></defs><title>Ресурс 1</title><g id="Слой_2" data-name="Слой 2"><g id="Layer_1" data-name="Layer 1"><polygon class="cls-1" points="54.42 120.68 0.5 88.34 0.5 29.06 54.42 61.39 54.42 120.68"/><polygon class="cls-1" points="54.62 120.68 105.32 92.12 105.32 32.84 54.62 61.39 54.62 120.68"/><polygon class="cls-2" points="54.42 120.68 0.5 88.34 0.5 29.06 54.42 61.39 54.42 120.68"/><polyline class="cls-2" points="51.4 0.5 105.32 32.84 105.32 92.12"/><line class="cls-2" x1="51.96" y1="9.22" x2="89.38" y2="31.75"/><line class="cls-2" x1="15.94" y1="29.49" x2="53.33" y2="51.89"/><line class="cls-2" x1="105.32" y1="32.9" x2="54.48" y2="61.32"/><line class="cls-2" x1="54.48" y1="120.68" x2="105.32" y2="92.26"/><line class="cls-2" x1="54.42" y1="109.35" x2="0.5" y2="77.02"/><line class="cls-2" x1="54.48" y1="109.35" x2="105.32" y2="80.93"/><line class="cls-2" x1="54.42" y1="72.35" x2="0.5" y2="40.02"/><line class="cls-2" x1="54.48" y1="72.35" x2="105.32" y2="43.93"/><line class="cls-2" x1="54.42" y1="84.69" x2="0.5" y2="52.35"/><line class="cls-2" x1="54.48" y1="84.69" x2="105.32" y2="56.27"/><line class="cls-2" x1="54.42" y1="97.02" x2="0.5" y2="64.68"/><line class="cls-2" x1="54.48" y1="97.02" x2="105.32" y2="68.6"/><line class="cls-2" x1="51.34" y1="0.5" x2="0.5" y2="28.92"/><line class="cls-2" x1="96.65" y1="27.8" x2="45.81" y2="56.22"/><line class="cls-2" x1="58.94" y1="5.28" x2="8.1" y2="33.7"/><path class="cls-2" d="M30.63,27.4"/><line class="cls-2" x1="51.96" y1="9.22" x2="51.96" y2="50.71"/></g></g></svg>